<svg width="930" height="310" viewBox="0 0 930 310" fill="none" xmlns="http://www.w3.org/2000/svg">
<path d="M922.56 90.6605C933.026 109.69 930.492 129.609 916.72 149.491C902.913 169.423 877.843 189.243 843.426 207.812C774.614 244.938 668.796 276.873 542.27 294.763C415.754 312.652 292.576 313.099 195.714 299.373C147.281 292.51 105.462 282.108 73.1066 268.592C40.7208 255.064 17.9646 238.477 7.43965 219.34C-3.02627 200.31 -0.491652 180.391 13.2802 160.509C27.0873 140.577 52.1572 120.757 86.574 102.188C155.386 65.0619 261.204 33.1269 387.73 15.2366C514.246 -2.65237 637.424 -3.09925 734.286 10.6266C782.719 17.4899 824.538 27.8918 856.893 41.4076C889.279 54.9363 912.035 71.5232 922.56 90.6605Z" fill="#F08D86" stroke="#FACE6F" stroke-width="2"/>
</svg>
