<svg width="167" height="28" viewBox="0 0 167 28" fill="none" xmlns="http://www.w3.org/2000/svg">
<g clip-path="url(#clip0)">
<path d="M159.394 15.152C159.531 15.152 159.649 15.0349 159.669 14.8982C159.806 11.0711 162.903 7.98605 166.746 7.84937C166.883 7.84937 167.001 7.73222 167.001 7.57601C167.001 7.43933 166.883 7.32218 166.746 7.30265C162.903 7.16597 159.806 4.08089 159.669 0.253835C159.669 0.117155 159.551 0 159.394 0C159.257 0 159.139 0.117155 159.12 0.253835C158.982 4.08089 155.885 7.16597 152.042 7.30265C151.905 7.30265 151.787 7.4198 151.787 7.57601C151.787 7.71269 151.905 7.82985 152.042 7.84937C155.885 7.98605 158.982 11.0711 159.12 14.8982C159.139 15.0349 159.257 15.152 159.394 15.152Z" fill="#FACE6F"/>
<path d="M16.4687 8.90319C18.0567 10.1333 19.135 11.7735 19.7232 13.8237C19.8016 14.0775 19.6055 14.3314 19.3507 14.3314H15.7629C15.606 14.3314 15.4688 14.2337 15.41 14.0971C14.959 13.1012 14.2924 12.3007 13.4102 11.6954C12.4495 11.051 11.3124 10.7191 9.97922 10.7191C8.88131 10.7191 7.90103 10.9924 7.01878 11.5392C6.13653 12.0859 5.45034 12.8669 4.9602 13.8823C4.47006 14.8976 4.21519 16.0887 4.21519 17.4555C4.21519 18.8028 4.45046 19.9938 4.9602 21.0092C5.45034 22.0245 6.13653 22.8056 7.01878 23.3523C7.90103 23.899 8.88131 24.1724 9.97922 24.1724C11.3124 24.1724 12.4495 23.8404 13.4102 23.1961C14.2924 22.5908 14.959 21.7902 15.41 20.7944C15.4688 20.6577 15.606 20.5601 15.7629 20.5601H19.3507C19.6055 20.5601 19.8016 20.8139 19.7232 21.0678C19.135 23.118 18.0567 24.7581 16.4687 25.9883C14.763 27.316 12.6064 27.9799 10.038 27.9799C8.05788 27.9799 6.31298 27.5308 4.78375 26.6521C3.25452 25.7735 2.07819 24.5238 1.25475 22.9227C0.411716 21.3021 0 19.4862 0 17.4555C0 15.4053 0.411716 13.5894 1.25475 11.9883C2.07819 10.3871 3.25452 9.1375 4.76415 8.25884C6.27377 7.38018 8.03827 6.93108 10.038 6.93108C12.6064 6.91156 14.763 7.57543 16.4687 8.90319Z" fill="black"/>
<path d="M27.1153 6.50184V27.3945C27.1153 27.6092 26.9388 27.785 26.7232 27.785H23.3706C23.155 27.785 22.9785 27.6092 22.9785 27.3945V6.50184C22.9785 6.28706 23.155 6.11133 23.3706 6.11133H26.7232C26.9388 6.11133 27.1153 6.28706 27.1153 6.50184Z" fill="black"/>
<path d="M58.6598 12.321C59.64 12.9654 60.3458 13.844 60.7576 14.9375V11.95C60.7576 11.7352 60.934 11.5595 61.1497 11.5595H64.4826C64.6983 11.5595 64.8747 11.7352 64.8747 11.95V27.3949C64.8747 27.6097 64.6983 27.7855 64.4826 27.7855H61.1497C60.934 27.7855 60.7576 27.6097 60.7576 27.3949V24.388C60.3458 25.4814 59.64 26.3601 58.6598 27.0044C57.6795 27.6683 56.5032 27.9807 55.1308 27.9807C53.7584 27.9807 52.5232 27.6488 51.4253 26.9849C50.3274 26.321 49.4648 25.3643 48.857 24.0951C48.2296 22.8259 47.9355 21.3615 47.9355 19.6627C47.9355 17.964 48.2492 16.48 48.857 15.2304C49.4648 13.9807 50.3274 13.0044 51.4253 12.3405C52.5232 11.6767 53.7584 11.3447 55.1308 11.3447C56.5032 11.3643 57.6795 11.6767 58.6598 12.321ZM53.3075 16.2262C52.5232 17.0658 52.1311 18.2178 52.1311 19.6822C52.1311 21.1467 52.5232 22.2987 53.3075 23.1188C54.0917 23.9584 55.1308 24.3684 56.4247 24.3684C57.6795 24.3684 58.7186 23.9389 59.5224 23.0993C60.3262 22.2597 60.738 21.1076 60.738 19.6822C60.738 18.2373 60.3262 17.0853 59.5224 16.2457C58.699 15.3866 57.6795 14.9765 56.4247 14.9765C55.1308 14.957 54.0917 15.3866 53.3075 16.2262Z" fill="black"/>
<path d="M82.4406 13.1792C83.5581 14.4093 84.107 16.1276 84.107 18.3535V27.394C84.107 27.6087 83.9306 27.7845 83.7149 27.7845H80.382C80.1663 27.7845 79.9899 27.6087 79.9899 27.394V18.8221C79.9899 17.5334 79.6566 16.5376 78.99 15.8152C78.3234 15.1122 77.4019 14.7412 76.2452 14.7412C75.0689 14.7412 74.1278 15.1318 73.422 15.8737C72.7162 16.6352 72.3633 17.7287 72.3633 19.1541V27.3744C72.3633 27.5892 72.1869 27.7649 71.9712 27.7649H68.6187C68.403 27.7649 68.2266 27.5892 68.2266 27.3744V11.949C68.2266 11.7343 68.403 11.5585 68.6187 11.5585H71.9908C72.2065 11.5585 72.3829 11.7343 72.3829 11.949V14.7998C72.8143 13.7064 73.5201 12.8472 74.5199 12.2419C75.5002 11.6366 76.6569 11.3242 77.9509 11.3242C79.8134 11.3242 81.3231 11.949 82.4406 13.1792Z" fill="black"/>
<path d="M100.498 7.49794V9.99724C100.498 10.212 100.322 10.3878 100.106 10.3878H94.7737V27.3947C94.7737 27.6095 94.5972 27.7852 94.3816 27.7852H91.0094C90.7938 27.7852 90.6173 27.6095 90.6173 27.3947V10.3878H85.3042C85.0886 10.3878 84.9121 10.212 84.9121 9.99724V7.49794C84.9121 7.28315 85.0886 7.10742 85.3042 7.10742H100.106C100.322 7.10742 100.498 7.28315 100.498 7.49794Z" fill="black"/>
<path d="M117.005 13.1797C118.123 14.4098 118.672 16.1281 118.672 18.354V27.3945C118.672 27.6092 118.495 27.785 118.279 27.785H114.947C114.731 27.785 114.554 27.6092 114.554 27.3945V18.8226C114.554 17.5339 114.221 16.5381 113.555 15.8156C112.888 15.1127 111.966 14.7417 110.81 14.7417C109.633 14.7417 108.692 15.1322 107.987 15.8742C107.281 16.6357 106.928 17.7292 106.928 19.1546V27.3749C106.928 27.5897 106.751 27.7654 106.536 27.7654H103.164C102.948 27.7654 102.771 27.5897 102.771 27.3749V6.48231C102.771 6.26753 102.948 6.0918 103.164 6.0918H106.536C106.751 6.0918 106.928 6.26753 106.928 6.48231V14.7808C107.359 13.6873 108.065 12.8282 109.065 12.2229C110.045 11.6176 111.202 11.3052 112.496 11.3052C114.378 11.3247 115.888 11.9495 117.005 13.1797Z" fill="black"/>
<path d="M131.847 12.321C132.828 12.9654 133.514 13.844 133.925 14.9375V11.95C133.925 11.7352 134.102 11.5595 134.318 11.5595H137.651C137.866 11.5595 138.043 11.7352 138.043 11.95V27.3949C138.043 27.6097 137.866 27.7855 137.651 27.7855H134.318C134.102 27.7855 133.925 27.6097 133.925 27.3949V24.388C133.514 25.4814 132.808 26.3601 131.847 27.0044C130.867 27.6683 129.691 27.9807 128.318 27.9807C126.946 27.9807 125.711 27.6488 124.613 26.9849C123.515 26.321 122.652 25.3643 122.045 24.0951C121.437 22.8259 121.123 21.3615 121.123 19.6627C121.123 17.964 121.437 16.48 122.045 15.2304C122.672 13.9807 123.515 13.0044 124.613 12.3405C125.711 11.6767 126.946 11.3447 128.318 11.3447C129.691 11.3643 130.867 11.6767 131.847 12.321ZM126.495 16.2262C125.711 17.0658 125.319 18.2178 125.319 19.6822C125.319 21.1467 125.711 22.2987 126.495 23.1188C127.279 23.9584 128.318 24.3684 129.612 24.3684C130.867 24.3684 131.906 23.9389 132.71 23.0993C133.514 22.2597 133.925 21.1076 133.925 19.6822C133.925 18.2373 133.514 17.0853 132.71 16.2457C131.887 15.3866 130.867 14.9765 129.612 14.9765C128.318 14.957 127.279 15.3866 126.495 16.2262Z" fill="black"/>
<path d="M150.511 24.6407V27.4134C150.511 27.6282 150.334 27.8039 150.119 27.8039H148.335C146.511 27.8039 145.119 27.3744 144.139 26.4762C143.159 25.578 142.688 24.1331 142.688 22.0829V15.0536H140.806C140.591 15.0536 140.414 14.8778 140.414 14.6631V11.949C140.414 11.7342 140.591 11.5585 140.806 11.5585H142.688V7.94618C142.688 7.7314 142.865 7.55566 143.08 7.55566H146.453C146.668 7.55566 146.845 7.7314 146.845 7.94618V11.578H149.903C150.217 11.578 150.491 11.8318 150.491 12.1638V14.6826C150.491 14.8974 150.315 15.0731 150.099 15.0731H146.845V22.161C146.845 22.942 147.002 23.4887 147.315 23.8011C147.629 24.1135 148.158 24.2698 148.903 24.2698H150.119C150.334 24.2502 150.511 24.426 150.511 24.6407Z" fill="black"/>
<path d="M45.9947 19.0574C45.9947 17.5735 45.6614 16.2457 45.0144 15.0937C44.3478 13.9417 43.4263 13.024 42.2304 12.3601C41.0149 11.6962 39.6229 11.3643 38.0152 11.3643C36.4272 11.3643 35.0156 11.6962 33.7804 12.3601C32.5453 13.024 31.5846 13.9807 30.8984 15.2499C30.2122 16.5191 29.8789 17.9835 29.8789 19.6823C29.8789 21.381 30.2122 22.865 30.8984 24.0951C31.5846 25.3447 32.5453 26.3015 33.7804 26.9849C35.0156 27.6683 36.4272 28.0002 38.0152 28.0002C39.368 28.0002 40.6031 27.7464 41.701 27.2387C42.799 26.7311 43.7204 26.0281 44.4262 25.13C45.034 24.3684 45.4457 23.5093 45.7006 22.5721C45.7594 22.3182 45.5829 22.0839 45.3281 22.0839H41.7403C41.5638 22.0839 41.407 22.2011 41.3678 22.3573C41.1717 23.0212 40.7796 23.5679 40.211 23.9779C39.564 24.4466 38.7798 24.6809 37.8192 24.6809C36.7408 24.6809 35.839 24.3489 35.1136 23.6655C34.3882 22.9821 33.9961 21.9277 33.9373 20.4828H45.5437C45.7398 20.4828 45.8966 20.3461 45.9358 20.1509C45.9751 19.7408 45.9947 19.3894 45.9947 19.0574ZM37.9956 14.6055C39.0935 14.6055 40.015 14.957 40.7796 15.6209C41.4854 16.2652 41.8383 17.2025 41.8187 18.4326H33.9176C34.0353 17.2025 34.447 16.2848 35.1528 15.6209C35.937 14.957 36.8781 14.6055 37.9956 14.6055Z" fill="black"/>
</g>
<defs>
<clipPath id="clip0">
<rect width="167" height="28" fill="white"/>
</clipPath>
</defs>
</svg>
