<svg xmlns="http://www.w3.org/2000/svg" viewBox="0 0 277.03 276.01"><defs><style>.cls-1{fill:#fff;}.cls-2{fill:#202020;}.cls-3{fill:#1933d3;fill-rule:evenodd;}.cls-4{fill:#bbcef1;}.cls-5{fill:#e4ebf9;}.cls-6{fill:#dde3e9;}</style></defs><g id="Layer_2" data-name="Layer 2"><g id="Layer_1-2" data-name="Layer 1"><path class="cls-1" d="M245.51,120.11c1.52,4,.4,7.74-1.77,11.27a6,6,0,0,0-1,2.93c-.39,6.61-4.17,11.26-10.72,13.22a3.77,3.77,0,0,0-2.19,1.61c-5.65,8.14-15,9.75-23,3.94"/><path class="cls-2" d="M240.22,134c.1,0,.22-.23.23.17a15.45,15.45,0,0,1-.49,2.38l.14.1a6.26,6.26,0,0,1-.38.93,7.1,7.1,0,0,1-.47.91,11.3,11.3,0,0,1-1.91,3.16c.07,0,.12,0,0,.15a5.66,5.66,0,0,1-.65.64c-.27.21-.56.44-.87.66l-.26.21a.18.18,0,0,0,0,.18,6.57,6.57,0,0,1-.83.47,15.41,15.41,0,0,1-2.59,1.44l-.73.31a6.91,6.91,0,0,0-1.1.53,5.55,5.55,0,0,0-1.74,1.74,17.87,17.87,0,0,1-4.24,5.07l-1.13.93c-.41.26-.82.51-1.24.75a12.64,12.64,0,0,1-4.43.93c.13.29-.65.51-1.42.73s-1.52.28-1.19.61c-1-.12-2.45-.5-2.56-.4-.34.37-1.33.84-4-.18-1.05-.43-2.3-1.59-2.69-1.71-.59-.22,1,1.08.4.87a17.5,17.5,0,0,0,23.35-2c.22-.28.61-.76,1.14-1.38l1.48-2a1.12,1.12,0,0,1,.46-.35l.2-.08.44-.16.94-.33a20,20,0,0,0,3.81-2,15.75,15.75,0,0,0,5.61-6.56,18.87,18.87,0,0,0,1.5-5.82l0-.45a3.79,3.79,0,0,1,.24-1.13,10.32,10.32,0,0,1,.75-1.42,14.66,14.66,0,0,0,1.46-3.68,12.71,12.71,0,0,0,.24-3.26,8.63,8.63,0,0,1-.47,1.29,7,7,0,0,0,.16-2.54c-.15-1.15-.37-1.35-.49-1.2s-.25.7-.44,1.1c-.16.58-.42-.18-.62.68a8.92,8.92,0,0,0,0-1.55c-.08,0,0,.44,0,.88s0,.82-.14.6a7.23,7.23,0,0,0-.12-1.85c-.11.12,0,.64-.06,1.12s-.05.93-.15.87c0-.3.27-1.68,0-1.77a5,5,0,0,0,0,.86,4.09,4.09,0,0,0-.49-1.79c-.19-.23-.24,0-.26.75a7.24,7.24,0,0,0-.4-1.84h0c.08.28.19.76.24,1a8.3,8.3,0,0,0-.27-.94l0,.2q.07.38.15.72a4.27,4.27,0,0,0-.18-.61l-.08.58a18.11,18.11,0,0,1-.14,1.82,10.1,10.1,0,0,1-1.09,4.51,22.46,22.46,0,0,1-1.28,2.28A8.45,8.45,0,0,0,240.22,134Z"/><path class="cls-2" d="M175.73,13.06c0,.1.11.21-.09.24-.62.06-1.17-.22-1.81,0v.17a6.25,6.25,0,0,0-1.54.33,6,6,0,0,0-2.14,2c.06,0,.11,0,.07.12a12.26,12.26,0,0,0-.74,1.32,2.33,2.33,0,0,0-.07.25.21.21,0,0,0,.1.12l-.22.65a5.7,5.7,0,0,0,1,3.83,5.35,5.35,0,0,0,3.11,2.13,7.83,7.83,0,0,0,1.54,0,6.15,6.15,0,0,0,2.25-.33c-.17-.25.1-.58.23-.94s.2-.67-.08-.82c.26-.19.6-.56.47-.68a3.09,3.09,0,0,1-.78-1.38c0-.18.2-.45.11-.52s-.36.22-.51.1a1.66,1.66,0,0,1-.86,1.11,1.28,1.28,0,0,1-1.42-.17.87.87,0,0,1-.5-.41A1.5,1.5,0,0,1,173.7,19a1.57,1.57,0,0,1,.75-1,1.32,1.32,0,0,1,.86-.17h.07a6.91,6.91,0,0,1,1.26.33,2.45,2.45,0,0,1,.72.22l.09-.4c.13.22.23.44.35.5.41.46.62.12.88-.3.08-.27.45-.09.46-.49a4.79,4.79,0,0,1,.21.64c.2,0-.37-.76,0-.68,0,.27.25.52.31.81.21-.16-.24-1-.05-1,.15.14,0,.89.29.87.06,0,0-.3-.07-.44a5.05,5.05,0,0,0,.48.92c.12.13.27,0,.32-.48.07.34,0,.83,0,1.18h0a4.71,4.71,0,0,0,0-.65c0,.2,0,.41,0,.61l.11-.11a1.88,1.88,0,0,0,0-.48,3,3,0,0,1,0,.42,2.73,2.73,0,0,0,.23-.38,3.4,3.4,0,0,0,.14-1.41A6.2,6.2,0,0,0,175.73,13.06Z"/><path class="cls-2" d="M271.51,105.85c0,.1.12.2-.09.24-.62.06-1.17-.23-1.8,0v.17a6.22,6.22,0,0,0-1.54.32,6,6,0,0,0-2.14,2c.07,0,.12,0,.08.13a11.26,11.26,0,0,0-.75,1.32l-.06.24a.19.19,0,0,0,.09.13l-.22.65a5.81,5.81,0,0,0,1,3.83,5.38,5.38,0,0,0,3.11,2.13,8.76,8.76,0,0,0,1.55,0,6.06,6.06,0,0,0,2.24-.32c-.16-.25.1-.59.24-.94s.19-.68-.08-.83c.26-.18.59-.55.46-.67a3.19,3.19,0,0,1-.78-1.38c0-.18.21-.45.12-.53s-.36.23-.51.11a1.69,1.69,0,0,1-.87,1.11,1.27,1.27,0,0,1-1.41-.18.78.78,0,0,1-.5-.41,1.47,1.47,0,0,1-.17-1.12,1.58,1.58,0,0,1,.76-1,1.31,1.31,0,0,1,.86-.17h.07a8.08,8.08,0,0,1,1.25.34,2.51,2.51,0,0,1,.73.22l.08-.41c.13.22.23.45.36.51.4.45.62.12.88-.31.07-.26.44-.08.45-.49a3.83,3.83,0,0,1,.22.65c.19,0-.37-.76-.06-.69.06.27.25.53.31.81.22-.15-.24-1,0-1,.14.14,0,.89.29.87.05,0,0-.3-.07-.45a4.59,4.59,0,0,0,.47.92c.13.14.27,0,.32-.47.07.34,0,.82.05,1.17h0c0-.18,0-.49,0-.65,0,.2,0,.4,0,.61a.57.57,0,0,0,.11-.11,2,2,0,0,0,0-.48c0,.14,0,.28,0,.42a2.73,2.73,0,0,0,.23-.38,3.58,3.58,0,0,0,.13-1.42A6.19,6.19,0,0,0,271.51,105.85Z"/><path class="cls-2" d="M202.21,0s.07.08-.06.1a3.76,3.76,0,0,0-1.11,0l0,.07a4.15,4.15,0,0,0-.93.25,3.83,3.83,0,0,0-1.34,1.22s.05,0,0,.06a5,5,0,0,0-.46.82l0,.15a.08.08,0,0,0,0,.07c-.05.15-.09.29-.13.42a3.63,3.63,0,0,0,2.5,4,4.11,4.11,0,0,0,1,.09A3.73,3.73,0,0,0,203.26,7c-.08-.1.13-.27.27-.48s.25-.39.1-.42c.21-.15.47-.46.43-.51s-.16-.45-.09-1a2.15,2.15,0,0,0,.1-.61c-.06-.12-.15.27-.21.14a2,2,0,0,1-1.21,1.63,1.89,1.89,0,0,1-2-.32,1.6,1.6,0,0,1-.55-.64,2,2,0,0,1,.83-2.61A1.83,1.83,0,0,1,202,1.93h.08a3,3,0,0,1,1.42.55,2.47,2.47,0,0,1,.52.41c0-.1,0-.21-.05-.31.13.2.23.42.29.49.25.45.29.16.36-.11s.19,0,.14-.29a3,3,0,0,1,.17.47c.09,0-.24-.56-.1-.47a5,5,0,0,1,.21.58c.09-.1-.19-.69-.11-.69s.1.59.21.6a.87.87,0,0,0-.07-.3c.24.6.34,1,.37.34a6.66,6.66,0,0,1,.05.78h0a2.94,2.94,0,0,0,0-.42c0,.13,0,.26,0,.4l0-.07a1.71,1.71,0,0,0,0-.32,2.62,2.62,0,0,1,0,.28.81.81,0,0,0,.09-.25,2.66,2.66,0,0,0,0-.86A3.86,3.86,0,0,0,202.21,0Z"/><path class="cls-2" d="M185.13,39.28c0,.11.18.22-.14.25a9.28,9.28,0,0,0-2.78.09l0,.17a9.83,9.83,0,0,0-2.33.62,9.45,9.45,0,0,0-3.33,3c.07,0,.12,0,0,.15a15.17,15.17,0,0,0-1.15,2c0,.13-.07.25-.1.38a.19.19,0,0,0,.07.17c-.14.37-.22.72-.32,1a9.24,9.24,0,0,0,1.32,6.11,8.81,8.81,0,0,0,4.9,3.76,10.49,10.49,0,0,0,2.58.21,9.42,9.42,0,0,0,3.87-.6c-.19-.24.34-.68.7-1.18s.6-1,.23-1.06c.53-.39,1.18-1.14,1.06-1.29-.32-.41-.38-1.1-.23-2.46a5,5,0,0,0,.26-1.52c-.14-.3-.38.67-.52.36a5.09,5.09,0,0,1-3,4.06,4.74,4.74,0,0,1-5-.8,3.77,3.77,0,0,1-1.36-1.59,5,5,0,0,1-.31-3.55,5.05,5.05,0,0,1,2.36-3,4.69,4.69,0,0,1,2.61-.61h.21a7.13,7.13,0,0,1,3.53,1.37,6.71,6.71,0,0,1,1.3,1c0-.26-.08-.53-.13-.76.32.5.56,1,.73,1.21.35.55.48.68.61.55a2,2,0,0,0,.28-.82c0-.45.49,0,.36-.71a6,6,0,0,1,.41,1.17c.23,0-.6-1.41-.23-1.19.14.47.42,1,.52,1.45.22-.24-.47-1.71-.29-1.71.22.23.26,1.47.52,1.49.06,0-.06-.51-.16-.76.32.76.5,1.38.64,1.61s.28.08.28-.74a17.19,17.19,0,0,1,.13,1.92h0c0-.29,0-.8,0-1.07,0,.33,0,.67,0,1a1.42,1.42,0,0,0,.11-.18,5,5,0,0,0,0-.78c0,.23,0,.46,0,.68a4.52,4.52,0,0,0,.22-.6,6.52,6.52,0,0,0,0-2.16,9.64,9.64,0,0,0-8.51-6.81Z"/><g id="Background-Shape-2"><g id="Background-Shape"><path class="cls-3" d="M22.38,70C55,47.18,128.44,103.17,148,172.9S106.58,293,61.48,270.66C-14.87,232.88-10.27,92.78,22.38,70Z"/></g></g><path class="cls-1" d="M183.94,55.69c1.35-3.51,4.19-5.34,7.58-6.46a5.48,5.48,0,0,0,2.3-1.4,12,12,0,0,1,14.36-2.75,3.14,3.14,0,0,0,2.31.16c8.24-2.22,15.09,1.95,16.78,10.24a3,3,0,0,0,1.59,2.28,12.17,12.17,0,0,1,3.95,3.54,2,2,0,0,0,1.84,1,11.76,11.76,0,0,1,11.62,15.61,2.45,2.45,0,0,0,.12,2.13,12,12,0,0,1,1.46,7.32"/><path class="cls-2" d="M202.71,46.39c0-.1-.25-.21.15-.24a10.72,10.72,0,0,1,3.49.84l.14-.11.71.35a6,6,0,0,0,1.48.51,5.69,5.69,0,0,0,1.69.06,7.06,7.06,0,0,0,.74-.13l.43-.06a12.79,12.79,0,0,1,5.85-.22c0-.07,0-.13.14-.1a8.15,8.15,0,0,1,2.75,1.21l.42.26a.25.25,0,0,0,.23,0,9.89,9.89,0,0,1,1,1,10.63,10.63,0,0,1,2.34,3,16.37,16.37,0,0,1,.82,1.86l.31,1,.19.65a4.61,4.61,0,0,0,.31.79,4.5,4.5,0,0,0,1.14,1.51,5.75,5.75,0,0,0,1.3.79,9.92,9.92,0,0,1,1.72,1.15,12,12,0,0,1,1.55,1.56,4.37,4.37,0,0,0,1.35,1.2,3.23,3.23,0,0,0,1.81.33l1.16-.05c.38,0,.77.06,1.18.08a9.72,9.72,0,0,1,4.15,1.31,10.24,10.24,0,0,1,2.54,2.4,11.3,11.3,0,0,1,1.59,3c.11-.12.32.08.58.45a10.92,10.92,0,0,1,.66,1.5c.4,1.13.54,2.27.85,1.71a15.82,15.82,0,0,1-.24,2.55,5.1,5.1,0,0,0-.26,1.46,6.75,6.75,0,0,0,.58,1c.16.22.24.09.74.82a10.43,10.43,0,0,1,1.25,2.61,11.11,11.11,0,0,1,.4,3c0,1-.11,1.83-.09,2.14s.18,0,.31-.64.2-1.18.28-.66a14.41,14.41,0,0,0-.61-4.74,13.94,13.94,0,0,0-.9-2.22l-.24-.46c0-.06,0,0,0,0h0s0,.15.09-.33l.31-1.15a16.76,16.76,0,0,0,.37-2.34,14.5,14.5,0,0,0-.49-4.73,13.93,13.93,0,0,0-2-4.3,16.43,16.43,0,0,0-1.48-1.85,14.89,14.89,0,0,0-1.8-1.57,13.65,13.65,0,0,0-4.24-2.18,13.8,13.8,0,0,0-2.36-.51,7,7,0,0,0-1.2-.11h-1.1v0l-.28-.36a19.71,19.71,0,0,0-2.05-2.07A14.8,14.8,0,0,0,230.66,56c-.18-.11-.37-.21-.56-.31l-.16-.09-.07,0-.13-.11a1.54,1.54,0,0,1-.16-.42c-.11-.45-.23-.91-.35-1.37a18.18,18.18,0,0,0-1.12-2.92,15.23,15.23,0,0,0-4.26-5.35,14.34,14.34,0,0,0-6.46-2.77,17.3,17.3,0,0,0-6.42.2l-1.23.28a.73.73,0,0,1-.36,0s-1.11-.47-1.8-.69a15.77,15.77,0,0,0-3.88-.86,6,6,0,0,0-.74,0,13,13,0,0,0-6.81,1.68,14.1,14.1,0,0,0-2.72,2c-.41.35-.73.73-1.08,1.08a4.35,4.35,0,0,1-.55.57,5.21,5.21,0,0,1-1.52.86,19.36,19.36,0,0,0-2.12,1.19,13.2,13.2,0,0,1,2-.57,10.86,10.86,0,0,0-3.38,1.86c-1.34,1.16-1.43,1.6-1.19,1.53s1-.49,1.6-.68c.83-.37,0,.5,1.22-.08a10.77,10.77,0,0,0-1.93,1.44c0,.1.53-.44,1.08-.83s1.06-.7.84-.42a8.59,8.59,0,0,0-2.2,1.84,17.26,17.26,0,0,0,1.37-1c.61-.44,1.23-.76,1.22-.63-.2.14-.8.42-1.3.77s-.93.73-.89.89.67-.57,1-.84a5.71,5.71,0,0,0-1.77,2.24c-.11.41.1.22.95-.6a7.52,7.52,0,0,0-1.53,2.4h0A9.65,9.65,0,0,1,186,54.8a8.54,8.54,0,0,0-.68,1.31l.21-.19c.17-.33.36-.64.56-1a8.68,8.68,0,0,0-.46.85l.6-.6a10.15,10.15,0,0,1,2.06-1.75,11.7,11.7,0,0,1,3.3-1.71l1.09-.36a8.82,8.82,0,0,0,1.46-.7,8.33,8.33,0,0,0,1.31-1l.74-.7A9.58,9.58,0,0,1,202.71,46.39Z"/><path class="cls-1" d="M148.68,74.44a3,3,0,0,0,2-1.93,12.23,12.23,0,0,1,2.89-4.44,2,2,0,0,0,.74-2A11.76,11.76,0,0,1,168,52.21a2.42,2.42,0,0,0,2.09-.45,12,12,0,0,1,7-2.56"/><path class="cls-2" d="M156.92,66.19c-.1,0-.18.26-.27-.15,0-.17-.05-.3-.08-.44l0-.22v-.26l0-.34a4,4,0,0,0,0-.69l-.16,0a6.16,6.16,0,0,1,.29-1.31l0-.62.13-.61a7.34,7.34,0,0,1,.32-1.2c-.07,0-.12,0-.11-.1a5.39,5.39,0,0,1,.61-1.19l.1-.2a.23.23,0,0,0-.06-.14c.14-.19.27-.35.39-.49a10,10,0,0,1,6.4-4.93l.48-.18.48-.11a8.75,8.75,0,0,1,1-.17,13.36,13.36,0,0,1,1.61.19,3.2,3.2,0,0,0,2.09-.3c-.12-.11,0-.29.09-.53s.25-.47.4-.71c.3-.48.64-.92.27-1,.6-.37,1.56-.78,1.55-.95,0-.49.24-1.34,2.21-2.08a20.08,20.08,0,0,1,2.3-.24c.43-.19-1.06-.28-.63-.46a13.61,13.61,0,0,0-4.51,1,12.68,12.68,0,0,0-2.07,1.07c-.32.2-.65.43-.93.64l-.33.25h0s.13,0-.4,0a13.48,13.48,0,0,0-2.29-.14,15.14,15.14,0,0,0-4.6.77c-.24.13-.65.33-1.2.58A18.72,18.72,0,0,0,158.14,52a14.84,14.84,0,0,0-4.07,4.22A14.15,14.15,0,0,0,152,62a15.06,15.06,0,0,0,.08,4.34s0,0,0-.08v0a.4.4,0,0,1,0,.15l-.05.07v0l-.11.12-.25.28A10.67,10.67,0,0,0,150,69.26a10.89,10.89,0,0,0-.63,2.23,7.27,7.27,0,0,1,.64-.74,8.79,8.79,0,0,0-.43,1,3.93,3.93,0,0,0-.12.39.62.62,0,0,0,0,.18c-.08.45-.08.59.09.65a1.22,1.22,0,0,0,.73-.21c.31-.27.35.32.75-.2a3.76,3.76,0,0,1-.58,1c.05.08.27-.25.41-.56s.23-.58.3-.39a4.58,4.58,0,0,1-.77,1.34c.15,0,.49-.33.7-.71.11-.19.19-.37.26-.5s.12-.16.16-.12a2.88,2.88,0,0,1-.42.72c-.21.3-.44.54-.38.67s.41-.39.53-.65a7,7,0,0,1-1.1,1.55c-.17.21,0,.35.86-.18a6.07,6.07,0,0,1-1.83,1h0a5.44,5.44,0,0,0,1-.41,7.83,7.83,0,0,1-.94.44l.2,0a3.63,3.63,0,0,0,.76-.3,5.44,5.44,0,0,1-.65.31,2.79,2.79,0,0,0,.68,0,4.13,4.13,0,0,0,2.18-1.52,4.56,4.56,0,0,0,.39-.76l.21-.46c.11-.24.23-.47.36-.7A11.11,11.11,0,0,1,154.3,71c.17-.21.35-.42.54-.62l.29-.3.36-.37A4.51,4.51,0,0,0,156.92,66.19Z"/><path class="cls-4" d="M220.59,115.47c-4.34-.87-11.38,4.88-16.13,12.1s-20.77,18-20.77,18l31.95-3.16s8.33-16.79,10.29-20.88S224.92,116.34,220.59,115.47Z"/><path class="cls-2" d="M198.59,130.47c.06.08.4-.1,0,.33-1.2,1.31-2.5,2-3.81,3.27v.21c-1.11.85-2.3,1.71-3.52,2.57l-1.86,1.46c-1.08.84-2.21,1.67-3.32,2.49-2.22,1.64-4.65,3.28-7.06,4.94.31-.13.52-.21.1.1-1.11.78-2.59,1.77-4.22,2.84.27,0,.42,0,.74,0l.88-.08,1.84-.16,1.45-.18a4.84,4.84,0,0,0,.83-.21l3.64-.32L190,147l2.75-.33,1.08-.14.76-.11,6.18-.88,12.87-1.83.73-.13,1-.15a6.67,6.67,0,0,0,.93-.17l.39-.9,1.2-2.79c1.14-2.45,2.76-5.5,3.94-7.86-.69.11,1.9-5.78.8-4.88a27.82,27.82,0,0,0,1.89-4.13,3,3,0,0,1,0-1.77,6.08,6.08,0,0,0,.14-1.41.68.68,0,0,0-.47-.68,8.13,8.13,0,0,0-2-.88,11.43,11.43,0,0,0-2-.47c-.51,0,.06.18.58.38s1,.41.56.38a12.34,12.34,0,0,1,2,.64c.12.06.26.12.34.17a.81.81,0,0,1,.23.16l.08,0s0,0,0,0,0,0,0,0a3.52,3.52,0,0,1-.12.44,1.94,1.94,0,0,1-.14.37c-.06.14-.09.23-.2.45l-.56,1.12q-2.21,4.5-4.4,9l-4.39,9L214,140h0l0,0h0l-.58.06-1.26.13-5.08.51c-1.28.2-4.64.59-9,1.07l-3.43.37-1.59.17-.22,0-.5.07-.28,0h-.14s-.12,0,0,0l.64-.47.32-.25,2.11-1.65c2.8-2.22,5-4.21,6.39-5.48l.55-.53c.41-.39.83-.82,1.24-1.26s.85-.87,1.25-1.36.83-.95,1.21-1.51.81-1.12,1.08-1.55a55.28,55.28,0,0,1,3.66-4.92,32.39,32.39,0,0,1,3.27-3.66c-.65.4-1.26.78-1.77,1.13,1.25-1.13,2.61-2.1,3.09-2.51,1.42-1,1.74-1.25,1.46-1.31a7,7,0,0,0-1.81.44c-1,.42.06-.6-1.38.2a18.73,18.73,0,0,1,2.54-1.55,4.72,4.72,0,0,0-1.48.79c-.71.44-1.3.9-1,.54a21.29,21.29,0,0,1,3.16-1.85,6.38,6.38,0,0,0-2.06.9c-.84.49-1.56,1-1.55.88a11.38,11.38,0,0,1,1.69-1,5.3,5.3,0,0,0,1.46-.85,7.39,7.39,0,0,0-1.62.79,22.05,22.05,0,0,1,3.58-1.84c.6-.2.14-.4-1.66.14a9.1,9.1,0,0,1,4.71-.59h0a7.24,7.24,0,0,0-2.75,0,6.19,6.19,0,0,1,1.25-.16,6.05,6.05,0,0,1,1.33.08l-.46-.17a4.33,4.33,0,0,0-1,0,5.25,5.25,0,0,0-1,.1,4.49,4.49,0,0,1,.84-.1,6.56,6.56,0,0,1,.89,0,7.12,7.12,0,0,0-1.53-.16,12.32,12.32,0,0,0-4.63,1.33,33.08,33.08,0,0,0-8.65,7.51c-.61.72-1.18,1.47-1.74,2.23s-1.12,1.6-1.55,2.15A30.51,30.51,0,0,1,198.59,130.47Z"/><path class="cls-2" d="M242.14,83.07c-.07.09.93.49-.68.06a13.38,13.38,0,0,0-6.94.43c-.49.16-1,.37-1.46.53a8,8,0,0,1-.93.3c-.14,0-.15,0-.16,0h0s0,0-.07,0a.67.67,0,0,1-.2,0,16.93,16.93,0,0,1-1-1.74,16.93,16.93,0,0,0-1.43-2.33c-.27-.37-.54-.76-.82-1.13l-.94-1a19.07,19.07,0,0,0-2.07-1.94,20.54,20.54,0,0,0-19.81-3c.19,0,.28,0-.35.28s-1.37.63-2.11,1-1.51.88-2.25,1.44l-1.11.89q-.48.38-1,.78a5.75,5.75,0,0,1-1.68,1,4.06,4.06,0,0,1-1,.28,1,1,0,0,0-.42.17,12,12,0,0,1-2-.1c-.71-.08-1.53-.13-2.24-.19a27.25,27.25,0,0,0-14.08,3.15,26.17,26.17,0,0,0-10.27,10.33,25.46,25.46,0,0,0-2.91,14.44c.09,2.46,1.09,5.1,1.16,7a3.79,3.79,0,0,1-.88,2.58,7.43,7.43,0,0,1-1.14,1.09l-.76.64-.72.7a13,13,0,0,0-3.19,5.87,16,16,0,0,0-.11,6.42,17,17,0,0,0,4.39,9A16.71,16.71,0,0,0,167.2,143a15,15,0,0,0,4.67,1.38c-.11-.08,0-.13.34-.16l.59,0,.81-.08,1-.08,1.07-.2a14.18,14.18,0,0,0,2.23-.6,20.4,20.4,0,0,0,2-.87c.59-.33,1.08-.67,1.46-.92.74-.52,1-.85.29-.6,3.32-2,8.3-4.95,8.47-5.25.52-.88,2.79-2.9,11.42-8.44,3.41-2.13,8.79-5.13,10-5.94,1.82-1.29-4.64,2.38-2.81,1.1L189.62,133.7l-4.72,2.84L182.54,138l-1.18.71a13.07,13.07,0,0,1-1.14.66,14.58,14.58,0,0,1-4.32,1.57,13.08,13.08,0,0,1-4.5-.06,11.78,11.78,0,0,1-7.34-4.85,13.33,13.33,0,0,1-1.13-2c-.17-.34-.27-.72-.42-1.08l-.2-.54-.13-.57-.27-1.14c-.06-.39-.13-.78-.16-1.17a11.91,11.91,0,0,1,0-2.31,9.5,9.5,0,0,1,1.3-4.14,10.09,10.09,0,0,1,1.35-1.73c.27-.26.53-.53.83-.77l.45-.36c.23-.19.46-.36.68-.56a7.85,7.85,0,0,0,2.78-7.16,13.51,13.51,0,0,0-.28-1.67l-.09-.4-.06-.31-.11-.63-.23-1.25a6,6,0,0,1-.16-1.26c0-.57-.12-1.35-.18-2.32,0-.48.06-1,.09-1.57a9.26,9.26,0,0,1,.19-1.83,20.59,20.59,0,0,1,3.43-8.79,21.61,21.61,0,0,1,9.35-7.57l.75-.34.8-.24,1.61-.5c.54-.14,1.11-.21,1.67-.32a9.68,9.68,0,0,1,1.7-.25,21.5,21.5,0,0,1,3.5-.06l1.76.11c.68.07,1.41.15,2.19.16a9.86,9.86,0,0,0,4.84-1.11,11.24,11.24,0,0,0,2-1.36l.43-.38.34-.27.66-.53a15.14,15.14,0,0,1,6-2.84,15.66,15.66,0,0,1,6.5-.06,15.89,15.89,0,0,1,5.7,2.41,15.05,15.05,0,0,1,4.09,4c.14.18.28.35.4.54l.34.58.66,1.15a10.29,10.29,0,0,0,1,1.56l.32.4c.14.15.3.31.45.45a5.22,5.22,0,0,0,1,.72,4.51,4.51,0,0,0,2.38.47,7.29,7.29,0,0,0,1.87-.41c1.06-.39,1.54-.64,2.15-.83a8.35,8.35,0,0,1,3-.46l.59,0,.57.11a7.6,7.6,0,0,1,4.4,3.58,12.36,12.36,0,0,1,.82,1.46,7.67,7.67,0,0,1,.54,1.42,6.92,6.92,0,0,1,.16,2.89,8,8,0,0,1-3.07,4.87,11.92,11.92,0,0,1-1.24.89l-1.45.91-2.72,1.73-9.5,6.27,4.28-2.25c-3.32,2-6.64,4-7.85,4.83-6.93,4.47-2.78,2.31.13,1,2-1-.46.79,2.69-.9l-5.53,3.31c-.17.29,6.75-4.17,5.36-3-2.16,1.23-4.48,2.75-6.69,4.07.88-.27,7.68-4.54,7.45-4.15-1.16.76-6.35,3.49-6.63,4-.06.1,2.15-1.23,3.26-1.89-6.75,4.17-10.36,6.65-4,3.16-2.15,1.29-5.26,3-7.51,4.44h0l4.18-2.44-3.89,2.33.74-.32c1-.55,2-1.11,3-1.72l-2.58,1.55c.69-.31,1.48-.68,2.33-1.11,3.15-1.69,6.21-3.24,7.87-4.23l10.07-6,5-3,2.52-1.5,1.25-.75.63-.38.71-.45a13.84,13.84,0,0,0,4.79-5.2A11.47,11.47,0,0,0,251,93.7a14.19,14.19,0,0,0-1.18-3.45,18.36,18.36,0,0,0-1.8-2.88,12.72,12.72,0,0,0-2.53-2.55A10.16,10.16,0,0,0,242.14,83.07Z"/><path class="cls-5" d="M107.84,193.69c17.48-12.71,42.9-27.24,43.54-28.39a16.85,16.85,0,0,0,2-5.58,15.81,15.81,0,0,1,4.31-8.41,23.19,23.19,0,0,1,5.82-3.88c1.25-.32,2.49-.71,3.76-.94a5.43,5.43,0,0,0,3.24-1.89,24.41,24.41,0,0,1,6.38-5.42,14.74,14.74,0,0,0,7.28-9.11c1.28-4.4,3.05-8.65,4.56-13a10.12,10.12,0,0,1,2.22-4,11.74,11.74,0,0,1,3.48-1.08l3.26,1.16a2.69,2.69,0,0,0,1.2,1.29s-.06.09,0,.12c1.31,3.46-.62,6.4-1.59,9.46s-2.19,6.3-3.3,9.45a15.72,15.72,0,0,0-.71,5c0,1.34,5.47,3.93,13.07,2.33,1.45-.3,14.6-23.3,17.81-24.35s2.28,3.88,2.28,3.88-13.43,28-15.14,32a11.7,11.7,0,0,1-6.1,6.16,101.86,101.86,0,0,0-18.41,10.69c-3.43,2.61-5.8,6.1-8.13,9.64-1.76,2.68-25.87,15.23-45.7,36.36C106,243.79,102.24,242.8,98,240"/><path class="cls-2" d="M179.9,140.3c0-.12-1.26.67.55-.72a17.81,17.81,0,0,0,5.8-8.2c.23-.68.45-1.36.68-2s.45-1.31.69-2c.48-1.35,1-2.73,1.51-4.19v-.48c.44-1.15.89-2.3,1.34-3.46.21-.58.43-1.17.65-1.75a12.58,12.58,0,0,1,.63-1.45,6.39,6.39,0,0,1,.36-.58l.18-.25.09-.1s0,0,0,0h0c.17-.07.45-.18.67-.25s.48-.14.73-.2l.33-.07h0s0,0,.05,0l.91.33,1.26.45a0,0,0,0,1,0,0h0l.12.38a4,4,0,0,1,.16,1,6.52,6.52,0,0,1-.37,2.29c-.25.86-.65,1.81-1.05,2.86l-.29.82-.27.82-.52,1.49q-1,3-2.05,6l-.51,1.49a13.43,13.43,0,0,0-.5,1.84,15,15,0,0,0-.27,1.83c-.06.64-.08,1-.11,2.21a4.12,4.12,0,0,0,.06.52c0-.23,0-.4,0-.3s0,.16.09.37l0,.17v.05c.1,0,0,0,.06,0l0,.11a1.28,1.28,0,0,0,.19.51,5.3,5.3,0,0,0,2.07,1.92,11.85,11.85,0,0,0,1.93.85,19.44,19.44,0,0,0,4.08.85,24.83,24.83,0,0,0,4.4,0c.76-.09,1.44-.15,2.3-.32a4.24,4.24,0,0,0,.95-.22l.23-.08,0,0c0-.11,0,0,0-.07l.11-.06a2.1,2.1,0,0,0,.41-.24,3.21,3.21,0,0,0,.72-.66,2.67,2.67,0,0,0,.32-.36l.2-.25c.56-.74,1-1.45,1.5-2.15a2.93,2.93,0,0,0,.41-.84l3.84-5.78c1.85-2.92,3.69-5.83,5.62-8.66.48-.7,1-1.4,1.46-2.08l1-1.32a3.15,3.15,0,0,1,.43-.47c.18-.11.46-.16.59,0a1.31,1.31,0,0,1-.06,1.28l-2.17,4.74q-2.21,4.81-4.45,9.69l-4.49,9.81-2.28,5-.57,1.24a10.14,10.14,0,0,1-.53,1.1,9.74,9.74,0,0,1-1.38,2,10.09,10.09,0,0,1-1.85,1.58,17,17,0,0,1-2.26,1.25q-2.51,1.23-5,2.56a95.07,95.07,0,0,0-9.79,5.92c-1.33,1-2.62,1.9-3.9,3a27.57,27.57,0,0,0-3.38,3.64c-1,1.29-1.93,2.62-2.79,4l-.65,1a4.57,4.57,0,0,1-.63.88,3.23,3.23,0,0,1-.32.33l-.43.35c-.29.24-.57.47-.89.69-3.69,2.64-8.14,5.45-12.42,8.41s-8.5,6-12,8.76c.72-.2-3.2,3.12-6.64,6.39-1.73,1.62-3.33,3.26-4.31,4.27s-1.24,1.53-.36.89a142.64,142.64,0,0,0-10.68,11,23.53,23.53,0,0,1-3.3,4.48,130.2,130.2,0,0,1-11.49,11.84c-1.2,1-2.57,2.21-4.09,3.32a29.67,29.67,0,0,1-4.91,3,9,9,0,0,1-5.76.9,10.81,10.81,0,0,1-1.21-.38c-.35-.14-.63-.3-.91-.44-.53-.27-.86-.5-1.14-.66-.74-.44-.7-.36-.28,0,.19.15.59.42,1,.7a8.6,8.6,0,0,0,1.72.86,8.21,8.21,0,0,0,2.07.46c.63,0,1.19,0,1.57,0s.55-.09.53-.06a2.38,2.38,0,0,1-.87.22,7.69,7.69,0,0,0,1.43-.3l.69-.19.6-.25c.4-.17.81-.33,1.19-.51l1.06-.59a22.73,22.73,0,0,0,2-1.25c.66-.43,1.27-.88,1.86-1.34,2.42-1.8,4.58-3.76,6.75-5.71,4.27-3.94,8.29-8,12.27-12.14s7.75-8.22,11.84-12,8.4-7.37,12.82-10.8,9-6.68,13.68-9.85l7.08-4.75c.6-.41,1.2-.81,1.81-1.25l.91-.66,1-.77a6.19,6.19,0,0,0,.61-.59c.21-.23.45-.5.61-.71l.58-.88,1.17-1.73a29.83,29.83,0,0,1,5.17-5.92c.47-.38,1-.8,1.59-1.21s1.11-.81,1.69-1.2c1.14-.78,2.3-1.54,3.5-2.26,2.38-1.46,4.85-2.8,7.38-4.09,1.27-.64,2.55-1.26,3.84-1.88a22.52,22.52,0,0,0,2.15-1.12,14.92,14.92,0,0,0,2.12-1.55,14.39,14.39,0,0,0,3.54-5l3.27-7c2.53-5.4,5.7-12.14,9.24-19.7.45-.94.9-1.9,1.35-2.87.34-.72.69-1.45,1-2.18a5.37,5.37,0,0,0,.25-.7,5.78,5.78,0,0,0,.12-.66,9.56,9.56,0,0,0,.08-1.34,4.94,4.94,0,0,0-1.85-4.25,3.67,3.67,0,0,0-2.28-.58,4.38,4.38,0,0,0-2.18.72l-.55.37a4.12,4.12,0,0,0-.55.49l-.55.53-.52.6c-.35.4-.73.83-1,1.22l-.55.72c-.73,1-1.42,1.93-2.1,2.91-1.36,2-2.68,4-4,6s-2.62,4-3.94,6.06c-.66,1-1.32,2-2,3-.33.48-.67,1-1,1.42l-.25.33-.18.23a.73.73,0,0,1-.08.09l-.15,0a7.58,7.58,0,0,1-.81.13c-.55.07-1.09.14-1.64.16a17.48,17.48,0,0,1-3.24-.09,13.21,13.21,0,0,1-3-.7,5.19,5.19,0,0,1-.63-.27l-.13-.07h0l-.05,0a.22.22,0,0,1-.1-.21c0,.12,0-.64.07-1.06a11.38,11.38,0,0,1,.22-1.38c.05-.22.1-.44.16-.64l.1-.31.13-.38.55-1.57c.72-2.07,1.43-4.13,2.14-6.16l.52-1.51c.15-.44.31-.89.5-1.37.36-.94.78-2,1.12-3.11a11.2,11.2,0,0,0,.48-3.81,9.48,9.48,0,0,0-.37-2l-.15-.47s-.06-.07,0-.12.07,0,.06,0h0l0,0,0,0c0-.07-.07-.17-.11-.26a2.12,2.12,0,0,0-1-.94l-.71-.71c-.25-.25-.42-.44-.72-.7l-2.62-.93-1.12-.39a9.08,9.08,0,0,0-1.15.16c-.45.09-.58.12-.85.19l-.72.2a12.38,12.38,0,0,0-1.39.53,7.35,7.35,0,0,0-1,.51c-.26.27-.53.55-.76.83a10.87,10.87,0,0,0-1.55,2.6c-1.1,3-2.15,5.81-3.11,8.42-.48,1.3-.93,2.56-1.34,3.78-.19.62-.39,1.22-.57,1.8-.09.29-.18.58-.26.86s-.14.48-.23.71a12.44,12.44,0,0,1-4.11,5.71c-.31.24-.64.48-1,.7l-.53.32-.6.35a23.13,23.13,0,0,0-2.66,1.82,27.13,27.13,0,0,0-2.39,2.15c-.38.37-.75.76-1.1,1.15l-.53.59a4.58,4.58,0,0,1-.36.38,3,3,0,0,1-1.53.79l-3,.75-.87.22a1.68,1.68,0,0,0-.63.23l-.49.27-1.33.74a24.22,24.22,0,0,0-2.78,1.77,14,14,0,0,0-2.51,2.4,18.88,18.88,0,0,0-1.92,2.7,17.26,17.26,0,0,0-2.18,6.11,14.64,14.64,0,0,1-1.46,4.45c-.07.14,0,.12-.21.25s-.62.45-.94.67l-2,1.33L132,175.78l6.48-3.7c-5.1,3.13-10.16,6.31-12,7.64-10.58,7.13-4.35,3.44,0,1.12,3.06-1.75-.81,1,3.94-1.78-3.36,2.12-5,3.19-8.39,5.36-.31.36,10.27-6.7,8.09-5-3.27,2-6.83,4.39-10.14,6.57,1.24-.61,11.61-7.4,11.22-6.87-1.8,1.17-9.57,5.77-10.05,6.43-.1.13,3.23-2,4.91-3.11-5.13,3.34-9,6.07-10.45,7.18s-.46.59,4.26-2.38c-3.23,2.13-7.81,5.13-11.09,7.56h0c1.65-1.2,4.56-3.17,6.12-4.23-1.91,1.3-3.82,2.63-5.7,4l1.06-.62,4.35-3-3.79,2.63,3.37-2.05c4.61-3,9.16-5.62,11.66-7.23,5.06-3.23,10.18-6.39,15.32-9.54l7.73-4.75,1.95-1.24,1-.66.53-.37a6.67,6.67,0,0,0,.78-.69l.18-.21,0,0s0,0,0,0l0,0,.08-.12.28-.46.34-.64q.28-.57.54-1.17a20.24,20.24,0,0,0,.85-2.45c.11-.43.21-.85.3-1.28l.2-1.08a12.4,12.4,0,0,1,.53-1.8,13.36,13.36,0,0,1,1.84-3.32,18,18,0,0,1,1.27-1.48,8.81,8.81,0,0,1,1.37-1.14c.51-.36,1.09-.71,1.71-1.06l1.76-1c.1-.05-.06,0,.12,0l.52-.13,1-.26,1.05-.26.52-.14c.22,0,.51-.1.76-.17a7.71,7.71,0,0,0,2.95-1.53,10.14,10.14,0,0,0,1.09-1.08l.71-.78a24,24,0,0,1,3-2.74,17.38,17.38,0,0,1,1.64-1.1l1-.59C179.19,140.78,179.55,140.56,179.9,140.3Z"/><path class="cls-5" d="M82.4,174.57c8.2-14.46,15.63-27.52,21.94-23.91,6.89,3.94,13.75-3,20.89-6.75,8.67-4.51,13-9,15.3-13.49,11.26-7,15.09-15.62,22.83-19.3,9.26-4.42,14.92-10.68,14.35-12.36-2.21-6.52-22.2,7.27-30,5.13,6.7-10.43,14.75-16,22.62-20.27,1.43-.79,9.26-5.76,16.93-10.46,13.81-8.46,10.82-13.37,1.17-10.54C180.58,64.94,170,70,166.21,71.85,150.91,79.16,122.76,102,105.66,114S72.9,130.66,31.51,185.15"/><path class="cls-2" d="M161.1,115.55c0-.1-1.13.6.47-.65a17.41,17.41,0,0,1,1.92-1.25l1-.53,1.16-.56c1.53-.76,3-1.57,4.42-2.45a43.61,43.61,0,0,0,4.16-2.93,26.33,26.33,0,0,0,4-3.89l.24-.56c.14-.16.43-.59.68-1a8,8,0,0,0,.62-1.2,3.85,3.85,0,0,0,.19-2.57,5.35,5.35,0,0,0-1.74-2.36A5.11,5.11,0,0,0,176.8,95a5.76,5.76,0,0,0-1.57-.32,7.19,7.19,0,0,0-1.28,0c-.37,0-.7.06-1.06.1a19.06,19.06,0,0,0-1.94.36,64.9,64.9,0,0,0-7.07,2.24c-2.89,1.1-5.7,2.24-8.49,3.12-.69.22-1.38.43-2.06.6l-.4.11c-.05,0-.18,0-.18,0l.08-.13,0,0v0l.13-.16c.33-.43.67-.86,1-1.26a48.37,48.37,0,0,1,4.46-4.7c-.24.14-.37.18.36-.52a48.5,48.5,0,0,1,5.83-4.55c1.14-.78,2.37-1.55,3.65-2.31l2-1.13c.67-.37,1.35-.74,2-1.17l2.38-1.5a4.66,4.66,0,0,0,.81-.65l6.65-4.06,5-3.14c1.64-1,3.38-2.11,5-3.33a27.5,27.5,0,0,0,4.69-4.28,11.51,11.51,0,0,0,1.07-1.53,6.33,6.33,0,0,0,.79-2.37,3.66,3.66,0,0,0-.52-2.33,4.23,4.23,0,0,0-1.85-1.54,8,8,0,0,0-2.34-.51,12.67,12.67,0,0,0-1.76,0,20.61,20.61,0,0,0-3.22.59c-2,.57-3.9,1.24-5.8,2-3.77,1.44-7.45,3.06-11.11,4.77-1.83.85-3.65,1.74-5.47,2.63-.9.43-1.82.92-2.74,1.4l-1.37.73-1.34.78c-3.58,2.06-7,4.35-10.42,6.69-6.83,4.71-13.55,9.74-20.36,14.91-5.72,4.44-11.4,8.91-17,13.1-4.14,3.09-8.86,6.55-13.77,9.67s-9.85,6.24-13.94,9.23c.79-.23-3.76,3.32-7.7,6.92-2,1.81-3.81,3.57-4.9,4.73s-1.44,1.68-.45.95c-1.22,1.15-2.61,2.41-4,3.73l-3.87,3.9c-2.38,2.45-4.12,4.43-4.25,4.67a40.65,40.65,0,0,1-3.59,5L45.58,170.66c-4.36,5.39-11,13.75-12.43,15.74-2.23,3.15,5.79-6.91,3.55-3.76,7.91-10.19,16-20.09,24.59-29.39,2.17-2.3,4.3-4.63,6.56-6.83s4.5-4.4,6.79-6.55a154,154,0,0,1,14.59-11.78c5.1-3.64,10.52-6.89,15.89-10.55s10.45-7.51,15.6-11.35c10.28-7.68,20.52-15.5,31.21-22.78,1.2-.85,3-2.07,5.33-3.59,1.15-.75,2.46-1.54,3.87-2.43s3-1.76,4.63-2.59,3.55-1.76,5.48-2.69,4-1.86,6.18-2.8,4.41-1.87,6.75-2.76a48.34,48.34,0,0,1,7.14-2.21,12.67,12.67,0,0,1,1.69-.19c.14,0,.26,0,.39,0h.32l.23,0a.23.23,0,0,1,.15.35,6.19,6.19,0,0,1-.71,1,16.24,16.24,0,0,1-1.3,1.34,32.67,32.67,0,0,1-3.17,2.5c-1.14.81-2.31,1.54-3.56,2.32L181.59,74c-2.52,1.55-5.05,3.13-7.6,4.71l-3.82,2.37c-.63.4-1.29.78-2,1.15l-2,1.16a70.24,70.24,0,0,0-7.7,5.26A58.17,58.17,0,0,0,151.73,95c-.53.56-1,1.16-1.51,1.73-.25.29-.48.59-.72.89l-1,1.27c-1.54,2.15-3,4.28-4.43,6.46l.61.2.86.17,1.59.31a11.64,11.64,0,0,0,3.33.26l.93-.06c.32,0,.66-.11,1-.16l1-.17.49-.1.39-.1c.76-.18,1.49-.39,2.21-.61,2.86-.88,5.48-1.92,8-2.88a75.89,75.89,0,0,1,7.21-2.49c.57-.15,1.12-.27,1.64-.36a8.52,8.52,0,0,1,1.36-.12.39.39,0,0,1,.4.23.26.26,0,0,1,0,.21l-.06.09-.26.33a18.71,18.71,0,0,1-1.82,2,36.43,36.43,0,0,1-4,3.24,44.71,44.71,0,0,1-3.87,2.4c-.61.35-1.21.65-1.78.94l-.84.41-.93.48a24.85,24.85,0,0,0-2.61,1.67c-3.73,2.73-6.61,6.22-9.71,9.3-1.55,1.55-3.15,3-4.82,4.41l-1.27,1-1.31,1c-.43.33-.88.61-1.33.91l-.8.53-.67.44c-.13.06-.17.19-.24.3l-.18.35-.31.58a3.37,3.37,0,0,1-.19.32l-.38.65c-.27.42-.55.83-.85,1.23a23.58,23.58,0,0,1-1.95,2.29,32.85,32.85,0,0,1-4.57,3.87,53.56,53.56,0,0,1-4.93,3.09l-2.54,1.43c-.83.5-1.63,1-2.39,1.48a54.08,54.08,0,0,1-8.12,4.86,9.91,9.91,0,0,1-4.06.89l-1-.1-1-.26c-.31-.12-.62-.27-.93-.4l-.26-.11-.37-.18a3.94,3.94,0,0,0-.77-.29,4,4,0,0,1,.7.29l.59.31.83.44a7.5,7.5,0,0,0,1.7.5,8.17,8.17,0,0,0,3.38-.16,8.29,8.29,0,0,1-4.24.14,9.78,9.78,0,0,1-1-.31l-.9-.43a6,6,0,0,0-2.7-.79,6.22,6.22,0,0,0-2.49.45,9.64,9.64,0,0,0-1.82,1A13.56,13.56,0,0,0,95.85,152a30.05,30.05,0,0,0-2.92,3.45c-.69.94-1.16,1.65-1.47,2.15-.63,1-.65,1.18-.32.84A60,60,0,0,1,96,153.21c1.49-1.34,1.34-1,1.35-.87s.06.07.43-.15a14.8,14.8,0,0,1,2.37-1.36,13.78,13.78,0,0,0-4.25,3.36,43.8,43.8,0,0,0-3.45,4.35c-.07.27,1.82-2.61,4-4.83a13.91,13.91,0,0,1,3-2.42c.76-.41,1-.47.41-.1a16.6,16.6,0,0,0-4.83,4.35,66.59,66.59,0,0,0-4,5.53c.52-.57,2.61-3.83,5-6.44a15.75,15.75,0,0,1,3.44-3c1-.57,1.64-.68,1.5-.59a9,9,0,0,0-2.36,1.29,21.43,21.43,0,0,0-3,2.85A26.84,26.84,0,0,0,92,160.09c-.06.16,2.44-3.5,3.93-5.09a55.44,55.44,0,0,0-5.1,7.17c-1.27,2.07-2.17,3.68-2.64,4.58-.92,1.83-.24.77,3.18-4.42-2.34,3.61-5.47,8.9-7.71,12.93l0,0L87.87,168c-1.3,2.26-2.6,4.53-3.91,6.79l.78-1.14,3-5.12L85.15,173l2.43-3.72a113.76,113.76,0,0,1,8.64-12.42,21.32,21.32,0,0,1,3.19-3.24,4.41,4.41,0,0,1,2.93-1.22,3,3,0,0,1,.55.15c.11.07.16.08.33.17l.72.35a7.74,7.74,0,0,0,1.49.6,8.54,8.54,0,0,0,1.59.37,12.88,12.88,0,0,0,6.14-.67,27.31,27.31,0,0,0,5-2.39c1.53-.89,3-1.82,4.4-2.71.7-.43,1.41-.87,2.1-1.27s1.35-.75,2.14-1.17c1.56-.81,3.09-1.7,4.59-2.65a36.78,36.78,0,0,0,8.29-7,26.68,26.68,0,0,0,1.7-2.26c.27-.39.51-.79.75-1.2a3.14,3.14,0,0,0,.18-.31l.11-.2,0,0h0l.07,0,.55-.37c.37-.25.76-.48,1.12-.74.71-.53,1.45-1,2.15-1.58a71.12,71.12,0,0,0,7.75-7.1A76.64,76.64,0,0,1,161.1,115.55Z"/><circle class="cls-1" cx="119.12" cy="98.1" r="6.5"/><line class="cls-6" x1="119.62" y1="111" x2="119.62" y2="100.42"/><path class="cls-2" d="M120.65,108.47s-.08,0-.1,0,.1-.31.06-.48h-.07c0-.13.07-.27.1-.41s0-.52,0-.78c0,0,0,0,0,0a2,2,0,0,1,0-.41v-.06l-.05,0c0-.07,0-.13,0-.19-.13-.75-.28-1.52-.43-2.35a2.69,2.69,0,0,1-.14-.52,5.62,5.62,0,0,1,0-.82c-.23,0-.34-.56-.58-.44,0-.16,0-.41-.05-.42s-.42-.16-.54-.6c0-.17.06-.43,0-.49s-.14.22-.2.13c-.07,1.26,0,2.47,0,3.74a35.45,35.45,0,0,1,.1,4.1v.06a5,5,0,0,0,.1,1.25c0,.16.12.32.18.48l.11-.2a.84.84,0,0,0,0,.39c.09.35.21.15.37,0s.17,0,.24-.12a2.44,2.44,0,0,1,0,.27c.07,0,0-.33.08-.26a1.22,1.22,0,0,0,0,.33c.09,0,0-.37.12-.36s-.12.31,0,.33,0-.11,0-.16c0,.33.13.52.25.21a2.31,2.31,0,0,0,0,.37h0a1.38,1.38,0,0,1,0-.2V111l.05,0a.59.59,0,0,0,0-.14v.13l.1-.11a1.6,1.6,0,0,0,.17-.38C120.61,109.79,120.64,109.13,120.65,108.47Z"/><line class="cls-6" x1="119.38" y1="94.19" x2="119.38" y2="84.33"/><path class="cls-2" d="M120.41,91.83s-.08,0-.1,0,.1-.29.06-.45h-.07c0-.12.07-.25.1-.38s0-.49-.05-.73c0,0,0,0,0,0a1.66,1.66,0,0,1,0-.38v-.06l0,0a.91.91,0,0,1,0-.17c-.13-.71-.28-1.42-.43-2.2a3,3,0,0,1-.15-.48,6.35,6.35,0,0,1,0-.76c-.23,0-.34-.52-.58-.41,0-.15,0-.38,0-.39a.69.69,0,0,1-.54-.56c0-.16.06-.4,0-.46s-.14.21-.2.12c-.08,1.18,0,2.31,0,3.49a32.67,32.67,0,0,1,.1,3.81v.06a4.4,4.4,0,0,0,.1,1.17c.05.14.12.29.18.44l.11-.19a.93.93,0,0,0,0,.37c.1.32.22.14.38,0s.17,0,.24-.11c0,.11,0,.16,0,.26s0-.31.07-.24a1.56,1.56,0,0,0,0,.3c.08,0,0-.35.12-.33s-.12.28,0,.3,0-.09,0-.15c0,.32.14.49.26.2,0,.1,0,.24,0,.35h0c0-.06,0-.15,0-.19v.17l0,0a.31.31,0,0,0,0-.13v.12l.1-.1a1.54,1.54,0,0,0,.17-.36C120.36,93.06,120.4,92.44,120.41,91.83Z"/><line class="cls-6" x1="133.08" y1="98.05" x2="122.5" y2="98.05"/><path class="cls-2" d="M130.55,97s0,.08,0,.1-.31-.1-.48-.06v.06l-.41-.09c-.26,0-.52,0-.78,0,0,0,0,0,0,0a2,2,0,0,1-.41,0h-.06s0,0,0,0h-.19c-.75.12-1.52.28-2.35.42a3.75,3.75,0,0,1-.52.15,7.48,7.48,0,0,1-.82,0c0,.23-.56.34-.44.57-.16,0-.41,0-.42.06s-.16.42-.6.54c-.17,0-.43-.06-.49,0s.22.14.13.2c1.26.07,2.47,0,3.74,0a35.51,35.51,0,0,1,4.1-.1h.06a4.58,4.58,0,0,0,1.25-.09l.48-.18-.2-.12a.87.87,0,0,0,.39,0c.35-.1.15-.21,0-.37s0-.17-.12-.24h.27c0-.07-.33,0-.26-.08a1.22,1.22,0,0,0,.33,0c0-.09-.37,0-.36-.12s.31.12.33,0-.1,0-.16,0c.34,0,.52-.13.21-.25a2.31,2.31,0,0,0,.37,0h0l-.2,0h.19l0,0-.15,0H133l-.11-.1a2.37,2.37,0,0,0-.38-.18Q131.54,97,130.55,97Z"/><line class="cls-6" x1="114.57" y1="98.05" x2="106.41" y2="98.05"/><path class="cls-2" d="M112.62,97s0,.08,0,.1-.24-.1-.37-.06v.06l-.32-.09c-.2,0-.4,0-.6,0,0,0,0,0,0,0a1.18,1.18,0,0,1-.32,0h0a.11.11,0,0,0,0,0h-.15c-.58.12-1.17.28-1.81.42a2.48,2.48,0,0,1-.4.15,4.38,4.38,0,0,1-.63,0c0,.23-.43.34-.34.57-.13,0-.32,0-.33.06a.64.64,0,0,1-.46.54c-.13,0-.33-.06-.38,0s.17.14.1.2c1,.07,1.91,0,2.89,0a21.07,21.07,0,0,1,3.16-.1h0a2.73,2.73,0,0,0,1-.09c.13-.05.25-.12.37-.18l-.15-.12a.53.53,0,0,0,.3,0c.26-.1.11-.21,0-.37s0-.17-.09-.24h.21c0-.07-.26,0-.2-.08s.17,0,.25,0-.29,0-.27-.12.23.12.25,0-.08,0-.12,0c.25,0,.4-.13.16-.25.08,0,.2.05.28,0h0l-.15,0h.14s0,0,0,0l-.11,0h.09l-.08-.1a2,2,0,0,0-.29-.18Q113.39,97,112.62,97Z"/><circle class="cls-1" cx="264.95" cy="44.13" r="4.68"/><line class="cls-6" x1="265.31" y1="53.42" x2="265.31" y2="45.8"/><path class="cls-2" d="M266.33,51.6s-.08,0-.1,0,.1-.22.06-.34h-.06c0-.1.06-.2.09-.3a5.29,5.29,0,0,0-.05-.56s0,0,0,0a1,1,0,0,1,0-.29v0s0,0-.05,0,0-.1,0-.14c-.12-.54-.27-1.09-.42-1.69a2.3,2.3,0,0,1-.15-.38,3.88,3.88,0,0,1,0-.59c-.23,0-.34-.4-.57-.31,0-.12,0-.3-.06-.31a.61.61,0,0,1-.54-.43c0-.12.06-.31,0-.35s-.14.16-.2.09c-.07.91,0,1.78,0,2.7a18.38,18.38,0,0,1,.1,2.95v.05a2.42,2.42,0,0,0,.09.9c.05.11.12.23.18.34l.12-.15c0,.12,0,.24,0,.28.1.26.21.11.37,0s.17,0,.24-.09a1.34,1.34,0,0,1,0,.2c.07,0,0-.24.08-.19s0,.16,0,.24,0-.27.12-.26-.12.22,0,.24,0-.08,0-.12c0,.24.13.38.25.16,0,.07,0,.18,0,.26h0s0-.11,0-.15v.14l.05,0a.43.43,0,0,0,0-.11v.09l.1-.07a1.54,1.54,0,0,0,.18-.28C266.29,52.55,266.32,52.07,266.33,51.6Z"/><line class="cls-6" x1="265.13" y1="41.31" x2="265.13" y2="34.21"/><path class="cls-2" d="M266.16,39.61s-.08,0-.1,0,.1-.21.06-.32h-.07c0-.09.07-.18.1-.28s0-.35,0-.52c0,0-.05,0-.05,0a.91.91,0,0,1,0-.28v0l-.05,0a.45.45,0,0,1,0-.12c-.13-.51-.28-1-.43-1.58a2,2,0,0,1-.15-.35,3.32,3.32,0,0,1,0-.55c-.23,0-.34-.38-.58-.3,0-.11,0-.27-.05-.28a.61.61,0,0,1-.54-.4c0-.11.06-.29,0-.33s-.14.15-.2.09c-.08.84,0,1.66,0,2.51a17,17,0,0,1,.1,2.74v.05a2.55,2.55,0,0,0,.09.84l.19.32a1.71,1.71,0,0,1,.11-.14c0,.11,0,.22,0,.26.1.24.22.11.38,0s.17,0,.24-.08V41c.07,0,0-.22.07-.17s0,.14,0,.22,0-.26.12-.24-.12.2,0,.22,0-.07,0-.11c0,.22.14.35.26.14a1.87,1.87,0,0,0,0,.25h0s0-.1,0-.14v.13l0,0a.19.19,0,0,0,0-.1v.09l.1-.08c.07-.1.17-.2.17-.25C266.11,40.5,266.15,40.05,266.16,39.61Z"/><line class="cls-6" x1="275" y1="44.1" x2="267.38" y2="44.1"/><path class="cls-2" d="M273.18,43.07s0,.08,0,.1-.22-.1-.34-.06v.06c-.1,0-.2-.06-.3-.09a5.29,5.29,0,0,0-.56.05s0,0,0,0a1,1,0,0,1-.3,0h0s0,0,0,0h-.14c-.54.12-1.09.28-1.69.42a1.66,1.66,0,0,1-.38.15,2.91,2.91,0,0,1-.59,0c0,.23-.4.34-.31.57-.12,0-.3,0-.31.06a.61.61,0,0,1-.43.54c-.12,0-.31-.06-.35,0s.16.14.09.2c.91.07,1.78,0,2.7,0a18.38,18.38,0,0,1,2.95-.1h0a2.38,2.38,0,0,0,.9-.09c.12,0,.23-.12.35-.18l-.15-.12c.12,0,.24,0,.28,0,.25-.1.11-.21,0-.37s0-.17-.09-.24h.2c0-.07-.24,0-.19-.08s.16,0,.24,0-.27,0-.26-.12.22.12.24,0-.08,0-.12,0c.24,0,.37-.13.15-.25.08,0,.19,0,.27,0h0l-.15,0H275s0,0,0,0l-.11,0H275l-.08-.1a1.24,1.24,0,0,0-.27-.18C274.13,43.11,273.65,43.08,273.18,43.07Z"/><line class="cls-6" x1="261.67" y1="44.1" x2="255.79" y2="44.1"/><path class="cls-2" d="M260.26,43.07s0,.08,0,.1-.17-.1-.26-.06v.06a2.18,2.18,0,0,1-.23-.09,3,3,0,0,0-.43.05.07.07,0,0,1,0,0,.62.62,0,0,1-.23,0h0s0,0,0,0h-.11c-.41.12-.84.28-1.3.42a1.15,1.15,0,0,1-.29.15,1.78,1.78,0,0,1-.46,0c0,.23-.31.34-.24.57-.09,0-.23,0-.23.06a.67.67,0,0,1-.34.54c-.09,0-.24-.06-.27,0s.12.14.07.2a20.62,20.62,0,0,0,2.08,0,11,11,0,0,1,2.28-.1h0a1.47,1.47,0,0,0,.7-.09,2.4,2.4,0,0,0,.26-.18l-.11-.12a.3.3,0,0,0,.22,0c.19-.1.08-.21,0-.37s0-.17-.07-.24h.15c0-.07-.18,0-.14-.08s.12,0,.18,0-.21,0-.2-.12.17.12.18,0-.05,0-.08,0c.18,0,.28-.13.11-.25.06,0,.15,0,.21,0h0l-.11,0h.1s0,0,0,0l-.08,0h.07a.53.53,0,0,0-.06-.1c-.08-.07-.16-.17-.21-.18A10,10,0,0,0,260.26,43.07Z"/><circle class="cls-1" cx="176.07" cy="217.1" r="2.41"/><line class="cls-6" x1="176.26" y1="221.88" x2="176.26" y2="217.96"/><path class="cls-2" d="M177.29,220.94s-.09,0-.1,0,.09-.12.05-.18h-.06l.09-.15a1.45,1.45,0,0,0,0-.29h-.06a.5.5,0,0,1,0-.16l0,0h0a.64.64,0,0,1,0-.07c-.13-.28-.28-.57-.43-.87a.87.87,0,0,1-.15-.2,1,1,0,0,1,0-.3c-.23,0-.35-.21-.58-.16,0-.06,0-.15,0-.16a.7.7,0,0,1-.54-.22c0-.06.05-.16,0-.18s-.13.08-.2,0a9.1,9.1,0,0,0,0,1.38,5.25,5.25,0,0,1,.1,1.52v0a.74.74,0,0,0,.09.46l.19.18.11-.08c0,.06,0,.12,0,.15s.22,0,.37,0,.18,0,.25,0v.1c.06,0,0-.13.07-.1s0,.08,0,.13,0-.14.12-.14-.11.12,0,.12,0,0,0-.06c0,.13.14.2.26.08,0,0-.05.1,0,.14h0a.26.26,0,0,0,0-.08v.07h0s0,0,0-.05v.05l.1,0c.07-.06.18-.11.18-.14A4.7,4.7,0,0,0,177.29,220.94Z"/><line class="cls-6" x1="176.17" y1="215.65" x2="176.17" y2="212"/><path class="cls-2" d="M177.2,214.78s-.08,0-.1,0,.09-.11.06-.17h-.07a.71.71,0,0,1,.1-.14,2.56,2.56,0,0,0-.05-.27h-.06a.36.36,0,0,1,0-.14l0,0H177a.64.64,0,0,1,0-.07c-.13-.26-.28-.52-.43-.81a.8.8,0,0,1-.15-.18.86.86,0,0,1,0-.28c-.23,0-.35-.19-.58-.15,0-.06,0-.14,0-.15a.72.72,0,0,1-.54-.2c0-.06,0-.15,0-.17s-.13.07-.2,0a7.94,7.94,0,0,0,0,1.29,4.6,4.6,0,0,1,.1,1.42v0a.72.72,0,0,0,.09.43l.19.17.11-.07s0,.11,0,.13.22,0,.37,0,.18,0,.25,0v.09c.06,0,0-.12.07-.09s0,.08,0,.11,0-.13.12-.12-.11.1,0,.11,0,0,0-.05a.15.15,0,0,0,.26.07s-.05.09,0,.13h0a.21.21,0,0,0,0-.07v.06h0a.09.09,0,0,0,0,0v0l.11,0c.07-.05.17-.1.17-.13A4.14,4.14,0,0,0,177.2,214.78Z"/><line class="cls-6" x1="181.25" y1="217.08" x2="177.33" y2="217.08"/><path class="cls-2" d="M180.31,216.06s0,.08,0,.09-.11-.09-.18-.05v.06l-.15-.09-.29,0s0,0,0,.06-.09,0-.15,0h0a.07.07,0,0,0,0,.05l-.07,0-.88.43a.83.83,0,0,1-.19.15,1,1,0,0,1-.3,0c0,.23-.21.35-.16.58-.06,0-.16,0-.16,0a.7.7,0,0,1-.22.54c-.06,0-.16,0-.18,0s.08.14,0,.2a10.75,10.75,0,0,0,1.39,0,4.91,4.91,0,0,1,1.52-.11h0a.77.77,0,0,0,.47-.09l.17-.19-.07-.11c.06,0,.12,0,.14,0s.06-.21,0-.37,0-.18,0-.25h.1c0-.06-.13,0-.1-.07s.08,0,.12,0-.14,0-.13-.12.11.12.12,0,0,0-.06,0c.13,0,.19-.14.08-.26s.1.05.14,0h0l-.08,0h.07a.43.43,0,0,0,0-.05l0,0h0a.3.3,0,0,0,0-.1c-.05-.07-.11-.18-.14-.18A3.64,3.64,0,0,0,180.31,216.06Z"/><line class="cls-6" x1="174.39" y1="217.08" x2="171.36" y2="217.08"/><path class="cls-2" d="M173.67,216.06s0,.08,0,.09-.09-.09-.14-.05v.06l-.12-.09-.22,0s0,0,0,.06-.07,0-.11,0h0a.07.07,0,0,0,0,.05l-.05,0-.68.43a.71.71,0,0,1-.15.15.61.61,0,0,1-.23,0c0,.23-.16.35-.12.58-.05,0-.12,0-.12,0a.85.85,0,0,1-.18.54s-.12,0-.14,0,.07.14,0,.2a6.37,6.37,0,0,0,1.07,0,2.94,2.94,0,0,1,1.17-.11h0a.47.47,0,0,0,.36-.09c0-.06.09-.12.13-.19a.37.37,0,0,1-.05-.11s.09,0,.11,0,0-.21,0-.37,0-.18,0-.25h.08c0-.06-.1,0-.08-.07s.07,0,.1,0-.11,0-.11-.12.09.12.1,0,0,0-.05,0,.15-.14.06-.26.08.05.11,0h0l-.06,0h0v-.05l0,0h0l0-.1c0-.07-.09-.18-.11-.18A2.25,2.25,0,0,0,173.67,216.06Z"/></g></g></svg>