<svg xmlns="http://www.w3.org/2000/svg" viewBox="0 0 275.85 277.23"><defs><style>.cls-1{fill:#1933d3;fill-rule:evenodd;}.cls-2{fill:#fff;}.cls-3{fill:#202020;}.cls-4{fill:#bbcef1;}.cls-5{fill:#e4ebf9;}.cls-6{fill:#dde3e9;}</style></defs><g id="Layer_2" data-name="Layer 2"><g id="Layer_1-2" data-name="Layer 1"><g id="Background-Shape-2"><g id="Background-Shape"><path class="cls-1" d="M118.81,70.12c39.21,7,51.53,98.47,16,161.58s-114.17,55.65-130.28,8C-22.71,159,79.61,63.15,118.81,70.12Z"/></g></g><path class="cls-2" d="M153.12,191.68s3.52-16,24.94-25.45c12.6-5.53,22.05-3.5,29.68-7.76,8.95-5,17.33-6,18.37-4.55,4.3,5.93-21.9,15-21.78,22.93a3.83,3.83,0,0,0,.86,2.31c1.46,1.92,34.28-.92,28.08.81C212.28,185.84,153.12,191.68,153.12,191.68Z"/><path class="cls-3" d="M196.93,164.15c0-.11-.78-.09.42-.32,1.89-.33,3.66-.58,5.46-1a19.33,19.33,0,0,0,5.53-2l.2-.28a47.4,47.4,0,0,1,8-3.33,34.71,34.71,0,0,1,3.86-1.07c.64-.14,1.28-.25,1.9-.33l.92-.08.4,0h0a.1.1,0,0,1,.13.11s0,0,0,.06,0-.08,0,.07a2.86,2.86,0,0,1-.24.3,10.81,10.81,0,0,1-1.21,1.27c.13,0,.23-.05-.14.31A64.85,64.85,0,0,1,215,163l-1.23.86c-.31.24-.36.34-.39.41-1.29.86-2.45,1.65-3.51,2.4a34.35,34.35,0,0,0-5,4.46,11.3,11.3,0,0,0-2.08,3.24,6.46,6.46,0,0,0-.46,2.23,5.15,5.15,0,0,0,.52,2.47,3.77,3.77,0,0,0,1.76,2,5.22,5.22,0,0,0,1.3.36l.35,0,.23,0,.45,0c1.16.1,2.25.11,3.34.11,2.18,0,4.34-.09,6.51-.19l13.09-.66c1.08,0,2.22-.09,3.22-.05l.32,0h.06s0,.05,0,0l.13-.44a1.67,1.67,0,0,1,.08-.3c0-.09.11-.2.13-.26a.18.18,0,0,1,.1-.11s0,0,0,0a.26.26,0,0,1-.15-.12,2.35,2.35,0,0,0-.17-.24,1.92,1.92,0,0,1-.18-.31l-.06-.16-.1-.2h0c-.08,0-.19.07-.3.11l-1.6.44c-1.08.28-2.14.61-3.24.87l-3.32.78c-3.76.92-7.55,1.75-11.23,2.43-5.45,1-12.47,1.9-17.83,2.6.91.48-12.13,2.47-9.45,2.7-3.58.44-9,1.08-9.22,1.27-.78.58-3.47,1.49-13,2.84-3.72.48-9.47.87-10.79,1.1-2.06.37,4.89-.15,2.83.22,13.89-1.37,27.49-3,41.09-4.87,6.8-1,13.61-2,20.44-3.19,3.42-.62,6.85-1.26,10.29-2,1.72-.34,3.46-.83,5.19-1.25a14.09,14.09,0,0,0,1.53-.44,3.31,3.31,0,0,0,.4-.19,2.5,2.5,0,0,0,.35-.21l.12-.08a3,3,0,0,0,.69-.81,2.26,2.26,0,0,0,.26-.67,2.72,2.72,0,0,0,0-1.1,2.46,2.46,0,0,0-.3-.8,2.68,2.68,0,0,0-1-1l-.24-.12a2.79,2.79,0,0,0-.66-.2,7.91,7.91,0,0,0-1-.13c-1,0-1.91,0-2.82,0-2.45.07-8.27.4-15.84.6-1.88,0-3.89.07-5.89,0-.5,0-1,0-1.46-.1l-.41,0-.08,0c-.06,0-.08-.08-.11-.14a.82.82,0,0,1,0-.21,1.17,1.17,0,0,1,0-.32,4.12,4.12,0,0,1,1-1.92,17.62,17.62,0,0,1,2.14-2.21,60.67,60.67,0,0,1,5.55-4.14c2-1.35,4-2.68,6-4.1a28.73,28.73,0,0,0,5.93-5.14,4.37,4.37,0,0,0,.34-.47c.13-.21.33-.48.45-.71a13,13,0,0,0,.56-1.5,4.88,4.88,0,0,0-.28-3,5.21,5.21,0,0,0-.83-1.23,3.2,3.2,0,0,0-1.24-.75,6.56,6.56,0,0,0-1.5-.33,6.85,6.85,0,0,0-.79,0h-.66a29.33,29.33,0,0,0-7.07,1.31,47.59,47.59,0,0,0-6,2.27c-.91.42-1.8.85-2.63,1.29-.41.21-.86.47-1.2.64l-1,.51a29.61,29.61,0,0,1-7.36,2l-1.46.24a82.32,82.32,0,0,0-14.37,2.94,46.28,46.28,0,0,0-6.75,2.8,53.37,53.37,0,0,0-5.66,3.2,52.69,52.69,0,0,0-8.38,7.13c.64-.56,1.3-1.06,1.9-1.55l.89-.71.88-.6a35.42,35.42,0,0,0-6.26,6.24c-2.4,3.15-2.63,4-2.25,3.66.19-.18.6-.61,1.1-1.13a22.83,22.83,0,0,1,1.62-1.65c1.52-1.51-.18.81,2.16-1.54a40.87,40.87,0,0,0-3.76,4.63c0,.17,1-1.37,2.07-2.65s2.09-2.36,1.62-1.67a34.92,34.92,0,0,0-4.35,5.74,10.35,10.35,0,0,0,1-1.3c.5-.63,1.07-1.44,1.67-2.17s1.2-1.42,1.65-1.9.76-.71.74-.61c-.45.45-1.57,1.66-2.6,2.84-.47.62-.93,1.21-1.27,1.69a3.17,3.17,0,0,0-.54,1c0,.06.3-.43.74-1s1-1.29,1.32-1.76a26.52,26.52,0,0,0-3.8,6.42c-.19.5-.18.62.08.26.12-.18.3-.48.56-.91l1.07-1.65-.93,1.58c-.31.57-.62,1.18-.93,1.79a19.59,19.59,0,0,0-1.34,3.58v0a25.16,25.16,0,0,1,1.54-3.89,24.51,24.51,0,0,0-1.43,3.68l.3-.6c.32-.91.74-1.83,1.16-2.78-.36.81-.71,1.62-1,2.45.3-.59.65-1.26,1.06-2a40,40,0,0,1,4.4-6.48,40.79,40.79,0,0,1,7.31-7.25c1.34-1.11,2.83-2,4.26-3l2.27-1.29c.38-.21.75-.44,1.14-.63l1.19-.57a45.67,45.67,0,0,1,9.74-3.61A96.41,96.41,0,0,1,196.93,164.15Z"/><rect class="cls-4" x="187.61" y="86.26" width="81.17" height="81.17" transform="translate(-18.02 40.02) rotate(-9.64)"/><path class="cls-3" d="M184.47,90.5c0,.11,1.06,0-.58.35l-5.16.89c.28,1.76.55,3.48.83,5.18.13,1,.27,1.9.41,2.86.28,1.9.57,3.84,1,5.94l.22.34c.61,4,1.24,8.24,1.89,12.53q2.07,11.8,4.11,23.49c0-.21.06-.32.22.46.59,3.23,1.3,7.74,2.07,12.4.13.69.26,1.37.38,2.05a2.15,2.15,0,0,0,.25.73c.35,2.1.65,4,.94,5.71l.94,5.14c.43,2.39.88,4.85,1.34,7.44l62.52-11.56c5.3-1,10.6-2.1,15.71-3l4.32-.75c-1.18-7.09-2.54-15.32-3.63-21.84-.37,1.23-3.72-16.78-3.68-13.08-.83-4.93-2.07-12.35-2.29-12.7-.68-1.07-1.88-4.77-4.4-17.84-.94-5.12-2.08-13-2.48-14.82-.64-2.82.79,6.71.15,3.89,2.16,12.86,4.3,25.57,6.43,38.23,2,11.82,4,23.59,6.08,35.44l-34.49,5.91c-2.61.49-8.25,1.5-15.79,2.82L196.86,171c-4.18-24.18-11.46-66.92-12.85-75.5h.11l.56-.1C197,93.31,212,90.71,222.45,88.72L236.9,85.8l-6.21.77c4.94-.83,9.88-1.66,11.77-2.08,10.47-2,4.47-1.3.35-1-2.94.32,1-.61-3.63,0l8.23-1.38c.35-.23-10.12,1.8-7.88,1.15,3.18-.48,6.71-1.18,10-1.73-1.18,0-11.41,1.86-10.94,1.56,1.76-.36,9.29-1.28,9.88-1.66.12-.07-3.18.48-4.82.75,10.12-1.8,15.65-3,6.36-1.73,3.21-.53,7.77-1.19,11.16-1.8h0l-6.19,1,5.78-1-1,.06c-1.44.21-2.89.43-4.4.68l3.85-.64c-1,.07-2.09.18-3.32.3-4.59.61-9,1.09-11.47,1.51C224.41,83.83,204.38,87.14,184.47,90.5Z"/><polygon class="cls-3" points="159.91 32.9 233.11 84.84 256.6 51.74 159.91 32.9"/><path class="cls-3" d="M203,66.65c.08-.07-.48-.59.5,0,3.09,2.07,5.33,4.08,8.41,6.15l.31,0,7.15,5.36,14.28,10,2-2.87c-.2.18-.3.23.29-.64l1.31-1.88,1.26-1.75,2.81-3.9L242.2,76a1.27,1.27,0,0,0,.21-.52l2.39-3.31,6.43-9.45,3.32-4.9,5-7.25-9-1.61-6.67-1.15-14-2.41c-3.76-.58-7.53-1.16-11.14-1.8-5.34-1-12.12-2.4-17.31-3.43.68.72-12-1.47-9.62-.41-3.46-.69-8.66-1.72-9-1.61-.9.32-3.67.36-12.93-1.15-3.61-.63-9.1-1.91-10.39-2.06-2-.24,4.6,1.25,2.57,1,26.73,5.39,52.54,10.2,79.48,15.46l5.49,1,4.15.77,1,.18h.1l.23,0-.09.15-.06.08,0,0-.2.29-2.7,3.83-5.83,8.28-11,15.66L207.39,63.79l-1.2-.84c-7.19-5.14-16-11.31-22.18-15.46l-8.74-5.63,3.43,2.78c-2.88-2-5.75-4.11-6.92-4.81-6.27-4.15-3-1.45-.83.55,1.6,1.34-.85-.07,1.7,2l-4.78-3.43c-.32,0,6,4.13,4.47,3.4-1.81-1.36-3.94-2.75-5.85-4.11.54.65,6.6,4.78,6.18,4.75-1.07-.69-5.22-4.07-5.75-4.11-.11,0,1.81,1.36,2.77,2-6-4.13-9.36-6.23-4.14-2.16-1.87-1.33-4.45-3.31-6.45-4.68h0l3.56,2.62-3.36-2.41.52.51c.82.63,1.65,1.25,2.53,1.87l-2.24-1.59c.51.46,1.1,1,1.76,1.56,2.56,2,5,4,6.39,5.07Q185.59,54.22,203,66.65Z"/><circle class="cls-5" cx="227.01" cy="23.83" r="21.59"/><path class="cls-3" d="M222.54,5.36c0-.1-.43-.12.17-.3,1.91-.55,3.54-.29,5.46-.31l.16-.15,1.14.15c.38.07.75.18,1.14.26a19.11,19.11,0,0,1,2.27.7,19.51,19.51,0,0,1,7.53,4.44c0-.1,0-.16.22,0a13,13,0,0,1,1.45,1.59c.26.3.47.67.72,1a9.36,9.36,0,0,1,.7,1.1l.41.66a.51.51,0,0,0,.25.19c.39.7.62,1.38.89,2A19.88,19.88,0,0,1,246,29.82a20.28,20.28,0,0,1-8.31,11.46,18.09,18.09,0,0,1-5.73,2.77A20.07,20.07,0,0,1,222,44c.07.17-.31.19-.94.13A10.1,10.1,0,0,1,220,44l-1.2-.3c-.82-.18-1.55-.51-2.06-.62s-.74-.1-.46.2a50.22,50.22,0,0,1-4.55-3.18,3.32,3.32,0,0,1-1.94-.93A10.64,10.64,0,0,1,208,37.43a18.08,18.08,0,0,1-2.18-3.11c-.26-.53-.54-1.15-.81-1.79s-.43-1.33-.63-2c-.34-1.27-.49-2.39-.65-2.78-.18-.59-.16.11-.06.91s.18,1.57,0,.93a23.09,23.09,0,0,0,2.47,6.27,26.19,26.19,0,0,0,1.85,2.81,25.17,25.17,0,0,0,2.25,2.48,24.11,24.11,0,0,0,11.62,6.26,25.58,25.58,0,0,0,6.65.51A24.81,24.81,0,0,0,235,46.61l.79-.27.77-.34c.51-.23,1-.45,1.53-.7a25.74,25.74,0,0,0,2.87-1.77,24.14,24.14,0,0,0,2.62-2.13c.41-.38.79-.81,1.18-1.21a11.28,11.28,0,0,0,1.11-1.29,24.37,24.37,0,0,0,5-17.21A24.07,24.07,0,0,0,248.29,13a23.94,23.94,0,0,0-13.2-11.6A25.62,25.62,0,0,0,227.88,0c-1.08,0-2.07,0-2.95.08s-1.67.15-2.31.3l-.94.21a22.85,22.85,0,0,0-8.33,3.72,22,22,0,0,0-5.79,6.12A23.12,23.12,0,0,0,205,16.58a24.49,24.49,0,0,1,1.29-2.48,17.66,17.66,0,0,0-1.6,5,9.73,9.73,0,0,0-.16,2.26c0,.39.1.45.19.3a6.34,6.34,0,0,0,.33-.88c.16-.4.34-.84.51-1.28.2-.59.29-.46.39-.41s.19,0,.55-.9a10.31,10.31,0,0,0-.39,1.67,12.67,12.67,0,0,0-.27,1.7s.08-.2.11-.57.15-.87.24-1.34c.13-.95.45-1.75.42-1.27A17.81,17.81,0,0,0,206,22.5c.15-.23.19-1.4.46-2.46a4.15,4.15,0,0,1,.59-1.89c-.26.67-1,3.66-.74,4,0,.06.15-1.28.32-1.93a12.38,12.38,0,0,0-.07,4.24c.13.61.22.22.4-1.6-.06.63,0,1.4-.06,2.17s.14,1.56.22,2.23h0c-.05-.68-.19-1.83-.18-2.44,0,.76.15,1.51.21,2.27l.07-.41c0-.57-.1-1.13-.12-1.72,0,.5.1,1,.15,1.5,0-.39.07-.82.1-1.29a29.9,29.9,0,0,1,.65-4.32,19.41,19.41,0,0,1,5-9.92,18.32,18.32,0,0,1,4.38-3.46A18.13,18.13,0,0,1,222.54,5.36Z"/><path class="cls-2" d="M87.1,186.16c22.2-1.81,53.17,9.06,54.3-2.46.77-7.9,10.43-9.45,17.57-13.12,24.79-12.74,29.31,3.28,42.49,4.57,14,1.36,24-2.27,32.74-6.5,1.47-.71,10-4.21,18.31-7.75,14.88-6.36,17.15-1.09,9.26,5.14-6.45,5.09-16.71,10.76-20.39,12.81-14.8,8.23-49.68,18-69.38,24.94S134.55,220.88,66.21,223.1"/><path class="cls-3" d="M175.64,168.3c0-.1-1.17-.2.71-.25a18.27,18.27,0,0,1,8,2.1c2.49,1.21,4.87,2.89,8,4.51l.52.09a23.52,23.52,0,0,0,8.2,2.77,63.42,63.42,0,0,0,8.42.41,56.3,56.3,0,0,0,15.42-2.78,70.39,70.39,0,0,0,7.21-2.81l3.46-1.62,3.41-1.46c-.26.05-.4,0,.5-.36,3.76-1.64,9.06-3.82,14.48-6.09.77-.33,1.55-.65,2.32-.94a3.62,3.62,0,0,0,.82-.42,28.83,28.83,0,0,1,3.42-.95,11.81,11.81,0,0,1,2.85-.27.53.53,0,0,1,.44.14.43.43,0,0,1,0,.44,2.59,2.59,0,0,1-.17.3c-.1.14-.18.29-.29.44a11.33,11.33,0,0,1-.73.88,17,17,0,0,1-1.78,1.7,95.35,95.35,0,0,1-8.76,6.23c-3.07,2-6.23,3.86-9.43,5.71-.8.46-1.61.94-2.42,1.37l-2.4,1.29c-1.65.8-3.29,1.63-5,2.36-6.81,3-13.95,5.63-21.23,8.19s-14.75,5.05-22.35,7.6c-6.41,2.23-12.84,4.45-19,6.75-4.56,1.67-9.68,3.7-14.84,5.48-2.58.9-5.18,1.71-7.69,2.49s-4.95,1.44-7.24,2c.39,0-.71.46-2.5,1s-4.31,1.2-6.73,1.85S126.48,217.6,125,218s-2,.58-.83.54c-6.22,1.07-15.62,2.23-16.09,2.43-1.4.57-6.16,1.93-22.89,3.33-6.55.54-16.63.65-18.94.87-3.63.31,8.52,0,4.88.3,12.19-.41,24.28-1.18,36.29-2.54,3-.31,6-.76,9-1.14s6-.92,8.95-1.41c6-1.09,11.87-2.33,17.73-3.91s11.63-3.49,17.28-5.59,11.17-4.29,16.85-6.17c11.34-3.84,22.92-7.41,34.56-11.33,2-.7,5.37-1.87,9.83-3.51s10-3.69,16.19-6.58c1.55-.69,3.13-1.55,4.74-2.39l4.73-2.68c3.22-1.87,6.55-3.86,9.91-6.08,1.68-1.11,3.36-2.28,5-3.55a32.45,32.45,0,0,0,2.53-2.09,16,16,0,0,0,2.37-2.68,8.49,8.49,0,0,0,1.11-2.21,4.59,4.59,0,0,0,.09-2.74,4.66,4.66,0,0,0-4.28-3.05,8.64,8.64,0,0,0-1.13-.07c-.33,0-.63,0-.95,0-.62.05-1.21.14-1.79.24-1.15.22-2.25.51-3.33.83a63.37,63.37,0,0,0-6.16,2.35l-5.87,2.5-11.64,4.94a72.16,72.16,0,0,1-11,4.38,52,52,0,0,1-10.87,2c-.89.06-1.77.1-2.64.13s-1.74,0-2.59,0-1.7,0-2.53-.12l-1.24-.09-.62-.05c-.19,0-.36-.06-.54-.09a22,22,0,0,1-8-3.07c-2.48-1.4-4.83-2.92-7.21-4a18.73,18.73,0,0,0-1.76-.73,14.37,14.37,0,0,0-1.7-.6,22.61,22.61,0,0,0-3.17-.73,18.93,18.93,0,0,0-2.89-.26,28.31,28.31,0,0,0-6.54.61l-3.22.81L163.6,166a29.13,29.13,0,0,0-3,1.31l-3,1.39c-1.77.9-3.7,1.67-5.66,2.49a47.81,47.81,0,0,0-5.9,2.8,14.87,14.87,0,0,0-5.19,4.7,17.74,17.74,0,0,0-.82,1.63,12.57,12.57,0,0,0-.53,1.72c-.09.53-.18,1-.26,1.58a3.07,3.07,0,0,0-.07.42,3,3,0,0,1-.13.36c-.05.26-.25.41-.35.64s-.32.38-.59.52a5.91,5.91,0,0,1-1.71.82,28.86,28.86,0,0,1-8.5.8c-3-.08-6.09-.31-9.16-.57,2.84.41,5.46.77,7.73,1-6.2-.45-12.46-1.34-14.88-1.48-6.69-.65-8.18-.59-7.32-.38s4,.72,6.56,1.22c3.67.6-1.35.28,4.4,1.13-4.16-.49-6.24-.76-10.42-1.18-.49.05,12.85,1.35,9.93,1.29-4-.54-8.5-1-12.67-1.33.71.17,4.32.51,7.66.93a53.6,53.6,0,0,1,6.09.86c-1.13-.11-4-.53-6.78-.89a39.54,39.54,0,0,0-5.72-.51c-.16,0,4,.44,6.08.69a118.21,118.21,0,0,0-13.28-.86c-1.9.08-.75.13,5.06.7a85.43,85.43,0,0,0-14-.25h0a77.16,77.16,0,0,1,7.73-.1c-2.42-.07-4.84-.05-7.23.12l1.26,0c1.79,0,3.6-.05,5.48,0-1.6,0-3.2,0-4.79,0,1.19,0,2.57.11,4.07.2,5.7.26,11.16,1.13,14.27,1.46,6.28.7,12.56,1.67,19.09,2.08,1.64.09,3.29.15,5,.08a23.18,23.18,0,0,0,5.28-.68c.46-.14.93-.3,1.39-.46a12.44,12.44,0,0,0,1.42-.7,7.27,7.27,0,0,0,1.37-1l.64-.64c.18-.24.36-.5.53-.75a6.92,6.92,0,0,0,.78-1.65,12.34,12.34,0,0,0,.35-1.66c.06-.29.11-.58.16-.86a7,7,0,0,1,.26-.81c.78-2.06,3-3.67,5.64-5s5.68-2.34,8.72-3.73c1.59-.78,2.88-1.36,4.28-2a40.31,40.31,0,0,1,4.2-1.67l1.06-.38,1.06-.26,2.14-.54,2.13-.28a9.52,9.52,0,0,1,1.06-.11Z"/><circle class="cls-2" cx="257.33" cy="107.43" r="6.5"/><line class="cls-6" x1="257.83" y1="120.34" x2="257.83" y2="109.76"/><path class="cls-3" d="M258.85,117.81s-.08,0-.09,0,.09-.31.05-.48l-.06,0,.09-.41c0-.26,0-.52,0-.78,0,0-.05,0-.06,0a2.94,2.94,0,0,1,0-.41.17.17,0,0,0,0-.07s0,0-.05,0a1,1,0,0,1,0-.19c-.13-.76-.28-1.53-.43-2.36a3.39,3.39,0,0,1-.15-.52,7.49,7.49,0,0,1,0-.82c-.23,0-.35-.55-.58-.44,0-.16,0-.4-.05-.42s-.42-.16-.54-.59c0-.17.05-.43,0-.49s-.14.22-.2.12c-.07,1.26,0,2.48,0,3.75a35.11,35.11,0,0,1,.11,4.09v.07A5,5,0,0,0,257,119c.06.16.12.32.19.48a1,1,0,0,1,.11-.21.85.85,0,0,0,0,.39c.1.35.21.15.37,0s.18,0,.25-.12a2.62,2.62,0,0,0,0,.28c.06,0,0-.34.07-.26s0,.22,0,.33c.09,0,0-.38.12-.36s-.12.3,0,.32,0-.1,0-.16c0,.34.14.52.26.22a2.1,2.1,0,0,0,0,.37h0a1.38,1.38,0,0,0,0-.2v.19l0,0,0-.15a.62.62,0,0,0,0,.13.52.52,0,0,0,.1-.11c.07-.15.18-.29.18-.37C258.81,119.13,258.85,118.47,258.85,117.81Z"/><line class="cls-6" x1="257.59" y1="103.52" x2="257.59" y2="93.67"/><path class="cls-3" d="M258.61,101.17s-.08,0-.1,0,.1-.29.06-.45h-.06c0-.13.06-.26.09-.39s0-.48-.05-.72c0,0,0,0-.05,0a2.56,2.56,0,0,1,0-.38v-.06s0,0-.05,0a.9.9,0,0,1,0-.18c-.13-.7-.28-1.42-.43-2.19a3.4,3.4,0,0,1-.15-.49,6.43,6.43,0,0,1,0-.76c-.23,0-.34-.52-.57-.41,0-.15,0-.38-.06-.39a.67.67,0,0,1-.53-.56c0-.15.05-.4,0-.45s-.14.2-.2.11c-.07,1.18,0,2.31,0,3.49a30.66,30.66,0,0,1,.1,3.81v.07a4,4,0,0,0,.09,1.16c.05.15.12.3.18.45a1.57,1.57,0,0,1,.12-.19.75.75,0,0,0,0,.36c.1.32.21.14.37,0s.17,0,.24-.11v.25c.06,0,0-.31.07-.24a1.08,1.08,0,0,0,0,.31c.09,0,0-.35.12-.34s-.12.29,0,.31,0-.1,0-.15c0,.31.14.48.25.2a2,2,0,0,0,0,.34h0s0-.14,0-.19v.18l.05,0a.68.68,0,0,0,0-.14v.12a.47.47,0,0,0,.1-.1,2.35,2.35,0,0,0,.18-.35C258.57,102.39,258.61,101.78,258.61,101.17Z"/><line class="cls-6" x1="271.29" y1="107.39" x2="260.71" y2="107.39"/><path class="cls-3" d="M268.76,106.36s0,.08,0,.1-.31-.1-.48-.06l0,.07-.41-.1-.78,0s0,0,0,0a1.93,1.93,0,0,1-.41,0h-.07a.06.06,0,0,0,0,0h-.19l-2.36.43a3.39,3.39,0,0,1-.52.15,7.22,7.22,0,0,1-.81,0c0,.23-.56.34-.44.58-.17,0-.41,0-.42,0s-.17.42-.6.54c-.17,0-.43-.06-.49,0s.22.14.13.2c1.26.08,2.47,0,3.74,0a37.66,37.66,0,0,1,4.09-.1h.07a5.58,5.58,0,0,0,1.25-.09l.48-.19-.2-.11a1,1,0,0,0,.38,0c.35-.1.16-.22,0-.38s0-.17-.12-.24h.28c0-.07-.34,0-.26-.07a1.88,1.88,0,0,0,.33,0c0-.08-.38,0-.36-.12s.3.12.32,0-.1,0-.15,0c.33,0,.51-.14.21-.26.11,0,.26,0,.37,0h0l-.21,0h.19l0,0a.4.4,0,0,0-.15,0h.13l-.11-.1a1.57,1.57,0,0,0-.37-.17C270.08,106.41,269.42,106.37,268.76,106.36Z"/><line class="cls-6" x1="252.78" y1="107.39" x2="244.62" y2="107.39"/><path class="cls-3" d="M250.83,106.36s0,.08,0,.1-.24-.1-.37-.06v.07l-.32-.1-.6,0s0,0,0,0a1.11,1.11,0,0,1-.31,0h-.06s0,0,0,0H249l-1.82.43a2.17,2.17,0,0,1-.4.15,4.43,4.43,0,0,1-.63,0c0,.23-.43.34-.34.58-.12,0-.31,0-.32,0a.64.64,0,0,1-.46.54c-.13,0-.33-.06-.38,0s.17.14.1.2c1,.08,1.9,0,2.88,0a22.54,22.54,0,0,1,3.16-.1h.05a3.37,3.37,0,0,0,1-.09l.37-.19-.16-.11a.62.62,0,0,0,.3,0c.27-.1.12-.22,0-.38s0-.17-.09-.24h.21c0-.07-.25,0-.2-.07a1.14,1.14,0,0,0,.26,0c0-.08-.29,0-.28-.12s.24.12.25,0-.08,0-.12,0c.26,0,.4-.14.17-.26a2.36,2.36,0,0,0,.28,0h0l-.16,0h.15l0,0a.2.2,0,0,0-.11,0h.1l-.08-.1c-.12-.07-.23-.17-.29-.17C251.85,106.41,251.34,106.37,250.83,106.36Z"/></g></g></svg>