<svg xmlns="http://www.w3.org/2000/svg" viewBox="0 0 275 276.42"><defs><style>.cls-1{fill:#1933d3;}.cls-1,.cls-3,.cls-6{fill-rule:evenodd;}.cls-2{fill:#202020;}.cls-3{fill:#bbcef1;}.cls-4{fill:#e4ebf9;}.cls-5,.cls-6{fill:#fff;}.cls-7{fill:#dde3e9;}</style></defs><g id="Layer_2" data-name="Layer 2"><g id="Layer_1-2" data-name="Layer 1"><g id="Background-Shape-2"><path id="Background-Shape" class="cls-1" d="M274.88,237.16c4,29.2-93.21,48.24-176.88,35s-122.06-65.2-82.14-92.86S270.87,208,274.88,237.16Z"/></g><ellipse class="cls-2" cx="169.63" cy="97.28" rx="68.54" ry="9.57"/><path class="cls-2" d="M172.74,85.15c0,.1.91.2-.55.24-4.6.08-8.29-.23-12.89,0l-.33.17c-3.56,0-7.27,0-11.05.13-7,.35-13.9.87-20.79,1.68.18,0,.27.08-.41.18-2.86.36-6.84.8-11,1.5l-1.81.35a1.61,1.61,0,0,0-.63.26c-1.86.36-3.52.72-5.06,1.11a39.39,39.39,0,0,0-3.8,1.27,20.39,20.39,0,0,0-1.93.88l-.49.27c-.16.09-.45.28-.67.43a7,7,0,0,0-1.26,1.09,3.77,3.77,0,0,0-1,2.84,4.09,4.09,0,0,0,1.45,2.7,10,10,0,0,0,1.35,1,10.29,10.29,0,0,0,1,.53,20.81,20.81,0,0,0,1.94.79,54.46,54.46,0,0,0,7.72,1.93c2.57.49,5.16.87,7.77,1.19a315.12,315.12,0,0,0,32.2,2c4.7,0,9.4,0,13.92-.08,6.7,0,15.25,0,21.78-.28-.51-.27,3.21-.62,6.64-1s6.59-.86,5-1c4.33-.26,10.82-.88,11.13-1.09a14.68,14.68,0,0,1,3.87-1.2c2.33-.54,6-1.18,11.5-2.45a59.55,59.55,0,0,0,7-1.91,10.31,10.31,0,0,0,2.46-1.22,1.62,1.62,0,0,0,.33-.33,2.1,2.1,0,0,0,.48.21l.15,0c-1.4,0-.39,0-.7,0h0v-.18c0-.06,0-.1,0-.14a.33.33,0,0,0,0-.13s0,.1-.06.29l0,.17h0c-.18,0,1.59,0,.84,0h-.05l-.12,0-.23-.09-.33-.18-.1-.06h0l-.13.1a5.43,5.43,0,0,1-1.1.56c-.3.11-.35.09.07-.17a26.49,26.49,0,0,1-5.32,1.86c-1.94.49-3.93.9-5.93,1.26-4,.71-8.08,1.24-12.15,1.69-8.15.87-16.33,1.39-24.53,1.71a452.94,452.94,0,0,1-49.63-.76c-2.85-.17-9.82-.58-18.79-1.93-2.24-.35-4.6-.76-7-1.3a33.24,33.24,0,0,1-7-2.24c-.11,0-.26-.15-.32-.18l-.05,0a.31.31,0,0,1-.09-.07.2.2,0,0,1-.07-.21.49.49,0,0,1,.17-.18s.29-.17.53-.29.54-.26.83-.38a45.43,45.43,0,0,1,7.91-2.24,170,170,0,0,1,17-2.44c5.65-.56,11.16-.93,16.25-1.19,10.2-.5,18.75-.54,23.72-.51h1.8c10.83.06,24,.57,33.09,1.17,4.19.22,8.45.5,12.67.93l-5.31-1c4.3.49,8.56,1.16,10.21,1.35,4.53.69,5.51.86,5,.56a44.9,44.9,0,0,0-4.37-1.4c-2.49-.6,1-.29-3-1.11,2.86.47,4.3.72,7.15,1.34a28.3,28.3,0,0,0-4-.85c-2-.35-3.79-.62-2.77-.6,2.75.5,5.85,1,8.69,1.67a36.67,36.67,0,0,0-5.23-1.26,36.69,36.69,0,0,1-4.19-.85c.78.09,2.79.48,4.67.88a29,29,0,0,0,3.94.75,42.54,42.54,0,0,0-4.17-.93,92.34,92.34,0,0,1,9.17,2c.67.18.82.17.31-.09a25.74,25.74,0,0,0-3.7-1.34,35.71,35.71,0,0,1,4.78,1.6,14.25,14.25,0,0,1,2.54,1.36,5.61,5.61,0,0,1,1.2,1.11,3.11,3.11,0,0,1,.73,1.93v0a3.36,3.36,0,0,0-.84-2.07A6.7,6.7,0,0,0,237.28,94a15.52,15.52,0,0,0-2.64-1.31,16.94,16.94,0,0,1,2.52,1.2,7.11,7.11,0,0,1,1.27,1,3.75,3.75,0,0,1,1.1,1.73,3.45,3.45,0,0,0-.63-1.4A7,7,0,0,0,237,93.57a14,14,0,0,0-1.95-.95,11.82,11.82,0,0,1,3.42,2,10.58,10.58,0,0,0-2.82-2A40.27,40.27,0,0,0,230,90.49c-1.72-.52-3.22-.88-4.31-1.1a224,224,0,0,0-26.44-3.25C190.39,85.52,181.55,85.21,172.74,85.15Z"/><path class="cls-3" d="M102.24,65.12a40.28,40.28,0,1,1,57,57Z"/><path class="cls-2" d="M146.89,59.57c.07-.08-.48-.44.45-.06l1.07.47,1,.59,1.82,1.16c.61.37,1.12.87,1.71,1.3s1.2.88,1.83,1.36l.27,0c.88.86,1.81,1.7,2.68,2.62s1.67,1.94,2.47,3a37.57,37.57,0,0,1,6.75,12.48c0-.14.05-.21.23.23.27,1,.53,2.11.83,3.36s.38,2.66.56,4.06l.09,1.25a.84.84,0,0,0,.15.45c0,.65.05,1.26.07,1.84s-.07,1.13-.11,1.66a38.58,38.58,0,0,1-.44,5.24c-.12.87-.36,1.72-.53,2.59l-.29,1.3-.4,1.27a37.62,37.62,0,0,1-4.57,9.77c-.52.75-1,1.5-1.57,2.26a12.82,12.82,0,0,1-.88,1.07l-.2.23-.08.11-.18.22-.39.48c0,.08-.07,0-.11,0l-.11-.1-.22-.2-.51-.45-1.06-1-8.67-8.28c-2.54-2.32-5.08-4.65-7.48-7-3.52-3.43-7.87-7.94-11.25-11.34.11.93-8.34-7.13-7.11-5.07-2.25-2.26-5.62-5.67-5.91-5.73-.87-.18-3-1.51-9.21-7.3-2.4-2.3-5.86-6-6.76-6.81-1.41-1.19,2.8,3.29,1.39,2.1,17.32,17.56,34.26,34.21,51.82,51.77l1.56,1.5,2,2,1.12,1.11.59.58c.19-.17.38-.41.57-.62l2.49-2.78,1-1.08a8.84,8.84,0,0,0,.73-.87l1.43-2a16.29,16.29,0,0,0,1.43-2.17l1.39-2.38c.46-.83.82-1.74,1.25-2.63.2-.45.41-.9.62-1.36s.34-1,.51-1.44c.32-1,.71-1.95,1-3a43.69,43.69,0,0,0,1.55-13.09l-.08-1.7a13.6,13.6,0,0,0-.15-1.69c-.17-1.13-.33-2.25-.5-3.37s-.53-2.2-.8-3.29a13,13,0,0,0-.49-1.61c-.19-.52-.37-1-.56-1.57a40.87,40.87,0,0,0-6.08-11.11l-.88-1.19-1-1.07-1.86-2.06-1.94-1.77A22.06,22.06,0,0,0,157,60.23l-1.82-1.35a16.48,16.48,0,0,0-1.69-1.16L150.61,56c-.41-.21-.85-.39-1.27-.59a39.31,39.31,0,0,0-12.77-3.86,38.19,38.19,0,0,0-12.34.31,36.44,36.44,0,0,0-4.75,1.23,19.25,19.25,0,0,0-2.3.85l-2.27.93c1.46-.43,2.81-.79,4-1.1l-2.31.8a18.82,18.82,0,0,0-2.1.8c-1.26.6-2.29,1.1-2.84,1.41-5.93,3.74-2.3,2,.13,1,1.78-.66-.39.65,2.34-.43-1,.46-1.7.73-2.38,1.14s-1.37.81-2.28,1.34A20.32,20.32,0,0,0,112,58.31c1.32-.65,2.53-1.18,1.92-.76A17.46,17.46,0,0,0,111.14,59c-.91.59-1.88,1.09-2.73,1.71.32-.18,1.93-1,3.38-1.88a10.39,10.39,0,0,1,2.82-1.2c-.25.13-.72.33-1.28.56l-.9.38c-.31.15-.61.32-.91.49a12.16,12.16,0,0,0-2.43,1.51c0,.09,1.76-1,2.66-1.49a29.77,29.77,0,0,0-5.38,3.86c-.7.65-.13.41,2.27-1.18-.79.61-1.83,1.25-2.77,2s-1.86,1.62-2.63,2.35h0l2.91-2.54L103.48,66l.54-.34c.69-.57,1.37-1.16,2.07-1.78l-1.78,1.59c.51-.33,1.07-.72,1.67-1.16a13.3,13.3,0,0,1,1.71-1.17l1.63-1c1-.64,2-1,2.64-1.44l1-.57c.33-.19.69-.32,1-.48l2.07-.94c.69-.33,1.43-.51,2.14-.77s1.43-.53,2.17-.7l2.21-.52c.37-.08.74-.19,1.11-.24l1.13-.15,2.25-.31,2.27-.1a38.19,38.19,0,0,1,4.54.11c.76,0,1.5.21,2.25.3s1.51.17,2.24.37a38.55,38.55,0,0,1,4.36,1.21l2.13.75Z"/><rect class="cls-4" x="140.07" y="4.88" width="45" height="45" transform="translate(-2.29 27.62) rotate(-9.64)"/><path class="cls-2" d="M137.53,6.21c0,.1,1.16,0-.55.34-1,.2-2,.37-3,.53.16,1,.31,2,.47,3l.22,1.5.12,1c.13,1.06.28,2.14.52,3.3l.2.18c.3,2.24.62,4.58.94,7,.78,4.36,1.56,8.69,2.33,13,0-.13.08-.19.18.24.35,1.79.71,4.29,1.14,6.88.07.38.14.76.22,1.13a.72.72,0,0,0,.19.39c.19,1.17.35,2.21.5,3.18s.37,1.87.56,2.84c.3,1.61.61,3.27.93,5l3.59-.66,2.43-.47,4-.8,8.24-1.64L178,48.72l4.38-1,2.16-.46,2.31-.46,2.55-.45c-.35-2.13-.73-4.43-1.11-6.69-.32-2-.64-4-.92-5.75-.46.73-2.44-9.23-2.67-7.14-.46-2.73-1.14-6.85-1.33-7-.59-.56-1.51-2.57-3-9.79-.55-2.83-1.09-7.23-1.36-8.22-.42-1.55.28,3.75-.14,2.19,1.15,7.14,2.34,14.19,3.53,21.21,1.07,6.17,2.14,12.32,3.21,18.51l-18,3.1c-1.44.29-4.56.87-8.74,1.62L146,50.67c-1.93-10.94-6.47-37.53-6.79-39.84h.06l.14,0L144,10l5.52-1c3.65-.66,7.17-1.32,10-1.92l8-1.82-3.46.3c2.74-.46,5.48-.91,6.52-1.19,5.79-1.23,2.44-1,.13-1-1.64.1.49-.53-2.06-.27l4.57-.76c.18-.19-5.61,1-4.39.56,1.77-.23,3.72-.67,5.54-1-.67-.11-6.33,1-6.09.73,1-.22,5.18-.58,5.48-.91.07-.06-1.76.24-2.67.39,5.6-1,8.65-1.82,3.47-1.24,1.78-.29,4.32-.61,6.2-1h0l-3.44.51L180.5,0l-.58,0c-.8.1-1.61.21-2.44.35L179.61,0q-.83,0-1.86.06c-2.55.25-5,.41-6.39.64L154.74,3.36Z"/><path class="cls-5" d="M186.77,93.61c.14-4.44-1-8.88-.45-13.29s3.38-9.1,7.8-9.49c1.49-.13,3,.25,4.49.15,5.41-.38,9.9-6.83,15-5,4.8,1.71,4.59,8.75,8,12.59,2.14,2.44,5.52,3.32,8.24,5.1s4.85,5.59,2.87,8.17c-2.62,3.4-9.39.94-11.5,4.68-.83,1.49-.47,3.35-.86,5s-2.48,3.2-3.69,2c.59,4,.81,9-2.52,11.29-1.73,1.21-4,1.33-6.06,1.42-4.87.19-9.8.39-14.56-.66s-9.41-3.48-12.1-7.55a4.73,4.73,0,0,1-1-3.34c.14-.74.58-1.41.65-2.16A4.91,4.91,0,0,0,180,99.66c-1.86-3-3.27-6.43-2.91-9.92.42-4,3.06-7.38,5.59-10.51,1.42-1.75,3.18-3.66,5.43-3.55"/><path class="cls-2" d="M211.88,68.23c0-.11-.34-.24.23-.23a2.94,2.94,0,0,1,1.24.37,3.86,3.86,0,0,1,.92.89,16.26,16.26,0,0,1,1.6,3.13l.22.14c.39,1.08.75,2.26,1.25,3.53A15.32,15.32,0,0,0,219.5,80a12.26,12.26,0,0,0,3.35,2.76c1.16.69,2.28,1.2,3.3,1.7a19.69,19.69,0,0,1,2.66,1.47,6.57,6.57,0,0,1,1.68,1.85c0-.11,0-.17.22.1a3,3,0,0,1,.46,1.86,1.69,1.69,0,0,1-1.1,1.26,2,2,0,0,1-.36.16,3.09,3.09,0,0,1-.4.14.58.58,0,0,0-.31.21c-1,.22-2.1.3-3.18.43a11,11,0,0,0-4.46,1.46,6.26,6.26,0,0,0-1.13.95,6.13,6.13,0,0,0-1.58,3.83c-.07.78-.06,1.46-.1,2a5.22,5.22,0,0,1-.08.76c0,.15,0,.14,0,.21a1,1,0,0,1-.08.19,1.75,1.75,0,0,1-.59.66l-.09,0c0-.08,0,.27,0,.33,0,.24-.09.15.17-.1l-3,1.46a21,21,0,0,1,.37,5.83,5.31,5.31,0,0,1-2.42,4.28c-1.49.86-3.71.94-6,1.09s-4.59.27-6.89.23a28.4,28.4,0,0,1-9-1.18,18,18,0,0,1-6.18-3.46,14.68,14.68,0,0,1-2.4-2.67,4.79,4.79,0,0,1-1.09-2.75c-.1.09-.23-.1-.22-.53s.32-1.13.36-2.07a3.79,3.79,0,0,0-.81-2.13c-.43-.6-.87-1.14-1.2-1.6-.68-.92-1.08-1.43-.94-.72a19.43,19.43,0,0,1-1.7-4.67c-.34-1.53-.31-2.78-.39-2.9a4.79,4.79,0,0,1-.28-3.05c.23-1.83,1.29-4.6,3.7-7.87.48-.65,1-1.31,1.61-2a16.44,16.44,0,0,1,2.12-2.14,8.21,8.21,0,0,1,2.66-1.49,7.2,7.2,0,0,1,2.11-.31c.43,0,.39-.07.13-.12a6.19,6.19,0,0,0-.79-.07,6.49,6.49,0,0,0-1.13.12c-1.54.32-2.69,1.11-1.7.4a12.64,12.64,0,0,0-3.6,3.1c-.88,1-1.65,2-2.47,3.09a20.85,20.85,0,0,0-3.89,7.63,13.53,13.53,0,0,0-.27,4.61,17,17,0,0,0,1.06,4.29,24.86,24.86,0,0,0,1.84,3.77c.36.61.72,1.15.89,1.48a1.5,1.5,0,0,1,.15.35s0,0,0,0,0,0,0,0-.07.19-.13.36a8.26,8.26,0,0,0-.48,1.61,6.37,6.37,0,0,0,.63,3.78,13,13,0,0,0,1.56,2.44,19.47,19.47,0,0,0,1.84,2,22.79,22.79,0,0,0,9.11,5,37.89,37.89,0,0,0,9.92,1.34c1.64,0,3.25,0,4.85-.06s3.09-.07,4.94-.26a14,14,0,0,0,2.87-.71,8.51,8.51,0,0,0,4-3.07,11.16,11.16,0,0,0,1.81-5.6,28.6,28.6,0,0,0-.35-6l-4,2a3.93,3.93,0,0,0,2,1.06,4.18,4.18,0,0,0,2.07-.21,5.54,5.54,0,0,0,2.52-1.92,5.72,5.72,0,0,0,.77-1.4,5.9,5.9,0,0,0,.23-.79,5,5,0,0,0,.11-.64c.12-.82.13-1.52.17-2.11a4.42,4.42,0,0,1,.21-1.31.89.89,0,0,1,.19-.33c.05-.13.17-.19.25-.29a6,6,0,0,1,2.74-.83,30.21,30.21,0,0,0,4.47-.77,8,8,0,0,0,2.63-1.33,6.13,6.13,0,0,0,1.94-2.65,6.31,6.31,0,0,0,.29-3.19,8.32,8.32,0,0,0-.91-2.68,11,11,0,0,0-3.43-3.84,30.75,30.75,0,0,0-3.8-2.08,20.84,20.84,0,0,1-3-1.71,6.62,6.62,0,0,1-1.89-2,17.4,17.4,0,0,1-1.29-2.71,36.32,36.32,0,0,0-2.5-5.82,10.2,10.2,0,0,0-2.05-2.42,10.42,10.42,0,0,0-1.24-.84c-.42-.2-.83-.4-1.22-.54a8.19,8.19,0,0,0-1.69-.35,8.54,8.54,0,0,0-3.73.44,17.61,17.61,0,0,0-3.06,1.4c-1.83,1-3.44,2.13-5,2.81a7.84,7.84,0,0,1-2.14.65,10.66,10.66,0,0,1-2.39,0,10.81,10.81,0,0,0-3.22.14,9.12,9.12,0,0,0-2.95,1.22,11,11,0,0,0-3.46,3.85A14.53,14.53,0,0,0,185,78.53a13.93,13.93,0,0,1,1.69-3.7,15,15,0,0,0-1.54,4.32,13.57,13.57,0,0,0-.2,3c.11,3.28.43,3.9.51,3.5s.19-2,.41-3.17c.24-1.73.36.6.73-2.06a26.06,26.06,0,0,0,0,4.84c.09.11-.06-1.39,0-2.74s.17-2.54.23-1.87a27.57,27.57,0,0,0,.12,5.87c.08-.35,0-2,0-3.57a7.1,7.1,0,0,1,.31-2.76,29.84,29.84,0,0,0-.25,3.07,8.43,8.43,0,0,0,.2,2.64c.06.07-.08-1.86-.07-2.81a44.57,44.57,0,0,0,.67,6.16c.18.91.29.32.19-2.44.16,1.89.32,4.66.28,6.81h0a37.43,37.43,0,0,0,0-3.84c.08,1.17.13,2.37.1,3.59,0-.2.08-.42.12-.64,0-.91,0-1.81,0-2.73.05.79.09,1.58.09,2.39.09-.61.14-1.3.18-2,0-2.69-.05-5.32-.07-6.73a18,18,0,0,1,.3-3.91,10.78,10.78,0,0,1,1.32-3.38A7.31,7.31,0,0,1,192.39,74a4.62,4.62,0,0,1,2.83-.64c.62,0,1.36.13,2.24.17a11,11,0,0,0,2.88-.23,17.79,17.79,0,0,0,4.79-2c1.38-.78,2.61-1.57,3.77-2.15A6.06,6.06,0,0,1,211.88,68.23Z"/><path class="cls-5" d="M208.22,81.77a7.74,7.74,0,0,1,2.21,9.74c-.73,1.29-1.87,2.45-2,3.93a10.6,10.6,0,0,0,.79,3.45c.3,1.14.17,2.61-.87,3.17-.85.46-2.07.17-2.71.89"/><path class="cls-2" d="M208.68,87.22c.1,0,.19-.09.25,0,.12.28-.18.54-.09.81l.16,0a4.84,4.84,0,0,1-.28.66,7.78,7.78,0,0,1-.2,1.19s.11,0,.11.08a2.1,2.1,0,0,1-.33.58l0,.12a.19.19,0,0,0,.08.11,2.6,2.6,0,0,1-.25.31A14.27,14.27,0,0,0,207,94.22a5,5,0,0,0,.08,2,7.29,7.29,0,0,0,.68,1.61,8,8,0,0,1,.73,1,2,2,0,0,1,.14.8,2.61,2.61,0,0,1-.1.66c.29.06.46.39.53.78s0,.79.34.85a4.38,4.38,0,0,1-.81.69c-.08,0-.12.1-.11.14a.88.88,0,0,1-.16.84,1.66,1.66,0,0,1-.57.47l-.22.11a.72.72,0,0,0-.18.09,2,2,0,0,0-.24.16.31.31,0,0,1-.12,0h0s0,0,0-.08l0-.1a2.44,2.44,0,0,0-.14-.31.63.63,0,0,0-.1-.17.18.18,0,0,0,0-.07h0l.58.53h0v0l0,0,.06,0h0l-.69-.62h0s.08.13,0,.06.06.09.09.15l.12.24.14.39.08.25,0,.12h0a1.82,1.82,0,0,0,.3,0l.51-.06a5.6,5.6,0,0,0,.59-.12,4.79,4.79,0,0,0,1.11-.42,4.36,4.36,0,0,0,2-2.34,5.11,5.11,0,0,0,.33-1.56,7.3,7.3,0,0,0,0-.81c0-.28-.05-.52-.08-.72a12.75,12.75,0,0,0-.58-2,5.6,5.6,0,0,1-.33-1.1.57.57,0,0,1-.09-.54A9.3,9.3,0,0,1,212,93.22a9.62,9.62,0,0,0,.89-1.82,8.78,8.78,0,0,0,.49-1.87,12.31,12.31,0,0,0,.09-2.75l0-.21a6.78,6.78,0,0,0-1.43-3.5,7.55,7.55,0,0,0-1.18-.93,3.38,3.38,0,0,1,.12.64,2.12,2.12,0,0,0-.74-.81c-.85-.53-.64.09-.72.59,0,.29-.37.23-.27.61a3.73,3.73,0,0,0-.41-.47c-.12.08.58.5.26.55-.1-.22-.35-.34-.52-.51-.08.2.51.65.31.77-.1-.06-.22-.69-.45-.52,0,0,.12.19.19.28-.57-.45-1-.44-.75.16a2.33,2.33,0,0,0-.48-.51h0c.08.08.18.23.26.3L207.4,83l0,.13a.73.73,0,0,0,.16.22l-.17-.15c0,.11,0,.21,0,.32.11.28.07.66.17.74A6.55,6.55,0,0,1,208.68,87.22Z"/><path class="cls-6" d="M169.63,106.85c-37.85,0-68.54-4.29-68.54-9.57l22.29,137.08c0,3.57,20.71,6.46,46.25,6.46s46.26-2.89,46.26-6.46L238.17,97.28C238.17,102.56,207.49,106.85,169.63,106.85Z"/><path class="cls-2" d="M107,149.35c.1,0-.07-1.66.4,1,1.43,8.21,2.17,14.88,3.61,23.1.08.19.17.38.26.57l3,19.82q3.11,18.71,6.17,37.24c0-.34,0-.5.26.73l.49,2.94c0,.13,0,.29.11.4l.1.41a3.11,3.11,0,0,0,.38.75,5.53,5.53,0,0,0,1.24,1.22,8.56,8.56,0,0,0,1.2.69,11.19,11.19,0,0,0,1.08.48,31.61,31.61,0,0,0,4.33,1.29c2.94.67,6,1.17,9.18,1.56l3.33.35a5.28,5.28,0,0,0,1.22,0c3.4.33,6.43.55,9.23.73,10.5.47,21,.41,31.83-.17,5.4-.3,10.86-.75,16.42-1.49,2.79-.38,5.59-.82,8.42-1.48a35.26,35.26,0,0,0,4.31-1.25,12.05,12.05,0,0,0,2.29-1.13,4.84,4.84,0,0,0,1.23-1.2,2.29,2.29,0,0,0,.33-.79,3.37,3.37,0,0,0,.16-.85c2.28-14.92,4.83-31.59,7.46-48.84,1.23-8.46,2.45-16.91,3.71-25.05,1.89-12,4.49-27.38,6.42-39.11-.34.67.14-3.37.74-8.17.31-2.4.63-5,.92-7.26.14-1.12.26-2.17.37-3.08s.16-1.53.18-2c.07-1.06,0-1-.34,0q.14-.8.27-1.65l.07-.42a1.27,1.27,0,0,1-.09.43,2,2,0,0,1-.54.7,6.89,6.89,0,0,1-1.71,1c-.29.13-.57.24-.86.35l-.51.19-.57.2c-.77.25-1.53.48-2.27.68-1.48.4-2.88.72-4.09,1-2.42.51-4.1.82-4.31.91a35.18,35.18,0,0,1-7.16,1.79,200.18,200.18,0,0,1-21.69,2.42c-8.27.54-21,.49-23.89.55-2.29.08.38.17,3.07.24s5.37.12,3.07.23c10.14-.1,20.23-.5,30.26-1.36,5-.43,10-1,15-1.75,2.5-.39,5-.84,7.51-1.4,1.25-.28,2.5-.59,3.77-1,.63-.18,1.26-.39,1.9-.61l.24-.09.12,0h0s0,0,0,0c-5.87,36.33-11.72,72.47-17.73,109.64-.57,3.64-1.71,11-3.26,20.81,0,0,0,.09-.09.13a7.32,7.32,0,0,1-1.56.71,32.9,32.9,0,0,1-4.35,1.18c-3.13.65-6.55,1.13-10.13,1.52-7.18.78-15.07,1.2-23.32,1.33s-16.88,0-25.56-.65c-4.34-.31-8.71-.73-13-1.39-2.14-.33-4.26-.72-6.27-1.24a19.69,19.69,0,0,1-2.81-.93c-.21-.08-.38-.18-.57-.27l-.21-.12-.06,0a.23.23,0,0,1-.11-.18c-5.54-34.18-10.74-66.22-13.12-80.88-.18-1.09-.36-2.17-.53-3.26-1.29-7.9-2.69-16.48-4.07-25-.71-4.25-1.41-8.48-2.09-12.59-.35-2-.69-4.08-1-6.07-.16-.92-.31-1.83-.47-2.73,0-.17-.06-.33-.1-.49s-.07-.32-.1-.48l0-.12s0,.06,0,.08a.45.45,0,0,0,.12.16,1.53,1.53,0,0,0,.42.22l.32.11c.51.18,1,.33,1.47.48A84,84,0,0,0,118,105.42c3.9.54,7.82.92,11.73,1.23-3.62-.45-7-1-9.85-1.47,7.91,1.17,15.85,1.76,18.91,1.87,8.46.44,10.3.3,9.21.12s-5.1-.57-8.33-1c-4.65-.51,1.67-.29-5.6-1,5.25.44,7.88.61,13.17.89.3-.07-3.76-.24-7.43-.48s-7-.54-5.13-.52c5.06.49,10.74.72,16,.94-.91-.15-5.47-.36-9.7-.66a69.92,69.92,0,0,1-7.7-.73c1.42.1,5.1.48,8.57.73a60,60,0,0,0,7.22.31c.21,0-5.06-.29-7.69-.47,8.1.46,14.4.53,16.81.47s.95-.19-6.44-.59c5.13.21,12.4.46,17.83.41h0c-2.71,0-7.39-.11-9.89-.17,3.08.06,6.17.1,9.25.11l-1.62-.12-7-.14,6.14.08-5.23-.31c-7.29-.29-14.25-.88-18.18-1.12-6.49-.41-13-1-19.41-1.82-3.21-.42-6.41-.92-9.55-1.54-1.56-.32-3.12-.67-4.63-1.08-.76-.21-1.5-.42-2.22-.66l-.54-.19-.79-.3-1.12-.5a5.26,5.26,0,0,1-.58-.35l-.28-.18-.15-.1-.07,0,0,0h0c0,.21-.09-.47.06.45-1.35.09-2.19.13-2.56.13-.17,0-.24,0-.15,0s.08,0,.09-.05v-.17h0l-1.3-2.12h0l0,.06-.22.52-.88,2Q102.82,123.61,107,149.35Z"/><circle class="cls-5" cx="44.32" cy="179.51" r="6.5"/><line class="cls-7" x1="44.82" y1="192.41" x2="44.82" y2="181.83"/><path class="cls-2" d="M45.84,189.88s-.08,0-.1,0,.1-.31.06-.48h-.06l.09-.42c0-.26,0-.52,0-.77,0,0,0,0-.06,0a2.94,2.94,0,0,1,0-.41v-.07l0,0a1.11,1.11,0,0,1,0-.19c-.13-.76-.28-1.52-.43-2.36a3.39,3.39,0,0,1-.15-.52,7.24,7.24,0,0,1,0-.81c-.23,0-.34-.56-.57-.44,0-.17,0-.41,0-.42s-.43-.17-.54-.6c0-.17.05-.43,0-.49s-.14.22-.2.13c-.07,1.26,0,2.47,0,3.74a35.11,35.11,0,0,1,.11,4.09v.07a5,5,0,0,0,.09,1.25c0,.16.12.32.18.48l.12-.2a.89.89,0,0,0,0,.39c.1.34.21.15.37,0s.17,0,.25-.11a2.35,2.35,0,0,0,0,.27c.06,0,0-.34.07-.26s0,.22,0,.33c.09,0,0-.38.12-.36s-.12.3,0,.33,0-.11,0-.16c0,.33.14.52.25.21,0,.11,0,.26,0,.37h0a1.52,1.52,0,0,0,0-.21,1.15,1.15,0,0,1,0,.19l.05,0a.68.68,0,0,0,0-.14v.12a.52.52,0,0,0,.1-.11c.07-.15.18-.29.18-.37C45.8,191.2,45.84,190.54,45.84,189.88Z"/><line class="cls-7" x1="44.58" y1="175.59" x2="44.58" y2="165.74"/><path class="cls-2" d="M45.6,173.24s-.08,0-.1,0,.1-.29.06-.45H45.5c0-.12.06-.25.09-.39s0-.48-.05-.72c0,0,0,0,0,0a1.76,1.76,0,0,1,0-.39v-.06l-.05,0c0-.07,0-.12,0-.18-.12-.7-.27-1.42-.42-2.19a3.06,3.06,0,0,1-.15-.49,6.43,6.43,0,0,1,0-.76c-.23,0-.34-.52-.57-.41,0-.15,0-.38-.06-.39a.68.68,0,0,1-.54-.55c0-.16.06-.4,0-.46s-.14.21-.2.12c-.07,1.17,0,2.3,0,3.48a30.83,30.83,0,0,1,.1,3.82v.06a4,4,0,0,0,.09,1.16c.05.15.12.3.18.45l.12-.19a.73.73,0,0,0,0,.36c.1.33.21.14.37,0s.17,0,.24-.11a2.09,2.09,0,0,1,0,.25c.07,0,0-.31.08-.24a1.08,1.08,0,0,0,0,.31c.09,0,0-.35.12-.33s-.12.28,0,.3,0-.1,0-.15c0,.31.13.48.25.2a2,2,0,0,0,0,.34h0c0-.05,0-.14,0-.19v.18l.05,0a.68.68,0,0,0,0-.14v.12l.1-.1a2,2,0,0,0,.18-.35C45.56,174.47,45.59,173.85,45.6,173.24Z"/><line class="cls-7" x1="58.28" y1="179.46" x2="47.7" y2="179.46"/><path class="cls-2" d="M55.75,178.43s0,.09,0,.1-.31-.09-.48-.05l0,.06-.41-.09-.78,0s0,0,0,.06-.26,0-.41,0h-.07s0,0,0,0l-.19,0L51,179a3.39,3.39,0,0,1-.52.15,7.22,7.22,0,0,1-.81,0c0,.23-.56.35-.44.58-.17,0-.41,0-.43,0s-.16.42-.59.54c-.17,0-.43-.05-.49,0s.22.13.12.2c1.26.07,2.48,0,3.75,0a35.11,35.11,0,0,1,4.09-.11h.07a5,5,0,0,0,1.25-.09l.48-.19a1,1,0,0,1-.21-.11.85.85,0,0,0,.39,0c.35-.1.15-.22,0-.37s0-.18-.12-.25h.28c0-.06-.34,0-.26-.07s.22,0,.33,0-.38,0-.36-.12.3.12.32,0-.1,0-.16,0c.34,0,.52-.14.22-.26a2.1,2.1,0,0,0,.37,0h0l-.21,0h.19l0,0-.15,0h.13a.52.52,0,0,0-.11-.1c-.15-.07-.29-.18-.37-.18C57.07,178.48,56.41,178.44,55.75,178.43Z"/><line class="cls-7" x1="39.77" y1="179.46" x2="31.61" y2="179.46"/><path class="cls-2" d="M37.82,178.43s0,.09,0,.1-.24-.09-.37-.05v.06l-.32-.09-.6,0s0,0,0,.06-.2,0-.31,0h-.06s0,0,0,0l-.14,0-1.82.43a2.17,2.17,0,0,1-.4.15,4.43,4.43,0,0,1-.63,0c0,.23-.43.35-.34.58-.12,0-.31,0-.32,0a.64.64,0,0,1-.46.54c-.13,0-.34-.05-.38,0s.17.13.1.2c1,.07,1.9,0,2.88,0a21,21,0,0,1,3.16-.11h0a3.05,3.05,0,0,0,1-.09l.37-.19A.91.91,0,0,1,39,180a.52.52,0,0,0,.3,0c.27-.1.12-.22,0-.37s0-.18-.09-.25h.21c0-.06-.26,0-.2-.07s.17,0,.26,0-.29,0-.28-.12.24.12.25,0-.08,0-.12,0c.26,0,.4-.14.16-.26a1.45,1.45,0,0,0,.29,0h0l-.16,0h.15l0,0-.11,0h.1a.43.43,0,0,0-.09-.1c-.11-.07-.22-.18-.29-.18C38.84,178.48,38.33,178.44,37.82,178.43Z"/><circle class="cls-5" cx="242.28" cy="261.84" r="6.5"/><line class="cls-7" x1="242.78" y1="274.75" x2="242.78" y2="264.17"/><path class="cls-2" d="M243.8,272.22s-.08,0-.1,0,.1-.31.06-.48l-.06,0,.09-.41c0-.26,0-.52,0-.78,0,0-.05,0-.06,0a2.94,2.94,0,0,1,0-.41V270s0,0-.05,0a1,1,0,0,1,0-.19c-.13-.76-.28-1.53-.43-2.36a3.39,3.39,0,0,1-.15-.52,5.62,5.62,0,0,1,0-.82c-.24,0-.35-.55-.58-.44,0-.16,0-.4-.05-.42s-.43-.16-.54-.59c0-.17.05-.43,0-.49s-.14.22-.2.12c-.07,1.26,0,2.48,0,3.75a35.11,35.11,0,0,1,.11,4.09v.07a5,5,0,0,0,.09,1.25l.18.48a2,2,0,0,1,.12-.21.85.85,0,0,0,0,.39c.1.35.21.15.37,0s.18,0,.25-.12a2.53,2.53,0,0,0,0,.27c.06,0,0-.33.07-.25s0,.22,0,.33c.09,0,0-.38.12-.36s-.12.3,0,.32,0-.1,0-.16c0,.34.14.52.26.22a2.1,2.1,0,0,0,0,.37h0a1.38,1.38,0,0,0,0-.2v.19l0,0,0-.15a.62.62,0,0,0,0,.13.52.52,0,0,0,.1-.11c.07-.15.18-.29.18-.37C243.76,273.54,243.8,272.88,243.8,272.22Z"/><line class="cls-7" x1="242.54" y1="257.93" x2="242.54" y2="248.08"/><path class="cls-2" d="M243.56,255.58s-.08,0-.1,0,.1-.29.06-.45h-.06c0-.13.06-.26.09-.39s0-.48-.05-.72c0,0,0,0-.05,0a2.56,2.56,0,0,1,0-.38v-.06s0,0,0,0,0-.13,0-.18c-.12-.7-.27-1.42-.42-2.19a3.4,3.4,0,0,1-.15-.49,6.43,6.43,0,0,1,0-.76c-.23,0-.34-.52-.57-.41,0-.15,0-.38-.06-.39a.67.67,0,0,1-.53-.56c0-.15.05-.4,0-.45s-.14.2-.2.11c-.07,1.18,0,2.31,0,3.49a30.66,30.66,0,0,1,.1,3.81s0,0,0,.07a4,4,0,0,0,.09,1.16c.05.15.12.3.18.45A1.57,1.57,0,0,1,242,257a.75.75,0,0,0,0,.36c.1.32.21.14.37,0s.17,0,.24-.11v.25c.06,0,0-.31.07-.24a1.08,1.08,0,0,0,0,.31c.09,0,0-.35.12-.34s-.12.29,0,.31,0-.1,0-.15c0,.31.13.48.25.2a2,2,0,0,0,0,.34h0c0-.05,0-.14,0-.19v.18l0,0a.68.68,0,0,0,0-.14v.12l.1-.1a2.35,2.35,0,0,0,.18-.35C243.52,256.8,243.55,256.19,243.56,255.58Z"/><line class="cls-7" x1="256.24" y1="261.8" x2="245.66" y2="261.8"/><path class="cls-2" d="M253.71,260.77s0,.08,0,.1-.31-.1-.48-.06c0,0,0,.05,0,.07l-.41-.1-.78.05s0,.05,0,.05a1.93,1.93,0,0,1-.41,0h-.07a.06.06,0,0,0,0,.05h-.19l-2.36.43a3.39,3.39,0,0,1-.52.15,7.22,7.22,0,0,1-.81,0c0,.23-.56.34-.44.58-.17,0-.41,0-.42.05s-.17.42-.6.54c-.17,0-.43-.06-.49,0s.22.14.12.2c1.26.08,2.48,0,3.75,0a37.66,37.66,0,0,1,4.09-.1h.07a5,5,0,0,0,1.25-.1l.48-.18-.21-.11a1,1,0,0,0,.39,0c.35-.1.15-.22,0-.38s0-.17-.12-.24h.28c0-.07-.34,0-.26-.07a1.88,1.88,0,0,0,.33,0c0-.08-.38,0-.36-.12s.3.12.32,0-.1,0-.15,0c.33,0,.51-.14.21-.26.1,0,.25.05.37,0h0l-.21,0h.19l0,0a.4.4,0,0,0-.15,0h.13l-.11-.1a1.57,1.57,0,0,0-.37-.17C255,260.82,254.37,260.78,253.71,260.77Z"/><line class="cls-7" x1="237.73" y1="261.8" x2="229.57" y2="261.8"/><path class="cls-2" d="M235.78,260.77s0,.08,0,.1-.24-.1-.37-.06v.07l-.32-.1-.6.05s0,.05,0,.05a1.1,1.1,0,0,1-.31,0h-.06s0,0,0,.05h-.14l-1.82.43a2.17,2.17,0,0,1-.4.15,4.43,4.43,0,0,1-.63,0c0,.23-.43.34-.34.58-.12,0-.31,0-.32.05a.64.64,0,0,1-.46.54c-.13,0-.33-.06-.38,0s.17.14.1.2c1,.08,1.9,0,2.88,0a22.54,22.54,0,0,1,3.16-.1h0a3,3,0,0,0,1-.1l.37-.18-.16-.11a.62.62,0,0,0,.3,0c.27-.1.12-.22,0-.38s0-.17-.09-.24h.21c0-.07-.25,0-.2-.07a1.18,1.18,0,0,0,.26,0c0-.08-.29,0-.28-.12s.24.12.25,0-.08,0-.12,0c.26,0,.4-.14.17-.26a2.36,2.36,0,0,0,.28,0h0l-.16,0h.15l0,0a.2.2,0,0,0-.11,0h.1a.81.81,0,0,0-.09-.1c-.11-.07-.22-.17-.29-.17C236.8,260.82,236.29,260.78,235.78,260.77Z"/></g></g></svg>