<svg xmlns="http://www.w3.org/2000/svg" viewBox="0 0 276.58 276.19"><defs><style>.cls-1{fill:#1933d3;}.cls-1,.cls-2,.cls-4,.cls-5{fill-rule:evenodd;}.cls-2{fill:#bbcef1;}.cls-3,.cls-5{fill:#202020;}.cls-4{fill:#e4ebf9;}.cls-6{fill:#fff;}.cls-7{fill:#dde3e9;}</style></defs><g id="Layer_2" data-name="Layer 2"><g id="Layer_1-2" data-name="Layer 1"><g id="Background-Shape-2"><path id="Background-Shape" class="cls-1" d="M224.44,105.91C254,130.25,208,211.48,140.93,254S.82,273.69,1.42,222,194.86,81.58,224.44,105.91Z"/></g><polyline class="cls-2" points="276.42 126.22 247.34 134.84 247.34 145.89 275.88 135.88 276.42 126.22"/><path class="cls-3" d="M257.06,129.28c0,.1.31.12-.08.29-1.24.46-2.35.44-3.59.91l0,.18-3.11.67L244.87,133c0,1.36,0,2.71,0,4,.06,0,.12-.07.14.12,0,.83,0,2,0,3.15l0,.52a.25.25,0,0,0,.12.19c0,.61,0,1.16,0,1.66.06,1.95.12,3.89.18,6l5.83-2.27L254.6,145l7-2.92c1.23-.59,2.45-1.18,3.66-1.68,1.8-.7,4.16-1.41,5.94-2-.46-.45,3.77-2.23,2.71-2.48.5-.17,1-.32,1.42-.49a2.28,2.28,0,0,0-.08-1c-.48-.12-1-1.23-1.1-4.54,0-1.3.32-3.29.25-3.75-.12-.74-.44,1.66-.55.93-.16,2.34-.31,4.64-.46,6.93l-17.23,6.16c-.59.25-1.83.74-3.5,1.36l-2.61,1-.36.17c0-.1,0-.2,0-.3v-2c0-1.31,0-2.62,0-3.88l4.18-1.23,4-1.16.5-.15c3-.87,6.66-2,9.14-3l3.41-1.49c-.58.08-1.11.14-1.58.18a21.25,21.25,0,0,0,2.84-.93c2.5-1,1-.84-.14-.93-.75,0,.13-.49-1-.33l2-.57c.05-.18-2.44.81-2,.39.79-.17,1.62-.52,2.42-.75-.34-.13-2.8.74-2.73.5.41-.18,2.33-.38,2.41-.69a6.47,6.47,0,0,0-1.19.28c2.44-.81,3.73-1.46,1.39-1.08.79-.22,1.92-.44,2.74-.72h0l-1.52.38,1.41-.41-.28,0c-.36.07-.72.15-1.08.25l.93-.26a8.21,8.21,0,0,0-.87,0c-1.16.16-2.29.23-2.9.4C266.81,126.51,261.91,127.86,257.06,129.28Z"/><polyline class="cls-4" points="107.79 129.68 107.79 149.05 117.22 150.19 118.2 139.22 118.66 150.37 145.9 153.66 148.19 139.42 150.51 154.21 154.97 154.75 155.99 147.17 156.92 154.98 184.37 157.62 185.22 148.4 187.1 157.95 227.43 162.82 228.26 156.36 228.83 162.99 241.75 164.55 241.75 145.17"/><path class="cls-3" d="M129.51,154.26c0-.1-.8-.3.53-.19,4.22.42,7.55,1.16,11.76,1.57l.32-.12,5.77.77c.31-1.78.63-3.61,1-5.47.2-1.09.4-2.2.61-3.32.4-2.57.8-5.14,1.2-7.69h-4.95c.62,3.77,1.24,7.5,1.85,11.22,0-.17.07-.26.19.36l.78,4.88,8.41,1c.2-1.45.41-2.94.62-4.45l.21-1.82a1.29,1.29,0,0,0,0-.62c.15-1.09.3-2.09.42-2.95l-4.33,0c.07.64.13,1.16.18,1.67.34,2.5.67,5,1,7.81l30.77,2.45c.25-3.31.51-6.76.81-10.83l-2.79.14,2.23,10.39,6.1.64c4.32.37,8.64.74,12.8,1.17,6.16.68,13.92,1.72,20,2.47-.33-.21,1.09-.18,2.79-.11.15-2.46.32-5,.41-6.88h.21c.31,1.8.56,2.87.68,1.85.11,1.28.23,2.81.35,4.24l3.29.36a11,11,0,0,0,1.8.11,7.58,7.58,0,0,1,2.15-.28c.58,0,1.29,0,2.17,0a1.3,1.3,0,0,0,.39,0l.26,0,.49-.06q0-.24-.09-.51a2,2,0,0,0,0-.24,3.33,3.33,0,0,1,0-.45c0-1.22-.09-2.58-.14-4.08-.07-4.18.14-10.6,0-12.07-.16-2.32-.34,5.42-.5,3.1q0,6.69-.06,13.31l-7.84-1v0h0l0-.38-.07-.83-.28-3.31-5.24-.12-.41,3.23-.08.67h0v0l-35.93-4.25c-.46-2.35-.94-4.76-1.41-7.17l-.13-.57-5,.26c-.07.94-.17,2.21-.29,3.76-.06.78-.13,1.63-.2,2.54l0,.33V155h-.34l-3-.27-6.62-.61L159,152.88c-.24-2-.49-4-.73-6l-4.52,0q-.34,2.67-.71,5.37l-.55-.06-2.07-13.11H146c-.71,4.39-1.37,8.48-1.95,12.11l-11.79-1.46-1.67-.2-9.72-1.17c-.16-3.14-.32-6.28-.46-9.21L116,139c-.2,2.84-.39,5.51-.55,7.89l0,.38a.5.5,0,0,0,0,.13v.19l0,.43-.55,0h-.18l-.54-.05-1.09-.08-2.18-.18-.54,0h-.72l.51.13,1.18.22,2.34.42-4.62-.56c0-.41,0-.79,0-1.11,0-.57,0-1.15-.06-1.52-.24-8.56-.53-3.71-.92-.42-.09,1.19-.2,1-.31.94s-.11,0-.16.26a13.09,13.09,0,0,0-.14,1.8c0-2.72,0-4.09,0-6.82a35.61,35.61,0,0,0-.06,3.78c0,1,0,1.76,0,2.42s0,.85-.12.32c0-.69,0-1.39,0-2.11s0-1.36,0-2.05c0-1.38,0-2.77,0-4.11-.11.46-.13,2.78-.15,4.94,0,1.1,0,2.17,0,2.93,0,.94,0,1.54-.11,1.43v-1c0-.36,0-.79,0-1.26,0-.78.05-1.69.08-2.57a19.65,19.65,0,0,0-.07-3.68c-.06-.1-.06,2.58-.07,3.92-.08-8.25-.34-12.8-.64-5.27,0-2.61.13-6.31.09-9.07v0c0,1.38-.05,3.76-.06,5,0-1.56,0-3.14,0-4.71,0,.26-.07.54-.11.83,0,1.17-.06,2.35-.07,3.57,0-1,0-2.08,0-3.13-.09.78-.17,1.68-.25,2.67-.18,3.71-.44,7.27-.44,9.28,0,2.63,0,5.27,0,7.92l14,1.75,1.26-13.47-5-.12q.24,6.66.5,13.31Z"/><polyline class="cls-4" points="270.82 136.96 270.82 156.15 265.86 157.58 265.41 152.71 265.03 156.8 255.44 159.57 254.04 149.75 254.25 160.93 241.75 164.55 241.75 145.36"/><path class="cls-3" d="M268.15,154.25c0,.12-.06.23-.13.3a.24.24,0,0,1-.12,0,1.18,1.18,0,0,1,.1-.27s0,0,0-.07v0h0l0-.19-.18-.1c0-.46,0-.94,0-1.44H263c-.11.74-.24,1.52-.36,2.3,0,0,0,0,0,.07.69-.17-1.93.62-3.42,1.09.07,0,.11.09-.11.17l-.76.24-.43.12a1.84,1.84,0,0,1-.3.08l-.22,0-.09,0-.07.09,0,.07c0-.11,0-.22,0-.31l-.07-.14s0,0,0-.06l0-.24-.09-.49c-.13-.65-.25-1.3-.38-2-.25-1.32-.51-2.68-.79-4.1l-3.6.29c.12,1.73.25,3.53.38,5.39.07.93.14,1.87.2,2.84.07,1.18.13,1.36.19,2l-.5.2-.28.11-.39.14c-1.5.59-3,1.18-4.47,1.68l-1.39.42-1.37.39-2.06.53c0-.35,0-.67,0-1-.28.38-.5-.44-.71-1.64s-.44-2.28-.73-1.73a21.13,21.13,0,0,0-.13-3.84c-.49-.35-1.05-1.5-1.35-5.46-.07-1.55.14-3.93,0-4.47-.16-.86-.34,2-.5,1.15-.05,3-.07,6.05-.07,9.05l0,12.46,17.69-5.19c0-1.67-.07-3.37-.1-5.08-.1-1.14-.22-4.15-.34-8l-4.68.38c.55,3.69,1.2,8,1.85,12.39l13.56-3.95c.19-2,.36-3.9.52-5.62h-4.46c.28,3.14.51,5.75.67,7.61l.81-.23,1.12-.33,7.32-2.11c0-1.23,0-2.46,0-3.67,0-.65,0-1.29,0-1.92,0-1.24-.09-2.42-.17-3.45-.15-1.42-.3-2.91-.46-4.38-.09.68-.19,1.31-.28,1.86a29,29,0,0,0-.08-3.56c-.25-3.17-.53-1.37-.93-.15-.17.88-.43-.31-.61,1.06,0-1,0-1.48,0-2.48-.16-.11.09,3.06-.18,2.37.06-1,0-2,0-3-.22.34-.08,3.44-.3,3.29-.05-.54.3-2.79,0-3a7.56,7.56,0,0,0-.07,1.45c-.09-3.06-.34-4.75-.64-1.95,0-1,.12-2.34.08-3.37h0c0,.51-.05,1.4-.07,1.86l0-1.74-.12.3c0,.44-.06.87-.06,1.33v-1.16c-.09.29-.18.62-.26,1-.17,1.37-.43,2.69-.43,3.44-.08,4.08-.15,8.17-.22,12.24h0Z"/><polyline class="cls-2" points="102.05 119.81 102.05 129.02 247.34 145.89 247.34 136.68 102.05 119.81"/><path class="cls-3" d="M166.43,139.08c0-.1-1-.32.64-.18,5,.49,9,1.29,14,1.78l.38-.12,12,1.64,22.7,2.51c-.19-.08-.28-.14.48-.08,3.13.32,7.46.88,12,1.42l2,.2a1.82,1.82,0,0,0,.74,0l5.51.68,5,.51,7.54.8c0-4.19-.08-8.41-.13-13.22l-51.17-5.15c-5.15-.45-10.3-.9-15.26-1.4-7.34-.79-16.68-2-23.82-2.83,1,.7-16.43-1-13-.06-4.76-.57-11.91-1.42-12.3-1.3-1.16.36-4.89.49-17.58-.68-5-.51-12.54-1.6-14.3-1.7-2.76-.17,6.38,1.09,3.62.92,36.78,4.45,72.24,8.36,109.29,12.67l11.93,1.26,18.37,2V139c0,.73,0,1.48,0,2.22s0,1.39,0,2.1l-42.52-4.88-33-3.87-2-.22c-11.92-1.42-26.4-3.05-36.51-4L117,129.16l5.91,1c-4.77-.56-9.53-1.13-11.38-1.24-10.18-.93-4.46,0-.6.87,2.79.49-1,.31,3.34,1l-7.94-.95c-.38.12,9.79,1.06,7.56,1.07-3.06-.42-6.47-.72-9.67-1.1,1.1.35,11,1.36,10.49,1.52-1.72-.14-8.89-1.33-9.54-1.13-.12,0,3,.42,4.64.61l-8.74-.88c0-1.2-.07-2.17-.09-2.87,0-.39,0-.53,0-.68a1.65,1.65,0,0,0,0-.25s-.08.14-.12.65c0,.71-.08,1.86-.13,3.54l2.47.35-2.52-.3c0-1.86,0-3.93.06-6,0-1.59,0-3.17,0-4.55v0c0,1.65,0,4.49-.07,6,0-1.87,0-3.75,0-5.62,0,.3-.08.63-.12,1,0,1.4-.06,2.8-.06,4.26,0-1.24,0-2.48,0-3.73-.09.93-.18,2-.26,3.18,0,.78-.06,1.56-.09,2.32q0,1.86-.09,3.63l3.65.52,2.07.32c1.17.19,2.19.34,3,.43C127.92,134.5,147.22,136.83,166.43,139.08Z"/><polygon class="cls-2" points="276.42 128.03 131.13 111.15 102.05 119.82 247.34 136.7 276.42 128.03"/><path class="cls-3" d="M192.85,115.74c0,.09,1.1.33-.71.17-5.7-.57-10.24-1.44-15.95-2l-.43.11-13.66-1.83-25.78-2.87c.21.08.31.15-.54.07l-4.85-.55-9.34,2.74-2.17.68a2.44,2.44,0,0,0-.75.36l-6.84,2-9.29,2.84a18.52,18.52,0,0,1-.9,2.4,20.57,20.57,0,0,0,1.71,2.1l11.92,1.28,7.27.74,14.85,1.51,31,3.17c5.85.53,11.7,1.06,17.33,1.64,8.33.91,18.95,2.25,27.06,3.21-1.18-.72,18.64,1.3,14.76.26,5.41.65,13.53,1.61,14,1.49a9.49,9.49,0,0,1,1.88-.19c.47,0,1,0,1.72,0l1.1,0,.63,0h.34l.23-.11.57-.21,1.25-.45,3-1c2.18-.74,4.8-1.61,7.94-2.61,5.4-1.69,13.8-4,15.68-4.64,3-1-7.13,1.77-4.17.72L247.11,134l-97.65-11.24-15.05-1.62-11.9-1.34-6.75-.76-1-.1-.19,0-.41,0-.76-.07.66-.21.68-.22,5.43-1.63,11.12-3.33,58,6.77,2.26.26c13.54,1.6,30,3.47,41.47,4.58l16,1.39-6.71-1.06c5.41.64,10.82,1.28,12.92,1.42,11.56,1.09,5.06,0,.67-.86-3.17-.54,1.17-.3-3.81-1l9,1.07c.43-.12-11.13-1.21-8.59-1.19,3.46.47,7.36.82,11,1.25-1.23-.37-12.49-1.54-11.91-1.69,1.95.18,10.1,1.47,10.83,1.29.14,0-3.46-.47-5.27-.68,11.12,1.2,17.27,1.66,7.16.18,3.52.42,8.49,1.11,12.21,1.51h0l-6.77-.85,6.33.75-1.09-.24c-1.57-.22-3.16-.43-4.8-.63l4.21.5c-1-.21-2.24-.43-3.56-.67-5-.75-9.74-1.56-12.44-1.88C236.61,120.93,214.68,118.29,192.85,115.74Z"/><path class="cls-5" d="M231.88,1.19,185.75,119.55c3.77,3.21,10.21,3.28,13.05,0L244.93,1.19"/><path class="cls-3" d="M206.2,60c.08.06.5-.73,0,.58-1.49,4.09-3.08,7.23-4.57,11.32l0,.35-4,9.67q-3.54,9.24-7,18.41c.11-.14.19-.2,0,.42-1,2.55-2.37,6-3.81,9.67-.2.54-.4,1.08-.59,1.61a1.48,1.48,0,0,0-.11.64c-.7,1.74-1.32,3.3-1.89,4.74-.18.51-.42,1-.56,1.53l-.23.75-.11.37c0,.12-.16.28,0,.34l1.29,1,1.31.9c.23.14.48.27.73.39l.55.27,1,.38a14.89,14.89,0,0,0,2.07.51,13.08,13.08,0,0,0,4.28,0,10,10,0,0,0,4.16-1.66,9.39,9.39,0,0,0,.91-.76l.56-.57a1.87,1.87,0,0,0,.26-.3l.14-.37.7-1.89c.42-1.15.85-2.29,1.27-3.44q1.28-3.43,2.55-6.92l10.59-28.7c1.48-4.21,3-8.42,4.46-12.45,2.25-6,5.3-13.49,7.57-19.27-.88.68,4.35-13.52,2.71-10.92,1.52-3.85,3.79-9.63,3.75-10-.1-1.07.53-4.25,4.25-14.59C240,8,242.54,1.89,243,.44c.72-2.28-2.34,5.08-1.62,2.79C229.6,33,218.62,61.71,206.93,91.7c-.93,2.58-3.31,8.82-6.45,17-.78,2-1.62,4.21-2.49,6.47-.38,1-.78,2-1.18,3.08l-.15.15c-.17.11-.3.26-.49.36a5,5,0,0,1-1.23.56,8.45,8.45,0,0,1-6.08-.49.83.83,0,0,1-.26-.14c-.06,0,0-.06,0-.1l0-.12c.45-1.14.89-2.29,1.34-3.44,8-20.72,16.45-42.36,20-51.18.21-.54.42-1.07.62-1.61,3.79-9.63,8.32-21.37,11.3-29.61,1.31-3.79,2.65-7.66,4-11.51-.78,1.72-1.51,3.31-2.14,4.71,1.52-3.86,3-7.71,3.51-9.23,3-8.31.89-3.76-.71-.74-1,2.21-.09-1-1.64,2.54L227.35,12c0-.35-3,8-2.56,6.07,1-2.45,2-5.26,3-7.82-.55.81-3.55,8.87-3.6,8.4.5-1.41,3.1-7.12,3-7.71,0-.12-1,2.45-1.53,3.73,3-7.94,4.46-12.4,1.37-5.28,1-2.51,2.48-6,3.47-8.68v0l-1.94,4.81L230.38,1l-.41.75c-.47,1.11-.94,2.23-1.4,3.41l1.18-3c-.37.72-.79,1.55-1.23,2.46-1.55,3.5-3.12,6.82-3.88,8.75C218.45,28.87,212.27,44.47,206.2,60Z"/><path class="cls-3" d="M70.11,124.89c0,.1.12.21-.09.25-.62.06-1.17-.23-1.8,0v.17a6.22,6.22,0,0,0-1.54.32,6,6,0,0,0-2.14,2c.07,0,.12,0,.08.13a9.8,9.8,0,0,0-.75,1.31l-.06.25a.19.19,0,0,0,.09.13l-.22.65a5.81,5.81,0,0,0,1,3.83,5.36,5.36,0,0,0,3.11,2.12,7.94,7.94,0,0,0,1.55,0,6.06,6.06,0,0,0,2.24-.32c-.16-.25.1-.59.24-.94s.19-.68-.08-.83c.26-.19.59-.55.46-.67a3.19,3.19,0,0,1-.78-1.38c0-.18.21-.45.12-.53s-.36.22-.51.1a1.71,1.71,0,0,1-.87,1.12,1.31,1.31,0,0,1-1.42-.18.79.79,0,0,1-.49-.41,1.47,1.47,0,0,1-.17-1.12,1.58,1.58,0,0,1,.76-1,1.39,1.39,0,0,1,.86-.18h.06a7,7,0,0,1,1.26.34,2.81,2.81,0,0,1,.73.21c0-.13,0-.27.08-.4.13.22.23.45.36.51.4.45.62.12.87-.31.08-.27.45-.08.46-.49a3.55,3.55,0,0,1,.22.65c.19,0-.37-.76-.06-.69.06.27.25.53.31.81.22-.16-.24-1,0-1,.14.13,0,.89.28.87.06,0,0-.31-.06-.45a4.59,4.59,0,0,0,.47.92c.13.13.27,0,.32-.47.07.34,0,.82.05,1.17h0c0-.18,0-.49,0-.65,0,.2,0,.4,0,.61l.11-.11a2,2,0,0,0,0-.48c0,.14,0,.28,0,.42a1.84,1.84,0,0,0,.24-.39,3.54,3.54,0,0,0,.13-1.41A6.2,6.2,0,0,0,70.11,124.89Z"/><path class="cls-3" d="M79.65,79.13c0,.1.21.21-.16.24a11,11,0,0,0-3.29.14l0,.17a11.29,11.29,0,0,0-2.74.78,11.13,11.13,0,0,0-4,3.57c.07,0,.13,0,0,.16a15.57,15.57,0,0,0-1.35,2.44c0,.14-.09.29-.14.44a.25.25,0,0,0,.07.2c-.16.44-.26.85-.38,1.22a11.15,11.15,0,0,0,1.48,7.3,10.64,10.64,0,0,0,5.83,4.6,12.56,12.56,0,0,0,3.12.33,11.13,11.13,0,0,0,4.72-.75c-.22-.23.45-.73.93-1.31s.82-1.13.39-1.16c.67-.5,1.49-1.45,1.38-1.61a1.81,1.81,0,0,1-.21-1c0-.47.13-1.11.26-2a7,7,0,0,0,.34-2c-.14-.4-.39.91-.53.5a6.87,6.87,0,0,1-4.11,5.57,6.52,6.52,0,0,1-6.87-1.12,5.38,5.38,0,0,1-1.81-2.19,6.75,6.75,0,0,1,2.8-8.79A6.28,6.28,0,0,1,79,84h.28a8.21,8.21,0,0,1,2.56.63A10.72,10.72,0,0,1,84,85.86a8.56,8.56,0,0,1,1.6,1.43c-.08-.34-.16-.67-.25-1,.42.64.74,1.33.93,1.57.42.72.54.9.68.74a2.54,2.54,0,0,0,.22-1c0-.55.5,0,.31-.83A8.22,8.22,0,0,1,88,88.27c.24,0-.73-1.74-.33-1.44a18.65,18.65,0,0,1,.64,1.78,2.28,2.28,0,0,0-.19-1.15c-.14-.5-.35-.92-.23-.93.25.29.37,1.78.64,1.83a2.6,2.6,0,0,0-.21-.92c.38.92.58,1.68.73,2s.28.1.25-.88a9,9,0,0,1,.13,1.14c0,.41,0,.82,0,1.17h0c0-.35,0-1,0-1.29,0,.4,0,.8.06,1.2a2,2,0,0,0,.11-.21,5.77,5.77,0,0,0,0-.93c0,.27,0,.54,0,.81a4.82,4.82,0,0,0,.21-.72,8.27,8.27,0,0,0-.11-2.55,11.43,11.43,0,0,0-10.08-8Z"/><path class="cls-6" d="M72.19,183.25a25.13,25.13,0,0,1,11.1-11A5.08,5.08,0,0,0,86,168.65c4.66-17.05,24.78-23.84,38.5-13.53,1.48,1.12,2.86.91,4.41.36a25.57,25.57,0,0,1,11-1.53,6.32,6.32,0,0,0,5.44-2.1c12.64-12.44,29.45-11.67,41.17,1.85a6.65,6.65,0,0,0,4.2,2.42c11.92,2.06,19.6,9.65,21.76,21.6a11.31,11.31,0,0,0,2.36,5.12c4.59,5.92,7.39,12.44,5.62,20.13"/><path class="cls-3" d="M105.89,153.23c0-.1-.61-.1.31-.3a17,17,0,0,1,4.15-.28c1.33.18,2.66.25,4.1.57l.25-.11.84.19c.28.08.55.2.82.3l1.66.62c.54.24,1,.55,1.59.82a10.64,10.64,0,0,1,1.56.92l1.4.91.36.23.54.37a6.87,6.87,0,0,0,1.39.66,6.4,6.4,0,0,0,3,.21,11.1,11.1,0,0,0,1.23-.3c.39-.12.71-.24,1-.33a25.14,25.14,0,0,1,6.59-1.41c-.12-.05-.18-.11.26-.15a14.88,14.88,0,0,1,1.51,0c.27,0,.55,0,.84,0l.43,0c.2,0,.41,0,.63,0a8.23,8.23,0,0,0,2.81-.34,8.42,8.42,0,0,0,2.63-1.36,14,14,0,0,0,1.19-1.07c.21-.23.23-.33.24-.39l1.34-1.18.62-.55.64-.46a26.82,26.82,0,0,1,8.79-5,22.85,22.85,0,0,1,10.15-1,25.18,25.18,0,0,1,10,3.66c.75.52,1.51,1.05,2.28,1.57l2.15,1.8c.71.63,1.35,1.33,2,2l.51.52c.18.2.38.4.58.59a8.09,8.09,0,0,0,1.38,1,8,8,0,0,0,2.76.93c.84.13,1.62.25,2.43.4a26.79,26.79,0,0,1,4.59,1.38,22.21,22.21,0,0,1,6.41,4.06,23.09,23.09,0,0,1,4.64,5.86c0-.23.42.2,1,1a23.06,23.06,0,0,1,1.63,3c1,2.26,1.65,4.51,1.7,3.31.18.78.33,1.68.53,2.46a9.74,9.74,0,0,0,.92,2.23,11,11,0,0,0,1.1,1.59,3.94,3.94,0,0,0,.63.69,6.44,6.44,0,0,1,2.3,2,20.43,20.43,0,0,1,2,2.92,21.69,21.69,0,0,1,2.18,5.18,19.57,19.57,0,0,1,.57,6c0,1-.18,1.9-.28,2.64s-.25,1.3-.29,1.61c-.12.9.2-.08.5-1.25s.47-2.31.44-1.3a22.8,22.8,0,0,0,0-5.09,23.28,23.28,0,0,0-1.12-4.92,31.73,31.73,0,0,0-4.58-8.55l-.71-.95c-.23-.31-.39-.52-.57-.78a8.63,8.63,0,0,1-.84-1.5,8.38,8.38,0,0,1-.5-1.61l-.48-2.27a30.59,30.59,0,0,0-3.67-9,26.41,26.41,0,0,0-6.66-7.24,28.18,28.18,0,0,0-8.74-4.35c-.78-.21-1.55-.45-2.34-.63l-2.27-.46a4,4,0,0,1-2.43-1.43L187,150.42l-.84-.87c-.29-.28-.6-.54-.9-.81-.61-.53-1.21-1.09-1.84-1.6l-2-1.45a21.41,21.41,0,0,0-1.94-1.16l-1.34-.76-1.65-.73a31.56,31.56,0,0,0-4-1.44,30.44,30.44,0,0,0-5-.83,27.44,27.44,0,0,0-11.74,1.71,33.32,33.32,0,0,0-11,7,14.78,14.78,0,0,1-2,1.73,3.56,3.56,0,0,1-1.86.53l-.56,0-.85-.07c-.58,0-1.15,0-1.73,0a27,27,0,0,0-3.38.26,30.63,30.63,0,0,0-3.25.65c-.53.14-1,.29-1.55.45l-.76.25-.69.23a4.93,4.93,0,0,1-1,.24,1.62,1.62,0,0,1-.57,0,1.82,1.82,0,0,1-.56-.3l-1.26-.83a25.34,25.34,0,0,0-10-4.07,14.3,14.3,0,0,0-2.27-.3c-.72,0-1.41-.14-2.07-.14-1.3.07-2.46,0-3.43.18l-1.4.23a27,27,0,0,0-12.24,5.46,25.14,25.14,0,0,0-7.49,9.88c-.16.38-.34.75-.48,1.13l-.35,1.19-.34,1.18-.17.59a3.54,3.54,0,0,0-.14.53,4.67,4.67,0,0,1-.61,1.51,2.8,2.8,0,0,1-.8.78,3.65,3.65,0,0,1-.42.26l.43-.18.33-.17a3.78,3.78,0,0,0,.56-.4,3.83,3.83,0,0,0,.81-1.08,3.73,3.73,0,0,1-1,1.41,4,4,0,0,1-.67.46l-.89.48a17.9,17.9,0,0,0-2.64,1.73,16.74,16.74,0,0,0-2.5,2.27c-.36.44-.36.54-.15.44.41-.21,1.74-1.17,2.91-1.76,1.63-.9-.3.67,2.21-.72a24.13,24.13,0,0,0-4.13,3.06c0,.14,1.11-1,2.27-1.8s2.29-1.47,1.74-1a21.73,21.73,0,0,0-4.81,3.89c.31-.19,1.57-1.42,2.9-2.37a8.64,8.64,0,0,1,2.55-1.51c-.46.28-1.71,1-2.79,1.75a7.87,7.87,0,0,0-2,1.88c0,.09,1.44-1.29,2.27-1.88a18.45,18.45,0,0,0-4.32,4.69c-.23.4-.23.5,0,.25s.82-.89,1.81-1.85a24,24,0,0,0-3.89,5.39h0a26,26,0,0,1,2-3.11,25.88,25.88,0,0,0-1.85,2.93c.12-.15.26-.31.39-.48.46-.73.93-1.45,1.46-2.17-.45.61-.85,1.26-1.25,1.91.37-.44.79-1,1.26-1.5a26.27,26.27,0,0,1,4.78-4.54,21.83,21.83,0,0,1,3.6-2.31l.48-.25c.21-.11.48-.25.71-.4a7,7,0,0,0,1.39-1.12,7.71,7.71,0,0,0,1.71-2.91l.22-.69.18-.51.36-1a10.69,10.69,0,0,1,.81-2c.33-.64.62-1.29,1-1.91l1.18-1.77a22.09,22.09,0,0,1,14-8.84Z"/><path class="cls-6" d="M134.37,237.33c22.33.25,40.72-22,30.45-46.6-1.62-3.88-2.36-7.18-.79-11.26,1.83-4.77-.35-10.14-4.45-12.91s-10.53-2.83-14.05.87c-3.22,3.38-6.75,4-11,3.91-9.92-.3-18,3.79-24.61,11-5.21,5.68-8,5.7-13.17-.23a32.52,32.52,0,0,0-44-5.4c-5.44,3.86-6.2,3.81-12,.16-8.78-5.46-17.88-5.73-26.76-.58a25.25,25.25,0,0,0,13.42,47.06c4.4-.09,7.94.43,10.43,4.67,1.65,2.81,4.59,3.33,7.54,1.65s5.65-1.23,8.43.55A33,33,0,0,0,78.43,235c4.76-.88,7.07.7,8.71,5.3,2.7,7.58,7.79,11.67,14.53,11.69s11.68-3.77,14.53-11.13c1.77-4.56,4.18-5.94,8.9-4.85C128.31,236.76,131.48,237.55,134.37,237.33Z"/><path class="cls-3" d="M144.2,165.16c0,.06.38-.22.48-.25s0,0-.13.2l-.89.91C141.53,168.28,139,169,136,169c-1.38,0-3.31-.13-5.09,0a29,29,0,0,0-5.59.9l-.51.31a35,35,0,0,0-15.94,9.5l-1.43,1.51a17.71,17.71,0,0,1-1.33,1.29,6.24,6.24,0,0,1-2.41,1.5c-.16.07-.28,0-.43.06a2.55,2.55,0,0,1-.43-.07l-.24-.07-.27-.13a3.64,3.64,0,0,1-.6-.33,15.26,15.26,0,0,1-2.59-2.35l-.66-.72-.76-.8L96.23,178l-1.66-1.45-.83-.72c-.29-.23-.6-.43-.89-.65l-1.79-1.29-1.9-1.13-1-.55-1-.48-2-.93c.25.19.38.25-.72-.12a32.93,32.93,0,0,0-3.78-1.23,33.89,33.89,0,0,0-14.51-.77c-1,.22-2,.42-3,.67a4.63,4.63,0,0,0-1,.44,38,38,0,0,0-7.84,3.3l-2.67,1.76c-.83.57-1.61,1.15-2.38,1.63a7.18,7.18,0,0,1-2,1,2.79,2.79,0,0,1-1.75-.26,18.66,18.66,0,0,1-2.41-1.25l-1.27-.75-1.39-.8a32,32,0,0,0-5.95-2.54,25.15,25.15,0,0,0-13-.47,27.23,27.23,0,0,0-6.17,2.23c-.5.22-1,.5-1.44.76a15.25,15.25,0,0,0-1.4.84l-1.38.9-1.31,1a26.36,26.36,0,0,0-7.82,10.58A26.79,26.79,0,0,0,.18,200.83a28.4,28.4,0,0,0,1.57,6.53,27.11,27.11,0,0,0,3.16,6A25.84,25.84,0,0,0,15.4,222,26.51,26.51,0,0,0,21,223.72a25.19,25.19,0,0,0,2.86.39c.48,0,1,.09,1.44.11h1.43a22.39,22.39,0,0,1,5.3.28A7.39,7.39,0,0,1,36.15,227c.2.24.38.49.57.74l.54.83a6.34,6.34,0,0,0,1.57,1.75,5.57,5.57,0,0,0,4.73.86,8.93,8.93,0,0,0,2.23-.91,7.36,7.36,0,0,1,1.88-.74,6.21,6.21,0,0,1,3.95.42,12.58,12.58,0,0,1,1.87,1c.66.4,1.3.81,2,1.17a35.17,35.17,0,0,0,4.06,2,32.3,32.3,0,0,0,8.2,2.14c-.38-.2.93-.11,3-.15a39.36,39.36,0,0,0,7.67-.93,10.42,10.42,0,0,1,3.9-.23,5.55,5.55,0,0,1,2.81,1.39c.64.58,1,1.06,1.15,1.21s.17,0-.17-.63a12.51,12.51,0,0,1,1.34,2.54c.37.94.65,1.8,1.06,2.67a19,19,0,0,0,2.92,4.65,11.47,11.47,0,0,0,5,3.53,5.5,5.5,0,0,1,.76.1c.32,0,.71.08,1.17.14a19,19,0,0,0,4,0,13,13,0,0,0,6.13-2.17c2.22-1.51,4.32-4.22,5.8-8.26a15,15,0,0,1,1.5-3,7.86,7.86,0,0,1,3.06-2.75,8.12,8.12,0,0,1,4.09-.74,14.66,14.66,0,0,1,1.81.23l.84.17.73.18a48.1,48.1,0,0,0,5,1,11.83,11.83,0,0,0,2.9.08c1-.11.9-.14.28-.14-.35,0-.67,0-1.12,0s-.94-.07-1.45-.14c-2.06-.3-4.26-.93-2.38-.61-.77-.15-1.56-.33-2.36-.51s-1.58-.38-2.58-.57a12.47,12.47,0,0,0-3.16-.16,7.87,7.87,0,0,0-3.47,1.12,8.55,8.55,0,0,0-2.54,2.46,14.52,14.52,0,0,0-1.44,2.66l-.48,1.16c-.14.35-.29.69-.46,1a17.71,17.71,0,0,1-1,1.92,11.93,11.93,0,0,1-6.09,5.2,12.83,12.83,0,0,1-8,.1,11.76,11.76,0,0,1-6.18-5,20,20,0,0,1-1.94-3.9l-.45-1.19c-.18-.44-.37-.88-.6-1.33a10.69,10.69,0,0,0-1.81-2.67,7.89,7.89,0,0,0-3.05-2,9.24,9.24,0,0,0-3.35-.51,18,18,0,0,0-2.87.31c-.75.13-1.51.25-2.27.33a30.42,30.42,0,0,1-9-.29,31,31,0,0,1-8.54-3c-.67-.37-1.35-.72-2-1.13A23.32,23.32,0,0,0,53.42,227a9.81,9.81,0,0,0-6.48-.8A11.15,11.15,0,0,0,44,227.42a4.42,4.42,0,0,1-1.48.55,2.14,2.14,0,0,1-2.1-.72,6,6,0,0,1-.44-.63,13.8,13.8,0,0,0-.85-1.25,10.88,10.88,0,0,0-2.23-2.27,11.83,11.83,0,0,0-5.83-2.2c-1.9-.23-3.79-.1-5.18-.16-.75,0-1.49-.12-2.24-.17s-1.47-.26-2.21-.39a23.16,23.16,0,0,1-8.12-3.64A22.27,22.27,0,0,1,7.26,210a24.07,24.07,0,0,1-2.4-18.7,21.93,21.93,0,0,1,3.51-7,23.37,23.37,0,0,1,6.94-6.12,23.8,23.8,0,0,1,10-3.23,22.05,22.05,0,0,1,11.1,2.13c.9.44,1.8.9,2.68,1.44s1.88,1.16,2.92,1.73a12.08,12.08,0,0,0,3.88,1.51,6.49,6.49,0,0,0,2.56-.13,7.47,7.47,0,0,0,1.13-.36c.33-.15.66-.3,1-.46a30.82,30.82,0,0,0,3.13-2c1-.67,1.82-1.18,2.73-1.79s1.9-1,2.86-1.51,2-.85,3-1.18A30.55,30.55,0,0,1,75,172.93a29.83,29.83,0,0,1,12.1,4c.46.28.92.53,1.37.82l1.28.93a23.48,23.48,0,0,1,2.43,2c1.6,1.39,2.81,2.91,4.56,4.69a15.17,15.17,0,0,0,3,2.37,7.07,7.07,0,0,0,4.49.92,8.76,8.76,0,0,0,3.82-1.71,20.34,20.34,0,0,0,2.59-2.3l2.08-2.17c.68-.65,1.35-1.3,2-1.89a33.36,33.36,0,0,1,4.31-3.13,27.54,27.54,0,0,1,9-3.43,29.35,29.35,0,0,1,4.26-.47c.68,0,1.36,0,2,0s1.48,0,2.21,0a15.17,15.17,0,0,0,7.76-2.23,14.75,14.75,0,0,0,2.61-2.14c.26-.26.37-.35.52-.49a2.44,2.44,0,0,1,.46-.39,6.64,6.64,0,0,1,1.05-.66,7.7,7.7,0,0,1,2.49-.76,10.25,10.25,0,0,1,5.47.77,9.39,9.39,0,0,1,4.14,3.66,8.63,8.63,0,0,1,1.32,5.27l-.08.67-.14.65-.21.63-.31.9a14.24,14.24,0,0,0-.69,4,17.92,17.92,0,0,0,1.52,7.31l.32.78.28.71c.18.47.37.93.55,1.39.3.94.64,1.85.87,2.77s.48,1.81.63,2.71.3,1.76.41,2.62a30.43,30.43,0,0,1-3.63,18.55,31.58,31.58,0,0,0,3.45-7.47,30.61,30.61,0,0,1-3.82,8.61,36.12,36.12,0,0,1-3.92,5,36.84,36.84,0,0,1-5.18,4.53c-.95.68-1.05.83-.61.64a28.61,28.61,0,0,0,6-4c1.46-1.4,1.3-1.07,1.33-1s.32.11,2.38-2.38a31.71,31.71,0,0,1-3.89,4.31,33,33,0,0,1-4.59,3.58,26.19,26.19,0,0,0,5.16-4.05c2.34-2.27,4-4.71,3.13-3.31a34.94,34.94,0,0,1-10.81,9.09,28.73,28.73,0,0,0,7.13-4.85,38.33,38.33,0,0,0,3.47-3.61c.81-1,1.3-1.63,1.24-1.45a32.58,32.58,0,0,1-5.24,5.62c-2.35,2-4.88,3.48-5.2,3.83a18.85,18.85,0,0,0,2.13-1.29,34.47,34.47,0,0,0,3.47-2.73,34.5,34.5,0,0,1-7.78,5.36c-1.15.61-2.21,1-3.08,1.41s-1.61.62-2.12.79c-1,.35-1.23.46-.35.29a27.43,27.43,0,0,0,6-2.07,33.78,33.78,0,0,1-7.58,2.66,38.22,38.22,0,0,1-8.19.87h0l2.14,0c.78-.06,1.62-.1,2.44-.2a31.71,31.71,0,0,0,4.38-.8,34.8,34.8,0,0,1-8.37,1.08l1.48.08a35.37,35.37,0,0,0,6.38-.85,36,36,0,0,1-5.58.84,20.41,20.41,0,0,0,2.28-.11l1.24-.12,1.3-.2a35.6,35.6,0,0,0,9.13-3,31.61,31.61,0,0,0,6.19-3.95,35.47,35.47,0,0,0,7.42-8.36,34.84,34.84,0,0,0,4.39-10.33,35.78,35.78,0,0,0,.84-11.2,39.92,39.92,0,0,0-2.57-10.86l-.92-2.39a16.27,16.27,0,0,1-.64-2.19,9.53,9.53,0,0,1,0-4.15c.07-.33.17-.67.28-1l.43-1.24a11.87,11.87,0,0,0,.59-3.23,13.33,13.33,0,0,0-1.27-6.28,14.13,14.13,0,0,0-9.55-7.79,14.65,14.65,0,0,0-6.29-.18A12.1,12.1,0,0,0,144.2,165.16Z"/><path class="cls-3" d="M139.37,43.59c0,.1.11.21-.1.24-.62.06-1.17-.23-1.8,0V44a6.32,6.32,0,0,0-1.54.32,6.07,6.07,0,0,0-2.14,2c.07,0,.12,0,.08.12a12.15,12.15,0,0,0-.75,1.32l-.06.24a.17.17,0,0,0,.09.13l-.22.65a5.81,5.81,0,0,0,1,3.83A5.38,5.38,0,0,0,137,54.76a8.8,8.8,0,0,0,1.55,0,6.28,6.28,0,0,0,2.24-.33c-.16-.25.1-.59.24-.94s.2-.68-.08-.83c.26-.18.59-.55.47-.67a3.11,3.11,0,0,1-.79-1.38c0-.18.21-.45.12-.53s-.36.23-.51.11a1.71,1.71,0,0,1-.86,1.11A1.29,1.29,0,0,1,138,51.1a.75.75,0,0,1-.5-.4,1.5,1.5,0,0,1-.17-1.13,1.58,1.58,0,0,1,.76-1,1.31,1.31,0,0,1,.86-.17H139a8.08,8.08,0,0,1,1.25.34A2.42,2.42,0,0,1,141,49c0-.14.05-.27.08-.41.13.22.23.45.36.51.4.46.62.12.88-.31.07-.26.45-.08.45-.49a4.15,4.15,0,0,1,.22.65c.19,0-.37-.76-.06-.69.06.28.25.53.31.82.22-.16-.23-1,0-1,.14.14,0,.89.29.87,0,0,0-.3-.07-.45a4.75,4.75,0,0,0,.47.93c.13.13.27,0,.32-.48a11.33,11.33,0,0,1,0,1.17h0c0-.17.05-.49,0-.65,0,.2,0,.41,0,.61l.1-.11a2,2,0,0,0,0-.48c0,.14,0,.28,0,.42a2.73,2.73,0,0,0,.23-.38,3.58,3.58,0,0,0,.14-1.41A6.22,6.22,0,0,0,139.37,43.59Z"/><circle class="cls-6" cx="43.54" cy="168.15" r="6.01"/><line class="cls-7" x1="31.62" y1="168.61" x2="41.39" y2="168.61"/><path class="cls-3" d="M34,169.64s0-.08,0-.1.29.09.45.06v-.07l.38.1.72,0s0-.05,0-.06a2.69,2.69,0,0,1,.38,0l.06,0s0,0,0-.05l.17,0,2.18-.43a3,3,0,0,1,.48-.15,6.19,6.19,0,0,1,.75,0c0-.23.52-.35.41-.58.15,0,.38,0,.39-.05s.15-.42.55-.54c.16,0,.4,0,.45,0s-.2-.13-.11-.2c-1.17-.07-2.29,0-3.46,0a32.32,32.32,0,0,1-3.79.1H34a4.67,4.67,0,0,0-1.15.09l-.45.19.19.11a.9.9,0,0,0-.36,0c-.32.1-.14.22,0,.37s0,.18.11.25H32c0,.06.31,0,.24.07s-.2,0-.3,0,.34,0,.33.12-.28-.11-.3,0,.09,0,.14,0c-.31,0-.48.14-.19.26a2,2,0,0,0-.34,0h0l.18,0h-.17l0,0a.31.31,0,0,0,.13,0h-.11l.1.11a1.32,1.32,0,0,0,.34.17C32.73,169.59,33.34,169.63,34,169.64Z"/><line class="cls-7" x1="47.16" y1="168.39" x2="56.26" y2="168.39"/><path class="cls-3" d="M49.33,169.41s0-.08,0-.1.27.1.42.06v-.06l.35.09c.23,0,.45,0,.67-.05,0,0,0,0,0,0a2.16,2.16,0,0,1,.35,0h.06a.11.11,0,0,0,0-.05l.16,0,2-.43a2.64,2.64,0,0,1,.45-.15,5.46,5.46,0,0,1,.7,0c0-.23.48-.34.38-.57.14,0,.35,0,.36-.06a.64.64,0,0,1,.51-.53c.15,0,.37,0,.43,0s-.19-.14-.11-.2c-1.09-.07-2.13,0-3.23,0a26.17,26.17,0,0,1-3.52.1h-.06a3.37,3.37,0,0,0-1.07.09l-.42.18.18.12a.68.68,0,0,0-.34,0c-.3.1-.13.21,0,.37s0,.17.1.24h-.24c0,.06.29,0,.23.07a1,1,0,0,0-.29,0c0,.09.33,0,.31.12s-.26-.12-.28,0,.09,0,.14,0c-.29,0-.45.14-.18.25a1.82,1.82,0,0,0-.32,0h0l.17,0h-.16l0,.05.12,0h-.11a.47.47,0,0,0,.1.1,1.91,1.91,0,0,0,.32.18C48.2,169.37,48.77,169.41,49.33,169.41Z"/><line class="cls-7" x1="43.58" y1="181.05" x2="43.58" y2="171.27"/><path class="cls-3" d="M44.61,178.71s-.08,0-.1,0,.1-.28.06-.44H44.5c0-.12.07-.25.1-.38s0-.48-.05-.72c0,0,0,0,0,0a1.57,1.57,0,0,1,0-.37v-.07l0,0a.91.91,0,0,1,0-.17c-.13-.7-.28-1.41-.43-2.18a2.35,2.35,0,0,1-.14-.48,4.83,4.83,0,0,1,0-.76c-.23,0-.34-.51-.58-.4,0-.15,0-.38,0-.39a.69.69,0,0,1-.54-.55c0-.16.06-.4,0-.46s-.14.21-.2.12c-.07,1.16,0,2.29,0,3.46a30.17,30.17,0,0,1,.1,3.78v.07a4.29,4.29,0,0,0,.1,1.15c0,.15.12.3.18.44l.11-.18c0,.15,0,.3,0,.36.09.32.21.14.37,0s.17,0,.24-.11a2.09,2.09,0,0,1,0,.25c.07,0,0-.3.08-.23a1,1,0,0,0,0,.3c.09,0,0-.35.12-.33s-.12.28,0,.3,0-.1,0-.15c0,.31.14.48.26.2a2,2,0,0,0,0,.34h0c0-.05,0-.14,0-.19V181l0,0a.35.35,0,0,0,0-.14V181a.94.94,0,0,0,.1-.1,1.34,1.34,0,0,0,.17-.35C44.57,179.93,44.6,179.32,44.61,178.71Z"/><line class="cls-7" x1="43.58" y1="163.94" x2="43.58" y2="156.4"/><path class="cls-3" d="M44.61,162.14s-.08,0-.1,0,.1-.22.06-.35H44.5c0-.09.07-.19.1-.29s0-.37-.05-.55c0,0,0,0,0,0a1,1,0,0,1,0-.29v-.05h0a.61.61,0,0,1,0-.14c-.13-.54-.28-1.08-.43-1.68a1.4,1.4,0,0,1-.14-.37,2.79,2.79,0,0,1,0-.58c-.23,0-.34-.4-.58-.31,0-.12,0-.3,0-.3a.65.65,0,0,1-.54-.43c0-.12.06-.31,0-.35s-.14.16-.2.09c-.07.9,0,1.76,0,2.67a18,18,0,0,1,.1,2.92v0a2.59,2.59,0,0,0,.1.89c0,.11.12.23.18.34l.11-.15c0,.12,0,.24,0,.28.09.25.21.11.37,0s.17,0,.24-.08a1.15,1.15,0,0,1,0,.19c.07,0,0-.23.08-.18s0,.16,0,.24,0-.27.12-.26-.12.22,0,.23,0-.07,0-.11c0,.24.14.37.26.15,0,.08,0,.18,0,.26h0s0-.11,0-.14v.13l0,0a.19.19,0,0,0,0-.1v.09l.1-.08c.07-.11.17-.21.17-.27A13.36,13.36,0,0,0,44.61,162.14Z"/><circle class="cls-6" cx="224.62" cy="107.19" r="3.79"/><line class="cls-7" x1="217.1" y1="107.48" x2="223.26" y2="107.48"/><path class="cls-3" d="M218.57,108.51s0-.08,0-.1.18.1.28.06,0,0,0-.07l.24.1.45,0a.07.07,0,0,1,0,0,.67.67,0,0,1,.24,0h0a.11.11,0,0,0,0-.05H220l1.38-.43a1,1,0,0,1,.3-.14,1.93,1.93,0,0,1,.48,0c0-.23.32-.34.25-.57.1,0,.24,0,.25-.06a.62.62,0,0,1,.35-.54c.09,0,.25.06.28,0s-.13-.14-.07-.2c-.74-.07-1.44,0-2.18,0a12.11,12.11,0,0,1-2.39.1h0a1.75,1.75,0,0,0-.73.1l-.28.18a.68.68,0,0,1,.12.12.32.32,0,0,0-.23,0c-.2.1-.08.21,0,.37s0,.17.07.24h-.16c0,.07.2,0,.16.08s-.13,0-.2,0,.22,0,.21.12-.18-.12-.19,0,.06,0,.09,0c-.19,0-.3.13-.12.25-.06,0-.15,0-.21,0h0l.12,0h-.12s0,0,0,.05l.09,0h-.08a.61.61,0,0,0,.07.1c.08.07.17.17.22.18A11.13,11.13,0,0,0,218.57,108.51Z"/><line class="cls-7" x1="226.9" y1="107.34" x2="232.64" y2="107.34"/><path class="cls-3" d="M228.27,108.37s0-.08,0-.1.17.1.26.06,0,0,0-.07l.22.1.42,0a.07.07,0,0,1,0,0,.56.56,0,0,1,.22,0h0a.11.11,0,0,0,0-.05h.11l1.28-.43a.92.92,0,0,1,.28-.14,1.63,1.63,0,0,1,.44,0c0-.23.3-.34.24-.58.09,0,.22,0,.23,0a.65.65,0,0,1,.32-.54c.09,0,.24.06.27,0s-.12-.14-.07-.2a19.65,19.65,0,0,0-2,0,10.48,10.48,0,0,1-2.22.1h0a1.54,1.54,0,0,0-.68.1l-.26.18.11.11c-.09,0-.18,0-.21,0-.19.09-.08.21,0,.37s0,.17.06.24h-.14c0,.07.18,0,.14.08s-.12,0-.18,0,.2,0,.19.12-.16-.12-.17,0,.05,0,.08,0c-.18,0-.28.14-.11.26-.06,0-.14,0-.2,0h0l.11,0h-.11l0,0,.08,0h-.07l.06.1c.08.07.16.17.2.17A7.89,7.89,0,0,0,228.27,108.37Z"/><line class="cls-7" x1="224.64" y1="115.33" x2="224.64" y2="109.16"/><path class="cls-3" d="M225.67,113.86s-.08,0-.1,0,.1-.18.06-.28h-.07c0-.08.07-.16.1-.25s0-.3,0-.45c0,0-.05,0-.05,0a.67.67,0,0,1,0-.24v0h-.05a.37.37,0,0,1,0-.11c-.13-.44-.28-.89-.43-1.37a1.47,1.47,0,0,1-.15-.31,2.48,2.48,0,0,1,0-.47c-.23,0-.34-.33-.58-.26,0-.09,0-.24,0-.24a.65.65,0,0,1-.54-.35c0-.1.06-.25,0-.29s-.14.13-.2.08a19.83,19.83,0,0,0,0,2.18,12.82,12.82,0,0,1,.1,2.38v0a1.93,1.93,0,0,0,.09.73l.19.28.11-.12c0,.1,0,.19,0,.23.1.2.22.09.37,0s.18,0,.25-.07,0,.1,0,.16,0-.2.07-.15,0,.13,0,.19,0-.22.12-.21-.12.18,0,.19,0-.06,0-.09c0,.19.14.3.26.12,0,.07-.05.15,0,.22h0s0-.09,0-.12v.11l0,0a.13.13,0,0,0,0-.08v.07l.1-.06c.07-.09.17-.17.17-.22A11.4,11.4,0,0,0,225.67,113.86Z"/><line class="cls-7" x1="224.64" y1="104.54" x2="224.64" y2="99.79"/><path class="cls-3" d="M225.67,103.41s-.08,0-.1,0,.1-.14.06-.22h-.07l.1-.18c0-.12,0-.24,0-.35s-.05,0-.05,0a.38.38,0,0,1,0-.18v0h-.05a.25.25,0,0,1,0-.09c-.13-.34-.28-.68-.43-1.06a1.28,1.28,0,0,1-.15-.23,1.54,1.54,0,0,1,0-.37c-.23,0-.34-.25-.58-.2,0-.07,0-.18,0-.19a.65.65,0,0,1-.54-.26c0-.08.06-.2,0-.22s-.14.09-.2,0a11.92,11.92,0,0,0,0,1.69,7.65,7.65,0,0,1,.1,1.84v0a1.18,1.18,0,0,0,.09.56l.19.21.11-.09c0,.08,0,.15,0,.18s.22.06.37,0,.18,0,.25-.05,0,.08,0,.12,0-.15.07-.11,0,.1,0,.15,0-.17.12-.17-.12.14,0,.15,0,0,0-.07c0,.15.14.23.26.1,0,0-.05.11,0,.16h0s0-.07,0-.09v.09l0,0a.09.09,0,0,0,0-.06v.05l.1-.05c.07-.06.17-.13.17-.17A6.59,6.59,0,0,0,225.67,103.41Z"/></g></g></svg>