<svg xmlns="http://www.w3.org/2000/svg" viewBox="0 0 280.08 275"><defs><style>.cls-1{fill:#1933d3;}.cls-1,.cls-2{fill-rule:evenodd;}.cls-2,.cls-4{fill:#bbcef1;}.cls-3{fill:#202020;}.cls-5{fill:#fff;}.cls-6{fill:#e4ebf9;}.cls-7{fill:#dde3e9;}</style></defs><g id="Layer_2" data-name="Layer 2"><g id="Layer_1-2" data-name="Layer 1"><path id="Background-Shape" class="cls-1" d="M274.36,251.12C297.65,202.56,129.16-18.06,62.09,1.19s-76.28,124.7-2.62,196.89S251.08,299.69,274.36,251.12Z"/><path class="cls-2" d="M127.44,168.82a62.45,62.45,0,1,1-124.9,0Z"/><path class="cls-3" d="M85.07,225.24c0,.11,1-.12-.49.43a59.59,59.59,0,0,1-13.72,2.85l-.35.19a60.86,60.86,0,0,1-12-.34,59.84,59.84,0,0,1-21.56-6.48c.15.14.21.23-.47-.09a57.39,57.39,0,0,1-9.89-6.73l-1.52-1.27a2.69,2.69,0,0,0-.63-.39c-.74-.7-1.43-1.37-2.09-2l-1.8-1.92A60.55,60.55,0,0,1,5.24,179.85c-.31-1.41-.51-2.84-.71-4.28-.12-.72-.14-1.45-.22-2.17s-.16-1.61-.16-1.82l-.06-1.15c0-.14.06-.11.14-.11h.23l.48,0,4.21-.07,18.59-.28c5.33-.15,10.67-.3,15.82-.37,7.62-.06,17.34.05,24.77.07-1.14-.58,17-.86,13.36-1.45,5,0,12.39,0,12.77-.13,1.15-.49,5-1.05,18.11-1.34,5.15-.07,13.06.13,14.87,0,2.86-.15-6.67-.34-3.81-.5-38.26-.17-75.1,0-113.62,0l-3.31.05-3,0H1.29c-.41,0-.88,0-1.27,0,0,.41,0,.82,0,1.24,0,.84.05,1.7.08,2.59,0,.44,0,.89,0,1.34l0,.65,0,.4c.1,1.07.15,2.2.3,3.37a66.61,66.61,0,0,0,1.33,7.53,64.47,64.47,0,0,0,6.49,16.71,63.78,63.78,0,0,0,5.48,8.25,61.33,61.33,0,0,0,6.9,7.55,67.8,67.8,0,0,0,8.08,6.45,68.48,68.48,0,0,0,8.93,5A61.8,61.8,0,0,0,47,231a60.76,60.76,0,0,0,9.21,1.93,67.63,67.63,0,0,0,8.65.61,70.66,70.66,0,0,0,7.7-.45,67.75,67.75,0,0,0,11.47-2.37c.69-.22,1.36-.46,2-.69A63.3,63.3,0,0,0,104,220.43a62.4,62.4,0,0,0,13-13.56,64.07,64.07,0,0,0,7-13.23l-1.5,3c-.53.91-1,1.78-1.49,2.59a55.48,55.48,0,0,0,4.64-11.11c.37-1.29.61-2.35.82-3.18s.28-1.45.35-1.89c.13-.86.09-1-.07-.67s-.41,1.09-.71,2-.75,2-1.12,3c-1.09,2.72-.06-1.09-1.72,3.15a60.79,60.79,0,0,0,2.36-7.86,5.29,5.29,0,0,0-.37,1.34c-.21.86-.56,2-.86,3.12-.7,2.19-1.41,4.11-1.14,3a59,59,0,0,0,2.6-9.6c-.09.27-.29,1.1-.57,2.17-.14.54-.29,1.13-.44,1.76s-.37,1.26-.56,1.89a21.37,21.37,0,0,1-1.66,4.48c.16-.41.44-1.15.75-2s.71-1.94,1-3c.16-.52.31-1,.45-1.5s.22-.93.32-1.33a7.13,7.13,0,0,0,.24-1.53c0-.13-.72,3.05-1.22,4.6a48.73,48.73,0,0,0,1.8-10.2c0-.74,0-.89-.15-.29-.07.3-.17.78-.29,1.47s-.29,1.58-.54,2.68A59.13,59.13,0,0,0,126,168.82v0c0,.83-.07,2-.11,3.08s-.2,2.21-.26,3l.22-2.82.08-2.84c0,.31-.08.64-.13,1,0,1.41-.18,2.82-.31,4.28.09-1.24.23-2.49.24-3.75-.09.94-.26,2-.44,3.17A70.17,70.17,0,0,1,123,184.71a60.42,60.42,0,0,1-37.91,40.53Z"/><rect class="cls-4" x="180.8" y="79.58" width="96.74" height="96.74"/><path class="cls-3" d="M273.29,178.88c0-.1-1.24-.2.75-.24l2.56,0h3.24c0-1.12,0-2.23,0-3.32,0-.84,0-1.66,0-2.48,0-1.15.05-2.29.07-3.44.05-2.3.08-4.64,0-7.18l-.16-.45c.08-4.86.15-9.92.24-15.09q-.06-14.28-.12-28.43c-.06.25-.12.36-.14-.58,0-3.92,0-9.35,0-15,0-.83,0-1.67,0-2.48a3.24,3.24,0,0,0-.12-.91c0-2.55,0-4.81,0-6.91-.05-4.76-.1-9.54-.15-14.84l-75.38.92c-6.43.15-12.87.3-19.07.37l-5.08,0c0,8.51-.06,18.41-.08,26.25.58-1.38.86,20.45,1.44,16.09,0,6,0,14.93.13,15.39.49,1.39,1.06,6,1.35,21.83.07,6.21-.14,15.73,0,17.92.16,3.44.35-8,.5-4.6,0-15.55,0-30.91.07-46.21,0-14.45,0-28.86-.05-43.35l42.19,0L244.69,82l30.55-.1c.07,30.33.08,80.73,0,92.16H274c-14.93,0-33.07,0-45.71.23l-17.55.46,7.44.28c-6,0-11.94,0-14.24.08-12.72.25-5.51.53-.62.93,3.52.17-1.24.43,4.27.61l-9.95,0c-.46.16,12.26-.09,9.5.18-3.83-.06-8.12,0-12.1,0,1.38.22,13.78.08,13.17.3-2.15.05-11.18-.3-11.95,0-.15,0,3.83.06,5.82.06-12.25.09-19,.35-7.82.64-3.88,0-9.37-.12-13.47-.08h0l7.47.07-7,0,1.22.12,5.31.06h-4.65c1.16.09,2.5.18,4,.26,5.51.17,10.8.43,13.78.44Z"/><path class="cls-5" d="M58.65,87.16,49.92,43.63C49.23,40.21,51.28,37,53.51,38L71,45.66c3.81,1.69,7.91.7,11.22-2.71h0c4.32-4.45,9.91-4.69,14.38-.6l9.68,8.84a2.07,2.07,0,0,0,2.16.5l2.89-2.12c1.21-.89,2.6.7,2.11,2.43l-9.83,35.16"/><path class="cls-3" d="M53.65,49.2c-.1,0-.1.54-.3-.26-.31-1.26-.48-2.42-.65-3.57l-.27-1.75-.08-.45,0-.3a6,6,0,0,1-.06-.61l-.16-.12a3.4,3.4,0,0,1,.57-1.71c.11-.1.16,0,.18,0L63,44.81c-.07-.1-.09-.17.27,0,1.5.61,3.53,1.57,5.65,2.53l1,.39a.81.81,0,0,0,.44,0,11.71,11.71,0,0,0,3.4.88,11.1,11.1,0,0,0,5.17-.93A13.62,13.62,0,0,0,83,44.83l.78-.8a8.2,8.2,0,0,1,.67-.65A9.62,9.62,0,0,1,86,42.28a7.92,7.92,0,0,1,3.37-1.15,7.62,7.62,0,0,1,3.58.61,8.91,8.91,0,0,1,1.71.93A18.65,18.65,0,0,1,96.27,44q3.44,3,7,6l1.55,1.26.89.74a3.34,3.34,0,0,0,1.18.58,2.5,2.5,0,0,0,2.39-.55l.45-.35.23-.2.49-.39a3.68,3.68,0,0,1,.82-.56.87.87,0,0,1,1,.37,1.61,1.61,0,0,1,.33,1.07,5.29,5.29,0,0,1-.27,1.11c-.56,1.93-1.12,3.85-1.61,5.51.71-.39-1.44,8.36-.4,6.79a56.6,56.6,0,0,0-1.58,6.15c.31.69.34,2.66-1.14,9-.62,2.48-1.88,6.22-2,7.11-.23,1.42,1.23-3.1,1-1.69,2.65-9.14,5.16-18.14,7.65-27.17l.93-3.38.79-2.86a5.22,5.22,0,0,0-.06-2.83,4.62,4.62,0,0,0-1.44-2.16,3.8,3.8,0,0,0-2.33-.88c-.07,0-.23.09-.34.14l-.37.2-.75.39-1.48.78-1.45.77h0l-.16-.14-.33-.3-2.62-2.39-5.29-4.82-1.3-1.11a14.63,14.63,0,0,0-2.39-1.65,11.6,11.6,0,0,0-8.21-1.28,12.45,12.45,0,0,0-4.6,2.07,15.72,15.72,0,0,0-2,1.68l-.75.74c-.24.2-.47.43-.72.61a7.11,7.11,0,0,1-6.93,1.35l-.44-.17-.56-.24-1.14-.5-2.27-1-4.51-2-8.51-3.75L54.58,36a4.47,4.47,0,0,0-.46-.19c-.33-.06-.63-.19-1-.22a4,4,0,0,0-1.88.22,4.59,4.59,0,0,0-1.59,1,5.93,5.93,0,0,0-1.1,1.38,8.44,8.44,0,0,0-1,4.9c0,.37.1.77.15,1.08s.11.54.16.79c.1.52.2,1,.29,1.47.18.93.33,1.75.47,2.45l.21,1c1.18,6,2.7,13.39,3.94,18.46.61,2.31,1.25,4.67,1.88,7-.12-1.11-.23-2.15-.33-3.07.47,2.42.95,4.84,1.23,5.75,1.28,5.1,1,2.13,1,.07-.11-1.46.53.42.26-1.85l.78,4c.2.16-1.07-4.94-.59-3.88.25,1.57.7,3.28,1,4.89.11-.6-1-5.59-.77-5.39.22.86.62,4.59.94,4.85a20.9,20.9,0,0,0-.4-2.37c1.07,4.94,1.88,7.62,1.26,3,.31,1.57.64,3.82,1,5.47h0c-.15-.83-.4-2.28-.54-3,.19.94.37,1.89.56,2.83,0-.16,0-.34,0-.52-.11-.71-.23-1.42-.37-2.16.12.63.24,1.26.37,1.88,0-.48,0-1-.07-1.65-.28-2.26-.46-4.45-.69-5.66C57.47,68.77,55.59,59,53.65,49.2Z"/><line class="cls-5" x1="81.64" y1="43.47" x2="81.64" y2="75.83"/><path class="cls-3" d="M79.07,51.21c.1,0,.2-.11.25.06.1.52-.24.95-.15,1.47l.17,0c-.07.41-.16.83-.24,1.26,0,.8.06,1.59.12,2.38.06,0,.11,0,.13,0a7.78,7.78,0,0,1,0,1.25l0,.21a.16.16,0,0,0,.13.07c0,.22,0,.41,0,.58.32,2.31.7,4.66,1.07,7.2a12.25,12.25,0,0,1,.37,1.6c.06.77,0,1.75-.06,2.5.57-.12.86,1.71,1.44,1.34,0,.5,0,1.25.13,1.29.49.12,1,.5,1.35,1.83.07.51-.14,1.31,0,1.49s.35-.67.5-.38c.18-3.86,0-7.57,0-11.45-.25-1.32-.37-10.24-.25-12.53a1.34,1.34,0,0,1,0-.2,18.83,18.83,0,0,0-.23-3.83c-.14-.48-.3-1-.46-1.46-.1.22-.19.43-.29.62a3.34,3.34,0,0,0-.07-1.19c-.25-1.07-.54-.46-.93,0-.17.29-.44-.11-.61.35,0-.33,0-.5,0-.83-.17,0,.08,1-.19.79a5.72,5.72,0,0,0,0-1c-.23.12-.09,1.16-.31,1.1,0-.18.3-.93,0-1-.06,0-.06.32-.07.49-.08-1-.34-1.59-.64-.65a8.47,8.47,0,0,0,.09-1.13h0c0,.17-.07.47-.07.63v-.59a.57.57,0,0,0-.11.11,2.13,2.13,0,0,0-.07.44c0-.13,0-.26,0-.39a2.85,2.85,0,0,0-.25.33,5.9,5.9,0,0,0-.44,1.15C79.18,47.17,79.09,49.19,79.07,51.21Z"/><line class="cls-5" x1="107.47" y1="51.96" x2="99.11" y2="87.16"/><path class="cls-3" d="M103,59.78c.1,0,.23-.06.23.13,0,.59-.48,1-.53,1.57l.15.07c-.17.43-.37.87-.55,1.32-.19.87-.35,1.74-.5,2.61.06,0,.12,0,.12.09a12.1,12.1,0,0,1-.36,1.35c0,.08,0,.16,0,.24a.22.22,0,0,0,.1.11c-.06.23-.12.43-.19.62-.28,2.59-.52,5.23-.81,8.08a15.56,15.56,0,0,1,0,1.82c-.14.85-.5,1.89-.71,2.7.59,0,.39,2.06,1.06,1.8-.15.54-.36,1.35-.21,1.43.45.24.9.78.84,2.29-.07.58-.47,1.4-.42,1.62s.51-.65.58-.3c1.17-4.15,1.92-8.24,2.93-12.46.09-1.49,2.29-11.21,3-13.68,0-.07,0-.15,0-.22a22.94,22.94,0,0,0,.77-4.21c0-.56,0-1.14-.07-1.71a7,7,0,0,1-.44.61,4.28,4.28,0,0,0,.23-1.31c0-1.21-.4-.63-.89-.27-.24.28-.39-.21-.68.25l.23-.9c-.15-.08-.18,1.13-.38.82a8.09,8.09,0,0,0,.23-1.11c-.24.07-.38,1.23-.58,1.13,0-.21.53-1,.29-1.08-.05,0-.15.33-.2.51.19-1.13.08-1.81-.45-.86.09-.35.32-.82.38-1.2h0c0,.18-.18.49-.23.66.06-.21.11-.42.17-.63l-.14.09a3.66,3.66,0,0,0-.18.46c0-.14.08-.28.11-.42l-.33.3a7,7,0,0,0-.72,1.16C104.12,55.42,103.51,57.6,103,59.78Z"/><path class="cls-6" d="M132,79.58a32.49,32.49,0,0,0-5.72.45c-4.75.86-22.91,1.5-44.6,1.5S41.78,80.89,37,80a32.41,32.41,0,0,0-5.72-.45H2.54v66.79h158.2V79.58Z"/><path class="cls-3" d="M24.52,77c-.05.1,1.45.2-.87.25-3.66,0-6.95,0-10.24-.07l-5-.08H1.29l-.87.17H.24c0,3.56-.08,7.2-.12,10.89Q.06,92.55,0,97q.06,16.6.12,33.06c.06-.28.11-.42.13.67,0,2.07,0,4.49,0,7.14,0,3.37,0,7,0,10.77H3.7l3.57,0a4.3,4.3,0,0,0,1.05-.12l8,0,100.18-1.07c7.48-.15,15-.3,22.18-.37h10.73l12.07,0c0-4.77,0-9.36,0-13.47-.57,1.59-.85-23.79-1.44-18.73,0-6.94,0-17.36-.13-17.9a26,26,0,0,1-.63-4.68c-.1-1.34-.2-3-.29-5.11,0-1.06-.09-2.22-.14-3.49l0-1c0-.17,0-.34,0-.51v-.22q0-.25-.06-.54l-.47,0H158l-1,0-4.26.08c-7.21.07-18.29-.14-20.84,0-4,.16,9.36.35,5.35.5l20.8.06c0,20.64,0,41.06,0,61.57l-66.44.06c-4.89.07-17.25.13-33.34.17l-53.55.11c0-22.92,0-45.87,0-62.29l16,0h9.56a33.88,33.88,0,0,1,6.49.44c2.53.39,4.84.52,7.22.67s4.72.24,7,.31c9.33.31,18.29.35,25.66.28,6.75-.1,13.62-.31,20.46-.56-3.19,0-6.13-.12-8.68-.2,7,0,13.91-.15,16.58-.33,7.41-.32,9-.57,8-.67s-4.49-.15-7.34-.28c-4.1-.06,1.43-.46-5-.49,4.62-.09,6.93-.15,11.57-.31.52-.13-14.25.5-11,.14,4.45,0,9.43-.27,14-.48-.8-.07-4.8.08-8.51.16a60.23,60.23,0,0,1-6.79,0c2.5-.07,13,0,13.88-.38.17,0-4.45.11-6.76.17,7.11-.24,12.61-.64,14.69-.93s.82-.24-5.65,0c2.24-.11,5-.23,7.64-.47.67-.07,1.33-.14,2-.24s1.42-.22,2.12-.29c1.4-.14,2.73-.18,4-.19h0a37.22,37.22,0,0,0-4.59.22c-.42,0-.84.11-1.25.18l-1.06.15c-.7.08-1.34.15-1.89.19.67,0,1.32-.13,2-.21l2-.3a33.79,33.79,0,0,1,4.24-.28c-.44,0-.95-.06-1.48-.07a29.14,29.14,0,0,0-3.2.26l-1.52.23-1.49.16,1.29-.14,1.27-.19a27.77,27.77,0,0,1,2.84-.33c-.71,0-1.47,0-2.29.11s-1.53.18-2.37.22c-6.23.46-12.42.33-15.86.46-14,.34-28,.33-42,.1-7-.13-14-.31-20.94-.69-1.73-.1-3.46-.21-5.15-.37-.84-.07-1.7-.16-2.46-.28l-1.3-.21c-.48-.07-1-.13-1.43-.17a49.58,49.58,0,0,0-5.5-.19Z"/><path class="cls-4" d="M144.24,211.05v-5a4.21,4.21,0,0,1,4.2-4.21h75.78v13.41H148.44A4.2,4.2,0,0,1,144.24,211.05Z"/><path class="cls-3" d="M180.62,204.41c0-.1-.58-.2.36-.25,3-.1,5.36.24,8.33.15l.22-.17,7.14.24,13.46-.12c-.12-.06-.17-.11.27-.13,1.86,0,4.43,0,7.1,0l1.17,0c.31,0,.38-.09.43-.13l1.72,0h.92l.33,0,0,.26,0,.15v.66c0,1.08.06,2.18.08,3.28s.06,2.24.09,3.38l0,.87,0,.28c0,.19,0,.37,0,.55l-.44,0-.23,0h-.52l-3.06.08-6.29.18-13.16.34c-3,.16-6.09.31-9,.37-4.35.07-9.89,0-14.13-.06.65.58-9.68.86-7.62,1.44-2.83,0-7.07,0-7.29.13-.65.49-2.83,1.06-10.33,1.35l-1.17,0h-.62c-.21,0-.6,0-.9-.06a6.3,6.3,0,0,1-5.11-4.3,8,8,0,0,1-.35-2c0-.41-.08-.38-.12-.12a4.34,4.34,0,0,0,0,.73,5.73,5.73,0,0,0,.12,1.05,7.89,7.89,0,0,0,.62,1.79c.18.36.18.44-.2-.1a6.81,6.81,0,0,0,5.33,3.42c.64,0,.86,0,1.23,0h3l8.1,0,16.1,0,32.47-.08c1.08,0,3.07-.08,5.71-.11l12-.08c0-5.48,0-11.64-.06-18l-26.81.05-17.56-.05H181c-7.06,0-15.65,0-21.63.23l-8.31.46,3.52.29h-4a17.24,17.24,0,0,0-2.9.15,5.09,5.09,0,0,0-2.14.93,4.62,4.62,0,0,0-.95,1c-.34.51-.3.62-.11.48a8.11,8.11,0,0,1,1.15-.82,4.47,4.47,0,0,1,1.88-.57c.89-.08.73.11.71.2s.06.2,1.37.29a7.43,7.43,0,0,0-2.24.17,3.88,3.88,0,0,0-1.81,1.18c0,.07.2-.17.56-.47a4.15,4.15,0,0,1,1.52-.74,5.5,5.5,0,0,1,1.57-.09c.38,0,.51,0,.18.12a4.45,4.45,0,0,0-2.55.39,3.88,3.88,0,0,0-1.7,1.84c.12-.11.32-.49.7-.88a3.68,3.68,0,0,1,1.54-1,4.45,4.45,0,0,1,1.76-.15c.52,0,.83,0,.76.11-.25,0-.71,0-1.26,0a3.52,3.52,0,0,0-1.49.2c-1,.35-1.59,1.23-1.53,1.41s.2-.27.53-.59a3.49,3.49,0,0,1,1.19-.74,3.22,3.22,0,0,0-1.92,2.13,3.5,3.5,0,0,0-.09,1c0,.38.05.68.08.9.06.43.12.51.19.16,0-.18.06-.47.1-.87,0-.24,0-.36.07-.54a4.12,4.12,0,0,1,.19-.56,3.05,3.05,0,0,0-.17,1c0,.53,0,1.09,0,1.65,0,1.12,0,2.25,0,3.23v0c0-1,0-2.64.07-3.54,0,1.1,0,2.21,0,3.31l.11-.58c0-.82.07-1.65.07-2.51,0,.73,0,1.47,0,2.2.09-.55.17-1.18.25-1.87s.1-1.3.15-1.92a1.9,1.9,0,0,1,.3-.88,2.59,2.59,0,0,1,1-.85,2.09,2.09,0,0,1,1-.2l2.14,0,4.28,0,8.57.07Z"/><line class="cls-4" x1="144.24" y1="208.55" x2="130.75" y2="208.55"/><path class="cls-3" d="M141,207.52s.05.08,0,.1c-.22,0-.4-.1-.62-.06,0,0,0,0,0,.07l-.53-.1-1,.05s0,0,0,0a3.11,3.11,0,0,1-.52,0h-.09a.09.09,0,0,0,0,.05h-.24l-3,.43a4,4,0,0,1-.67.14,9.07,9.07,0,0,1-1,0c.05.23-.71.34-.56.58-.2,0-.52,0-.53,0s-.21.42-.76.54c-.22,0-.55-.06-.63,0s.28.14.16.2c1.61.07,3.16,0,4.77,0,.55-.1,4.27-.15,5.22-.1H141a8.08,8.08,0,0,0,1.59-.1l.61-.18-.26-.11a1.36,1.36,0,0,0,.5,0c.44-.09.19-.21,0-.37s0-.17-.15-.24h.35c0-.07-.43,0-.33-.08a2,2,0,0,0,.42,0c-.05-.09-.48,0-.46-.12s.39.12.42,0-.14,0-.21,0c.43,0,.67-.14.28-.26a3.48,3.48,0,0,0,.47,0h0l-.26,0h.25l0,0-.19,0h.16a.85.85,0,0,0-.14-.1,2.16,2.16,0,0,0-.48-.17C142.69,207.56,141.85,207.53,141,207.52Z"/><path class="cls-3" d="M277.54,205.38v6.34a5.34,5.34,0,0,1-5.34,5.33H224.62a.4.4,0,0,1-.4-.39V200.44a.4.4,0,0,1,.4-.4H272.2A5.34,5.34,0,0,1,277.54,205.38Z"/><path class="cls-3" d="M254.48,214.48c0,.11.43.21-.27.25-2.2.1-4-.24-6.17-.14l-.16.16-5.29-.24-10,.12c.08.06.12.11-.21.14-1.37,0-3.28,0-5.25,0h-.4a.66.66,0,0,0-.08.13c-.13,0-.33,0-.26-.17a1.78,1.78,0,0,1-.06-.34l-.06-1.82c-.05-1.22-.09-2.44-.13-3.67s-.09-2.45-.13-3.69c0-.62,0-1.24-.07-1.86l0-.47v-.31l0-.33,0-.36a.17.17,0,0,1,.2-.21l.72-.07,3.79-.14,7.86-.28c2.25-.15,4.51-.3,6.68-.37,3.23-.06,7.34,0,10.48.06-.49-.57,7.17-.86,5.64-1.44a41.78,41.78,0,0,0,5.4-.13,3.85,3.85,0,0,1,1.92-.75c.58-.12,1.32-.23,2.26-.33l.75-.08.4,0c.13,0,.27,0,.49,0a6.92,6.92,0,0,1,2.59.44,7.2,7.2,0,0,1,3.69,3.38,8.89,8.89,0,0,1,.86,3.49c0,.3.08.27.12.08a4.92,4.92,0,0,0,0-1.23c-.06-1-.4-2,0-1.21a7.93,7.93,0,0,0-6.47-5.51,8.57,8.57,0,0,0-1.1-.09h-5.25l-11.93,0-24.05.08c-.7,0-1.89.06-3.46.09l-1.79,0c-.42,0-.86,0-1.29,0a2.79,2.79,0,0,0-1.1.34,2.39,2.39,0,0,0-.43.27,2.91,2.91,0,0,0-.43.43,2.86,2.86,0,0,0-.5,1,5.15,5.15,0,0,0-.11,1.45c0,.51,0,1,0,1.53,0,2.22,0,4.7.06,7.33,0,1.32,0,2.67,0,4,0,.53,0,1.06,0,1.6a5.39,5.39,0,0,0,.17,1.84,2.86,2.86,0,0,0,.32.68,2.08,2.08,0,0,0,.56.59,3.21,3.21,0,0,0,1.49.55l17.4,0,11.47,0h.88c5.23,0,11.59,0,16-.23l1.53-.1.38,0,.51-.05a7.35,7.35,0,0,0,1-.2,7,7,0,0,0,3.42-2.13,6.69,6.69,0,0,1-3,1.47,6.57,6.57,0,0,0,3.07-2,6,6,0,0,0,1.33-4.71c-.06-.36-.14-.41-.21-.27a5.48,5.48,0,0,0-.26.92,5.34,5.34,0,0,1-.5,1.35c-.3.59-.36.43-.46.37s-.18,0-.72.73a4.74,4.74,0,0,0,.66-1.49,5.72,5.72,0,0,0,.17-1.66c-.1-.07,0,1-.26,1.85s-.77,1.53-.63,1.08a4,4,0,0,0,.65-1.78c.08-.62,0-1.37,0-2.06a3.55,3.55,0,0,0-.11,1,6.39,6.39,0,0,1-.17,1.45c-.24,1-.82,1.69-.85,1.54a5.82,5.82,0,0,0,.84-1.74,3.39,3.39,0,0,0,0-1.78,2.91,2.91,0,0,0-.05.74,5.82,5.82,0,0,1-.12,1.12,13.4,13.4,0,0,0,0-2.61,15,15,0,0,0-.15-1.66c-.11-.64-.25-.25-.4,1.71,0-1.36.13-3.28.09-4.72h0c0,.71-.06,2-.07,2.62v-2.45c0,.13-.07.28-.11.43,0,.61-.06,1.22-.07,1.86,0-.55,0-1.09,0-1.63-.09.4-.17.87-.25,1.38-.1,1-.2,1.92-.28,2.75,0,.43-.08.82-.11,1.16a2.49,2.49,0,0,1-.05.37,1.57,1.57,0,0,1,0,.24,3,3,0,0,1-2.26,2.42c-.14,0-.29,0-.43.07h-2.15l-3.17,0Z"/><path class="cls-4" d="M208.31,206.81h57.56"/><path class="cls-3" d="M222.07,207.83s-.19-.08.11-.1c.93,0,1.68.1,2.62.06l.07-.06,2.24.09c1.42,0,2.83,0,4.23,0,0,0-.06,0,.08-.05.59,0,1.4,0,2.23,0H234a.24.24,0,0,0,.14-.05l1,0,12.8-.43c1-.06,1.92-.12,2.84-.15,1.37,0,3.11,0,4.44,0-.2-.23,3-.34,2.4-.57a17.59,17.59,0,0,0,2.28-.06c.21-.19.89-.42,3.25-.53.92,0,2.34.05,2.67,0,.51-.06-1.2-.14-.69-.2-6.86-.07-13.46,0-20.36,0-2.35.1-18.2.15-22.28.1h-.37c-2.22,0-4.91,0-6.79.09l-2.62.18,1.11.12c-.89,0-1.78,0-2.12,0-1.89.1-.82.21-.09.37.52.07-.18.17.64.24h-1.48c-.07.06,1.82,0,1.41.07-.57,0-1.21,0-1.8,0,.2.09,2,0,2,.12a11.82,11.82,0,0,0-1.78,0,7.54,7.54,0,0,0,.87,0c-1.83,0-2.83.14-1.17.25-.57,0-1.39-.05-2,0h0l1.12,0h-1l.18.05.79,0h-.69c.17,0,.37.07.58.1.82.07,1.61.17,2.05.18C214.89,207.79,218.49,207.83,222.07,207.83Z"/><circle class="cls-5" cx="193.51" cy="102.39" r="6.5"/><line class="cls-7" x1="194.01" y1="115.29" x2="194.01" y2="104.72"/><path class="cls-3" d="M195,112.77s-.08,0-.1,0,.1-.3.06-.48h-.06c0-.13.06-.27.09-.41s0-.52-.05-.78c0,0,0,0-.05,0a2.94,2.94,0,0,1,0-.41v-.07s0,0,0,0a1.11,1.11,0,0,1,0-.19c-.13-.75-.28-1.52-.43-2.35a3.75,3.75,0,0,1-.15-.52,7.48,7.48,0,0,1,0-.82c-.23,0-.34-.56-.57-.44,0-.16,0-.41-.06-.42s-.42-.16-.53-.59c0-.17.05-.43,0-.49s-.14.22-.2.12c-.07,1.26,0,2.48,0,3.74a35.51,35.51,0,0,1,.1,4.1v.07a4.53,4.53,0,0,0,.09,1.24c.05.16.12.32.18.48l.12-.2a.87.87,0,0,0,0,.39c.1.35.21.15.37,0s.17,0,.24-.12v.27c.06,0,0-.33.07-.26a1.2,1.2,0,0,0,0,.33c.09,0,0-.37.12-.36s-.12.31,0,.33,0-.1,0-.16c0,.34.14.52.25.22a2.1,2.1,0,0,0,0,.36h0c0-.05,0-.15,0-.2s0,.13,0,.19l0,0a.77.77,0,0,0,0-.15v.13a.52.52,0,0,0,.1-.11,1.73,1.73,0,0,0,.18-.38C195,114.08,195,113.42,195,112.77Z"/><line class="cls-7" x1="193.76" y1="98.48" x2="193.76" y2="88.63"/><path class="cls-3" d="M194.79,96.12s-.08,0-.1,0,.1-.28.06-.44l-.06,0c0-.12.06-.25.09-.38s0-.48-.05-.72c0,0,0,0,0,0a1.66,1.66,0,0,1,0-.38v-.06s0,0-.05,0,0-.12,0-.17c-.12-.71-.28-1.42-.43-2.2a2.18,2.18,0,0,1-.14-.48,4.83,4.83,0,0,1,0-.76c-.23,0-.34-.52-.57-.41,0-.15,0-.38-.06-.39a.69.69,0,0,1-.54-.56c0-.16.06-.4,0-.45s-.14.2-.2.11c-.07,1.18,0,2.31,0,3.49a30.61,30.61,0,0,1,.1,3.81v.06a4,4,0,0,0,.09,1.17c.05.15.12.3.18.45a1.57,1.57,0,0,1,.12-.19.75.75,0,0,0,0,.36c.1.32.21.14.37,0s.17,0,.24-.1a2.09,2.09,0,0,1,0,.25c.07,0,0-.31.08-.24a1.1,1.1,0,0,0,0,.31c.09,0,0-.36.12-.34s-.12.28,0,.3,0-.09,0-.14c0,.31.13.48.25.2a1.79,1.79,0,0,0,0,.34h0s0-.14,0-.19v.18l.05,0a.51.51,0,0,0,0-.13v.12l.1-.1a2.35,2.35,0,0,0,.18-.35C194.75,97.35,194.78,96.74,194.79,96.12Z"/><line class="cls-7" x1="207.47" y1="102.35" x2="196.89" y2="102.35"/><path class="cls-3" d="M204.94,101.32s0,.08,0,.1-.31-.1-.48-.06l0,.07-.41-.1-.78,0s0,0,0,.05a1.93,1.93,0,0,1-.41,0h-.07a.06.06,0,0,0,0,0h-.19l-2.36.43a2.51,2.51,0,0,1-.52.14,5.62,5.62,0,0,1-.82,0c0,.23-.55.34-.43.58-.17,0-.41,0-.43.05s-.16.42-.59.54c-.17,0-.43-.06-.49,0s.22.14.12.2c1.26.07,2.48,0,3.75,0a35.27,35.27,0,0,1,4.09-.1h.07a5,5,0,0,0,1.25-.1c.16,0,.32-.12.48-.18l-.21-.11a.82.82,0,0,0,.39,0c.35-.09.15-.21,0-.37s0-.17-.12-.24H207c0-.07-.34,0-.26-.08a1.23,1.23,0,0,0,.33,0c0-.09-.38,0-.36-.12s.3.12.32,0-.1,0-.16,0c.34,0,.52-.13.22-.25a2.13,2.13,0,0,0,.37,0h0l-.2,0h.19l0-.05-.15,0h.13l-.11-.1a1.57,1.57,0,0,0-.37-.17C206.26,101.36,205.6,101.33,204.94,101.32Z"/><line class="cls-7" x1="188.96" y1="102.35" x2="180.8" y2="102.35"/><path class="cls-3" d="M187,101.32s0,.08,0,.1-.24-.1-.37-.06v.07l-.32-.1-.6,0s0,0,0,.05a1.18,1.18,0,0,1-.32,0h-.05s0,0,0,0h-.14l-1.82.43a1.59,1.59,0,0,1-.4.14,3.32,3.32,0,0,1-.63,0c0,.23-.43.34-.34.58-.13,0-.31,0-.32.05a.65.65,0,0,1-.46.54c-.14,0-.34-.06-.38,0s.17.14.1.2c1,.07,1.9,0,2.88,0a21.12,21.12,0,0,1,3.16-.1H187a3,3,0,0,0,1-.1l.37-.18-.16-.11c.13,0,.25,0,.3,0,.27-.09.12-.21,0-.37s0-.17-.09-.24h.21c0-.07-.26,0-.2-.08s.17,0,.26,0-.29,0-.28-.12.24.12.25,0-.08,0-.12,0c.26,0,.4-.13.16-.25a1.43,1.43,0,0,0,.29,0h0l-.16,0H189l0-.05-.11,0h.1l-.09-.1c-.11-.07-.22-.17-.29-.17C188,101.36,187.52,101.33,187,101.32Z"/><circle class="cls-5" cx="130.13" cy="176.75" r="6.5"/><line class="cls-7" x1="130.63" y1="189.65" x2="130.63" y2="179.07"/><path class="cls-3" d="M131.65,187.12s-.08,0-.1,0,.1-.31.06-.48h-.06l.09-.41c0-.26,0-.52,0-.78,0,0,0,0-.06,0a3,3,0,0,1,0-.41v-.06a.05.05,0,0,0,0,0,1.11,1.11,0,0,1,0-.19c-.13-.75-.28-1.52-.43-2.35a3.75,3.75,0,0,1-.15-.52,7.49,7.49,0,0,1,0-.82c-.24,0-.35-.56-.58-.44,0-.16,0-.41,0-.42s-.43-.16-.54-.6c0-.17.05-.43,0-.49s-.14.22-.2.13c-.07,1.26,0,2.47,0,3.74a35.28,35.28,0,0,1,.11,4.1v.06a5,5,0,0,0,.09,1.25c.06.16.12.32.19.48a1.28,1.28,0,0,1,.11-.2.87.87,0,0,0,0,.39c.1.35.21.15.37,0s.18,0,.25-.12a2.44,2.44,0,0,0,0,.27c.06,0,0-.33.07-.26s0,.22,0,.33,0-.37.12-.36-.12.31,0,.33,0-.11,0-.16c0,.34.14.52.26.21a2.33,2.33,0,0,0,0,.37h0a1.38,1.38,0,0,0,0-.2v.19l0,0,0-.14a.08.08,0,1,0,.09,0,1.73,1.73,0,0,0,.18-.38C131.61,188.44,131.65,187.78,131.65,187.12Z"/><line class="cls-7" x1="130.39" y1="172.84" x2="130.39" y2="162.98"/><path class="cls-3" d="M131.41,170.48s-.08,0-.1,0,.1-.29.06-.45h-.06c0-.12.06-.25.09-.38s0-.48-.05-.73c0,0,0,0,0,0a2.53,2.53,0,0,1,0-.38v-.06a.07.07,0,0,0-.05,0,.88.88,0,0,1,0-.17c-.13-.71-.28-1.42-.43-2.2a3,3,0,0,1-.15-.48,6.37,6.37,0,0,1,0-.76c-.23,0-.34-.52-.57-.41,0-.15,0-.38-.06-.39a.7.7,0,0,1-.54-.56c0-.16.06-.4,0-.46s-.14.21-.2.12c-.07,1.18,0,2.31,0,3.49a30.61,30.61,0,0,1,.1,3.81v.06a4,4,0,0,0,.09,1.17c.05.15.12.3.18.44l.12-.19a.78.78,0,0,0,0,.37c.1.32.21.14.37,0s.17,0,.24-.11v.26c.06,0,0-.31.07-.24a1,1,0,0,0,0,.3c.09,0,0-.35.12-.33s-.12.28,0,.3,0-.09,0-.15c0,.32.13.49.25.2a2,2,0,0,0,0,.35h0c0-.06,0-.15,0-.19v.17l.05,0a.59.59,0,0,0,0-.13v.12a.94.94,0,0,0,.1-.1,2.35,2.35,0,0,0,.18-.36C131.37,171.71,131.4,171.1,131.41,170.48Z"/><line class="cls-7" x1="144.09" y1="176.71" x2="133.51" y2="176.71"/><path class="cls-3" d="M141.56,175.68s0,.08,0,.1-.31-.1-.48-.06l0,.06-.41-.09c-.26,0-.52,0-.78.05,0,0,0,0,0,0a1.93,1.93,0,0,1-.41,0h-.07s0,0,0,.05h-.19c-.76.12-1.53.28-2.36.42a2,2,0,0,1-.52.15,5.45,5.45,0,0,1-.81,0c0,.23-.56.34-.44.57-.17,0-.41,0-.42.06s-.17.42-.6.54c-.17,0-.43-.06-.49,0s.22.14.12.2c1.27.07,2.48,0,3.75,0a35.27,35.27,0,0,1,4.09-.1h.07a4.61,4.61,0,0,0,1.25-.09l.48-.18-.21-.12a.85.85,0,0,0,.39,0c.35-.1.15-.21,0-.37s0-.17-.12-.24h.28c0-.07-.34,0-.26-.08a1.23,1.23,0,0,0,.33,0c0-.09-.38,0-.36-.12s.3.12.32,0-.1,0-.16,0c.34,0,.52-.13.22-.25a2.13,2.13,0,0,0,.37,0h0l-.21,0h.19l0-.05-.15,0H144l-.11-.1a2.36,2.36,0,0,0-.37-.18Q142.55,175.7,141.56,175.68Z"/><line class="cls-7" x1="125.58" y1="176.71" x2="117.42" y2="176.71"/><path class="cls-3" d="M123.63,175.68s0,.08,0,.1-.24-.1-.37-.06v.06l-.32-.09c-.2,0-.4,0-.6.05,0,0,0,0,0,0a1.1,1.1,0,0,1-.31,0h-.06s0,0,0,.05h-.14c-.58.12-1.18.28-1.82.42a1.31,1.31,0,0,1-.4.15,3.32,3.32,0,0,1-.63,0c0,.23-.43.34-.34.57-.12,0-.31,0-.32.06a.65.65,0,0,1-.46.54c-.13,0-.33-.06-.38,0s.17.14.1.2c1,.07,1.9,0,2.88,0a21.12,21.12,0,0,1,3.16-.1h0a2.79,2.79,0,0,0,1-.09l.37-.18-.16-.12a.52.52,0,0,0,.3,0c.27-.1.12-.21,0-.37s0-.17-.09-.24h.21c0-.07-.25,0-.2-.08s.17,0,.26,0-.29,0-.28-.12.24.12.25,0-.08,0-.12,0c.26,0,.4-.13.16-.25a1.43,1.43,0,0,0,.29,0h0l-.16,0h.15l0-.05-.11,0h.1l-.08-.1a1.55,1.55,0,0,0-.3-.18C124.65,175.72,124.14,175.69,123.63,175.68Z"/></g></g></svg>