<svg xmlns="http://www.w3.org/2000/svg" viewBox="0 0 275 278.61"><defs><style>.cls-1{fill:#1933d3;fill-rule:evenodd;}.cls-2{fill:#e4ebf9;}.cls-3{fill:#202020;}.cls-4{fill:#fff;}.cls-5{fill:#bbcef1;}.cls-6{fill:#dde3e9;}</style></defs><g id="Layer_2" data-name="Layer 2"><g id="Layer_1-2" data-name="Layer 1"><path id="Background-Shape" class="cls-1" d="M274.88,158.21c-4-44.8-219.09-131.26-259-88.83S14.32,191.44,98,211.83,278.89,203,274.88,158.21Z"/><circle class="cls-2" cx="128.05" cy="11.89" r="9.32"/><path class="cls-3" d="M128.52,18.62c0,.1.16.19-.07.25-.73.14-1.27-.26-1.95-.31l-.09.14a6.31,6.31,0,0,1-1.49-.8,7.27,7.27,0,0,1-2.44-2c0,.06-.07.1-.15,0a5.06,5.06,0,0,1-.79-1.51l-.12-.25a.2.2,0,0,0-.16-.06,6.94,6.94,0,0,1-.17-.78,7.41,7.41,0,0,1,.18-4.95A7.87,7.87,0,0,1,125,4.29a6.33,6.33,0,0,1,2.43-.93,7.66,7.66,0,0,1,4,.75c0-.29.79-.22,1.5,0s1.38.48,1.3,0c.76.6,1.67,1.72,1.82,1.7a1.41,1.41,0,0,1,1.14.34A5.5,5.5,0,0,1,139,8.62c.09.27.17.59.25.91s.08.67.11,1a12.35,12.35,0,0,0,.09,1.37c.07.26.16,0,.23-.43s.13-.78.22-.45a11.37,11.37,0,0,0-2.2-6.17,11.76,11.76,0,0,0-5.14-4A12,12,0,0,0,120.18,3a12.82,12.82,0,0,0-2.8,4.11,11.91,11.91,0,0,0-.39,8.18,11.65,11.65,0,0,0,5.38,6.61,12.78,12.78,0,0,0,3.33,1.28,13.57,13.57,0,0,0,2.55.26l.47,0A10.58,10.58,0,0,0,133,22.34a9.84,9.84,0,0,0,3.19-2.53,10.55,10.55,0,0,0,1.5-2.83,9.77,9.77,0,0,1-.92,1,6.19,6.19,0,0,0,1.08-2.19c.28-1.06.14-1.33,0-1.23s-.47.51-.8.8-.32-.32-.81.35a8.18,8.18,0,0,0,.52-1.35c-.07-.1-.54,1.71-.64,1.22a6,6,0,0,0,.53-1.64c-.21.15-.69,1.83-.9,1.64.12-.25.84-1.35.59-1.54-.05,0-.19.5-.3.75a3.51,3.51,0,0,0,.18-1.72c-.08-.26-.23-.12-.5.55.05-.23.13-.53.2-.83a5.45,5.45,0,0,0,.07-.87h0c0,.27-.09.72-.13.95,0-.29,0-.59.07-.88l-.12.15c-.05.22-.07.43-.11.66a5.67,5.67,0,0,0,.05-.58,4.17,4.17,0,0,0-.28.47c-.26.65-.65,1.16-.77,1.47A7.11,7.11,0,0,1,128.52,18.62Z"/><circle class="cls-2" cx="32.96" cy="174.04" r="9.08"/><path class="cls-3" d="M33.41,180.53c0,.1.15.19-.07.25-.7.14-1.23-.26-1.89-.31l-.08.15a6.32,6.32,0,0,1-1.44-.79,7,7,0,0,1-2.36-1.89c0,.06-.07.1-.15,0a4.52,4.52,0,0,1-.75-1.46l-.12-.24a.2.2,0,0,0-.16-.06,6.53,6.53,0,0,1-.17-.75,7.28,7.28,0,0,1,.16-4.8,7.64,7.64,0,0,1,3.63-4,6.1,6.1,0,0,1,2.36-.92,7.47,7.47,0,0,1,3.91.74c0-.29.77-.23,1.46,0s1.36.46,1.28,0c.74.59,1.63,1.68,1.78,1.66a1.38,1.38,0,0,1,1.13.32,5.55,5.55,0,0,1,1.74,2.38c.08.27.16.58.24.9s.08.66.11,1A10.54,10.54,0,0,0,44.1,174c.08.25.17,0,.23-.43s.13-.76.23-.44a11.16,11.16,0,0,0-2.16-6,11.49,11.49,0,0,0-5-3.91,11.74,11.74,0,0,0-12.12,2.16,12.69,12.69,0,0,0-2.75,4,11.75,11.75,0,0,0-.37,8,11.42,11.42,0,0,0,5.27,6.47,12.23,12.23,0,0,0,3.26,1.25,13,13,0,0,0,2.5.26l.45,0a10.31,10.31,0,0,0,4.2-1.09,9.68,9.68,0,0,0,3.13-2.48A10.79,10.79,0,0,0,42.38,179a9.19,9.19,0,0,1-.91.94,5.86,5.86,0,0,0,1.06-2.14c.27-1,.13-1.3,0-1.21s-.47.5-.79.78-.32-.31-.81.34a7.83,7.83,0,0,0,.51-1.32c-.07-.09-.52,1.67-.63,1.19a5.46,5.46,0,0,0,.52-1.6c-.21.15-.67,1.78-.88,1.59.12-.24.83-1.31.57-1.49,0,0-.18.48-.29.72a3.34,3.34,0,0,0,.16-1.67c-.08-.25-.22-.11-.49.53l.19-.8a5.16,5.16,0,0,0,.08-.84h0c0,.26-.08.69-.13.92,0-.28,0-.57.08-.86l-.13.15c0,.21-.07.42-.1.64a5.46,5.46,0,0,0,0-.56c-.09.13-.18.29-.27.45-.26.63-.65,1.12-.77,1.42A6.85,6.85,0,0,1,33.41,180.53Z"/><path class="cls-3" d="M35.52,101.36c-.1,0-.21.59-.24-.36a24.68,24.68,0,0,1,1.45-7.62l-.09-.24a22.92,22.92,0,0,1,3.27-5.8l.93-1.26c.33-.41.7-.79,1-1.18a28.94,28.94,0,0,1,2.24-2.19l1.25-.95.62-.47.67-.41c.44-.28.88-.56,1.33-.83l1.4-.69c-.12,0-.19,0,.17-.24a10.32,10.32,0,0,1,1.32-.54c.48-.16,1-.39,1.53-.52l1.72-.42c.58-.16,1.21-.19,1.82-.3.37,0,.73-.15,1.09-.17a.74.74,0,0,0,.4-.15L59.06,77c.51,0,1.07,0,1.57,0,13.48-.34,27.1-.65,42-1.11a28.09,28.09,0,0,0,9.28-2.33,28.59,28.59,0,0,0,6.49-3.76,26.15,26.15,0,0,0,5.2-5.28c-.22,0,0-.46.43-1.25.19-.41.41-.89.65-1.39.12-.25.25-.51.37-.77l.31-.83.57-1.55c.13-.5.22-.94.29-1.28.12-.68.09-1-.23-.52a16,16,0,0,0,.67-2.21c.1-.39.21-.78.29-1.16s.11-.77.16-1.13a8.18,8.18,0,0,0,.14-2.66c-.41-.64-1-2.86-1.28-10.59-.07-3,.14-7.66,0-8.73-.16-1.68-.35,3.92-.5,2.24,0,2.81,0,5.6,0,8.38,0,1.4,0,2.79,0,4.17v3.12l0,1A22.41,22.41,0,0,1,124,56.56a22.92,22.92,0,0,1-3.59,6.49A25.19,25.19,0,0,1,115,68.14a24.87,24.87,0,0,1-6.77,3.15c-.61.15-1.21.33-1.82.46l-1.87.29c-.62.1-1.25.08-1.88.13l-1,0H92.17c-1.92.07-6.61.12-12.76.16l-10.18.06-5.61,0H59.28l-1.58.09A28.59,28.59,0,0,0,45.61,76,29.19,29.19,0,0,0,32,92.6a32.45,32.45,0,0,0-.91,3.93l-.26,1.68c0,.53-.06,1-.09,1.48l0,1.31c-.05,7.29,0,16.11.22,22.27.15,2.81.31,5.69.46,8.55.11-1.32.2-2.55.29-3.63,0,2.91,0,5.82.08,6.94.24,6.19.53,2.68.92.3.18-1.71.44.6.61-2.08,0,1.93,0,2.9,0,4.85.17.22-.08-6,.19-4.63-.07,1.87,0,4,0,5.89.22-.67.08-6.71.3-6.41,0,1-.3,5.44,0,5.82.06.07.07-1.87.07-2.84.08,6,.34,9.26.64,3.81,0,1.89-.12,4.56-.09,6.56h0c0-1,.05-2.72.07-3.64,0,1.13,0,2.27,0,3.4,0-.18.07-.38.11-.59,0-.85.07-1.7.07-2.58,0,.75,0,1.5,0,2.26.09-.57.17-1.22.25-1.93.18-2.68.44-5.26.44-6.71C35.41,124.87,35.5,113.08,35.52,101.36Z"/><rect class="cls-4" x="181.92" y="141.16" width="6.67" height="58.63" transform="translate(-60.48 115.74) rotate(-30.06)"/><path class="cls-3" d="M187,175c-.1,0,0,.46-.34-.1-1.15-1.79-1.71-3.43-2.85-5.22l-.22,0c-.76-1.45-1.55-3-2.35-4.52l-4.91-8.25c0,.1,0,.16-.21-.1-.7-1.12-1.57-2.74-2.51-4.39l-.44-.71c-.14-.17-.22-.19-.27-.2-.41-.75-.78-1.42-1.13-2l-.55-.88-.28-.45-.07-.11s0,0,0,0l0,0-.3-.38.24-.21.15-.11,0,0,.17-.11.35-.21.7-.45.2-.15.45-.33.39.5a1.85,1.85,0,0,1,.13.19l.29.46.58.92c.78,1.23,1.58,2.49,2.38,3.77,1.61,2.56,3.28,5.19,5,7.9,1.21,1.8,2.43,3.6,3.54,5.38,1.61,2.65,3.5,6.13,5,8.75.27-.69,4.2,5.54,4,4a37.24,37.24,0,0,0,2.72,4.43c.66.16,1.92,1.22,4.85,5.7,1.11,1.78,2.55,4.66,3,5.25.72.93-1.06-2.52-.34-1.59-7.64-13.56-15.33-26.42-23.18-40-.41-.64-1.14-1.84-2.11-3.44l-1.6-2.69-3.07-5.22-9.77,5.72,10.76,18.45c3,5.22,5.56,9.69,6.94,12.09l.43.72c2.5,4.38,5.6,9.65,7.93,13.23l3.36,4.9c-.36-.84-.71-1.62-1-2.32l1.43,2.49.76,1.26c.25.41.47.74.63,1l.87,1.35c2.63-1.73,1.34-1.23.23-.87l-.44-1.19c-.29-.66-.15-.64-.07-.72s.1-.26-.23-1l1,1.83.74-.43c0-.08-.29.1-.72.36-.5-.85-1.28-2.1-.87-1.74.27.52.59,1.06.91,1.57.45-.28.88-.55,1.3-.79a4.87,4.87,0,0,0-1.24.56c-.47-.87-1-1.78-.83-1.76.16.22.5,1,.85,1.69.45-.22.85-.46.9-.62a3.9,3.9,0,0,0-.85.41l-.17-.3.18.28c.56-.35,1-.66,1.37-.9a12.66,12.66,0,0,0,1.08-.8c.19-.17.18-.23-.08-.15a4.35,4.35,0,0,0-.6.22l-.44.2-.13.06-.06,0-.13,0,1.73-.93c.71-.38,1.42-.77,2-1.13h0l-2.22,1.2,2.05-1.17-.41.11c-.53.27-1.05.54-1.59.84l1.37-.77q-.59.18-1.29.45l-1.21.54-.56.24h-.12c-.14,0-.19-.07-.23-.06v0l-.07-.15,0-.07v0l-.1-.17-.18-.33-1.5-2.67-3-5.32Z"/><polygon class="cls-4" points="173.45 143.44 167.69 146.78 161.1 140.39 161.73 129.83 171.2 134.55 173.45 143.44"/><path class="cls-3" d="M166.34,141.89c-.08.07,0,.25-.24.12-.61-.45-.8-1.12-1.41-1.57l-.15.08-.56-.7-.28-.36c0-.05,0-.05,0-.07h0l0,0h0s0,0,0-.14l0-1.31c-.06,0-.11,0-.13-.08,0-.47.08-1.11.14-1.78v-.3a.23.23,0,0,0-.12-.12c0-.3,0-.57.09-.82l0-.58v-.3c0-.09,0-.06,0-.1a2.14,2.14,0,0,1-.11-.31,9.56,9.56,0,0,1-.19-1,2.86,2.86,0,0,1,.8.07,5.55,5.55,0,0,1,.66.16l1.33.5c.76.21,1.51.42,2.21.69.4.17.84.39,1.27.62l.53.29.43.25c0,.16.07.32.1.46.46-.54,1.4,2,1.83,1.35.16.69.41,1.73.58,1.74.51,0,1.19.44,1.95,2.2.24.7.32,1.85.48,2.08s.1-1,.36-.66c-.32-1.42-.65-2.82-1-4.21l-1.38-5.32-4.52-2.19-4.42-2.17c-.79-.33-2.59-1.17-4.92-2.28-.12,2.45-.26,5.51-.41,8.68-.12,2.21-.24,4.5-.35,6.5l2.59,2.53,1.29,1.3.22.2c.5.5,1.05,1,1.61,1.56l1.39,1.29,1.44,1.3c.58-.37,1.1-.72,1.57-1s1.07-.78,1.45-1.09l.78-.74c-.32.08-.63.15-.91.2a6.18,6.18,0,0,0,1.43-.92c1.19-1,.31-.79-.4-.84-.45.07-.09-.45-.74-.27l1-.58c0-.16-1.22.81-1.07.41a10.77,10.77,0,0,0,1.24-.75c-.26-.1-1.47.76-1.51.53.19-.17,1.3-.41,1.24-.69,0-.06-.42.17-.63.29,1.22-.81,1.79-1.43.48-1,.41-.23,1-.45,1.44-.73h0c-.21.11-.61.27-.8.38l.73-.4-.19,0c-.19.08-.39.16-.58.26l.49-.27a5.06,5.06,0,0,0-.54,0,12,12,0,0,0-1.64.44l-1.89,1c-.22.12-.14.06-.17.07h-.08l0-.06v0h0l-.16-.16Z"/><path class="cls-5" d="M246.14,275.67a16.93,16.93,0,0,0,6.17-23.11c-3.07-5.29-24.44-31.83-31.74-40.77l0-.06a17.52,17.52,0,0,1-3.63-9.3c-.37-3.74.59-5.05-2.48-10.36l-12.48,7.22-12.47,7.22c3.07,5.31,4.69,5.13,7.75,7.32a17.4,17.4,0,0,1,6.25,7.77l0,.08C207.61,232.46,220,264.21,223,269.5A16.91,16.91,0,0,0,246.14,275.67Z"/><path class="cls-3" d="M237.55,228.81c-.09,0,.3.7-.47-.19-2.37-2.83-4-5.37-6.35-8.19l-.29-.1-5.4-7.06-2.64-3.22a13.76,13.76,0,0,1-1.81-3,16,16,0,0,1-1.05-3.45,20.07,20.07,0,0,1-.34-3.74c-.06.15-.11.22-.14-.35a14.78,14.78,0,0,0-.8-4.66c-.07-.21-.15-.41-.23-.62l-.13-.31-.06-.15-.11-.24c-.31-.65-.61-1.32-1-2l-1.08-2-.28-.51-.07-.12s-.08,0-.12.05l-.25.14-1,.53c-.78.42-1.58.91-2.36,1.37a5.82,5.82,0,0,0-.6.42c-.11.09-.09.11-.12.14l-3.53,2L196.87,200l-5.3,3.22-1.8,1.08c-.76.44-1.46.9-2.17,1.35a2.73,2.73,0,0,0-.5.34l.34.55.69,1.11c.45.72.91,1.44,1.42,2.13l.18.24.13.17.28.34c.18.23.39.44.59.66a12.06,12.06,0,0,0,1.34,1.23,22.44,22.44,0,0,0,2.87,1.8,18.51,18.51,0,0,1,4.65,3.69,15.48,15.48,0,0,1,1.77,2.4,17.93,17.93,0,0,1,1.31,2.78l2.52,6.15c1.5,3.47,3,6.94,4.42,10.31,2,5,4.54,11.42,6.48,16.31.12-.49,1.45,2.22,2.74,4.7s2.52,4.73,2.27,3.45c.71,1.59,1.57,3.62,2.42,5.12a10.22,10.22,0,0,0,1.95,2.51,5.41,5.41,0,0,1,.94.46c.22.12.45.29.74.47l1,.6a17.68,17.68,0,0,0,8.06,2.61,16.35,16.35,0,0,0,5.34-.42,15.16,15.16,0,0,0,2.25-.75c.59-.31,1.06-.55,1.3-.7.41-.29.36-.3.06-.18l-1.23.49c-1,.36-1.94.6-1.16.23a14.39,14.39,0,0,1-8.41.5,14.34,14.34,0,0,1-7.21-4.23,15.51,15.51,0,0,1-2.38-3.53c-.69-1.41-1.37-2.91-2-4.42-1.32-3-2.59-6.08-3.86-9.14q-3.79-9.21-7.47-18.54l-3.67-9.39c-.61-1.57-1.21-3.14-1.82-4.72a18.78,18.78,0,0,0-2.9-5.09,22.76,22.76,0,0,0-4.86-4.34c-.61-.41-1.28-.8-1.91-1.16a15,15,0,0,1-1.64-1.08,9.34,9.34,0,0,1-1.4-1.41l-.31-.4-.08-.1,0-.05,0,0,.11-.07L195.1,206l5.52-3.23,11.89-6.93,1-.57.11.2.06.12v0l.07.16.14.35a8.35,8.35,0,0,1,.61,2.75c.06,1,0,2.26.15,3.54a20.81,20.81,0,0,0,2,7.31,18.11,18.11,0,0,0,2,3.18l2,2.5c5.21,6.41,9.52,11.83,12,15l.91,1.14,8.6,10.92c2.87,3.67,5.68,7.24,7.78,10.13a15.4,15.4,0,0,1,3.1,8.57,5.51,5.51,0,0,0,0-1.07c0-.35,0-.7,0-1a17.38,17.38,0,0,0-.24-1.89,17.51,17.51,0,0,1,.12,7.66c-.81,3.38-1.39,4-1,3.7a13,13,0,0,0,1.79-3.13c.3-1,.37-.78.47-.72s.1,0,.2-.19a5,5,0,0,0,.38-1.44c0,.29-.07.57-.1.83s-.11.51-.16.74a12.29,12.29,0,0,1-.34,1.33c-.15.43-.26.86-.44,1.31s-.39.93-.65,1.47a11.63,11.63,0,0,0,1.24-3.12c.42-1.62.54-3.11.58-2.27a18.6,18.6,0,0,1-2.38,6.86,10.47,10.47,0,0,0,.89-1.4,17.58,17.58,0,0,0,1.05-2.6,9.44,9.44,0,0,0,.37-1.35c.09-.44.22-.82.25-1.16.1-.66.18-1.06.22-1a14.94,14.94,0,0,1-.91,3.87c-.23.77-.61,1.45-.83,2a4.79,4.79,0,0,0-.44,1.08,6.6,6.6,0,0,0,.64-1.13,16.82,16.82,0,0,0,.83-2.13,21.09,21.09,0,0,1-3.71,6.89c-.37.44-.4.56,0,.28a7.8,7.8,0,0,0,.85-.81c.18-.2.41-.43.64-.7l.73-1a14,14,0,0,1-1.22,1.62l-.72.83-.82.77a21,21,0,0,1-1.73,1.44c-.6.43-1.21.79-1.74,1.15h0a18.91,18.91,0,0,0,3.8-2.86l-.8.78-.87.69a17.7,17.7,0,0,1-1.84,1.27l.72-.33a10,10,0,0,0,1.38-1,10.72,10.72,0,0,0,1.32-1.12,9.56,9.56,0,0,1-1.12,1,12.94,12.94,0,0,1-1.2.9,7.69,7.69,0,0,0,1-.62,8.71,8.71,0,0,0,1.12-.78,20.53,20.53,0,0,0,3.5-3.79c.42-.67.83-1.29,1.13-1.88s.56-1.14.72-1.61a19.22,19.22,0,0,0,1.17-5.9,21.92,21.92,0,0,0-.1-3,21.57,21.57,0,0,0-.61-3,19.4,19.4,0,0,0-2.51-5.46c-1-1.57-2.08-3-3.14-4.47C246.32,240,241.94,234.38,237.55,228.81Z"/><line class="cls-4" x1="190.94" y1="201.05" x2="208.94" y2="190.64"/><path class="cls-3" d="M196.53,200.78c-.05-.08-.16-.14-.09-.23.24-.25.65-.1.89-.35l-.06-.15.82-.2q.65-.42,1.26-.87s-.07-.09,0-.13a4.28,4.28,0,0,1,.72-.38l.1-.09a.25.25,0,0,0,0-.13,2.06,2.06,0,0,1,.34-.16c1.12-1,2.24-2.1,3.46-3.24a6,6,0,0,1,.7-.84,12.08,12.08,0,0,1,1.42-.75c-.35-.46.52-1.29,0-1.68.28-.15.71-.37.65-.52a1.6,1.6,0,0,1,.34-1.76c.25-.22.8-.3.85-.45s-.54-.08-.46-.31c-2.24,1.09-4.19,2.47-6.35,3.71a54.36,54.36,0,0,1-6.84,4.25l-.11.08a7.73,7.73,0,0,0-2,1.43c-.2.27-.39.57-.59.87l.49,0c-.28.15-.57.3-.62.46-.47.55,0,.61.43.82.25.05.17.41.51.41l-.47.25c.06.15.52-.4.53-.1-.21.05-.36.25-.55.35.18.16.68-.3.76-.09-.07.1-.66,0-.56.3,0,.05.21,0,.3-.1-.53.4-.71.81,0,.76a4,4,0,0,0-.67.29h0c.1,0,.29-.09.38-.14l-.33.18.11.06a.83.83,0,0,0,.28-.08l-.22.11a2,2,0,0,0,.31.12,3.54,3.54,0,0,0,.86,0C194.23,202,195.4,201.42,196.53,200.78Z"/><line class="cls-4" x1="165.82" y1="136.89" x2="167.51" y2="139.81"/><path class="cls-3" d="M164,138.88c.09,0,.17-.12.22-.12s-.16.2-.05.2l.14-.08c0,.08-.1.16-.14.24a.76.76,0,0,0,.23.15.33.33,0,0,1,.12-.06s0,.08,0,.13h0l.12-.05a.2.2,0,0,1,0,.07l1.31.11a1.58,1.58,0,0,1,.4,0c.09,0,.05.18.08.25.49-.29.83-.27,1.31-.6,0,.06,0,.13.18,0a4.2,4.2,0,0,1,1.27-.51c.08,0-.05.19,0,.16s.27-.24.42-.29c-.05-.43-.43-.66-.63-1-.29,0-.85-.73-.87-1h0a.34.34,0,0,0-.4-.23l-.47.1-.22.19c0-.05,0-.1-.13-.06a1.67,1.67,0,0,0-.8.46c-.14.11-.39.21-.51.33l0-.08c-.14.08.13.05-.12.16,0-.06-.06,0-.07-.07-.19.12,0,.14-.21.25s.21-.24,0-.11c0,0,0,.06,0,.08a.64.64,0,0,0-.59.26s.07-.13,0-.14h0s0,.07,0,.09l0-.06-.09.07s0,.05,0,.07v0l-.2.16c-.13.13-.33.29-.32.32A1.46,1.46,0,0,0,164,138.88Z"/><path class="cls-3" d="M222.55,232.82c.09,0,.09-.24.27,0,.52.67.58,1.42,1.09,2.09l.18,0c.26.59.55,1.22.84,1.85.68,1.07,1.37,2.13,2.08,3.17,0,0,.07-.1.15,0,.31.43.64,1.07,1,1.72l.19.27a.19.19,0,0,0,.18,0c.17.29.31.56.44.81,2.2,2.95,4.48,6,6.91,9.27.58.66,1.16,1.32,1.65,2,.7,1,1.39,2.38,2,3.47.19-.23.75.25,1.32.62s1.11.63,1.13.23c.49.58,1.35,1.33,1.5,1.21a1.77,1.77,0,0,1,1-.25c.42,0,1,.08,1.63.07l.6.06c.14,0,.24,0,.25-.08s.05-.12,0-.12-.1-.06-.14-.08a.24.24,0,0,1-.12-.22,1.81,1.81,0,0,1-.69-.13,5,5,0,0,1-1.25-.7,9.83,9.83,0,0,1-2.36-2.62l-2.38-3.8-2.42-3.93c-1.33-1.68-8.84-13.8-10.65-17l-.18-.28a47,47,0,0,0-3.38-5.1c-.52-.59-1.07-1.18-1.62-1.77.11.36.21.7.28,1A8.83,8.83,0,0,0,221,223c-1.1-1.32-.84-.35-.84.42.1.49-.45.08-.22.8l-.67-1.15c-.18,0,.92,1.36.5,1.18a15.54,15.54,0,0,0-.87-1.36c-.09.27.89,1.61.66,1.66-.19-.22-.52-1.43-.81-1.38a3,3,0,0,0,.35.7c-.92-1.35-1.61-2-1.09-.56-.26-.45-.55-1.13-.86-1.58h0c.13.23.33.67.46.88l-.48-.8c0,.06,0,.13,0,.2a4.78,4.78,0,0,0,.32.64l-.32-.54c0,.18,0,.38.06.59a13,13,0,0,0,.58,1.79C219.29,227.27,220.9,230.07,222.55,232.82Z"/><path class="cls-3" d="M216.26,236.37c.09-.05.09-.25.26,0,.49.69.52,1.44,1,2.13l.17,0,.77,1.88c.63,1.11,1.27,2.2,1.93,3.28,0-.06.08-.1.16,0,.29.44.59,1.11.93,1.77l.19.28a.22.22,0,0,0,.17.05c.16.3.29.57.41.82,2.06,3.05,4.19,6.2,6.48,9.57.54.68,1.09,1.36,1.54,2,.64,1,1.33,2.51,1.85,3.5.22-.21.71.27,1.15.77s.81,1,1,.64a15.36,15.36,0,0,0,.62,2.1,1.32,1.32,0,0,1,.81.76,4.29,4.29,0,0,1,.25,2.87,4.89,4.89,0,0,1-1.06,1.91,9.86,9.86,0,0,1-1.31,1.1c-.08.09-.05.12,0,.12a2.56,2.56,0,0,0,.56-.22c.46-.21.85-.54.6-.17a6.3,6.3,0,0,0,1.87-3.35,9.44,9.44,0,0,0,.13-3.11,14.15,14.15,0,0,0-1.73-5.24l-4.51-8c-1.24-1.72-8.18-14.13-9.84-17.39l-.17-.29a47.12,47.12,0,0,0-3.14-5.24c-.49-.61-1-1.22-1.53-1.83.09.37.17.71.23,1a8.26,8.26,0,0,0-1-1.63c-1-1.37-.83-.39-.86.37.08.5-.46.07-.26.8-.24-.47-.37-.71-.62-1.18-.17,0,.86,1.4.45,1.2-.19-.47-.55-.93-.8-1.4-.11.27.81,1.66.58,1.69-.18-.23-.46-1.45-.75-1.41a2.93,2.93,0,0,0,.32.71c-.86-1.39-1.52-2.06-1.06-.61-.25-.46-.5-1.16-.8-1.62h0c.13.24.3.68.42.91l-.43-.83a1.23,1.23,0,0,0,0,.2,6.06,6.06,0,0,0,.28.65l-.29-.55c0,.18,0,.38,0,.59a14.29,14.29,0,0,0,.5,1.82C213.24,230.65,214.72,233.54,216.26,236.37Z"/><path class="cls-4" d="M182.77,55.48a2,2,0,0,0,2.79.75l8.38-4.85a2,2,0,0,0,.74-2.79L187.9,36.87c7.14-1.26,14.33,1.55,17.87,7.66,4.64,8,1.23,18.68-7.61,23.8s-19.78,2.77-24.43-5.26C170.2,57,171.34,49.33,176,43.77Z"/><path class="cls-3" d="M192.26,39.18c0-.1-.09-.2,0-.25h0l.34,0a4.06,4.06,0,0,1,.7.09,9.25,9.25,0,0,1,1.31.3c.87.23,1.67.58,2.6.88l.19-.09a13.55,13.55,0,0,1,3.74,2.71,13.08,13.08,0,0,1,4.07,7.42c0-.09.1-.13.16.15a11.23,11.23,0,0,1,.16,2.12c0,.4-.06.81-.1,1.23s-.14.85-.21,1.29a3.91,3.91,0,0,1-.14.76.44.44,0,0,0,0,.31,14.18,14.18,0,0,1-.73,2.07,18,18,0,0,1-9.2,9.71,18.31,18.31,0,0,1-7,1.73,16.21,16.21,0,0,1-7.34-1.38,13.87,13.87,0,0,1-5.26-3.72,13.39,13.39,0,0,1-2.47-4.5,15.41,15.41,0,0,1-.7-5c-.29.24-.51-1.56-.33-3.28s.61-3.29,0-2.64c.21-.52.43-1.11.72-1.67s.72-1.3,1.05-1.88c.72-1.12,1.35-2,1.41-2.18a6.75,6.75,0,0,1,.5-1.25l.1-.21c0-.08.08-.19.12-.11l.24.2c.17.16.38.37.64.65s.55.61.89,1,.74,1.06,1.19,1.74c.23.34.47.7.71,1.08l.49.7,1.09,1.64c1.18,1.91,2.73,5,3.22,5.63.76,1-1.16-2.69-.4-1.69l-3.08-5.42-2.39-4.14-.39-.68c-.12-.22-.26-.38-.39-.58l-.78-1.14-.78-1.14-.2-.28c0-.09-.07,0-.11,0l-.11.15-.45.57a44.13,44.13,0,0,0-3.43,4.69,9.39,9.39,0,0,0-.76,1.3l-.45.91c-.23.54-.45,1.09-.65,1.63a20.07,20.07,0,0,0-1.14,7,18,18,0,0,0,5.72,12.79,19.71,19.71,0,0,0,13.06,5.13l1.63-.08c.68-.06,1.48-.16,2.37-.31A23.41,23.41,0,0,0,198.09,71a22.69,22.69,0,0,0,6.65-5.11,20.86,20.86,0,0,0,4.58-8.24,18.51,18.51,0,0,0,.21-9.74,18.15,18.15,0,0,0-1.77-4.44A19.22,19.22,0,0,0,205,39.9a18.51,18.51,0,0,0-6.55-4.25,20.72,20.72,0,0,0-5.4-1.27l-.51,0c-.28,0-.55,0-.83,0a28,28,0,0,0-3.7.25l-1.84.25-.95.14-.48.06-.23,0s0,.13.06.19c.56,1.1,1,2.18,1.66,3.32l1.94,3.32c1.48,2.48,2.93,4.86,4.17,6.78l.3.46.11.1a.6.6,0,0,1-.1.91s-.35.25-.57.4l-.74.51.86-.39a4.62,4.62,0,0,1,.64-.26,1.56,1.56,0,0,0,.43-.2,1.35,1.35,0,0,1-.37.27l-2.08,1.21c-.63.38-1.14.7-1.43.91-3.85,2.52-1.45,1.47.28.92,1.18-.49-.18.6,1.64-.25L188.21,55c-.06.22,3.8-2.3,3.07-1.56-1.23.64-2.53,1.5-3.78,2.21.55,0,4.36-2.42,4.28-2.12-.65.43-3.65,1.77-3.75,2.14a18.72,18.72,0,0,0,1.85-1c-1.92,1.15-3.29,2.06-3.9,2.52-.43.27-.54.35-.1.26l.39-.14.37-.16q.44-.18,1.11-.51l-1,.55-.61.33a3.4,3.4,0,0,1-1,.32,3.58,3.58,0,0,1-3.55-1.7v0a3.55,3.55,0,0,0,1.72,1.51,3.44,3.44,0,0,0,2.24.12,3.52,3.52,0,0,1-3.85-1.35,3.63,3.63,0,0,0,.43.65,3.56,3.56,0,0,0,3.17.93,3.71,3.71,0,0,1-2.87-.62,3.66,3.66,0,0,0,2.45.93,4,4,0,0,0,1.4-.31l.81-.36,1.26-.57a20.9,20.9,0,0,0,1.93-.94l4.87-2.73a4.48,4.48,0,0,0,2.27-4,4.71,4.71,0,0,0-.74-2.33l-.7-1.24-2.57-4.54-1.18-2.07v-.06S192.25,39.18,192.26,39.18Z"/><circle class="cls-4" cx="257.68" cy="171.17" r="17.31"/><path class="cls-3" d="M248.94,153.34c0,.1.44,0-.1.33a19.38,19.38,0,0,0-4.68,3.09V157l-.88.79c-.28.27-.55.58-.82.87a17.11,17.11,0,0,0-1.55,1.92,19.33,19.33,0,0,0-2.85,8.58c.07-.07.13-.1.12.2-.08.62,0,1.37-.09,2.18a19.61,19.61,0,0,0,.19,2.58c.05.26.11.52.16.77s.14.24.18.26c.14.79.36,1.48.52,2.12a19.25,19.25,0,0,0,8.27,9.89,18.89,18.89,0,0,0,12.92,2.27,20.15,20.15,0,0,0,5.26-2,19.34,19.34,0,0,0,6.71-5.51c-.37,0,.38-1.32.78-2.63s.63-2.49.14-2c.63-1.49,1.07-3.9.87-4.05a3.35,3.35,0,0,1-.63-1.49c-.11-.43-.19-1-.37-1.63s-.35-1.45-.62-2.39c-.12-.36-.24-.78-.35-1.21l-.44-1.25a10.59,10.59,0,0,0-.81-1.66c-.53-.68.6,1.93.07,1.24a14.28,14.28,0,0,1,1.2,3.91,13.39,13.39,0,0,1,.11,4.06,14.89,14.89,0,0,1-3,7.44,14.71,14.71,0,0,1-14.57,5.45,13.3,13.3,0,0,1-5.81-2.38,15.07,15.07,0,0,1-3.56-3.57A14.73,14.73,0,0,1,243,174.5a15,15,0,0,1,1.69-11,16.06,16.06,0,0,1,2.94-3.59,16.25,16.25,0,0,1,2.74-1.89l.54-.29a16,16,0,0,1,5.52-1.58,18.22,18.22,0,0,1,5.38.3,16.92,16.92,0,0,1,4.22,1.37c-.55-.44-1.08-.84-1.55-1.17a34.3,34.3,0,0,1,3.18,1.89c1.38.94,1.67,1.2,1.64.91a2.86,2.86,0,0,0-.32-.66l-.61-.87c-.32-.38-.19-.41-.11-.49s.13-.21-.48-.72a9,9,0,0,1,1.12.87,10.56,10.56,0,0,1,1.06,1s-.08-.16-.3-.39l-.87-.72c-.6-.53-1.23-.88-.81-.78a21.66,21.66,0,0,1,2.65,2.27,6.29,6.29,0,0,0-1.45-1.57c-.68-.64-1.41-1.1-1.27-1.15.62.25,2.36,2.28,2.67,2.28a6.06,6.06,0,0,0-1.21-1.22c1.42,1.12,2.36,2.19,2.78,2.55s.37,0-.64-1.39c.41.43.81,1,1.25,1.6s.76,1.23,1.12,1.74h0c-.34-.52-.83-1.48-1.2-1.92.44.55.78,1.18,1.17,1.77,0-.12-.07-.24-.1-.37a15.7,15.7,0,0,0-.85-1.39c.29.38.52.79.78,1.19-.12-.34-.27-.74-.45-1.17a16.4,16.4,0,0,0-2.61-3.49,19.51,19.51,0,0,0-10.34-4.84,18.5,18.5,0,0,0-5.8,0A18.92,18.92,0,0,0,248.94,153.34Z"/><circle class="cls-4" cx="257.68" cy="171.17" r="7.69"/><path class="cls-3" d="M260.55,175.41c.05.08.2.11.08.24-.42.4-1,.26-1.43.51v.17a5.15,5.15,0,0,1-1.3,0,5.62,5.62,0,0,1-2.36-.34c0,.07,0,.12-.11.11a3.47,3.47,0,0,1-1.09-.71l-.19-.11a.2.2,0,0,0-.14,0,4.12,4.12,0,0,1-.41-.46,5.85,5.85,0,0,1-1.92-3.37,6.27,6.27,0,0,1,.84-4.35,5,5,0,0,1,1.27-1.68,6.12,6.12,0,0,1,3.13-1.09c-.12-.27.45-.57,1-.75s1.2-.31,1-.64a20.51,20.51,0,0,0,2,.45,1.27,1.27,0,0,1,1-.34,4.41,4.41,0,0,1,2.39,1,11.57,11.57,0,0,1,1.73,2.24c.18.15.14-.1,0-.44s-.22-.65,0-.46a9.78,9.78,0,0,0-4.31-3.66,10.11,10.11,0,0,0-5.56-.76,10.34,10.34,0,0,0-8.28,7,11.17,11.17,0,0,0-.3,4.27,10.25,10.25,0,0,0,3.25,6.25,10,10,0,0,0,6.84,2.6,10.44,10.44,0,0,0,3-.49,12.1,12.1,0,0,0,2-.89l.33-.23a9.07,9.07,0,0,0,2.71-2.67,8,8,0,0,0,1.25-3.26,8.88,8.88,0,0,0-.17-2.73,7.6,7.6,0,0,1-.31,1.09,4.83,4.83,0,0,0-.14-2.06c-.27-.89-.5-1-.6-.87s-.19.59-.34.93-.42-.08-.54.6a5.81,5.81,0,0,0-.18-1.17c-.11,0,.34,1.43,0,1.13a4.75,4.75,0,0,0-.3-1.37c-.13.21.24,1.57,0,1.53,0-.23.09-1.31-.21-1.32-.06,0,.06.43.08.65a2.55,2.55,0,0,0-.61-1.26c-.18-.14-.25,0-.2.61a5.21,5.21,0,0,0-.47-1.28h0c.08.2.21.53.27.71-.08-.22-.2-.42-.3-.64l0,.17a4,4,0,0,0,.17.49c-.05-.14-.13-.27-.19-.41a2.22,2.22,0,0,0,0,.45c0,.56-.08,1.07-.05,1.32A5.45,5.45,0,0,1,260.55,175.41Z"/><path class="cls-4" d="M204.68,62.29a20.16,20.16,0,0,1-15,8.69h0c13.81,10.36,45.28,68.83,53.42,90.86h0a17.21,17.21,0,0,1,13.76-8h0c-15.05-18-51.24-74.59-52.18-91.58Z"/><path class="cls-3" d="M211.6,105.24c.1,0-.23-.77.46.29,2.11,3.38,3.42,6.31,5.45,9.74l.29.17c1.45,2.72,2.91,5.58,4.41,8.5q4.32,8,8.39,15.95c0-.16,0-.25.29.27,1.14,2.21,2.6,5.33,4.08,8.57.23.47.47.94.69,1.41a1.38,1.38,0,0,0,.36.47c.66,1.47,1.23,2.78,1.74,4l1.3,2.86.35.8.52,1.27c.34.85.7,1.72,1.06,2.61l1.75,1.68c.13.11.21.23.32.34a1.18,1.18,0,0,0,.46,0,3.23,3.23,0,0,0,.6-.45c.21-.26.42-.46.64-.78.43-.57.84-1.22,1.27-1.73q.33-.4.66-.75l.36-.38.18-.17a14.74,14.74,0,0,1,1.52-1.31,15.58,15.58,0,0,1,3.61-2c.35-.14.61-.23,1-.37a14.15,14.15,0,0,1,2-.43c1.45-.17,3.11-.29,4.6-.4-.06-.14-.1-.27-.18-.42l-.44-.56-.88-1.1c-.58-.75-1.16-1.48-1.73-2.16l-1.72-2.09L254,147.69c-1.5-1.88-3-3.83-4.49-5.82-3-4-6-8.2-9-12.54-2.39-3.31-4.75-6.67-6.92-10-3.18-4.9-7-11.32-9.82-16.25,0,.52-1.86-2.18-3.52-4.71s-3.19-4.87-2.78-3.51c-1.83-3.34-4.44-8.43-4.7-8.63a10.33,10.33,0,0,1-2.22-2.83,67.42,67.42,0,0,1-4.82-9.4,49.31,49.31,0,0,1-2.16-6.55c-.31-1.1-.48-2.2-.66-3.07s-.21-1.72-.26-2.15-.07-.5-.12-.16c0,.49,0,1.18,0,2,.15,1.43.37,2.79.05,1.64a61.39,61.39,0,0,0,3.58,10.88c1.43,3.43,3,6.76,4.64,10,3.27,6.56,6.83,12.89,10.5,19.16,7.39,12.5,15.27,24.7,23.86,36.85l3.71,5q1.27,1.69,2.88,3.75l.56.68.1.11s.1.09,0,.08l-.16,0-.68.21a19.56,19.56,0,0,0-4.59,2.21,20.2,20.2,0,0,0-2.12,1.59l-.51.46-.3.29-.09.1c-.06.07-.11.15-.17.23s-.07-.14-.11-.21c-.32-.77-.65-1.54-1-2.32-.58-1.37-1.2-2.73-1.81-4.1-1.23-2.73-2.52-5.46-3.82-8.17-2.61-5.4-5.31-10.69-7.89-15.58-5.14-9.8-9.83-18-12.41-22.43l-.81-1.37c-4.83-8.25-11.15-18-16.34-24.4-1.19-1.45-2.44-2.88-3.77-4.28a13.09,13.09,0,0,0-2.54-2.29c.19.2.36.46.57.71l.31.42.69.84-.86-.91a5.67,5.67,0,0,0-.48-.5,10.7,10.7,0,0,0-1-.86l-.12-.09s-.12-.08,0-.07l.27,0,.48-.08a4.1,4.1,0,0,0,.7-.2,5.39,5.39,0,0,0,.68-.24l.47-.18.51-.21a12,12,0,0,0,1.36-.68c.6-.36.65-.47.37-.41s-.89.25-1.63.45c-.37.1-.77.21-1.18.29l-1.08.17c-1,.17-1,0-1.09,0s-.28-.13-2.52.06a22.76,22.76,0,0,0,3.64-.65c.25-.07.51-.14.77-.23l.7-.24c.48-.17,1-.38,1.55-.64.05-.07-.35.11-1,.37l-1.09.4c-.41.14-.94.3-1.43.42-2,.48-4,.61-3.17.4a19.17,19.17,0,0,0,4.58-.94,20.69,20.69,0,0,0,3.44-1.59c-.22.06-.79.35-1.55.68-.39.16-.81.34-1.27.51l-.69.24c-.22.06-.58.19-.88.26a23.4,23.4,0,0,1-3.63.6,7,7,0,0,1-1.68.07,36.81,36.81,0,0,0,5.79-.87A8.83,8.83,0,0,0,197,68.06s-.49.22-1.18.51c-.34.15-.73.3-1.1.44l-.55.19-.62.19.45-.14.35-.12.62-.24c.41-.16.79-.34,1.16-.52a16.82,16.82,0,0,0,1.93-1.09,14.65,14.65,0,0,0,2.25-1.78c.38-.4.41-.52,0-.28s-1.18.84-2.63,1.64a20.29,20.29,0,0,0,3.16-2.32,15.62,15.62,0,0,0,2.64-3v0a19.32,19.32,0,0,1-3,3.26,17.75,17.75,0,0,0,2.75-3.06l-.52.51a20.37,20.37,0,0,1-2.13,2.24,19.16,19.16,0,0,0,1.85-2c-.49.47-1.07,1-1.73,1.52a19.92,19.92,0,0,1-6.88,3.72l-.32.1-.62.19c-.45.1-.86.23-1.33.31-.91.18-2,.26-3.05.37l-3.29.29-1.57.14c-.44,0-1.2.12-1.83.19l3.94,2.24,2.64,1.79,1.33.89c.4.3.62.58.95.87l1.21,1.3c1.07,1.2,2.12,2.46,3.13,3.76,2,2.6,4,5.31,5.84,8.07C204.65,93.78,208.19,99.48,211.6,105.24Z"/><circle class="cls-4" cx="50.1" cy="34.61" r="6.5"/><line class="cls-6" x1="50.6" y1="47.51" x2="50.6" y2="36.94"/><path class="cls-3" d="M51.63,45s-.08,0-.1,0,.1-.3.06-.48h-.07c0-.13.07-.27.1-.41s0-.52,0-.78c0,0,0,0,0,0a1.93,1.93,0,0,1,0-.41v-.07l-.05,0a1.15,1.15,0,0,1,0-.19c-.13-.75-.28-1.52-.43-2.35a2.69,2.69,0,0,1-.14-.52,5.62,5.62,0,0,1,0-.82c-.23,0-.34-.56-.58-.44,0-.16,0-.41-.05-.42s-.42-.16-.54-.59c0-.17.06-.43,0-.49s-.14.22-.2.12c-.07,1.26,0,2.48,0,3.74a35.51,35.51,0,0,1,.1,4.1V45a5.07,5.07,0,0,0,.1,1.25c.05.15.12.31.18.48l.11-.21a.82.82,0,0,0,0,.39c.09.35.21.15.37,0s.17,0,.24-.12a2.44,2.44,0,0,1,0,.27c.07,0,0-.33.08-.26a1.2,1.2,0,0,0,0,.33c.09,0,0-.37.12-.36s-.12.31,0,.33,0-.1,0-.16c0,.34.14.52.26.22a2.1,2.1,0,0,0,0,.36h0a1.38,1.38,0,0,1,0-.2v.19l0,0a.4.4,0,0,0,0-.15v.13l.1-.11a1.44,1.44,0,0,0,.17-.38C51.59,46.31,51.62,45.64,51.63,45Z"/><line class="cls-6" x1="50.36" y1="30.7" x2="50.36" y2="20.85"/><path class="cls-3" d="M51.39,28.34s-.08,0-.1,0,.1-.28.06-.44l-.07,0c0-.12.07-.25.1-.38s0-.48-.05-.72c0,0,0,0-.06,0a2.69,2.69,0,0,1,0-.38.13.13,0,0,1,0-.06l-.06,0c0-.06,0-.12,0-.17-.13-.71-.28-1.42-.43-2.19a3.4,3.4,0,0,1-.15-.49,6.44,6.44,0,0,1,0-.76c-.23,0-.34-.52-.58-.41,0-.15,0-.38,0-.39a.68.68,0,0,1-.54-.56c0-.16.06-.4,0-.45s-.14.2-.21.11c-.07,1.18,0,2.31,0,3.49a32.74,32.74,0,0,1,.1,3.81v.07a4.79,4.79,0,0,0,.09,1.16c.06.15.12.3.19.45a1.6,1.6,0,0,1,.11-.19.9.9,0,0,0,0,.36c.1.32.22.14.37,0s.18,0,.25-.1c0,.1,0,.15,0,.25s0-.31.07-.24a1.67,1.67,0,0,0,0,.31c.08,0,0-.36.12-.34s-.12.29,0,.3,0-.09,0-.14c0,.31.14.48.26.2a1.76,1.76,0,0,0,0,.34h0c0-.05,0-.14,0-.19v.18l0,0a.28.28,0,0,0,0-.13.49.49,0,0,1,0,.12l.11-.1a1.51,1.51,0,0,0,.17-.35C51.34,29.57,51.38,29,51.39,28.34Z"/><line class="cls-6" x1="64.06" y1="34.57" x2="53.48" y2="34.57"/><path class="cls-3" d="M61.53,33.54s0,.08,0,.1-.31-.1-.48-.06v.07l-.41-.1-.78.05s0,0,0,0a2,2,0,0,1-.41,0h-.06a.09.09,0,0,0,0,.05h-.19l-2.35.43a2.69,2.69,0,0,1-.52.14,5.62,5.62,0,0,1-.82,0c0,.23-.56.34-.44.58-.16,0-.41,0-.42,0s-.16.42-.6.54c-.17,0-.43-.06-.49,0s.22.14.13.2c1.26.07,2.47,0,3.74,0a35.45,35.45,0,0,1,4.1-.1h.06a5,5,0,0,0,1.25-.1l.48-.18-.2-.11a.84.84,0,0,0,.39,0c.35-.09.15-.21,0-.37s0-.17-.12-.24h.27c0-.07-.33,0-.26-.08a1.22,1.22,0,0,0,.33,0c0-.09-.37,0-.36-.12s.31.12.33,0-.11,0-.16,0c.33,0,.52-.13.21-.25a2.31,2.31,0,0,0,.37,0h0l-.2,0h.19l0,0-.14,0H64l-.11-.1a1.6,1.6,0,0,0-.38-.17C62.85,33.58,62.19,33.55,61.53,33.54Z"/><line class="cls-6" x1="45.55" y1="34.57" x2="37.39" y2="34.57"/><path class="cls-3" d="M43.6,33.54s0,.08,0,.1-.24-.1-.37-.06a.15.15,0,0,0,0,.07l-.32-.1-.6.05s0,0,0,0a1.18,1.18,0,0,1-.32,0h-.05a.17.17,0,0,0,0,.05h-.15l-1.81.43a1.74,1.74,0,0,1-.4.14,3.29,3.29,0,0,1-.63,0c0,.23-.43.34-.34.58-.13,0-.32,0-.33,0a.64.64,0,0,1-.46.54c-.13,0-.33-.06-.38,0s.17.14.1.2c1,.07,1.91,0,2.89,0a21.07,21.07,0,0,1,3.16-.1h.05a3,3,0,0,0,1-.1l.37-.18-.15-.11c.12,0,.25,0,.3,0,.26-.09.11-.21,0-.37s0-.17-.09-.24h.21c0-.07-.26,0-.2-.08s.17,0,.25,0-.29,0-.27-.12.23.12.25,0-.08,0-.12,0c.25,0,.4-.13.16-.25.08,0,.2.05.28,0h0l-.15,0h.14s0,0,0,0l-.11,0h.09l-.08-.1c-.12-.07-.23-.17-.29-.17C44.62,33.58,44.11,33.55,43.6,33.54Z"/><circle class="cls-4" cx="177.59" cy="97.41" r="5.21"/><line class="cls-6" x1="177.99" y1="107.76" x2="177.99" y2="99.28"/><path class="cls-3" d="M179,105.73s-.08,0-.1,0,.1-.25.06-.38h-.07c0-.11.07-.22.1-.33s0-.42,0-.63c0,0,0,0-.05,0a1.25,1.25,0,0,1,0-.33v0s0,0,0,0,0-.11,0-.15c-.13-.61-.28-1.22-.43-1.89a1.73,1.73,0,0,1-.14-.42,3.51,3.51,0,0,1,0-.65c-.23,0-.34-.45-.57-.36,0-.13,0-.32-.06-.33a.65.65,0,0,1-.54-.48c0-.14.06-.35,0-.39s-.14.17-.2.1c-.07,1,0,2,0,3a22.69,22.69,0,0,1,.1,3.28.09.09,0,0,0,0,0,2.94,2.94,0,0,0,.09,1c0,.13.12.26.18.39a1.11,1.11,0,0,1,.12-.16.56.56,0,0,0,0,.31c.1.28.21.12.37,0s.17,0,.24-.09a1.62,1.62,0,0,1,0,.22c.07,0,0-.27.08-.21s0,.18,0,.26,0-.3.12-.29-.12.25,0,.27,0-.09,0-.13c0,.27.13.42.25.17a1.53,1.53,0,0,0,0,.3h0s0-.12,0-.16v.15l0,0a.5.5,0,0,0,0-.12v.1l.1-.08a1.57,1.57,0,0,0,.18-.31C179,106.79,179,106.26,179,105.73Z"/><line class="cls-6" x1="177.8" y1="94.28" x2="177.8" y2="86.38"/><path class="cls-3" d="M178.83,92.39s-.08,0-.1,0,.09-.23.06-.36h-.07l.1-.3c0-.2,0-.39,0-.59,0,0-.05,0-.06,0a1.67,1.67,0,0,1,0-.3v0a.07.07,0,0,0-.06,0s0-.1,0-.14c-.13-.57-.28-1.14-.43-1.76a2.08,2.08,0,0,1-.15-.39,4.09,4.09,0,0,1,0-.61c-.23,0-.35-.42-.58-.33,0-.12,0-.3-.05-.31a.63.63,0,0,1-.54-.45c0-.12,0-.32,0-.36s-.13.16-.2.09c-.07.94,0,1.85,0,2.8a21,21,0,0,1,.1,3v.05a3.16,3.16,0,0,0,.09.94l.19.35.11-.15c0,.12,0,.25,0,.29.1.26.22.12.37,0s.18,0,.25-.09c0,.08,0,.12,0,.2s0-.25.07-.19,0,.16,0,.24,0-.28.12-.26-.12.22,0,.24,0-.08,0-.12c0,.25.14.39.26.16a1.26,1.26,0,0,0,0,.28h0s0-.11,0-.15v.14l0,0a.23.23,0,0,0,0-.11.38.38,0,0,1,0,.1l.11-.08c.07-.12.17-.22.17-.29C178.78,93.37,178.82,92.88,178.83,92.39Z"/><line class="cls-6" x1="188.78" y1="97.38" x2="180.3" y2="97.38"/><path class="cls-3" d="M186.76,96.35s0,.08,0,.1-.25-.1-.38-.06v.07l-.34-.1-.62,0s0,0,0,0a1.25,1.25,0,0,1-.33,0H185a.06.06,0,0,0,0,.05h-.16l-1.88.43a1.73,1.73,0,0,1-.42.14,3.51,3.51,0,0,1-.65,0c0,.23-.45.34-.36.58-.13,0-.32,0-.33.05a.68.68,0,0,1-.48.54c-.14,0-.35-.06-.4,0s.18.14.11.2c1,.07,2,0,3,0a22.69,22.69,0,0,1,3.28-.1h.05a3.21,3.21,0,0,0,1-.1c.13,0,.26-.12.39-.18L188,97.9c.13,0,.26,0,.31,0,.28-.1.12-.21,0-.37s0-.17-.09-.24h.21c0-.07-.26,0-.2-.08s.18,0,.26,0-.3,0-.29-.12.25.12.27,0-.09,0-.13,0c.27,0,.41-.13.17-.25a1.36,1.36,0,0,0,.29,0h0l-.16,0h.15l0-.05-.12,0h.1l-.08-.1c-.13-.07-.24-.17-.31-.17C187.82,96.39,187.29,96.36,186.76,96.35Z"/><line class="cls-6" x1="173.95" y1="97.38" x2="167.41" y2="97.38"/><path class="cls-3" d="M172.38,96.35s0,.08,0,.1-.19-.1-.3-.06v.07l-.26-.1-.48,0s0,0,0,0a.72.72,0,0,1-.25,0h0a.11.11,0,0,0,0,.05h-.12l-1.45.43a1.17,1.17,0,0,1-.33.14,2.1,2.1,0,0,1-.5,0c0,.23-.35.34-.27.58-.1,0-.25,0-.26.05a.64.64,0,0,1-.37.54c-.11,0-.27-.06-.3,0s.13.14.07.2c.78.07,1.53,0,2.32,0a13.53,13.53,0,0,1,2.53-.1h0a1.94,1.94,0,0,0,.77-.1c.1,0,.2-.12.3-.18l-.13-.11c.11,0,.21,0,.25,0,.21-.1.09-.21,0-.37s0-.17-.08-.24h.17c0-.07-.21,0-.16-.08s.14,0,.21,0-.24,0-.23-.12.19.12.21,0-.07,0-.1,0c.2,0,.32-.13.13-.25.07,0,.16,0,.23,0h0l-.13,0h.12l0-.05-.09,0h.08l-.07-.1c-.09-.07-.18-.17-.23-.17A10.2,10.2,0,0,0,172.38,96.35Z"/><path class="cls-4" d="M133.46,106.84c-7.33,1.38-14,2.3-20.28,4.91-3.41,1.42-6.78,2.9-9.19,5.93a7.58,7.58,0,0,0-.82,8.79c2,3.87,3.86,7.78,5.92,11.6.65,1.2.43,1.61-.74,2.17-3.92,1.89-7.8,3.84-11.61,5.92-1.45.78-2.17.75-2.91-.88-1.32-2.95-2.87-5.8-4.38-8.66-1.87-3.56-3.79-4.16-7.47-2.39-1.25.6-2.47,1.27-3.72,1.86-2.68,1.26-4.07,3.16-3.05,6.19.41,1.23-.32,1.66-1.17,2.08-2.88,1.46-5.8,2.86-8.65,4.39-1.15.62-1.52.2-2-.81q-4.23-8.56-8.61-17.07c-.64-1.22-.37-1.71.81-2.25,2.69-1.24,5.34-2.56,7.93-4,1.34-.75,2.37-.86,3.28.53a2.32,2.32,0,0,0,.59.58c4.06,2.85,6.91-.71,10.1-2,2.2-.92,3.45-2.77,2.59-5.4-.33-1-.47-1.91.8-2.5,8.52-4,16.39-9.36,25.86-11.14C115.61,103,124.29,103.25,133.46,106.84Z"/><path class="cls-3" d="M106.36,138.37c.12,0,.23,0,.29.1s-.05.08-.09.1l-1,.51-2.12,1c-1.4.64-2.78,1.28-4.26,2.09l-.15.25-1.8.85a10.43,10.43,0,0,1-1.25.57s-.09,0-.09-.09v-.07l-.44-1c-.64-1.32-1.31-2.61-2-3.88l-1-1.89-.5-.94-.25-.46-.3-.54a11.16,11.16,0,0,0-1.61-2.2,6.2,6.2,0,0,0-3-1.76,6.73,6.73,0,0,0-3.27.06,13.08,13.08,0,0,0-2.44.91c.19,0,.25,0-.27.28-1,.55-2.26,1.15-3.67,1.84a10.06,10.06,0,0,0-2.56,1.7,6.32,6.32,0,0,0-1.9,3.31,6.53,6.53,0,0,0,0,2.24,1.38,1.38,0,0,0,.24.64c0,.11,0,.22.08.32a.26.26,0,0,1,0,.17.39.39,0,0,1-.14.08l-.22.11-.37.18-4.74,2.54-2.23,1.2a.23.23,0,0,1-.32,0,1.38,1.38,0,0,1-.13-.2l-.34-.63-5.52-10.37c-.48-.88-.95-1.77-1.43-2.66l-.71-1.34-.36-.67a1.36,1.36,0,0,1-.13-.3.46.46,0,0,1,.27-.55l.15-.08.33-.18.68-.36,2.74-1.46,2.78-1.48c1.13-.55,1.39-.9,2-.78a1.3,1.3,0,0,1,.66.55,3.44,3.44,0,0,0,.91.79c.29.16.56.35.86.49a6.1,6.1,0,0,0,4.08.49c2.24-.63,3.73-2,5.29-2.88.39-.23.73-.38,1.25-.64a6.25,6.25,0,0,0,1.33-1,4.49,4.49,0,0,0,1.45-3,5.07,5.07,0,0,0,0-1.23,7.81,7.81,0,0,0-.25-1,2.19,2.19,0,0,1-.14-.77.92.92,0,0,1,.35-.7,2.5,2.5,0,0,1,.35-.21l.45-.22.92-.43,2.09-1,7.91-4c-.49-.07,2.11-1.66,4.63-3s5-2.31,3.62-2.17a47.13,47.13,0,0,1,5.72-1.52c1.81-.35,3.21-.56,3.34-.67a8.86,8.86,0,0,1,3.26-1.08,30.25,30.25,0,0,1,4-.45,36.48,36.48,0,0,1,6.18.18,39.12,39.12,0,0,1,6.39,1.4c2.06.61,3.75,1.3,4.4,1.49,1,.3-.08-.22-1.26-.74s-2.34-1-1.28-.7a48,48,0,0,0-21.37-2,51.26,51.26,0,0,0-5.27.88,40.73,40.73,0,0,0-5.19,1.5,75.74,75.74,0,0,0-9.6,4.27c-3.07,1.58-6,3.17-9,4.67l-1.58.79a3.87,3.87,0,0,0-.86.5,4.44,4.44,0,0,0-.82.86,3.84,3.84,0,0,0-.7,2.24,6.87,6.87,0,0,0,.41,2.14,1.65,1.65,0,0,1,0,1,1.46,1.46,0,0,1-.62.7l-.3.18-.43.2a15,15,0,0,0-1.39.7l-2.21,1.32a7.56,7.56,0,0,1-1.69.76,2.12,2.12,0,0,1-1.2,0,.86.86,0,0,1-.31-.12,1.48,1.48,0,0,1-.34-.16l-.35-.22,0,0a4.56,4.56,0,0,1-.44.44l-.06,0,.55-.44,0,0-.07-.11a2.43,2.43,0,0,0-.2-.25,4.72,4.72,0,0,0-.41-.48,4.66,4.66,0,0,0-1-.75,4,4,0,0,0-2.36-.52,5.82,5.82,0,0,0-2.35.73l-1.33.68-2.51,1.27-2.27,1.2-1.55.81-.87.45a2.54,2.54,0,0,0-.25.14,4,4,0,0,0-.35.26,3.15,3.15,0,0,0-.61.6,3.23,3.23,0,0,0-.71,1.62,3.82,3.82,0,0,0,.23,1.85l1.17,2.3,2.64,5.15q1.39,2.76,3,5.81l1.58,3.1.81,1.59.2.4.1.2.22.3a3.49,3.49,0,0,0,1,.92,3.11,3.11,0,0,0,2.65.17l1.75-.88,3.55-1.78,3.61-1.81c.32-.16.57-.28.94-.48a4.43,4.43,0,0,0,1.26-1,3.41,3.41,0,0,0,.77-2.94L77.21,141a1.53,1.53,0,0,1,0-.3,1,1,0,0,1,0-.24,1.6,1.6,0,0,1,.14-.75,3.54,3.54,0,0,1,1.58-1.4L82,136.74a11.62,11.62,0,0,1,2.77-1.16,2.47,2.47,0,0,1,.83,0,1.16,1.16,0,0,1,.56.29,7.17,7.17,0,0,1,1.44,2.08c1.06,2,2.08,3.91,3,5.75l.67,1.38.33.72a13.1,13.1,0,0,0,.63,1.24,3.86,3.86,0,0,0,1.88,1.68,3.65,3.65,0,0,0,2.44,0c.2-.07.4-.14.6-.23l.29-.13.17-.09.68-.35,1.33-.68,2.52-1.28,8-4a3.48,3.48,0,0,0,1.51-1.89,3.08,3.08,0,0,0,.08-1.38,3.57,3.57,0,0,0-.17-.7,4,4,0,0,0-.21-.45l-.83-1.65c-.56-1.1-1.13-2.23-1.7-3.37l-3.5-6.83a5.66,5.66,0,0,1-.58-4.88,10,10,0,0,1,3.11-3.9,21.9,21.9,0,0,1,4.06-2.54c.75-.37,1.55-.76,2.32-1.11s1.54-.69,2.33-1c-1.52.41-2.9.87-4.13,1.31a68.15,68.15,0,0,1,7.83-2.78c3.59-1,4.4-1.24,3.88-1.31a33,33,0,0,0-3.76.32c-2.07.38.61-.64-2.62.08,2.29-.65,3.46-.92,5.8-1.41a20.23,20.23,0,0,0-3.3.7c-1.61.41-3,.85-2.29.48,2.24-.58,4.73-1.25,7.07-1.7a30.17,30.17,0,0,0-4.34.79,25.83,25.83,0,0,1-3.44.78,38,38,0,0,1,3.81-.92,18.87,18.87,0,0,0,3.2-.78c.08-.07-2.27.4-3.44.69,3.59-.89,6.39-1.44,7.44-1.76s.38-.34-3,.15c2.31-.44,5.56-.89,7.95-1.38h0l-4.4.73,4.11-.73-.74,0c-1,.15-2.05.31-3.12.5l2.73-.49c-.7,0-1.5.1-2.37.18-3.27.4-6.48.77-8.27,1.18s-3.62.87-5.42,1.44a55.38,55.38,0,0,0-5.28,2c-3.42,1.47-7.27,3.6-9.55,7.6a9.64,9.64,0,0,0-1,7,11.5,11.5,0,0,0,.52,1.63,14.84,14.84,0,0,0,.64,1.39l1.13,2.24Q104.29,134.27,106.36,138.37Z"/><polygon class="cls-4" points="132.39 191.1 122.86 195.91 98.54 145.18 106.08 141.38 132.39 191.1"/><path class="cls-3" d="M116.18,176.05c-.09,0,0,.47-.33-.12-1-1.89-1.45-3.58-2.46-5.47l-.21-.06c-.65-1.52-1.32-3.12-2-4.74L106.89,157c0,.1,0,.16-.21-.11-.62-1.19-1.36-2.88-2.18-4.61q-.19-.39-.39-.75c-.12-.19-.2-.21-.25-.23l-1-2.13c-.4-.78-.81-1.56-1.23-2.36l-.08-.15,0-.08h0l0-.06-.08-.12-.19-.29.36-.27.1-.07.44-.24.91-.5.92-.51.47-.26.22-.12.07,0,.66-.42.34.49.09.14a2.26,2.26,0,0,1,.15.23l.46.8c.62,1.08,1.26,2.17,1.9,3.29l4,6.89c1.16,1.86,2.32,3.73,3.36,5.56,1.52,2.73,3.29,6.31,4.7,9,.29-.68,4,5.75,3.83,4.16a39.8,39.8,0,0,0,2.56,4.57c.66.19,1.89,1.31,4.67,5.93,1,1.84,2.38,4.8,2.81,5.41.69,1-1-2.58-.28-1.62-7.18-13.94-14.43-27.19-21.81-41.15-.32-.55-.84-1.46-1.51-2.67l-1.11-2-2.4-4.47-11.62,5.94L105.07,164c2.73,5.67,5.06,10.57,6.27,13.17l.37.76c2.17,4.6,4.88,10.14,6.93,13.92l1.37,2.38,2.1,3.88.72-.41-.68.28c-.49-1.2-.89-2.21-1.22-3.07.46.95.91,1.9,1.32,2.78l2.24-1.15.86-.47a4.28,4.28,0,0,0,.55-.32c3.76-2.17,1.44-1.32-.22-.93-.58.2-.54.06-.56-.05s-.15-.17-.9.1l2.92-1.44a8.54,8.54,0,0,0-1.73.81c-.83.42-1.41.71-1.09.4l.75-.35.92-.48c.62-.33,1.23-.67,1.84-1a14.22,14.22,0,0,0-2.3,1l-.68.32-.44.2c-.24.1-.39.13-.35,0,.24-.14.72-.3,1.65-.72a4.83,4.83,0,0,0,1.62-.9,17,17,0,0,0-1.79.83c3.68-1.95,5.61-3.21,2.08-1.77,1.19-.58,2.91-1.32,4.14-2h0l-2.3,1.08,2.13-1.06-.42.09c-.54.24-1.09.48-1.64.75l1.42-.7c-.4.1-.84.23-1.32.38-1.75.69-3.47,1.27-4.38,1.72l-.86.42-.2.09h-.07l-.14,0-.07-.21-1.07-2.31-2.2-4.71Z"/><path class="cls-3" d="M169.46,276.53h0a9.69,9.69,0,0,1-13-4.29L119,197.87l17.31-8.73,37.48,74.38A9.69,9.69,0,0,1,169.46,276.53Z"/><path class="cls-3" d="M142.31,238.49c-.1,0,.13.71-.41-.26-1.67-3.1-2.64-5.77-4.3-8.86l-.26-.16-3.59-7.64-7.26-14.14c0,.15,0,.23-.26-.23-1-1.94-2.35-4.68-3.75-7.5l-.29-.55,0-.07A.45.45,0,0,0,122,199l-.09-.2.39-.16,7.2-3.83,3.75-2,1.68-.89c.18-.12.37-.23.56-.34l.28.45.07.12a1.79,1.79,0,0,1,.12.22l.44.82c.59,1.1,1.18,2.2,1.77,3.32l3.63,6.81q3.69,6.91,7.59,14.25c1.76,3.15,3.51,6.29,5.13,9.36,2.37,4.56,5.22,10.46,7.46,14.94.17-.95,5.91,9.82,5.34,7.39,1.49,3,3.73,7.46,4,7.62a8.8,8.8,0,0,1,2.05,2.41c.52.77,1.15,1.77,1.91,3.06a11.19,11.19,0,0,1,1.62,6.32,11.38,11.38,0,0,1-2.57,6.51,14,14,0,0,1-3.9,3.16c-.41.25-.36.27-.07.17a11,11,0,0,0,1.55-.76,16,16,0,0,0,1.47-1c.31-.22.38-.22-.05.21a12.18,12.18,0,0,0,3.13-13.93l-.31-.69-.27-.54-.53-1.07-2.14-4.27q-4.3-8.51-8.58-17c-5.73-11.31-11.47-22.63-17.33-34.21-.64-1.18-1.8-3.4-3.33-6.36-1.81-3.55-4.07-8-6.61-12.94l-21.4,10.86c4.43,8.79,9,17.81,12.92,25.57,3.59,7.17,6.6,13.17,8.33,16.64l.64,1.24c3.73,7.47,8.33,16.51,11.7,22.72l4.83,8.56-1.62-3.85c.75,1.5,1.5,3,2.14,4.25.16.32.32.62.47.9l.51.87a8.24,8.24,0,0,0,.93,1.15,9.32,9.32,0,0,0,3.06,2.3c.6.23.7.2.51,0s-.65-.53-1.17-1a10,10,0,0,1-1.46-1.66c-.6-.82-.37-.77-.27-.8s.08-.07,0-.27-.29-.55-.6-1.23a9.2,9.2,0,0,0,3.71,3.81,17.15,17.15,0,0,1-2.34-1.92c-1-1.1-1.57-2.35-1.11-1.75a8.17,8.17,0,0,0,2,2.45,10.19,10.19,0,0,0,2.8,1.6,2.11,2.11,0,0,0-.46-.25l-.79-.45a10,10,0,0,1-1.89-1.48,5.6,5.6,0,0,1-1.64-2.53,10.78,10.78,0,0,0,1.92,2.72,5.09,5.09,0,0,0,2.38,1.49c.05,0-.4-.21-.93-.55a8.86,8.86,0,0,1-1.49-1.16,8.25,8.25,0,0,0,3.49,2,7.24,7.24,0,0,0,2.36.26c.45-.07.53-.13.17-.19a12.68,12.68,0,0,1-2.43-.61,8.42,8.42,0,0,0,3.11.44,9,9,0,0,0,1.66-.27c.26-.09.53-.16.77-.26l.36-.16.17-.08.08,0,0,0h0l.63,1.25-.63-1.25h0a8.67,8.67,0,0,1-3.43.8,8.12,8.12,0,0,0,3.2-.76l-.57.13a10.26,10.26,0,0,1-2.42.46,8.31,8.31,0,0,0,2.1-.41,7.19,7.19,0,0,1-.86.11,9.23,9.23,0,0,1-4.32-.68,9.43,9.43,0,0,1-2.13-1.4,7.5,7.5,0,0,1-1.76-2.24c-.16-.29-.37-.73-.55-1.09l-2.24-4.54-4.49-9.07Z"/><path class="cls-4" d="M162.89,262.87s.1.05,0,.11a3.76,3.76,0,0,0-1,.54l0,.07a3.94,3.94,0,0,0-.73.64,3.8,3.8,0,0,0-.64,1.7s0,0,0,0a6.64,6.64,0,0,0,0,.94l0,.16s0,0,.06.05.05.29.07.42a3.63,3.63,0,0,0,4,2.42,4.37,4.37,0,0,0,1-.39,4,4,0,0,0,1.28-.91c-.12-.05,0-.31,0-.55s.05-.46-.1-.42c.12-.24.22-.63.15-.66s-.34-.33-.53-.85a2.08,2.08,0,0,0-.18-.59c-.11-.08,0,.31-.12.23a2,2,0,0,1-.35,2,1.93,1.93,0,0,1-1.95.63,1.64,1.64,0,0,1-.78-.33,2,2,0,0,1-.75-1.22,2,2,0,0,1,.31-1.5,1.91,1.91,0,0,1,.83-.7l.07,0a2.9,2.9,0,0,1,1.53-.15,2.58,2.58,0,0,1,.65.13l-.19-.25c.21.12.39.27.48.3.43.3.34,0,.27-.25s.17-.1,0-.32a2.33,2.33,0,0,1,.36.34c.08,0-.47-.39-.3-.38a6,6,0,0,1,.45.43c0-.13-.48-.53-.41-.57s.36.48.46.45-.12-.18-.2-.25c.48.44.76.75.49.15a6.19,6.19,0,0,1,.39.67h0c-.06-.1-.13-.29-.19-.38.07.11.13.23.2.35v-.08a2.39,2.39,0,0,0-.13-.28,1.71,1.71,0,0,1,.13.23,1.21,1.21,0,0,0,0-.25,2.36,2.36,0,0,0-.4-.77A3.89,3.89,0,0,0,162.89,262.87Z"/></g></g></svg>