<svg width="167" height="27" viewBox="0 0 167 27" fill="none" xmlns="http://www.w3.org/2000/svg">
<path d="M16.4687 8.58567C18.0567 9.77186 19.135 11.3535 19.7232 13.3304C19.8016 13.5752 19.6055 13.82 19.3507 13.82H15.7629C15.606 13.82 15.4688 13.7258 15.41 13.594C14.959 12.6338 14.2924 11.8618 13.4102 11.2781C12.4495 10.6568 11.3124 10.3367 9.97922 10.3367C8.88131 10.3367 7.90103 10.6003 7.01878 11.1275C6.13653 11.6547 5.45034 12.4078 4.9602 13.3869C4.47006 14.366 4.21519 15.5145 4.21519 16.8325C4.21519 18.1317 4.45046 19.2802 4.9602 20.2593C5.45034 21.2384 6.13653 21.9915 7.01878 22.5187C7.90103 23.0459 8.88131 23.3095 9.97922 23.3095C11.3124 23.3095 12.4495 22.9894 13.4102 22.3681C14.2924 21.7844 14.959 21.0124 15.41 20.0522C15.4688 19.9204 15.606 19.8263 15.7629 19.8263H19.3507C19.6055 19.8263 19.8016 20.071 19.7232 20.3158C19.135 22.2928 18.0567 23.8744 16.4687 25.0606C14.763 26.3409 12.6064 26.9811 10.038 26.9811C8.05788 26.9811 6.31298 26.548 4.78375 25.7007C3.25452 24.8534 2.07819 23.6484 1.25475 22.1045C0.411716 20.5417 0 18.7907 0 16.8325C0 14.8555 0.411716 13.1045 1.25475 11.5606C2.07819 10.0166 3.25452 8.81161 4.76415 7.96433C6.27377 7.11705 8.03827 6.684 10.038 6.684C12.6064 6.66517 14.763 7.30534 16.4687 8.58567Z" fill="white"/>
<path d="M27.1133 6.27012V26.4166C27.1133 26.6237 26.9369 26.7931 26.7212 26.7931H23.3687C23.153 26.7931 22.9766 26.6237 22.9766 26.4166V6.27012C22.9766 6.06301 23.153 5.89355 23.3687 5.89355H26.7212C26.9369 5.89355 27.1133 6.06301 27.1133 6.27012Z" fill="white"/>
<path d="M58.6598 11.8809C59.6401 12.5022 60.3459 13.3495 60.7576 14.4039V11.5231C60.7576 11.316 60.934 11.1466 61.1497 11.1466H64.4826C64.6983 11.1466 64.8747 11.316 64.8747 11.5231V26.4164C64.8747 26.6236 64.6983 26.793 64.4826 26.793H61.1497C60.934 26.793 60.7576 26.6236 60.7576 26.4164V23.5169C60.3459 24.5713 59.6401 25.4185 58.6598 26.0399C57.6795 26.68 56.5032 26.9813 55.1308 26.9813C53.7584 26.9813 52.5232 26.6612 51.4253 26.021C50.3274 25.3809 49.4648 24.4583 48.857 23.2344C48.2296 22.0106 47.9355 20.5985 47.9355 18.9604C47.9355 17.3223 48.2492 15.8913 48.857 14.6863C49.4648 13.4813 50.3274 12.5399 51.4253 11.8997C52.5232 11.2595 53.7584 10.9395 55.1308 10.9395C56.5032 10.9583 57.6795 11.2595 58.6598 11.8809ZM53.3075 15.6466C52.5232 16.4562 52.1311 17.5671 52.1311 18.9792C52.1311 20.3913 52.5232 21.5022 53.3075 22.293C54.0917 23.1026 55.1308 23.498 56.4247 23.498C57.6795 23.498 58.7186 23.0838 59.5224 22.2742C60.3263 21.4646 60.738 20.3537 60.738 18.9792C60.738 17.5859 60.3263 16.475 59.5224 15.6654C58.699 14.8369 57.6795 14.4415 56.4247 14.4415C55.1308 14.4227 54.0917 14.8369 53.3075 15.6466Z" fill="white"/>
<path d="M82.4406 12.7091C83.5581 13.8953 84.1071 15.5522 84.1071 17.6987V26.4162C84.1071 26.6233 83.9306 26.7928 83.715 26.7928H80.382C80.1664 26.7928 79.9899 26.6233 79.9899 26.4162V18.1505C79.9899 16.9079 79.6566 15.9476 78.99 15.251C78.3234 14.5731 77.402 14.2154 76.2452 14.2154C75.0689 14.2154 74.1278 14.592 73.422 15.3074C72.7162 16.0417 72.3633 17.0961 72.3633 18.4706V26.3974C72.3633 26.6045 72.1869 26.774 71.9712 26.774H68.6187C68.403 26.774 68.2266 26.6045 68.2266 26.3974V11.5229C68.2266 11.3158 68.403 11.1464 68.6187 11.1464H71.9908C72.2065 11.1464 72.3829 11.3158 72.3829 11.5229V14.2719C72.8143 13.2175 73.5201 12.389 74.52 11.8053C75.5002 11.2217 76.657 10.9204 77.9509 10.9204C79.8135 10.9204 81.3231 11.5229 82.4406 12.7091Z" fill="white"/>
<path d="M100.499 7.23008V9.64013C100.499 9.84724 100.322 10.0167 100.106 10.0167H94.7737V26.4163C94.7737 26.6234 94.5972 26.7928 94.3816 26.7928H91.0094C90.7938 26.7928 90.6173 26.6234 90.6173 26.4163V10.0167H85.3042C85.0886 10.0167 84.9121 9.84724 84.9121 9.64013V7.23008C84.9121 7.02297 85.0886 6.85352 85.3042 6.85352H100.106C100.322 6.85352 100.499 7.02297 100.499 7.23008Z" fill="white"/>
<path d="M117.005 12.7092C118.123 13.8954 118.672 15.5523 118.672 17.6988V26.4164C118.672 26.6235 118.495 26.7929 118.279 26.7929H114.947C114.731 26.7929 114.554 26.6235 114.554 26.4164V18.1507C114.554 16.908 114.221 15.9477 113.555 15.2511C112.888 14.5733 111.966 14.2155 110.81 14.2155C109.633 14.2155 108.692 14.5921 107.987 15.3076C107.281 16.0419 106.928 17.0963 106.928 18.4707V26.3975C106.928 26.6046 106.751 26.7741 106.536 26.7741H103.164C102.948 26.7741 102.771 26.6046 102.771 26.3975V6.25108C102.771 6.04397 102.948 5.87451 103.164 5.87451H106.536C106.751 5.87451 106.928 6.04397 106.928 6.25108V14.2532C107.359 13.1988 108.065 12.3703 109.065 11.7866C110.045 11.203 111.202 10.9017 112.496 10.9017C114.378 10.9205 115.888 11.523 117.005 12.7092Z" fill="white"/>
<path d="M131.847 11.8809C132.828 12.5022 133.514 13.3495 133.925 14.4039V11.5231C133.925 11.316 134.102 11.1466 134.318 11.1466H137.651C137.866 11.1466 138.043 11.316 138.043 11.5231V26.4164C138.043 26.6236 137.866 26.793 137.651 26.793H134.318C134.102 26.793 133.925 26.6236 133.925 26.4164V23.5169C133.514 24.5713 132.808 25.4185 131.847 26.0399C130.867 26.68 129.691 26.9813 128.318 26.9813C126.946 26.9813 125.711 26.6612 124.613 26.021C123.515 25.3809 122.652 24.4583 122.045 23.2344C121.437 22.0106 121.123 20.5985 121.123 18.9604C121.123 17.3223 121.437 15.8913 122.045 14.6863C122.672 13.4813 123.515 12.5399 124.613 11.8997C125.711 11.2595 126.946 10.9395 128.318 10.9395C129.691 10.9583 130.867 11.2595 131.847 11.8809ZM126.495 15.6466C125.711 16.4562 125.319 17.5671 125.319 18.9792C125.319 20.3913 125.711 21.5022 126.495 22.293C127.279 23.1026 128.318 23.498 129.612 23.498C130.867 23.498 131.906 23.0838 132.71 22.2742C133.514 21.4646 133.925 20.3537 133.925 18.9792C133.925 17.5859 133.514 16.475 132.71 15.6654C131.887 14.8369 130.867 14.4415 129.612 14.4415C128.318 14.4227 127.279 14.8369 126.495 15.6466Z" fill="white"/>
<path d="M150.511 23.7615V26.4352C150.511 26.6423 150.334 26.8117 150.119 26.8117H148.335C146.511 26.8117 145.119 26.3975 144.139 25.5314C143.159 24.6653 142.688 23.272 142.688 21.295V14.5167H140.806C140.591 14.5167 140.414 14.3473 140.414 14.1402V11.523C140.414 11.3159 140.591 11.1465 140.806 11.1465H142.688V7.66319C142.688 7.45608 142.865 7.28662 143.08 7.28662H146.453C146.668 7.28662 146.845 7.45608 146.845 7.66319V11.1653H149.903C150.217 11.1653 150.491 11.4101 150.491 11.7301V14.159C150.491 14.3661 150.315 14.5356 150.099 14.5356H146.845V21.3703C146.845 22.1234 147.002 22.6506 147.315 22.9519C147.629 23.2531 148.158 23.4038 148.903 23.4038H150.119C150.334 23.3849 150.511 23.5544 150.511 23.7615Z" fill="white"/>
<path d="M159.392 14.6109C159.529 14.6109 159.647 14.4979 159.667 14.3661C159.804 10.6757 162.901 7.70084 166.744 7.56904C166.881 7.56904 166.999 7.45607 166.999 7.30544C166.999 7.17364 166.881 7.06067 166.744 7.04184C162.901 6.91004 159.804 3.93515 159.667 0.24477C159.667 0.112971 159.549 0 159.392 0C159.255 0 159.137 0.112971 159.118 0.24477C158.98 3.93515 155.883 6.91004 152.04 7.04184C151.903 7.04184 151.785 7.15481 151.785 7.30544C151.785 7.43724 151.903 7.55021 152.04 7.56904C155.883 7.70084 158.98 10.6757 159.118 14.3661C159.137 14.4979 159.255 14.6109 159.392 14.6109Z" fill="white"/>
<path d="M45.9947 18.3764C45.9947 16.9455 45.6614 15.6651 45.0144 14.5542C44.3478 13.4434 43.4263 12.5584 42.2304 11.9183C41.0149 11.2781 39.6229 10.958 38.0152 10.958C36.4272 10.958 35.0156 11.2781 33.7804 11.9183C32.5453 12.5584 31.5846 13.481 30.8984 14.7049C30.2122 15.9287 29.8789 17.3409 29.8789 18.9789C29.8789 20.617 30.2122 22.048 30.8984 23.2342C31.5846 24.4392 32.5453 25.3618 33.7804 26.0208C35.0156 26.6798 36.4272 26.9998 38.0152 26.9998C39.368 26.9998 40.6031 26.7551 41.7011 26.2655C42.799 25.776 43.7204 25.0982 44.4262 24.2321C45.034 23.4978 45.4457 22.6693 45.7006 21.7655C45.7594 21.5208 45.583 21.2948 45.3281 21.2948H41.7403C41.5638 21.2948 41.407 21.4078 41.3678 21.5584C41.1717 22.1986 40.7796 22.7258 40.211 23.1212C39.564 23.5731 38.7798 23.799 37.8192 23.799C36.7408 23.799 35.839 23.4789 35.1136 22.8199C34.3882 22.1609 33.9961 21.1442 33.9373 19.7509H45.5437C45.7398 19.7509 45.8966 19.6191 45.9359 19.4308C45.9751 19.0354 45.9947 18.6965 45.9947 18.3764ZM37.9956 14.0835C39.0935 14.0835 40.015 14.4224 40.7796 15.0626C41.4854 15.6839 41.8383 16.5877 41.8187 17.7739H33.9177C34.0353 16.5877 34.447 15.7028 35.1528 15.0626C35.937 14.4224 36.8781 14.0835 37.9956 14.0835Z" fill="white"/>
</svg>
