<svg width="45" height="45" viewBox="0 0 45 45" fill="none" xmlns="http://www.w3.org/2000/svg">
<path d="M22.5056 45C22.9289 45 23.2855 44.6658 23.2966 44.2426C23.72 32.8812 32.8782 23.7141 44.2424 23.302C44.6658 23.2908 45 22.9344 45 22.5111C45 22.0879 44.6658 21.7314 44.2424 21.7203C32.8782 21.297 23.7088 12.1411 23.2966 0.779703C23.2855 0.334158 22.9289 0 22.5056 0C22.0822 0 21.7257 0.334158 21.7145 0.757426C21.2912 12.1188 12.133 21.2859 0.768755 21.698C0.334241 21.7203 0 22.0767 0 22.5C0 22.9233 0.334241 23.2797 0.757613 23.2908C12.1218 23.7141 21.2912 32.87 21.7034 44.2314C21.7257 44.6658 22.0822 45 22.5056 45Z" fill="#FACE6F"/>
</svg>
