<svg xmlns="http://www.w3.org/2000/svg" viewBox="0 0 275 275.01"><defs><style>.cls-1{fill:#face6f;fill-rule:evenodd;}.cls-2{fill:#fbdd94;}.cls-3,.cls-7{fill:#202020;}.cls-4{fill:#fbd681;}.cls-5{fill:#fdedb8;}.cls-6{fill:#fefcdd;}.cls-7{stroke:#000;stroke-linejoin:bevel;stroke-width:0.25px;}.cls-8{fill:#fff;}.cls-9{fill:#dde3e9;}</style></defs><g id="Layer_2" data-name="Layer 2"><g id="Layer_1-2" data-name="Layer 1"><path id="Background-Shape" class="cls-1" d="M273.36,207.31C258.8,177.22,34.67,155.38,7.13,191.54S35,275.73,119,275.11,287.92,237.41,273.36,207.31Z" transform="translate(0 -0.11)"/><path class="cls-2" d="M135.78,250.55,58.11,240.4a.49.49,0,0,1-.43-.49V179.1a.49.49,0,0,1,.56-.49l77.67,10.14a.51.51,0,0,1,.43.5v60.8A.49.49,0,0,1,135.78,250.55Z" transform="translate(0 -0.11)"/><path class="cls-3" d="M69.42,239.29c0,.1.86.32-.58.18-2.27-.25-4.3-.58-6.34-.9L61,238.32l-.72-.11,0,0c-.07,0-.06-.05-.08-.11s-.11,0-.16-.07c.07-3.53.15-7.22.23-11,0-6.93-.08-13.81-.11-20.68-.06.18-.12.27-.14-.42,0-2.85,0-6.8,0-10.89l0-1.81a1.47,1.47,0,0,0-.13-.66c0-1.85,0-3.5,0-5l-.06-3.77,0-1.89v-.51l0-.19,0-.21a.12.12,0,0,1,.14-.11l.4,0,3.52.4L79.1,183l31.87,3.6c4.66.46,9.32.92,13.8,1.43l5.25.67,5.1.68c.17,0,.35.05.43.22a1.67,1.67,0,0,1,0,.5v1c0,.94,0,1.86,0,2.77,0,1.82,0,3.57,0,5.2.57-1,.85,14.87,1.44,11.71,0,4.34,0,10.85.13,11.19.49,1,1.05,4.35,1.35,15.87,0,2.26,0,5.12,0,7.61,0,1.25,0,2.41,0,3.35v1.32a2.53,2.53,0,0,1-1.12,2,2.62,2.62,0,0,1-1.75.43c-.62,0-.58,0-.19.09l.15,0h.41a2.44,2.44,0,0,0,.53,0,2.72,2.72,0,0,0,1.89-1.42,2.9,2.9,0,0,0,.24-.64l.06-.34V250c0-.09,0-.18,0-.27l0-.54c.09-1.46.17-2.92.25-1.67.09-16.76.08-33.22.05-49.7v-8.68a3.08,3.08,0,0,0-2.31-2.92,14.83,14.83,0,0,0-1.51-.22l-1.89-.25-12.31-1.58L96,181c-2.85-.31-9.8-1.16-18.92-2.31L62,176.77l-2.84-.36a4,4,0,0,0-1.79,0,3.84,3.84,0,0,0-.65.27,2.18,2.18,0,0,0-.64.51,3.24,3.24,0,0,0-.67,1.35,12.35,12.35,0,0,0-.07,1.95c0,.86,0,1.72,0,2.59q0,4.28,0,8.66c0,11.65,0,23.56,0,33.8q0,3.85,0,7.35v6.29a5,5,0,0,0,.1,1.37,3,3,0,0,0,.49,1.05,2.57,2.57,0,0,0,.9.71,8.23,8.23,0,0,0,2.49.52l2.73.36,4.33.59,1.8.22c10.76,1.44,23.85,3.11,33,4.08L114,249.3l-5.33-1c4.3.58,8.61,1.15,10.28,1.27,9.2.95,4,0,.56-.86-2.51-.51,1-.32-3-1l7.18,1c.35-.12-8.85-1.08-6.83-1.08,2.76.42,5.86.73,8.73,1.11-1-.35-9.93-1.38-9.46-1.54,1.56.15,8,1.35,8.61,1.15.12,0-2.75-.42-4.18-.61,8.84,1.07,13.74,1.45,5.72.1,2.79.37,6.74,1,9.7,1.35h0l-5.38-.78,5,.68-.87-.23c-1.25-.2-2.5-.39-3.81-.56l3.34.44c-.82-.19-1.77-.4-2.82-.62-4-.69-7.72-1.45-9.87-1.73C104.21,244,86.77,241.58,69.42,239.29Z" transform="translate(0 -0.11)"/><path class="cls-2" d="M214.75,209.58l-77.67,40.66a.51.51,0,0,1-.74-.44V189.11a.52.52,0,0,1,.27-.44L214.28,148a.5.5,0,0,1,.73.44v60.69A.5.5,0,0,1,214.75,209.58Z" transform="translate(0 -0.11)"/><path class="cls-3" d="M150.06,240.55c0,.1.95-.27-.4.49-2.13,1.17-4.11,2.13-6.08,3.1l-3,1.47-1.52.78-.09.05h0l0,0a.83.83,0,0,1-.06.21l-.12,0c-.05,0-.07-.07-.05-.13s0-.2.06-.27q.06-2.86.12-5.79-.06-11.07-.11-22c-.06.19-.12.28-.14-.45,0-3,0-7.25,0-11.61l0-1.92a1.68,1.68,0,0,0-.13-.71c0-2,0-3.72,0-5.35,0-2.67-.08-5.36-.12-8l0-.25a.16.16,0,0,1,.07-.18l.19-.11.82-.45L143,187.5l14.42-7.84,30-16.34c4.35-2.45,8.7-4.89,12.92-7.18l6.18-3.26,6.08-3.14.72-.37c.22-.1.48-.34.72-.14a.38.38,0,0,1,.13.36v.4c0,.26,0,.52,0,.78,0,1.29,0,2.54,0,3.72.57-1.07.85,15.84,1.44,12.47,0,4.62,0,11.57.13,11.92.49,1.08,1,4.64,1.35,16.92,0,2.4,0,5.45,0,8.11,0,1.33,0,2.56,0,3.56v1.33a2.35,2.35,0,0,1,0,.26v.07s0,.17,0,.25a2.62,2.62,0,0,1-.12.57,2.57,2.57,0,0,1-1.23,1.46c-.57.34-.5.35-.11.2l.16-.07h0l.12-.06.22-.15a3,3,0,0,0,.43-.38,2.73,2.73,0,0,0,.6-1.07,2.85,2.85,0,0,0,.11-.66V209c0-.34.05-.73.07-1.12.09-1.56.17-3.11.25-1.78,0-10.2,0-20.28.07-30.33q0-7.53,0-15V148.86a3.2,3.2,0,0,0-.89-2.59,3.49,3.49,0,0,0-1.09-.71,3.14,3.14,0,0,0-1.07-.2,2.92,2.92,0,0,0-1.49.35l-42,22c-2.68,1.47-9.26,5-17.92,9.56l-14.31,7.56-1.94,1-.69.36a10,10,0,0,0-.91.5,2.94,2.94,0,0,0-.71.64,2.47,2.47,0,0,0-.44.85,6.85,6.85,0,0,0-.14,2.05v3.43c0,3,0,6.12,0,9.23,0,12.41,0,25.1,0,36,0,2.87,0,5.62,0,8.23v1.71a5,5,0,0,0,.15,1.56,3.07,3.07,0,0,0,.49,1,3.18,3.18,0,0,0,.3.36,2.47,2.47,0,0,0,.5.36,2.35,2.35,0,0,0,1,.26,3.74,3.74,0,0,0,1.12-.08,6.3,6.3,0,0,0,1.35-.6l1.35-.71,9.79-5.09,1.7-.9c10.26-5.33,22.7-11.89,31.27-16.63l11.84-6.71-5.24,2.42c4.1-2.14,8.21-4.27,9.74-5.19,8.61-4.79,3.53-2.45,0-1-2.49,1.11.65-.83-3.21,1l6.84-3.56c.24-.31-8.38,4.48-6.61,3.25,2.66-1.32,5.56-3,8.29-4.37-1,.3-9.49,4.88-9.17,4.47,1.45-.82,7.81-3.76,8.21-4.27.08-.11-2.66,1.32-4,2,8.37-4.48,12.89-7.13,5.07-3.38,2.67-1.39,6.49-3.26,9.29-4.77h0L208.91,211l4.8-2.5-.89.34c-1.21.59-2.42,1.2-3.67,1.85l3.19-1.66c-.83.33-1.79.74-2.83,1.19-3.87,1.83-7.61,3.5-9.66,4.56C183.25,223.3,166.6,231.91,150.06,240.55Z" transform="translate(0 -0.11)"/><path class="cls-4" d="M136.5,137.37l76.95,10a.5.5,0,0,1,.16.94l-77.13,40.38a.58.58,0,0,1-.29,0l-76.95-10a.5.5,0,0,1-.16-.94l77.12-40.37A.54.54,0,0,1,136.5,137.37Z" transform="translate(0 -0.11)"/><path class="cls-3" d="M206.61,149.13c.23,0,.61-.09.56,0a1.28,1.28,0,0,1-.37.2l-.1,0,0,0h0l-.09,0-.21.1-1.64.81c-2.18,1.07-4.37,2.15-6.74,3.44l-.27.33-11.59,5.8-21.59,11.43c.22,0,.33,0-.37.35-3,1.61-7.13,3.72-11.43,5.95l-1.87,1a2.12,2.12,0,0,0-.63.48l-5.28,2.71-8.87,4.81a.22.22,0,0,1-.19,0h-.19l-.47-.06-1.89-.22-3.79-.44-7.64-.88-15.56-1.8-32.46-3.76-10.15-1-1.84-.19-.47-.05A.41.41,0,0,1,61,178a.33.33,0,0,1,.07-.4,2.6,2.6,0,0,1,.36-.21l4-2.1,5.89-3.06,11.33-5.86c-1.32,0,15.17-8.91,11.58-7.69,4.55-2.36,11.38-5.92,11.65-6.25.83-1,4.07-3.31,16-9.89,2.35-1.27,5.36-2.8,8-4.14l3.52-1.81c.5-.25.93-.48,1.3-.68l.49-.26.11-.06a2.27,2.27,0,0,1,.52-.21,2.43,2.43,0,0,1,1-.07c.74,0,.68,0,.23-.1l-.19,0h0l-.14,0h-.3a3.44,3.44,0,0,0-.62.09,2,2,0,0,0-.32.11l-.23.1-.12.06-.25.11-1.14.52c-1.57.72-3.14,1.45-1.86.69l-39.12,20.4L73.28,167.43l-9.92,5.21-4.84,2.54-.61.32c-.16.11-.37.22-.5.33s-.26.23-.36.34l-.25.32a3.18,3.18,0,0,0-.47,1.08,2.3,2.3,0,0,0-.07.42,2.42,2.42,0,0,0,0,.56,2.85,2.85,0,0,0,.19.8,2,2,0,0,0,.18.36,3.22,3.22,0,0,0,.67.82,3.09,3.09,0,0,0,1.66.76l32.63,4.23c2.73.31,8.65,1,16.53,2l13.17,1.67,7.41.94,3.87.5,2,.25,1.25.16a2.82,2.82,0,0,0,1.8-.3l42.92-22.55,33.74-17.61a3.44,3.44,0,0,0,1.62-1.79c.07-.16.11-.29.17-.44a2.1,2.1,0,0,0,.1-.43,2,2,0,0,0-.12-.85,1.58,1.58,0,0,0-.24-.45l-.3-.36c-.14-.13-.26-.27-.44-.41a3.37,3.37,0,0,0-1.7-.76L193,142.5c-5.72-.71-11.18-1.36-15.78-1.86l-15-1.5,6.31,1.11c-5.09-.68-10.18-1.36-12.15-1.51-10.86-1.17-4.76-.08-.65.85,3,.56-1.11.3,3.56,1.08l-8.47-1.13c-.41.12,10.45,1.29,8.06,1.24-3.25-.48-6.92-.86-10.3-1.31,1.14.37,11.73,1.61,11.18,1.76-1.84-.19-9.49-1.54-10.18-1.35-.13,0,3.26.48,4.95.71-10.45-1.28-16.23-1.77-6.74-.24-3.31-.44-8-1.16-11.47-1.58h0l6.35.9-5.95-.8,1,.25c1.47.23,3,.45,4.51.66l-4-.53c1,.22,2.1.45,3.34.69,4.67.79,9.14,1.63,11.68,2l53.22,7.19S206.64,149.11,206.61,149.13Z" transform="translate(0 -0.11)"/><path class="cls-5" d="M146.77,189.91,69.1,179.77a.51.51,0,0,1-.44-.5v-60.8a.51.51,0,0,1,.57-.5l77.67,10.15a.49.49,0,0,1,.43.49v60.81A.49.49,0,0,1,146.77,189.91Z" transform="translate(0 -0.11)"/><path class="cls-3" d="M80.41,178.66c0,.1.86.32-.58.17-2.27-.24-4.3-.57-6.34-.9L72,177.69l-.72-.11,0,0c-.06,0-.06-.06-.07-.12s-.11,0-.17-.06c.08-3.53.16-7.22.24-11q-.06-10.38-.12-20.67c0,.18-.11.26-.13-.42,0-2.85,0-6.8,0-10.9l0-1.8a1.54,1.54,0,0,0-.13-.67c0-1.84,0-3.49,0-5l-.06-3.77,0-1.89v-.7l0-.21a.11.11,0,0,1,.14-.1l.4,0,3.52.39,15.31,1.73L122,126c4.66.45,9.32.91,13.8,1.43l5.25.66,5.1.69a.44.44,0,0,1,.42.22,1.34,1.34,0,0,1,0,.49v1c0,.93,0,1.86,0,2.77,0,1.82,0,3.57,0,5.2.58-1,.86,14.87,1.45,11.7,0,4.34,0,10.86.13,11.19.49,1,1,4.35,1.35,15.88,0,2.25,0,5.11,0,7.61,0,1.25,0,2.4,0,3.35v1.31a2.57,2.57,0,0,1-1.12,2,2.61,2.61,0,0,1-1.75.42c-.62,0-.58,0-.19.1l.15,0h0l.12,0h.25a3.27,3.27,0,0,0,.53,0,2.73,2.73,0,0,0,1.89-1.43,3,3,0,0,0,.24-.64c0-.11,0-.22.05-.34l0-.27c0-.08,0-.17,0-.26l0-.54c.08-1.46.17-2.93.25-1.68.09-16.76.08-33.21,0-49.69v-8.69a3.07,3.07,0,0,0-1.15-2.33,2.94,2.94,0,0,0-1.16-.58c-.48-.12-1-.15-1.51-.23l-1.89-.24-12.31-1.58L107,120.35c-2.86-.3-9.8-1.16-18.92-2.3L73,116.14l-2.85-.37a4.05,4.05,0,0,0-1.78,0,4.32,4.32,0,0,0-.66.26,2.72,2.72,0,0,0-.63.51,3.11,3.11,0,0,0-.67,1.36,12.27,12.27,0,0,0-.07,1.94c0,.86,0,1.73,0,2.59,0,2.85,0,5.75,0,8.66,0,11.65,0,23.57,0,33.81,0,2.56,0,5,0,7.34v6.29a4.76,4.76,0,0,0,.1,1.38A3.06,3.06,0,0,0,67,181a2.69,2.69,0,0,0,.9.71,8.47,8.47,0,0,0,2.49.51l2.73.37,4.33.58,1.8.23c10.76,1.44,23.85,3.1,33,4.07l12.72,1.2-5.33-1c4.3.57,8.61,1.15,10.27,1.26,9.21,1,4.05,0,.57-.86-2.51-.5,1-.31-3-1l7.18,1c.35-.12-8.86-1.07-6.83-1.08,2.75.43,5.86.73,8.73,1.11-1-.34-9.93-1.38-9.46-1.53,1.56.15,8,1.34,8.61,1.15.12,0-2.75-.43-4.18-.62,8.84,1.07,13.74,1.45,5.71.1,2.8.38,6.75,1,9.71,1.36h0l-5.38-.77,5,.67-.87-.23c-1.25-.19-2.51-.38-3.81-.56l3.34.45c-.82-.2-1.77-.41-2.82-.63-4-.69-7.73-1.44-9.88-1.73C115.2,183.31,97.76,180.94,80.41,178.66Z" transform="translate(0 -0.11)"/><path class="cls-5" d="M225.74,149l-77.67,40.66a.51.51,0,0,1-.74-.45V128.48a.49.49,0,0,1,.27-.44l77.67-40.66a.49.49,0,0,1,.73.44V148.5A.51.51,0,0,1,225.74,149Z" transform="translate(0 -0.11)"/><path class="cls-3" d="M161.05,179.91c0,.11.94-.26-.4.49-2.14,1.17-4.11,2.14-6.08,3.1l-3,1.47-1.53.79-.09.05h0l0,0v0a.73.73,0,0,1,0,.2l-.12,0c-.05,0-.07-.07-.05-.12s0-.21.06-.28q.06-2.85.12-5.79-.06-11.06-.12-22c-.06.19-.11.28-.13-.45-.05-3,0-7.25,0-11.61l0-1.93a1.66,1.66,0,0,0-.13-.7c0-2,0-3.73,0-5.35l-.12-8,0-.25c0-.07,0-.16.07-.18l.19-.12.81-.44,3.57-1.94L168.44,119l30-16.34c4.35-2.44,8.7-4.89,12.92-7.18l6.18-3.25,6.08-3.14.72-.37c.22-.1.48-.34.72-.14a.37.37,0,0,1,.13.36v.39c0,.26,0,.52,0,.78,0,1.3,0,2.54,0,3.72.58-1.06.86,15.85,1.45,12.47,0,4.63,0,11.57.13,11.93.49,1.07,1.05,4.63,1.35,16.91,0,2.41,0,5.46,0,8.11,0,1.33,0,2.56,0,3.57v1.32c0,.1,0,.18,0,.27v.06s0,.18,0,.25a2.6,2.6,0,0,1-1.35,2c-.57.34-.5.35-.11.19l.16-.06,0,0,.11-.06.23-.14a3.78,3.78,0,0,0,.43-.38,2.78,2.78,0,0,0,.6-1.08,2.39,2.39,0,0,0,.1-.66v-.18c0-.35.05-.73.07-1.12.08-1.56.17-3.12.25-1.79q0-15.28.07-30.32c0-5,0-10,0-15.06V88.23a3.68,3.68,0,0,0-.25-1.64,3.48,3.48,0,0,0-.64-1,3.32,3.32,0,0,0-1.09-.71,3.11,3.11,0,0,0-2.56.14l-42,22c-2.32,1.28-7.55,4.07-14.51,7.76L156,121l-6.5,3.43-1.68.88-.66.35c-.27.14-.54.27-.79.43a2.79,2.79,0,0,0-1.08,1.25,3.7,3.7,0,0,0-.24,1.7v3.25c0,10.46,0,21.55.05,31.93,0,5.19,0,10.2,0,14.87,0,2.38,0,4.67,0,6.85v3a3.38,3.38,0,0,0,.69,2,2.15,2.15,0,0,0,.69.62,2,2,0,0,0,.47.2,2.53,2.53,0,0,0,.38.07,3.3,3.3,0,0,0,2-.32l11.77-6.13,1.71-.9c10.26-5.34,22.69-11.9,31.27-16.63l11.84-6.72-5.24,2.42c4.1-2.13,8.21-4.27,9.74-5.18,8.61-4.79,3.53-2.46,0-1-2.49,1.11.65-.83-3.21,1,2.73-1.42,4.09-2.14,6.84-3.56.24-.31-8.38,4.48-6.61,3.25,2.66-1.32,5.56-3,8.29-4.37-1.05.29-9.5,4.87-9.18,4.46,1.45-.81,7.82-3.75,8.22-4.27.08-.1-2.66,1.32-4,2,8.37-4.47,12.89-7.13,5.07-3.37,2.67-1.39,6.49-3.26,9.29-4.77h0l-5.16,2.62,4.8-2.5-.89.34c-1.21.6-2.42,1.2-3.67,1.85l3.19-1.66c-.83.34-1.79.74-2.83,1.2-3.87,1.82-7.61,3.49-9.66,4.56C194.24,162.66,177.58,171.28,161.05,179.91Z" transform="translate(0 -0.11)"/><path class="cls-2" d="M147.49,76.74l76.94,10.05a.5.5,0,0,1,.17.94L147.47,128.1a.49.49,0,0,1-.29.06l-76.95-10a.5.5,0,0,1-.16-.94l77.12-40.38A.52.52,0,0,1,147.49,76.74Z" transform="translate(0 -0.11)"/><path class="cls-3" d="M217.59,88.5c.24,0,.61-.09.57,0a1.28,1.28,0,0,1-.37.2l-.1,0h-.06l-.1,0-.2.11-1.64.81c-2.19,1.07-4.37,2.14-6.74,3.44l-.27.32-11.6,5.81L175.5,110.7c.22,0,.33,0-.37.35-3,1.6-7.13,3.71-11.43,5.94l-1.87,1a2.58,2.58,0,0,0-.64.47l-5.27,2.72-8.87,4.8a.2.2,0,0,1-.19,0h-.05l-.14,0-.48,0-1.88-.22-3.79-.44-7.64-.88-15.56-1.8-32.47-3.76-10.14-1-1.84-.19-.47-.05a.41.41,0,0,1-.38-.21.35.35,0,0,1,.06-.41c.12-.08.25-.14.37-.21l4-2.09,5.9-3.06,11.33-5.86c-1.32,0,15.16-8.91,11.58-7.69,4.55-2.37,11.38-5.92,11.65-6.25.83-1,4.06-3.32,16-9.89,2.35-1.27,5.36-2.81,8-4.15l3.52-1.8,1.3-.68.49-.27.11-.06a2.49,2.49,0,0,1,1.51-.28c.74.06.68,0,.23-.09l-.19,0h-.18a1.51,1.51,0,0,0-.3,0,2.21,2.21,0,0,0-.62.09,2,2,0,0,0-.32.1l-.23.11-.12,0-.26.11-1.13.52c-1.57.73-3.14,1.45-1.86.7l-39.12,20.4L84.27,106.8,74.35,112l-4.84,2.54-.61.32c-.16.11-.37.22-.5.33s-.26.22-.36.33l-.26.33a3.29,3.29,0,0,0-.46,1.07c0,.14-.07.31-.08.42a2.85,2.85,0,0,0,.2,1.37,2,2,0,0,0,.18.36A3.23,3.23,0,0,0,70,120.65l32.63,4.24c2.73.3,8.64,1,16.53,2l13.17,1.66,7.41,1,3.87.49,2,.25,1.25.17a2.86,2.86,0,0,0,1.79-.31l42.93-22.54L225.24,90a3.47,3.47,0,0,0,1.62-1.79c.07-.16.11-.3.17-.45a2,2,0,0,0,.1-.42,2.21,2.21,0,0,0-.12-.86,1.45,1.45,0,0,0-.25-.44l-.29-.37c-.14-.13-.26-.27-.44-.41a3.46,3.46,0,0,0-1.7-.76L204,81.87c-5.72-.71-11.18-1.36-15.78-1.87l-15-1.5,6.3,1.11c-5.08-.67-10.17-1.35-12.14-1.5-10.86-1.17-4.76-.09-.65.85,3,.56-1.11.29,3.56,1.08l-8.47-1.13c-.41.11,10.45,1.28,8.06,1.24-3.25-.49-6.92-.87-10.3-1.32,1.14.37,11.72,1.62,11.18,1.77-1.84-.19-9.49-1.54-10.18-1.36-.14,0,3.25.49,5,.72-10.45-1.29-16.23-1.78-6.74-.24-3.31-.44-8-1.17-11.47-1.59h0l6.36.9-5.95-.79,1,.25c1.48.22,3,.45,4.51.65l-4-.52c1,.21,2.1.45,3.34.69,4.67.79,9.14,1.63,11.68,2l53.22,7.18S217.63,88.48,217.59,88.5Z" transform="translate(0 -0.11)"/><path class="cls-3" d="M154.14,17.7c0-.1-.23-.23.18-.23,1.29.07,2.27.54,3.56.62l.12-.15c1,.19,2,.42,3,.63q2.91.34,5.8.64c0-.06-.06-.12.13-.12.81.06,1.9.26,3,.43l.51,0a.26.26,0,0,0,.2-.11l1.4.23c5.66.41,11.41.78,17.64,1.22,1.33,0,2.66,0,3.93.14,1.87.18,4.24.6,6.06.86-.21-.61,4.27-.31,3.46-1a14,14,0,0,0,3.14.28c.35-.45,1.36-.88,4.62-.76,1.27.1,3.18.56,3.63.52.72-.07-1.59-.56-.87-.62-9.35-1.4-18.4-2.37-27.84-3.61-3.24-.16-24.92-2.88-30.47-3.72l-.51-.06c-3-.43-6.72-.87-9.32-1-1.2,0-2.42,0-3.63,0,.54.16,1,.32,1.48.48a18,18,0,0,0-2.91-.3c-2.62-.1-1.19.38-.25.9.7.26-.3.4.79.72l-2-.29c-.11.15,2.51.25,1.91.44-.77-.17-1.66-.18-2.46-.3.25.26,2.79.45,2.64.65-.45,0-2.24-.59-2.43-.34a6.13,6.13,0,0,0,1.17.22c-2.5-.24-3.9-.16-1.67.43-.79-.11-1.89-.37-2.73-.45h0c.42.06,1.13.21,1.51.27l-1.42-.2.23.14c.35.08.71.15,1.07.21l-.94-.14c.23.12.49.24.77.36,1.1.32,2.14.72,2.75.8C144.34,16.31,149.25,17,154.14,17.7Z" transform="translate(0 -0.11)"/><path class="cls-6" d="M135.1,125.63,57.43,115.49A.51.51,0,0,1,57,115V54.19a.5.5,0,0,1,.56-.5l77.67,10.15a.5.5,0,0,1,.44.49v60.81A.5.5,0,0,1,135.1,125.63Z" transform="translate(0 -0.11)"/><path class="cls-3" d="M68.74,114.38c0,.09.87.31-.58.17-2.27-.25-4.3-.57-6.34-.9l-1.53-.24-.72-.12,0,0c-.06,0-.06,0-.08-.11s-.11,0-.16-.06c.07-3.54.15-7.22.23-11q0-10.38-.11-20.67c-.06.18-.12.26-.14-.42,0-2.86,0-6.81,0-10.9l0-1.81a1.84,1.84,0,0,0-.12-.66c0-1.85,0-3.49,0-5l-.06-3.77,0-1.89v-.51l0-.19v-.21a.12.12,0,0,1,.13-.11l.41,0,3.51.39,15.31,1.73,31.87,3.6c4.66.46,9.32.92,13.8,1.43l5.25.67,5.11.69a.45.45,0,0,1,.42.21,1.39,1.39,0,0,1,0,.5v1c0,.94,0,1.86,0,2.77,0,1.82,0,3.58,0,5.2.57-1,.86,14.88,1.44,11.71,0,4.34,0,10.86.13,11.19.49,1,1.05,4.35,1.35,15.88,0,2.25,0,5.11,0,7.61,0,1.24,0,2.4,0,3.34v1.32a2.55,2.55,0,0,1-1.12,2,2.61,2.61,0,0,1-1.75.42c-.62,0-.58,0-.19.1l.16,0H135l.25,0a2.46,2.46,0,0,0,.53-.06,2.69,2.69,0,0,0,1.89-1.42,2.35,2.35,0,0,0,.24-.64c0-.11,0-.23.06-.34v-.27c0-.09,0-.17,0-.26l0-.55c.09-1.46.17-2.92.25-1.67.09-16.76.08-33.21.05-49.7V64.26a3,3,0,0,0-1.14-2.33,3.07,3.07,0,0,0-1.17-.59c-.47-.11-1-.15-1.51-.22l-1.89-.25-12.31-1.58L95.36,56.07c-2.85-.31-9.8-1.16-18.92-2.3L61.37,51.86l-2.85-.37a4.1,4.1,0,0,0-1.79,0,3.15,3.15,0,0,0-.65.26,2.52,2.52,0,0,0-.64.51,3.1,3.1,0,0,0-.66,1.36,11.16,11.16,0,0,0-.08,1.94c0,.86,0,1.72,0,2.59,0,2.85,0,5.75,0,8.66,0,11.65,0,23.56,0,33.81V108c0,1.16,0,2.29,0,3.38v2.91a5.58,5.58,0,0,0,.1,1.38,2.79,2.79,0,0,0,.5,1,2.49,2.49,0,0,0,.89.72,8.54,8.54,0,0,0,2.5.51l2.72.36,4.34.59,1.79.23c10.76,1.43,23.85,3.1,33,4.07l12.72,1.2-5.33-1c4.31.57,8.61,1.15,10.28,1.26,9.2,1,4,0,.57-.86-2.52-.5,1-.32-3-1l7.18,1c.35-.12-8.85-1.07-6.83-1.08,2.76.42,5.86.73,8.73,1.11-1-.35-9.93-1.38-9.46-1.54,1.56.16,8,1.35,8.61,1.15.12,0-2.75-.42-4.18-.61,8.84,1.07,13.74,1.45,5.72.1,2.8.38,6.74,1,9.7,1.36h0l-5.38-.77,5,.67-.87-.23c-1.25-.2-2.5-.39-3.81-.56l3.34.45c-.82-.2-1.77-.41-2.81-.63-4-.69-7.73-1.44-9.88-1.73C103.53,119,86.09,116.66,68.74,114.38Z" transform="translate(0 -0.11)"/><path class="cls-6" d="M214.07,84.66,136.4,125.32a.49.49,0,0,1-.73-.44V64.2a.51.51,0,0,1,.26-.45L213.6,23.09a.51.51,0,0,1,.74.45V84.22A.49.49,0,0,1,214.07,84.66Z" transform="translate(0 -0.11)"/><path class="cls-3" d="M149.38,115.63c0,.1,1-.27-.4.49-2.13,1.17-4.1,2.14-6.08,3.1l-3,1.47-1.52.79-.09,0,0,0,0,0v0a1.33,1.33,0,0,1-.05.19l-.13,0s-.07-.07,0-.12a2.57,2.57,0,0,1,.06-.28c0-1.9.08-3.84.12-5.79q-.06-11.07-.11-22c-.06.19-.12.28-.14-.44,0-3,0-7.25,0-11.62,0-.64,0-1.29,0-1.92a1.94,1.94,0,0,0-.12-.7c0-2,0-3.73,0-5.36q-.06-4-.12-8v-.24a.15.15,0,0,1,.07-.19L138,65l.82-.45,3.56-1.93,14.42-7.85,30-16.34c4.34-2.45,8.69-4.89,12.91-7.18L205.89,28,212,24.82l.72-.37c.22-.09.49-.34.73-.14a.41.41,0,0,1,.13.36v1.18c0,1.29,0,2.54,0,3.72.57-1.07.86,15.85,1.44,12.47,0,4.62,0,11.57.13,11.93.49,1.07,1,4.63,1.35,16.91,0,2.41,0,5.45,0,8.11,0,1.33,0,2.56,0,3.57,0,.5,0,1,0,1.32v.33s0,.17,0,.25a2.62,2.62,0,0,1-.12.57A2.56,2.56,0,0,1,215,86.49c-.58.35-.51.36-.12.2l.16-.07h0l.12-.06c.07,0,.15-.09.22-.15a2.48,2.48,0,0,0,.43-.37,2.78,2.78,0,0,0,.6-1.08,2.85,2.85,0,0,0,.11-.66v-.18c0-.35,0-.74.06-1.13.09-1.55.17-3.11.25-1.78,0-10.19,0-20.28.07-30.33q0-7.53,0-15V24a3.77,3.77,0,0,0-.26-1.64,3.33,3.33,0,0,0-.64-.95,3.23,3.23,0,0,0-1.09-.72,3.4,3.4,0,0,0-1.07-.2,3,3,0,0,0-1.49.35l-42,22c-2.31,1.28-7.54,4.07-14.51,7.76l-11.6,6.14-6.5,3.43-1.68.88-.66.35c-.26.14-.54.27-.79.43a2.76,2.76,0,0,0-1.08,1.24,3.74,3.74,0,0,0-.24,1.7V68c0,10.46,0,21.54.05,31.92v24.69a3.28,3.28,0,0,0,.68,2,2,2,0,0,0,.7.63,2.47,2.47,0,0,0,.46.2,2.53,2.53,0,0,0,.38.07,3.32,3.32,0,0,0,2-.33l11.78-6.12,1.7-.9c10.27-5.34,22.7-11.9,31.27-16.64l11.84-6.71L189,99.25c4.11-2.13,8.21-4.27,9.74-5.19,8.62-4.78,3.54-2.45,0-1-2.49,1.11.65-.83-3.21,1l6.84-3.55c.24-.31-8.38,4.48-6.6,3.25,2.65-1.33,5.55-3,8.29-4.38-1.05.3-9.5,4.88-9.18,4.47,1.45-.82,7.81-3.76,8.21-4.27.08-.11-2.66,1.32-4,2,8.37-4.48,12.89-7.13,5.07-3.38,2.67-1.38,6.49-3.25,9.3-4.76h0l-5.16,2.63,4.8-2.5-.89.34c-1.21.59-2.42,1.2-3.67,1.85l3.19-1.66c-.83.34-1.79.74-2.83,1.19-3.86,1.83-7.61,3.5-9.66,4.57C182.57,98.38,165.92,107,149.38,115.63Z" transform="translate(0 -0.11)"/><polygon class="cls-7" points="135.67 63.8 57 53.51 135.67 12.32 214.34 22.62 135.67 63.8"/><polygon class="cls-8" points="135.67 12.32 57 53.51 100.24 41.19 178.91 0.01 135.67 12.32"/><path class="cls-3" d="M77.43,40c0,.1,1.57-.59-.72.66-3.44,1.86-6.63,3.46-10,5.16s-6.88,3.47-10.31,5.3l.05.09.74-.15a3.61,3.61,0,0,0-.51,2.36l.08.27a8.73,8.73,0,0,0,1.55,2.09l10.57-3c-.17,0-.18-.07,1-.44l8.56-2.44,7-2,1.65-.5a1.63,1.63,0,0,0,.57-.29l4.6-1.27L101,43.22c14.15-7.74,28.89-15.81,44.67-24.43l5.79-3.28,5.81-3.21c4.24-2.26,9.14-4.8,14.09-7.37,1.88-1.16,3.63-2.26,5.12-3.22-.64.26.4-.48,2.44-1.6-.85.23-1.83.5-2.82.8l-.79.24-1,.35-1.86.63a26.54,26.54,0,0,0-4.19,1.68L164,5a36.55,36.55,0,0,0-3.9,1.26c-1,.52-2.27,1.17-3.5,1.77l-.88.43-.41.2-.19.1-.47.17c-1.76.61-3.9,1.31-6.51,2.13-4.11,1.25-10.5,2.85-11.93,3.36-2.25.8,5.44-1.19,3.2-.39l14.08-3.95,1.75-.49c.07,0,0,0,0,0l-.05,0-.1,0s-.08,0-.06,0l.22-.09s.05,0,0,0l0,0-2.05,1.08L148.81,13l-17.91,9.4c-1.92,1.07-6.09,3.3-11.66,6.26L99.38,39.15,79,45l-1.72.5,1.62-.84,1.24-.61.18-.11,13.78-7.24c4.87-2.59,9.56-5.11,13.38-7.23l10.54-6-4.7,2.14c3.67-1.91,7.33-3.81,8.69-4.64,7.68-4.3,3.13-2.24,0-1-2.24,1,.56-.78-2.9.83l6.11-3.18c.2-.29-7.47,4-5.91,2.89,2.38-1.18,5-2.64,7.4-3.91-1,.25-8.48,4.35-8.21,4,1.3-.74,7-3.32,7.33-3.81.07-.1-2.37,1.17-3.59,1.81,7.46-4,11.48-6.4,4.49-3.08,2.38-1.23,5.8-2.89,8.29-4.24h0l-4.61,2.33,4.29-2.23-.8.29c-1.08.53-2.16,1.07-3.28,1.65l2.85-1.48c-.75.29-1.61.64-2.54,1-3.46,1.61-6.81,3.08-8.64,4L100,28.29Z" transform="translate(0 -0.11)"/><polygon class="cls-8" points="214.34 22.62 135.67 63.8 96.33 49.26 175 8.07 214.34 22.62"/><path class="cls-3" d="M157.78,49.44c0,.1.83-.21-.34.46-3.71,2.05-6.89,3.33-10.61,5.38l-.19.29-9.15,4.52-1.5.79-.38.2-.1.06h0l-13.82-5c.13.12.19.2-.41,0-2.51-.88-5.93-2.21-9.49-3.54l-1.59-.56a1.36,1.36,0,0,0-.62-.09L105.2,50.3A40.07,40.07,0,0,0,101.37,49l1.11-.7,5.25-2.87,10.69-5.86,22.33-12.23c3.78-2.14,7.56-4.29,11.24-6.3,5.47-2.93,12.53-6.51,17.9-9.3-.56,0,2.46-1.85,5.12-3.49,3,.88,5.9,1.72,4.6.93,3.78,1.41,9.45,3.53,9.8,3.49,1.05-.14,4.15.41,14.3,3.85,4,1.39,9.92,3.81,11.34,4.23,2.24.66-5-2.21-2.74-1.55L194,12.42l-19.22-7.1L126.27,30.84c-1.88,1-6,3.22-11.39,6.11L90.68,49.73l45.14,16.62L158.1,54.74l1.49-.79c8.95-4.65,19.79-10.37,27.25-14.53,3.4-1.94,6.86-3.93,10.3-5.91l-4.59,2.09c3.59-1.86,7.17-3.72,8.49-4.54,7.5-4.2,3.05-2.2-.06-1-2.18.95.54-.78-2.84.8l6-3.1c.2-.29-7.3,3.91-5.77,2.81,2.32-1.15,4.84-2.58,7.23-3.82-.93.24-8.29,4.25-8,3.86,1.27-.72,6.83-3.24,7.17-3.72.06-.1-2.32,1.14-3.52,1.76,7.3-3.91,11.22-6.25,4.39-3,2.32-1.21,5.66-2.83,8.1-4.15h0l-4.5,2.28,4.19-2.18-.79.28c-1.05.52-2.11,1-3.2,1.61L212.14,22c-.73.29-1.57.63-2.48,1-3.38,1.57-6.67,3-8.45,3.93C186.72,34.41,172.2,41.91,157.78,49.44Z" transform="translate(0 -0.11)"/><circle class="cls-8" cx="48.92" cy="208.13" r="6.5"/><line class="cls-9" x1="49.42" y1="221.03" x2="49.42" y2="210.45"/><path class="cls-3" d="M50.44,218.61s-.08,0-.1,0,.1-.31.06-.48h-.06c0-.14.06-.28.09-.42s0-.52,0-.77c0,0,0,0-.05,0a2.94,2.94,0,0,1,0-.41v-.07l0,0a1.11,1.11,0,0,1,0-.19c-.13-.76-.28-1.52-.43-2.35a3.87,3.87,0,0,1-.15-.53,7.24,7.24,0,0,1,0-.81c-.23,0-.34-.56-.57-.44,0-.17,0-.41-.06-.42s-.42-.17-.53-.6c0-.17.05-.43,0-.49s-.14.22-.2.13c-.07,1.26,0,2.47,0,3.74a35.27,35.27,0,0,1,.1,4.09v.07a4.61,4.61,0,0,0,.09,1.25c0,.16.12.32.18.48l.12-.2a.89.89,0,0,0,0,.39c.1.34.21.15.37,0s.17,0,.24-.11v.27c.06,0,0-.34.07-.26a1.23,1.23,0,0,0,0,.33c.09,0,0-.38.12-.36s-.12.3,0,.33,0-.11,0-.16c0,.33.13.52.25.21a2.31,2.31,0,0,0,0,.37h0c0-.06,0-.15,0-.21v.19l0,0a.68.68,0,0,0,0-.14v.12l.1-.1a2.86,2.86,0,0,0,.18-.38C50.4,219.93,50.44,219.27,50.44,218.61Z" transform="translate(0 -0.11)"/><line class="cls-9" x1="49.17" y1="204.21" x2="49.17" y2="194.36"/><path class="cls-3" d="M50.2,202s-.08,0-.1,0,.1-.29.06-.45h-.07c0-.12.07-.25.1-.38s0-.49,0-.73c0,0,0,0,0,0a1.66,1.66,0,0,1,0-.38v-.07l-.05,0c0-.07,0-.12,0-.18-.12-.7-.28-1.42-.43-2.19a2.26,2.26,0,0,1-.14-.49,4.83,4.83,0,0,1,0-.76c-.23,0-.34-.52-.57-.41,0-.15,0-.38-.06-.39a.68.68,0,0,1-.54-.55c0-.16.06-.4,0-.46s-.14.21-.2.12c-.07,1.17,0,2.3,0,3.48a30.83,30.83,0,0,1,.1,3.82V202a4.33,4.33,0,0,0,.1,1.16c0,.15.12.3.18.45l.12-.19c0,.15,0,.31,0,.36.1.33.21.14.37,0s.17,0,.24-.11a2.09,2.09,0,0,1,0,.25c.07,0,0-.31.08-.24a1.08,1.08,0,0,0,0,.31c.09,0,0-.35.12-.33s-.12.28,0,.3,0-.1,0-.15c0,.31.13.49.25.2a2,2,0,0,0,0,.34h0a1.25,1.25,0,0,1,0-.19v.18l.05,0a.59.59,0,0,0,0-.14v.12l.1-.1a2,2,0,0,0,.18-.35C50.16,203.2,50.19,202.58,50.2,202Z" transform="translate(0 -0.11)"/><line class="cls-9" x1="62.88" y1="208.08" x2="52.3" y2="208.08"/><path class="cls-3" d="M60.35,207.17s0,.08,0,.09-.31-.09-.48,0l0,.06-.41-.09-.78,0s0,.05,0,.06a2.94,2.94,0,0,1-.41,0h-.07s0,0,0,.05l-.18,0-2.36.43a3.39,3.39,0,0,1-.52.15,7.49,7.49,0,0,1-.82,0c0,.23-.55.35-.44.58-.16,0-.4,0-.42.05s-.16.42-.59.54c-.17,0-.43-.05-.49,0s.22.14.12.2c1.26.07,2.48,0,3.75,0a35.11,35.11,0,0,1,4.09-.11h.07a5,5,0,0,0,1.25-.09l.48-.19a1,1,0,0,1-.21-.11.85.85,0,0,0,.39,0c.35-.1.15-.21,0-.37s0-.18-.12-.25h.27c0-.06-.33,0-.25-.07s.22,0,.33,0-.38,0-.36-.12.3.12.32,0-.1,0-.16,0c.34,0,.52-.14.22-.26a2.1,2.1,0,0,0,.37,0h0l-.2,0h.19l0-.05-.15,0h.13a.52.52,0,0,0-.11-.1c-.15-.07-.29-.18-.38-.18C61.67,207.21,61,207.17,60.35,207.17Z" transform="translate(0 -0.11)"/><line class="cls-9" x1="44.37" y1="208.08" x2="36.21" y2="208.08"/><path class="cls-3" d="M42.42,207.17s0,.08,0,.09-.24-.09-.37,0v.06l-.32-.09-.6,0s0,.05,0,.06a1.81,1.81,0,0,1-.32,0h-.05a.08.08,0,0,0,0,.05l-.14,0-1.82.43a2.17,2.17,0,0,1-.4.15,4.43,4.43,0,0,1-.63,0c0,.23-.43.35-.34.58-.13,0-.31,0-.32.05a.64.64,0,0,1-.46.54c-.14,0-.34-.05-.38,0s.17.14.09.2c1,.07,1.91,0,2.89,0a21,21,0,0,1,3.16-.11h0a3.05,3.05,0,0,0,1-.09l.37-.19a.91.91,0,0,1-.16-.11.53.53,0,0,0,.3,0c.27-.1.12-.21,0-.37s0-.18-.09-.25H44c0-.06-.26,0-.2-.07s.17,0,.26,0-.29,0-.28-.12.23.12.25,0-.08,0-.12,0c.26,0,.4-.14.16-.26a1.45,1.45,0,0,0,.29,0h0l-.16,0h.15l0-.05-.11,0h.1l-.09-.1c-.11-.07-.22-.18-.29-.18C43.43,207.21,42.92,207.17,42.42,207.17Z" transform="translate(0 -0.11)"/><circle class="cls-8" cx="207.39" cy="59.06" r="5.21"/><line class="cls-9" x1="207.79" y1="69.4" x2="207.79" y2="60.92"/><path class="cls-3" d="M208.82,67.49s-.08,0-.1,0,.1-.25.06-.39h-.06c0-.1.06-.21.09-.33s0-.41-.05-.62c0,0,0,0,0,0a1.25,1.25,0,0,1,0-.33v-.06l-.05,0s0-.1,0-.15c-.12-.6-.28-1.22-.43-1.88a2.07,2.07,0,0,1-.14-.42,3.64,3.64,0,0,1,0-.66c-.23,0-.34-.45-.57-.35,0-.13,0-.33-.06-.34a.65.65,0,0,1-.54-.48c0-.13.06-.34,0-.39s-.14.18-.2.1c-.07,1,0,2,0,3a22.79,22.79,0,0,1,.1,3.28.13.13,0,0,0,0,.06,3,3,0,0,0,.09,1c.05.13.12.26.18.39l.12-.17a.56.56,0,0,0,0,.31c.1.28.21.13.37,0s.17,0,.24-.1a1.55,1.55,0,0,1,0,.22c.07,0,0-.27.08-.21a.82.82,0,0,0,0,.27c.09,0,0-.3.12-.29s-.12.25,0,.26,0-.08,0-.12c0,.26.13.41.25.17a1.36,1.36,0,0,0,0,.29h0s0-.12,0-.16v.15l.05,0a.36.36,0,0,0,0-.11v.1a.81.81,0,0,0,.1-.09,1.55,1.55,0,0,0,.18-.3C208.78,68.54,208.81,68,208.82,67.49Z" transform="translate(0 -0.11)"/><line class="cls-9" x1="207.6" y1="55.92" x2="207.6" y2="48.02"/><path class="cls-3" d="M208.63,54.14s-.08,0-.1,0,.09-.23.06-.36h-.07c0-.1.07-.2.1-.31s0-.39-.05-.58c0,0,0,0-.06,0a1.84,1.84,0,0,1,0-.31v0l-.06,0s0-.09,0-.14c-.13-.56-.28-1.13-.43-1.75a2.79,2.79,0,0,1-.15-.39,4.09,4.09,0,0,1,0-.61c-.23,0-.35-.42-.58-.33,0-.12,0-.31,0-.32a.62.62,0,0,1-.54-.44c0-.13.05-.32,0-.37s-.14.17-.21.1c-.07.94,0,1.84,0,2.79a21.1,21.1,0,0,1,.1,3.06v.05a3.13,3.13,0,0,0,.09.93c.06.12.12.24.19.36,0-.05.07-.11.11-.15,0,.12,0,.24,0,.29.1.26.22.11.37,0s.18,0,.25-.09c0,.09,0,.13,0,.21s0-.25.07-.2a1.06,1.06,0,0,0,0,.25c.08,0,0-.28.12-.27s-.12.23,0,.25,0-.08,0-.12c0,.25.14.39.26.16a2.51,2.51,0,0,0,0,.27h0s0-.11,0-.15V56l0,0a.23.23,0,0,0,0-.11.28.28,0,0,1,0,.09l.11-.08c.07-.11.17-.22.17-.28C208.58,55.13,208.62,54.64,208.63,54.14Z" transform="translate(0 -0.11)"/><line class="cls-9" x1="218.58" y1="59.02" x2="210.1" y2="59.02"/><path class="cls-3" d="M216.56,58.11s0,.08,0,.1-.25-.1-.38-.06a.13.13,0,0,0,0,.06l-.34-.09-.62,0s0,.05,0,.06a1.9,1.9,0,0,1-.33,0h0s0,0,0,.05l-.16,0-1.88.43a2.35,2.35,0,0,1-.42.15,4.66,4.66,0,0,1-.65,0c0,.23-.45.34-.36.57-.13,0-.32,0-.33,0a.64.64,0,0,1-.48.54c-.14,0-.35,0-.4,0s.18.14.11.2c1,.07,2,0,3,0a22.59,22.59,0,0,1,3.28-.11h0a3.22,3.22,0,0,0,1-.09l.39-.18-.17-.12a.58.58,0,0,0,.32,0c.28-.1.12-.21,0-.37s0-.17-.09-.24h.22c0-.06-.27,0-.21-.07a1.13,1.13,0,0,0,.26,0c0-.09-.3,0-.29-.12s.25.12.27,0-.09,0-.13,0c.27,0,.41-.14.17-.25a2.58,2.58,0,0,0,.29,0h0l-.16,0h.15s0,0,0,0l-.12,0h.1a.39.39,0,0,0-.08-.1c-.13-.07-.24-.18-.31-.18C217.62,58.15,217.09,58.11,216.56,58.11Z" transform="translate(0 -0.11)"/><line class="cls-9" x1="203.75" y1="59.02" x2="197.21" y2="59.02"/><path class="cls-3" d="M202.18,58.11s0,.08,0,.1-.19-.1-.3-.06v.06l-.26-.09-.48,0s0,.05,0,.06a1.09,1.09,0,0,1-.25,0h-.05s0,0,0,.05l-.12,0-1.45.43a1.61,1.61,0,0,1-.33.15,2.79,2.79,0,0,1-.5,0c0,.23-.35.34-.27.57-.1,0-.25,0-.26,0a.62.62,0,0,1-.37.54c-.11,0-.27,0-.3,0s.13.14.07.2c.78.07,1.53,0,2.32,0a13.51,13.51,0,0,1,2.53-.11h0a1.94,1.94,0,0,0,.77-.09l.3-.18-.12-.12c.1,0,.2,0,.24,0,.21-.1.09-.21,0-.37s0-.17-.08-.24h.17c0-.06-.2,0-.16-.07a.74.74,0,0,0,.21,0c0-.09-.24,0-.23-.12s.19.12.21,0-.07,0-.1,0c.2,0,.32-.14.13-.25a1.81,1.81,0,0,0,.23,0h0l-.13,0h.12l0,0-.09,0h.08a.86.86,0,0,0-.07-.1c-.09-.07-.18-.18-.23-.18A10.18,10.18,0,0,0,202.18,58.11Z" transform="translate(0 -0.11)"/></g></g></svg>