<svg xmlns="http://www.w3.org/2000/svg" viewBox="0 0 277.32 277.26"><defs><style>.cls-1{fill:#fff;}.cls-2{fill:#202020;}.cls-3{fill:#face6f;fill-rule:evenodd;}.cls-4{fill:#fbdd94;}.cls-5{fill:#fdf4cb;}.cls-6{fill:#dde3e9;}</style></defs><g id="Layer_2" data-name="Layer 2"><g id="Layer_1-2" data-name="Layer 1"><path class="cls-1" d="M274,247.18c.73,3.69-.69,6.75-3,9.51a5.42,5.42,0,0,0-1.19,2.41,12,12,0,0,1-10.67,10,3.12,3.12,0,0,0-2,1.1c-5.77,6.28-13.79,6.41-19.65.31a3,3,0,0,0-2.56-1.07,12.3,12.3,0,0,1-5.23-.88,2,2,0,0,0-2.11.11,11.77,11.77,0,0,1-18.17-7,2.4,2.4,0,0,0-1.24-1.74,11.91,11.91,0,0,1-5.14-5.41"/><path class="cls-2" d="M263.09,265.07c.05.09.32,0,0,.29a10.6,10.6,0,0,1-3.39,1.14l-.06.18-.79.08a5.63,5.63,0,0,0-1.52.36,5.47,5.47,0,0,0-1.47.86,6.85,6.85,0,0,0-.56.5l-.32.28a12.87,12.87,0,0,1-4.83,3.31c.07,0,.11.09-.07.16a8.09,8.09,0,0,1-3,.44h-.49a.34.34,0,0,0-.2.12,10.1,10.1,0,0,1-1.38-.24,10.64,10.64,0,0,1-3.6-1.33,13.82,13.82,0,0,1-1.69-1.13l-.8-.68-.5-.44a5.36,5.36,0,0,0-.69-.51,4.45,4.45,0,0,0-1.77-.66,6.49,6.49,0,0,0-1.52,0,9.6,9.6,0,0,1-2.07-.05,11.45,11.45,0,0,1-2.15-.49,4.47,4.47,0,0,0-1.78-.29,3.26,3.26,0,0,0-1.7.69l-1,.66c-.33.2-.69.37-1,.56a9.7,9.7,0,0,1-4.21,1.11,10.25,10.25,0,0,1-3.43-.66,11.19,11.19,0,0,1-3-1.74c0,.17-.31.11-.72-.06a12.16,12.16,0,0,1-1.37-.92c-.93-.74-1.67-1.63-1.62-1a16.31,16.31,0,0,1-1.17-2.28,4.9,4.9,0,0,0-.56-1.38,7.18,7.18,0,0,0-1-.49,3.93,3.93,0,0,1-1.06-.3,10.47,10.47,0,0,1-2.45-1.53,11.18,11.18,0,0,1-2-2.36c-.53-.84-.88-1.6-1.07-1.86s-.13.12.09.7.46,1.11.12.72a14.5,14.5,0,0,0,3.05,3.68,14.68,14.68,0,0,0,1.94,1.4l.44.25c.06,0,0,0,0,0h0s-.05-.15.09.33l.35,1.13a16.28,16.28,0,0,0,.95,2.19,14.74,14.74,0,0,0,2.93,3.73,14.24,14.24,0,0,0,4,2.56,14.48,14.48,0,0,0,2.24.78,15.53,15.53,0,0,0,2.35.37,13.91,13.91,0,0,0,4.76-.43,13,13,0,0,0,2.26-.83,7.31,7.31,0,0,0,1.08-.55l.51-.31.26-.16.12-.08.07,0-.06,0h.05l.43.16a18.51,18.51,0,0,0,2.84.65,15.61,15.61,0,0,0,2.27.14l.64,0,.18,0h.09a.65.65,0,0,1,.17,0,1.44,1.44,0,0,1,.35.28l1,1a16.79,16.79,0,0,0,2.5,1.87,15.27,15.27,0,0,0,6.46,2.25,14.47,14.47,0,0,0,6.95-1.11,17.39,17.39,0,0,0,5.31-3.61l.89-.89a.91.91,0,0,1,.3-.21s1.19-.18,1.89-.37a15.68,15.68,0,0,0,3.74-1.35,7,7,0,0,0,.64-.37,13,13,0,0,0,4.85-5.06,14.44,14.44,0,0,0,1.24-3.13,14.91,14.91,0,0,0,.33-1.49,5.17,5.17,0,0,1,.17-.78,5.29,5.29,0,0,1,.82-1.53,21,21,0,0,0,1.16-2.14,14.46,14.46,0,0,1-1.36,1.53,11,11,0,0,0,1.87-3.38c.51-1.7.36-2.12.18-1.93s-.55.92-1,1.43c-.51.75-.27-.43-1,.72a11.35,11.35,0,0,0,.86-2.25c-.07-.07-.21.65-.46,1.28s-.53,1.16-.5.8a8.57,8.57,0,0,0,.88-2.73c-.13.14-.31.92-.6,1.62s-.63,1.3-.69,1.19c.1-.24.45-.79.7-1.35s.38-1.12.27-1.23-.26.83-.43,1.26a5.55,5.55,0,0,0,.29-2.83c-.12-.41-.19-.13-.48,1a7.58,7.58,0,0,0,0-2.85h0a9.7,9.7,0,0,1,.1,1.59,9.35,9.35,0,0,0-.13-1.48,2.86,2.86,0,0,0-.07.28c0,.37,0,.73,0,1.11a7.73,7.73,0,0,0-.06-1c-.06.25-.11.53-.19.82a10.06,10.06,0,0,1-.81,2.59,11.72,11.72,0,0,1-1.87,3.2l-.73.89a8.85,8.85,0,0,0-.86,1.37,7.85,7.85,0,0,0-.55,1.56l-.26,1A9.51,9.51,0,0,1,263.09,265.07Z"/><g id="Background-Shape-2"><g id="Background-Shape"><path class="cls-3" d="M118.81.36c39.21,7,51.53,98.47,16,161.58s-114.17,55.64-130.28,8C-22.71,89.21,79.61-6.61,118.81.36Z"/></g></g><path class="cls-1" d="M170.73,181.82c-.62-4.26,1.27-7.65,4.14-10.63a5.93,5.93,0,0,0,1.58-2.66c1.8-6.37,6.49-10.1,13.3-10.61a3.79,3.79,0,0,0,2.49-1.1c7.26-6.74,16.76-6.31,23.28,1.07"/><path class="cls-2" d="M178.88,169.34c-.09,0-.26.18-.19-.21a13.53,13.53,0,0,1,1-2.22l-.12-.13a6.77,6.77,0,0,1,.57-.83,8.27,8.27,0,0,1,.65-.79,11.77,11.77,0,0,1,2.54-2.68c-.06,0-.1-.06,0-.15a5.73,5.73,0,0,1,.77-.49c.31-.15.65-.31,1-.45l.3-.16a.2.2,0,0,0,.06-.16,6.75,6.75,0,0,1,.91-.29,14.38,14.38,0,0,1,2.84-.84l.78-.15a6.23,6.23,0,0,0,1.19-.29,5.46,5.46,0,0,0,2.07-1.32,17.76,17.76,0,0,1,5.23-4l1.31-.67c.45-.17.91-.32,1.36-.46a13,13,0,0,1,4.53,0c-.06-.3.75-.36,1.55-.4s1.54.05,1.29-.34a23.71,23.71,0,0,0,2.41.93c.41-.28,1.48-.53,3.89,1.05.93.64,1.91,2,2.26,2.24.53.34-.74-1.26-.2-.93a17.52,17.52,0,0,0-23.24-3.06c-.27.23-.76.61-1.41,1.11l-1.88,1.67a1.19,1.19,0,0,1-.53.25l-.21,0-.47.06-1,.12a20.46,20.46,0,0,0-4.13,1.11,15.78,15.78,0,0,0-6.89,5.2,18.88,18.88,0,0,0-2.72,5.36l-.13.43a3.94,3.94,0,0,1-.48,1.06,11.87,11.87,0,0,1-1,1.22,14.77,14.77,0,0,0-2.22,3.29,12.87,12.87,0,0,0-.94,3.13,9,9,0,0,1,.75-1.16,6.79,6.79,0,0,0-.71,2.45c-.1,1.15.07,1.4.22,1.27s.39-.62.67-1c.28-.52.37.27.75-.53a9.75,9.75,0,0,0-.31,1.52c.08,0,.11-.43.18-.86s.19-.79.27-.55a6.92,6.92,0,0,0-.28,1.83c.13-.1.18-.62.3-1.08s.25-.89.33-.82c-.06.3-.62,1.59-.33,1.74a5.25,5.25,0,0,0,.18-.85,4,4,0,0,0,.09,1.86c.14.27.23.09.41-.68a7.39,7.39,0,0,0,0,1.88h0a9.33,9.33,0,0,1,0-1.05,7.89,7.89,0,0,0,.06,1l.1-.18v-.73c0,.21,0,.42,0,.63l.21-.55c.12-.75.46-1.39.52-1.75a10.14,10.14,0,0,1,2-4.17,20,20,0,0,1,1.74-1.95A8.49,8.49,0,0,0,178.88,169.34Z"/><path class="cls-4" d="M175.74,231.75c1.14-4.27-4.15-11.66-11.06-16.85S148.05,193,148.05,193l1.14,32.08s16.24,9.38,20.19,11.6S174.6,236,175.74,231.75Z"/><path class="cls-2" d="M162.15,208.86c-.08,0,.08.4-.32,0-1.24-1.29-1.87-2.63-3-4h-.2c-.79-1.16-1.56-2.4-2.35-3.68l-1.34-1.94c-.78-1.13-1.52-2.32-2.27-3.47-1.5-2.32-3-4.85-4.5-7.36.12.31.19.53-.09.1-.71-1.16-1.61-2.71-2.58-4.4,0,.27,0,.42,0,.74s0,.59,0,.89c0,.6,0,1.22,0,1.84s.05,1,.08,1.46a5.11,5.11,0,0,0,.16.85c0,1.34.06,2.53.09,3.64l.33,5.73c.05.92.1,1.85.16,2.77l.07,1.08.06.77c.16,2.06.32,4.13.48,6.23.33,4.2.67,8.49,1,13l.08.73.09,1a5.48,5.48,0,0,0,.12.94l.87.44,2.71,1.38c2.38,1.29,5.32,3.1,7.6,4.43-.07-.7,5.64,2.26,4.82,1.11a27,27,0,0,0,4,2.14,3.05,3.05,0,0,1,1.77.15,6,6,0,0,0,1.4.23.66.66,0,0,0,.7-.43,8,8,0,0,0,1-2,10.68,10.68,0,0,0,.59-2c.06-.51-.18.05-.41.56s-.47,1-.42.53a12.14,12.14,0,0,1-.76,1.93,1.8,1.8,0,0,1-.19.32.61.61,0,0,1-.17.22l-.06.08s0,0,0,0h0a2.24,2.24,0,0,1-.44-.14,1.33,1.33,0,0,1-.35-.16c-.14-.07-.23-.11-.44-.23l-1.09-.63-8.68-5L152,223.77l-.28-.15h0s0,0,0,0h0l0-.58,0-1.27q-.09-2.53-.18-5.1c-.12-1.29-.3-4.67-.5-9-.05-1.09-.11-2.25-.16-3.44,0-.53-.05-1.06-.07-1.6l0-.22c0-.17,0-.34,0-.51l0-.28v-.14c0-.05,0-.12,0-.05l.43.67.22.33,1.52,2.21c2,2.94,3.89,5.31,5.06,6.73l.5.58c.36.44.76.88,1.17,1.32s.82.9,1.29,1.33.89.89,1.42,1.3,1.07.88,1.48,1.18a55.83,55.83,0,0,1,4.69,4,32.49,32.49,0,0,1,3.44,3.5c-.36-.68-.7-1.31-1-1.85,1,1.33,1.93,2.74,2.31,3.25,1,1.49,1.15,1.82,1.22,1.54a7.46,7.46,0,0,0-.32-1.83c-.36-1,.59.1-.11-1.39a19.34,19.34,0,0,1,1.38,2.63,5,5,0,0,0-.7-1.53c-.39-.74-.81-1.35-.47-1.08a21.29,21.29,0,0,1,1.65,3.27,6.49,6.49,0,0,0-.77-2.11c-.44-.87-.92-1.62-.78-1.6a11.65,11.65,0,0,1,.92,1.75,5.24,5.24,0,0,0,.76,1.51,7.68,7.68,0,0,0-.69-1.67,22,22,0,0,1,1.61,3.69c.16.61.39.17,0-1.66a9.15,9.15,0,0,1,.29,4.74h0a7.08,7.08,0,0,0,.17-2.75,5.68,5.68,0,0,1,.08,1.25,6.19,6.19,0,0,1-.16,1.33c.06-.13.13-.29.19-.45a4,4,0,0,0,.12-1,4.54,4.54,0,0,0,0-1,3.93,3.93,0,0,1,0,.85,5.25,5.25,0,0,1,0,.88,7.18,7.18,0,0,0,.26-1.51,12.45,12.45,0,0,0-1-4.71,32.85,32.85,0,0,0-7-9.1c-.68-.65-1.39-1.27-2.1-1.88s-1.54-1.21-2.06-1.68A32.5,32.5,0,0,1,162.15,208.86Z"/><path class="cls-2" d="M223.84,93.54c0,.11.11.21-.09.25-.62.06-1.17-.23-1.8,0V94a6.22,6.22,0,0,0-1.54.32,6,6,0,0,0-2.14,2c.06,0,.11,0,.07.13a12,12,0,0,0-.74,1.31l-.06.25a.19.19,0,0,0,.09.13l-.22.65a5.76,5.76,0,0,0,1,3.83,5.33,5.33,0,0,0,3.11,2.12,7.94,7.94,0,0,0,1.55,0,6.09,6.09,0,0,0,2.24-.32c-.16-.25.1-.59.24-.94s.19-.68-.09-.83c.26-.18.6-.55.47-.67a3.09,3.09,0,0,1-.78-1.38c0-.18.2-.45.11-.53s-.36.22-.51.11a1.67,1.67,0,0,1-.86,1.11,1.29,1.29,0,0,1-1.42-.18.82.82,0,0,1-.5-.41,1.47,1.47,0,0,1-.16-1.12,1.57,1.57,0,0,1,.75-1,1.4,1.4,0,0,1,.86-.18h.07a7.89,7.89,0,0,1,1.26.34,2.45,2.45,0,0,1,.72.22l.09-.41c.13.22.23.45.36.51.4.45.61.12.87-.31.08-.27.45-.08.46-.49a3.79,3.79,0,0,1,.21.65c.2,0-.36-.76-.05-.69.06.27.25.53.31.81.21-.16-.24-1-.05-1,.15.13,0,.89.29.87.06,0,0-.3-.07-.45a5.05,5.05,0,0,0,.48.92c.13.14.27,0,.32-.47.07.34,0,.82,0,1.17h0a4.8,4.8,0,0,0,0-.65,6.08,6.08,0,0,1,0,.61l.11-.11a1.94,1.94,0,0,0,0-.48,3,3,0,0,1,0,.42,2.36,2.36,0,0,0,.23-.39,3.38,3.38,0,0,0,.14-1.41A6.2,6.2,0,0,0,223.84,93.54Z"/><path class="cls-2" d="M255.88,123.91c0,.1.14.21-.11.24a7.73,7.73,0,0,0-2.2,0v.18a5.42,5.42,0,0,0-4.48,2.85c.07,0,.12,0,.07.14a13.59,13.59,0,0,0-.91,1.61c0,.1-.05.2-.07.3a.16.16,0,0,0,.08.14c-.11.29-.18.56-.26.8a7.19,7.19,0,0,0,1.13,4.74,6.74,6.74,0,0,0,3.83,2.78,9.35,9.35,0,0,0,2,.07,7.26,7.26,0,0,0,2.89-.43c-.17-.25.19-.63.42-1s.36-.8,0-.91c.37-.27.84-.79.71-.92a2.74,2.74,0,0,1-.56-1.82c0-.31.26-.79.17-.92s-.37.4-.51.21a3,3,0,0,1-1.72,2.28,2.65,2.65,0,0,1-2.85-.42,2,2,0,0,1-.85-.88,2.89,2.89,0,0,1,1.18-3.86,2.64,2.64,0,0,1,1.56-.35h.12a5.6,5.6,0,0,1,2.17.74,4.59,4.59,0,0,1,.95.54v-.55a4.16,4.16,0,0,0,.51.79c.27.35.4.43.54.33A1.85,1.85,0,0,0,260,130c.05-.34.46-.06.42-.58a5.12,5.12,0,0,1,.29.86c.21,0-.46-1-.13-.89.1.35.32.69.4,1.07.22-.2-.33-1.28-.14-1.3.17.17.11,1.11.38,1.12.05,0,0-.39-.11-.58a10.81,10.81,0,0,0,.54,1.2c.14.17.28,0,.3-.58a11.85,11.85,0,0,1,.08,1.47h0c0-.22,0-.62,0-.82a6.45,6.45,0,0,1,0,.76l.11-.13a3,3,0,0,0,0-.6c0,.17,0,.35,0,.52a2.94,2.94,0,0,0,.23-.47,4.66,4.66,0,0,0,.07-1.71,7.58,7.58,0,0,0-6.69-5.4Z"/><path class="cls-2" d="M250.3,50.25s.07.09-.05.1a3.83,3.83,0,0,0-1.12,0v.07a2.93,2.93,0,0,0-2.27,1.46s.05,0,0,.07a5.33,5.33,0,0,0-.46.82l0,.15s0,.06,0,.07-.09.29-.13.41a3.62,3.62,0,0,0,2.49,4,4.67,4.67,0,0,0,1,.09,3.89,3.89,0,0,0,1.55-.25c-.08-.09.13-.27.28-.47s.24-.39.09-.42c.21-.16.48-.46.43-.52s-.15-.44-.09-1a1.8,1.8,0,0,0,.1-.61c0-.12-.15.27-.2.15A2.08,2.08,0,0,1,250.75,56a2,2,0,0,1-2-.32,1.6,1.6,0,0,1-.54-.64,2,2,0,0,1-.13-1.43,2.07,2.07,0,0,1,.95-1.19,1.93,1.93,0,0,1,1.05-.25h.08a2.84,2.84,0,0,1,1.42.56,2.46,2.46,0,0,1,.53.4l-.06-.3c.13.2.23.41.3.48.25.46.29.17.35-.11s.2,0,.15-.28a2.6,2.6,0,0,1,.16.47c.09,0-.24-.56-.09-.48s.16.38.21.59c.09-.1-.19-.69-.12-.69s.1.59.21.6a.69.69,0,0,0-.07-.31c.24.61.34,1,.37.35a6.49,6.49,0,0,1,.05.77h0a3.08,3.08,0,0,0,0-.43,2.68,2.68,0,0,1,0,.4l.05-.07c0-.1,0-.2,0-.31,0,.09,0,.18,0,.27l.09-.24a2.41,2.41,0,0,0,0-.87A3.89,3.89,0,0,0,250.3,50.25Z"/><path class="cls-5" d="M178.92,194.71V244.3c0,5.67,19.91,10.27,44.48,10.27s44.47-4.6,44.47-10.27V194.71Z"/><path class="cls-2" d="M193.73,254.56c.05-.09-.87-.38.6-.13a127.55,127.55,0,0,0,13,1.92l.35-.14c3.58.38,7.32.67,11.15.84a179.4,179.4,0,0,0,21-.78c-.18,0-.27-.09.42-.17,2.89-.31,6.9-.71,11-1.45l1.82-.38a1.81,1.81,0,0,0,.64-.26c1.87-.39,3.53-.79,5.07-1.21a31.39,31.39,0,0,0,7.36-3.15l.9-.63c.3-.25.6-.48.9-.77a6.55,6.55,0,0,0,1.56-2.24c.08-.25.17-.51.23-.78s.07-.55.09-.82c0-.43,0-.66,0-1l0-1.88q-.13-7.51-.26-15.18c-.18-10.61-.36-21.48-.55-32.78l-1.68,0-7.65.21-6.9.16c-6.71.06-15.27-.05-21.81-.06,1,.57-14.95.85-11.76,1.44-4.36,0-10.91,0-11.25.13-1,.49-4.37,1.05-16,1.35-4.53.07-11.49-.14-13.09,0-2.51.16,5.88.34,3.36.5,14.43.08,28.63.08,42.82.06l40.22-.08c0,3.92,0,7.9,0,11.9.07,2.89.12,9.92.17,19.16,0,4.61,0,9.78.06,15.26a4.79,4.79,0,0,1,0,.73s0,0,0,.07,0,.06,0,.11a3,3,0,0,1-.79.86,13.69,13.69,0,0,1-3.15,1.76,47.66,47.66,0,0,1-7.91,2.4,122.49,122.49,0,0,1-17,2.35c-5.65.41-11.16.52-16.25.45a148.39,148.39,0,0,1-23.44-2.07l-1.74-.32a64.92,64.92,0,0,1-7.95-2,26.85,26.85,0,0,1-3.7-1.56,10.38,10.38,0,0,1-1.49-1,2.74,2.74,0,0,1-.81-.88.46.46,0,0,1-.06-.18s0,0,0,0v-1c0-.72,0-1.44,0-2.15,0-1.42,0-2.81,0-4.17,0-2.7-.09-5.26-.14-7.58-.15-4.22-.3-8.53-.46-12.83-.1,2-.2,3.84-.28,5.45,0-4.37,0-8.73-.08-10.41-.24-9.29-.53-4-.93-.45-.17,2.57-.43-.91-.61,3.12,0-2.9,0-4.36,0-7.27-.16-.34.09,8.95-.18,6.93.06-2.79,0-5.93,0-8.83-.22,1-.08,10.07-.3,9.62-.05-1.57.3-8.17,0-8.73-.06-.11-.07,2.8-.07,4.25-.08-9-.34-13.88-.64-5.71,0-2.84.12-6.85.09-9.85v0c0,1.49,0,4.08-.07,5.46,0-1.7,0-3.41,0-5.11,0,.28-.08.58-.12.89,0,1.27-.06,2.55-.06,3.88,0-1.13,0-2.26,0-3.39-.09.84-.18,1.82-.26,2.88-.17,4-.43,7.89-.43,10.07q-.09,13.22-.17,26.44l0,6.62v1.65a5,5,0,0,0,0,.67,3.44,3.44,0,0,0,.14.79c.08.26.16.51.25.76s.22.42.34.63a7.5,7.5,0,0,0,.76,1.07c.27.27.55.57.83.81a13.77,13.77,0,0,0,1.67,1.21,30.1,30.1,0,0,0,6.65,2.84A67.22,67.22,0,0,0,193.73,254.56Z"/><polyline class="cls-1" points="177.21 211.13 188.94 211.13 188.94 207.62 179.86 207.62 176.79 207.61"/><path class="cls-2" d="M183.76,213.7c0-.1-.09-.21.05-.25.44-.1.8.24,1.25.14l0-.16,1.07.24,1.79,0,1.92-.07c-.08-.06-.13-.11,0-.13a9.3,9.3,0,0,1,1.39,0c0-.38,0-.77,0-1.15l0-.64a.44.44,0,0,0-.13-.27c0-.51,0-1.51,0-.88l0,.26c0,.07,0,.25,0,0a5.13,5.13,0,0,0,.14-1,4.62,4.62,0,0,0-.1-1.05,3.59,3.59,0,0,0-.12-.47L191,208s0-.09,0-.08V208l-.05.47v0l0-.24,0-.48c0-.62-.07-1.24-.11-1.87l-3.08.32c-.47.06-1,.11-1.4.17l-.95.17a9.1,9.1,0,0,1-1.35.37,18.7,18.7,0,0,1-2.12-.07c.1.58-1.45.86-1.14,1.45-.42,0-1.05,0-1.09.13-.1.49-.42,1.05-1.55,1.34-.44.07-1.11-.14-1.27,0s.57.34.33.5c1.63.09,3.24.09,4.84.06l4.4-.08c0-.07.09-.13.24-.18q0-.61,0-1.29V209c0,.28,0,.56,0,.85,0,.45-.08.13-.13.08a1,1,0,0,1-.12-.36,1.07,1.07,0,0,1,.2-.75l0-.06,0,0v1.45c0-.42,0-.84,0-1.27l-.2,0H186c-.87,0-1.6,0-2,0h-.17a13.52,13.52,0,0,0-3.24.23c-.41.13-.83.3-1.24.46.19.09.37.19.53.28a2.54,2.54,0,0,0-1,.08c-.9.25-.39.54,0,.93.25.17-.08.43.31.61l-.71,0c0,.16.87-.08.67.18a4.87,4.87,0,0,0-.85,0c.1.22,1,.09.93.3-.15.05-.79-.29-.85,0,0,.05.28.06.42.06-.87.09-1.35.35-.56.64a7.3,7.3,0,0,0-.95-.08h0c.15,0,.4.07.53.07h-.49l.08.11a1.59,1.59,0,0,0,.38.06h-.33a1.76,1.76,0,0,0,.28.26,5.18,5.18,0,0,0,1,.44C180.34,213.59,182.05,213.68,183.76,213.7Z"/><path class="cls-1" d="M177.21,207.62h11.73s-7.17-1.18-8.19-3.5H175"/><path class="cls-2" d="M183.58,210.19c0-.1-.09-.2,0-.25.43-.1.78.24,1.21.15l0-.17,1,.24c.66,0,1.31-.06,2-.12,0-.06,0-.11,0-.13a5.29,5.29,0,0,1,1,0h0l.38-4.6h-.14a.42.42,0,0,0-.08.12,4.21,4.21,0,0,1-.42-.12,24.1,24.1,0,0,1-5.55-.62,3.35,3.35,0,0,1-1.15-.29.57.57,0,0,0-.13-.07,3.33,3.33,0,0,1-.69-.66,1.22,1.22,0,0,0-.15-.17l-.23-.08-.46-.14H180c-.06.57-1.51.86-1.22,1.44-.41,0-1,0-1.06.13-.09.49-.41,1-1.5,1.35-.43.07-1.08-.14-1.24,0s.56.35.32.5c.82,0,1.63.07,2.43.07h1.79v0h0A7.63,7.63,0,0,0,181.4,208c.57.28,1.12.51,1.66.72.33,0,1.11.28,2.09.5s2.14.47,3.42.68l.37-4.5c-2.11,0-4.24,0-5.14,0h-.17a12.78,12.78,0,0,0-3.15.23c-.4.14-.81.3-1.21.46a5.8,5.8,0,0,1,.51.29,2.29,2.29,0,0,0-1,.07c-.87.25-.38.54,0,.93.24.17-.09.44.29.61l-.68,0c0,.17.84-.08.65.19a3.86,3.86,0,0,0-.83,0c.09.23.95.09.91.31-.15.05-.77-.3-.83,0,0,.06.27.06.4.07-.84.08-1.3.34-.53.64a5.75,5.75,0,0,0-.93-.09h0c.14,0,.38.06.52.06h-.49l.09.11a1.53,1.53,0,0,0,.36.07h-.32a2.26,2.26,0,0,0,.28.25,4.51,4.51,0,0,0,.94.44C180.25,210.08,181.92,210.17,183.58,210.19Z"/><ellipse class="cls-2" cx="223.4" cy="194.71" rx="44.47" ry="10.27"/><path class="cls-2" d="M225.5,181.89c0,.1.61.21-.38.25-3.1.07-5.6-.24-8.71,0l-.22.18c-2.41,0-4.92.07-7.48.19a125,125,0,0,0-14,1.94c.14,0,.2.07-.25.19-1.93.41-4.61.94-7.37,1.77l-1.21.42a.93.93,0,0,0-.4.27,33,33,0,0,0-3.38,1.37,15.85,15.85,0,0,0-2.47,1.56,7.67,7.67,0,0,0-2.27,2.7,7.07,7.07,0,0,0-.35,1.07,6.08,6.08,0,0,0-.08,1.13,4.71,4.71,0,0,0,.64,2.1,7.72,7.72,0,0,0,2.38,2.44,21.56,21.56,0,0,0,5.11,2.42c1.72.58,3.45,1,5.19,1.44a123.38,123.38,0,0,0,21.67,2.47c3.17.05,6.34,0,9.38,0,4.51,0,10.26,0,14.65-.34-.35-.27,2.14-.64,4.43-1.08s4.37-.92,3.28-1.08A47.29,47.29,0,0,0,251,202a7.15,7.15,0,0,1,2.45-1.25c1.48-.59,3.88-1.28,7.25-2.68a20.64,20.64,0,0,0,4-2,3.3,3.3,0,0,0,1-1c.1-.12.07-.18.11-.24a.41.41,0,0,1,0-.1c0-.42-.08-.38-.12-.12s-.07.11-.08.16-.07.05-.09.09c-.18.22-.74.63-.45.22a9.12,9.12,0,0,1-2.63,1.73,29.38,29.38,0,0,1-3.59,1.38,65.62,65.62,0,0,1-7.79,1.91A140.56,140.56,0,0,1,234.86,202a176,176,0,0,1-33-.87,80.88,80.88,0,0,1-12.26-2.21,36.58,36.58,0,0,1-4.36-1.46,17.4,17.4,0,0,1-2.08-1,6.46,6.46,0,0,1-1.6-1.19c-.09-.1-.14-.18-.22-.27s-.09-.14-.11-.19a.36.36,0,0,1,0-.15,2.14,2.14,0,0,1,.75-.93,10,10,0,0,1,2-1.26,21,21,0,0,1,2.45-1.06,63.5,63.5,0,0,1,10.94-2.76c3.71-.63,7.36-1,10.74-1.35,6.77-.57,12.48-.62,15.79-.58h1.2c7.22.06,16,.64,22,1.36,2.78.27,5.6.62,8.36,1.14-1.25-.41-2.42-.75-3.43-1,2.83.55,5.58,1.32,6.65,1.55,2.91.81,3.52,1,3.23.72a17.27,17.27,0,0,0-2.67-1.51c-1.59-.66.72-.26-1.83-1.17a41.33,41.33,0,0,1,4.64,1.54,12.51,12.51,0,0,0-2.59-1c-1.3-.41-2.49-.72-1.79-.67a46.7,46.7,0,0,1,5.65,2,16.14,16.14,0,0,0-3.35-1.45,16.13,16.13,0,0,1-2.73-1,29.67,29.67,0,0,1,3.06,1,14.3,14.3,0,0,0,2.58.9,18.33,18.33,0,0,0-2.71-1.08,40,40,0,0,1,3.76,1.38c1,.46,1.79.85,2.22,1.1s.55.24.26-.05a11.06,11.06,0,0,0-2.31-1.57,14.8,14.8,0,0,1,3,1.94,7.51,7.51,0,0,1,1.44,1.61,4.7,4.7,0,0,1,.71,2.26v0a4.59,4.59,0,0,0-.88-2.55,7.58,7.58,0,0,0-1.55-1.59,7.76,7.76,0,0,1,1.5,1.48,4.34,4.34,0,0,1,.95,2.28v-.46q0-.22-.09-.48a6.08,6.08,0,0,0-2-2.77,6.49,6.49,0,0,1,1.9,2.29,6.45,6.45,0,0,0-1.43-2.22,16.87,16.87,0,0,0-3.6-2.54,21.17,21.17,0,0,0-2.85-1.3A86.27,86.27,0,0,0,243.41,183,165.8,165.8,0,0,0,225.5,181.89Z"/><path class="cls-5" d="M95.67,96.49c11.59,18.25,33.6,62.34,34.7,63.05a17.17,17.17,0,0,0,5.45,2.34,15.81,15.81,0,0,1,8.12,4.83c1.63,1.75,2.49,3.94,3.51,6,.24,1.27.54,2.53.7,3.81a5.38,5.38,0,0,0,1.68,3.36,24.25,24.25,0,0,1,5,6.71,14.72,14.72,0,0,0,8.64,7.83c4.3,1.56,8.43,3.6,12.66,5.38a10,10,0,0,1,3.9,2.46,11.77,11.77,0,0,1,.87,3.55L179.53,209a2.7,2.7,0,0,0-1.36,1.11s-.09-.06-.12-.05c-3.54,1.08-6.35-1-9.35-2.19s-6.14-2.58-9.22-3.88a15.56,15.56,0,0,0-4.94-1c-1.34-.11-4.27,5.21-3.15,12.9.21,1.46,22.33,16,23.18,19.31s-4,2-4,2-27.14-15.17-30.94-17.13a11.69,11.69,0,0,1-5.76-6.47,102.06,102.06,0,0,0-9.51-19c-2.39-3.59-5.72-6.18-9.11-8.72-2.56-1.93-13.57-26.78-33.4-47.91C54.91,109.28,47,87.81,50.09,83.74"/><path class="cls-2" d="M147.67,181.38c.06,0-.21-.39-.24-.5s0,0,.2.14.54.55.87.86a21.92,21.92,0,0,1,2.92,3.48,17.87,17.87,0,0,1,1.06,1.82l.51,1.06c.19.39.41.78.63,1.16a16.21,16.21,0,0,0,8.43,7.17l.59.05c2.42.92,4.85,2,7.36,3.18l3.84,1.76a24,24,0,0,1,3.4,1.67,5.34,5.34,0,0,1,.57.44l.05.05.09.24.12.41a7.68,7.68,0,0,1,.19.83l.05.28s.05-.11-.15.37l-.77,1.8h0l0,0h0l-.23.05a3.43,3.43,0,0,1-.83.14,5.45,5.45,0,0,1-1.81-.24c-1.35-.39-2.87-1.24-4.76-2l-4.92-2-2.45-1-1.23-.51-.61-.25-.75-.29c.29.18.42.24-.77-.11a17.26,17.26,0,0,0-1.85-.41l-.95-.14-.56-.06-.85-.08a3.39,3.39,0,0,0-.64,0H154c0,.1-.1,0-.15.07l-.33,0a6.54,6.54,0,0,0-.59.3l-.54.4a8.56,8.56,0,0,0-.94,1,9.75,9.75,0,0,0-.61,1,15.74,15.74,0,0,0-1.33,3.55,23.25,23.25,0,0,0-.55,7.6l.11.86a2.46,2.46,0,0,0,.33,1.21,2.86,2.86,0,0,0,.67,1c.15.15.29.31.44.45l.33.29a3.3,3.3,0,0,0,.91.6c2.27,1.84,4.26,3.3,6.11,4.71,3.08,2.24,6.16,4.46,9.15,6.77.74.58,1.48,1.16,2.2,1.75l1.52,1.28a2.3,2.3,0,0,1,.47.51.4.4,0,0,1-.19.59,1.53,1.53,0,0,1-.71,0c-.11,0-.22-.11-.34-.16l-.88-.47-5.13-2.77-10.34-5.57-10.47-5.64-2.63-1.42a12.11,12.11,0,0,1-2.25-1.42,10.8,10.8,0,0,1-3.06-4.31c-1.55-3.75-3.2-7.53-5.13-11.23q-1.44-2.78-3.1-5.47c-.56-.89-1.13-1.77-1.74-2.66a25.45,25.45,0,0,0-2.07-2.56,35.69,35.69,0,0,0-4.06-3.65c-.71-.56-1.43-1.09-2.14-1.62l-1.08-.78a5.8,5.8,0,0,1-.69-.79c-1-1.32-1.87-2.86-2.77-4.33l-2.64-4.44c-2.57-4.36-5.53-9.32-8.67-14.13S94.61,152,91.56,148.1c.13.39-.73-.49-2-2l-2.31-2.51c-.85-.92-1.74-1.91-2.67-2.83-1.83-1.88-3.6-3.65-4.75-4.71s-1.63-1.44-.94-.44c-2.21-2.44-4.92-5.55-7.07-8.13s-3.79-4.62-4-4.77a26.43,26.43,0,0,1-4.26-4.41c-1.17-1.42-2.63-3.25-4.36-5.69a101,101,0,0,1-5.93-9.38,59.86,59.86,0,0,1-4.72-10.94,24.09,24.09,0,0,1-1.05-5.47,9.51,9.51,0,0,1,.18-2.41A5.81,5.81,0,0,1,48,83.37a6.93,6.93,0,0,1,.49-.88c.54-.78.46-.74.07-.29l-.16.19c-.07.09-.2.28-.3.43a4.69,4.69,0,0,0-.51,1.09A7.18,7.18,0,0,0,47.26,85c0,.35-.09.73-.11,1.08a20,20,0,0,0,.21,3.29c.1.64.07.75-.17-.28a42.32,42.32,0,0,0,3.22,9.58,90.28,90.28,0,0,0,4.5,8.63,152.53,152.53,0,0,0,10.8,15.82c3.87,5,8,9.84,12.25,14.49,2.17,2.34,4.21,4.55,6.23,6.88,1,1.18,2,2.33,3,3.53L90,151.67c3.74,4.88,7.24,10,10.56,15.19s6.4,10.6,9.6,16.08c.39.68.82,1.38,1.26,2.08.2.34.45.71.72,1.09l.39.56.1.14.17.2.37.39a6.76,6.76,0,0,0,1.14,1l.92.7c.61.47,1.2.94,1.78,1.42a32.78,32.78,0,0,1,3.21,3,18.81,18.81,0,0,1,1.36,1.62c.22.28.41.57.61.85l.62,1a98.49,98.49,0,0,1,8.27,16.64c.12.29.25.61.4,1s.36.85.59,1.31a14.53,14.53,0,0,0,2,3.06,13.84,13.84,0,0,0,3.48,2.91l4,2.18,20,11,5.89,3.24,1.15.64.72.4a7.38,7.38,0,0,0,.73.29,9.56,9.56,0,0,0,2.82.28,5.11,5.11,0,0,0,2.42-.69,3.44,3.44,0,0,0,1.53-1.94,4.3,4.3,0,0,0,0-2.41,5.88,5.88,0,0,0-.54-1.19,6.08,6.08,0,0,0-.91-1.23,16.68,16.68,0,0,0-1.18-1.21l-.62-.59-.43-.38c-.48-.42-1-.84-1.46-1.24-2-1.62-4-3.15-6-4.68l-6.14-4.57-3.07-2.3L155,216.18l-.71-.58c-.21-.17-.49-.42-.6-.52a.34.34,0,0,1-.08-.09.13.13,0,0,1,0-.06l0-.15c-.09-.58-.09-1.17-.13-1.75a19.81,19.81,0,0,1,.22-3.45,12.92,12.92,0,0,1,.88-3.19c.58-1.2.49-1,.71-1.07-.11,0,.62.06,1,.14a10.71,10.71,0,0,1,1.35.29l.63.2.65.27,1.52.63,6,2.52,1.48.62c.44.18.87.36,1.34.58.92.41,1.91.91,3,1.32a11.06,11.06,0,0,0,3.79.75,9.87,9.87,0,0,0,2-.23l.49-.13.12,0s0-.07,0,.08h0l.06,0,.26-.09a2.1,2.1,0,0,0,1-1l.75-.66c.27-.24.47-.4.75-.67l.75-1.76.34-.8.31-.72.15-.37c0-.12,0-.26,0-.38l-.08-.78-.05-.37,0-.25c-.05-.33-.12-.66-.2-1s-.17-.64-.28-1l-.16-.49-.29-.71a1.8,1.8,0,0,0-.44-.62c-.17-.18-.36-.38-.53-.53a8.92,8.92,0,0,0-.84-.68,11.59,11.59,0,0,0-1.71-1c-.55-.27-1.09-.5-1.59-.71l-1.43-.62c-3.78-1.65-7.4-3.36-10.94-4.66a12.4,12.4,0,0,1-6.65-5,13.12,13.12,0,0,1-.93-1.61c-.16-.33-.33-.65-.48-1s-.36-.65-.54-.95a25.26,25.26,0,0,0-2.24-3.17c-.63-.76-1.3-1.48-2-2.17l-.48-.49a3.45,3.45,0,0,1-.31-.38,2.75,2.75,0,0,1-.4-.78c0-.15-.08-.3-.11-.46l-.11-.68-.3-1.64-.33-1.79c0-.12,0-.25-.07-.37l-.15-.3-.24-.5-.34-.74a29.92,29.92,0,0,0-1.64-3.15,14.87,14.87,0,0,0-2.45-3,18.18,18.18,0,0,0-2.95-2.34,17,17,0,0,0-3.41-1.71c-.6-.21-1.21-.4-1.82-.55l-.77-.19c-.23-.06-.46-.12-.68-.2a14.32,14.32,0,0,1-2.61-1.11l-.59-.34a.19.19,0,0,1-.1-.08l0-.07-.18-.3-.38-.66c-1-1.8-2-3.66-3-5.44l-5.45-10c-3.09-5.59-6.27-11.26-9.48-16.88,1.33,2.69,2.55,5.2,3.62,7.37-3.07-5.82-6.19-11.62-7.5-13.79-7-12.18-3.39-5.08-1.14-.16,1.7,3.49-1-1,1.71,4.43l-5.24-9.63c-.36-.37,6.55,11.8,4.86,9.26-2-3.74-4.31-7.83-6.44-11.65.58,1.41,7.24,13.33,6.71,12.85-1.15-2.07-5.63-11-6.3-11.54-.12-.13,2,3.71,3,5.63-3.27-5.89-5.94-10.39-7-12.06s-.59-.56,2.31,4.85c-2.08-3.72-5-9-7.44-12.76l0,0c1.2,1.89,3.14,5.24,4.17,7-1.28-2.21-2.59-4.41-3.94-6.56.19.36.4.77.61,1.19l2.93,5c-.85-1.46-1.71-2.92-2.6-4.36.6,1.13,1.27,2.42,2,3.83,2.91,5.3,5.49,10.51,7.06,13.38,6.32,11.63,12.41,23.43,18.59,35.22l2.35,4.43,1.21,2.22.64,1.13.18.3.09.15.17.23.35.47c.11.16.3.26.39.46l.49.36a4.19,4.19,0,0,0,.43.27l.61.36c.41.23.84.44,1.27.65a18.84,18.84,0,0,0,2.69,1l.69.19.6.15a8.83,8.83,0,0,1,1,.3,12.18,12.18,0,0,1,1.89.83,13.84,13.84,0,0,1,3.34,2.55l.37.39c.11.12.21.23.31.36s.39.51.58.79a16.71,16.71,0,0,1,1.05,1.9l.95,2v0h0l0,.13.1.59.22,1.17.21,1.17.06.3.06.43c.05.29.13.59.21.88A7.84,7.84,0,0,0,147.67,181.38Z"/><path class="cls-2" d="M104,204.85v3.52h0a.64.64,0,0,0,.37.47l3.29,1.4a11.06,11.06,0,0,0,3.88.87l.06,0H172.4l-3.7-3.22-57.12-.29h0"/><path class="cls-2" d="M132,213.7c0-.1-.43-.21.26-.25,2.19-.1,3.94.24,6.13.14l.16-.16,5.25.24,9.89-.12c-.09-.06-.13-.11.2-.13,1.36,0,3.26,0,5.21,0l.87,0a.51.51,0,0,0,.31-.13l2.41,0,9.74-.33,5.06-.17-3.84-3.11-1.82-1.47-1-.78-1.5-1.25-16,.49c-2.24.14-4.47.28-6.63.33-3.2.05-7.27-.08-10.39-.11.48.58-7.12.82-5.61,1.41a40.48,40.48,0,0,0-5.35.11c-.49.48-2.09,1-7.6,1.31-2.15.05-5.45-.17-6.23-.07l-1.8.21-.25-2.28h0c0-.34-.09-.26-.14,0l-.31,1.73,2.5.48c.66.12,2.45.26,1.59.37,16,.25,31.49.12,47.64.21.62,0,1.64,0,3-.07l2.24,0,1.28,0h.5l0,0s0,0,.17.13l.92.79,1.93,1.65,1.54-4.1c-13.37.11-32.79.14-39.31.06h-.87c-5.19,0-11.5,0-15.9.23l-4.74.35.58.1-.06,0-.39-.1h-.12a10.46,10.46,0,0,1-1.12,0c.4.11.79.19,1.11.25l.42.08h0l.06,0-.49-.09,1.22.13h-1.22l.45.07-.06,0-.19-.07h-.21a14.21,14.21,0,0,1-3.18-.57c-4.1-1.47-2-.25-.53.79.52.3.39.35.33.45s0,.25.88.6a24,24,0,0,1-3.26-1.29,8.17,8.17,0,0,0,1.78.82c.92.38,1.8.57,1.28.58-.66-.2-1.36-.49-2-.75l-1-.4-1.07-.44a18.35,18.35,0,0,0,2.38,1.18,18.88,18.88,0,0,1,2,.83,9.23,9.23,0,0,1-2.22-.87,5.25,5.25,0,0,0-1.79-.69,18.72,18.72,0,0,0,1.85.86l-2.85-1.12a1.94,1.94,0,0,1-1-.77l-.06-.12v0h0c-.24.13-.07,0-.12.06h0v-.08a2.32,2.32,0,0,1,0-.24c0-.14,0-.27,0-.39-.06-.43-.12-.52-.19-.11,0,.2-.07.53-.11,1h0c.08,0-.15.09.16-.08h0v.06l0,.08s0,.11.07.17a2.19,2.19,0,0,0,.23.33,3.25,3.25,0,0,0,.76.56,2.16,2.16,0,0,1-1.15-1.08l0,0v0h0l-.17.09h0v-.83c0-.32,0-.64,0-1l0-1.38c0-.4,0-.78,0-1.14h0c0,.36,0,.84,0,1.32,0,.24,0,.48,0,.7s0,.62,0,.87c0-.91,0-1.82,0-2.72,0,.13-.07.28-.11.42l0,.92c0,.31,0,.55,0,1.15v-1.84c0,.21-.08.43-.13.65l-.06.36a3.89,3.89,0,0,0-.06.44l-.07,1.26,0,.63,0,.32v.12h0l.23-.12h0v0l.06.13a2.9,2.9,0,0,0,1.58,1.48l.92.46.48.26c.31.17.59.3.83.41a16.57,16.57,0,0,0,2.54,1,13.57,13.57,0,0,0,2.82.44l-.72-.14.07,0,.36.14h.45C118.38,213.62,125.19,213.68,132,213.7Z"/><path class="cls-2" d="M164.18,204.12H104.6a.63.63,0,0,0-.25,1.21l3.29,1.4a10.94,10.94,0,0,0,4.34.89h58"/><path class="cls-2" d="M133.75,201.55c0,.1.4.2-.25.25-2.07.1-3.73-.24-5.8-.15l-.14.17-5-.24-9.35.12c.08.06.12.11-.19.13-1.29,0-3.08,0-4.93,0l-.82,0c-.21,0-.27.09-.3.13l-2.27,0h-.26l-.22,0a2.89,2.89,0,0,0-.91.28,2.82,2.82,0,0,0-1.3,1.39,2.87,2.87,0,0,0-.15,1.79A2.79,2.79,0,0,0,103,207a2.57,2.57,0,0,0,.38.23l.18.08,0,0,.2.08.4.15.8.31,1.6.62a14.31,14.31,0,0,0,1.88.61,12.45,12.45,0,0,0,2,.33c.34,0,.67.05,1,.05H112l.44,0,3.5-.14,14.51-.55c2.11-.15,4.23-.3,6.27-.37,3-.06,6.88,0,9.82.06-.45-.57,6.73-.86,5.3-1.44a36.68,36.68,0,0,0,5.06-.13c.46-.49,2-1.05,7.18-1.35,2-.07,5.18.14,5.9,0,1.13-.16-2.65-.35-1.51-.5-15.17-.18-29.78,0-45,0-1.3.06-4.47.12-8.62.16l-3.19,0a8.79,8.79,0,0,1-2.76-.55l-3.42-1.43-.11,0h0l-.62,1.43,0,0c0,.05-.05.06-.05.07s.06,0,.07,0,0,0-.06,0,0,0,0,0v.12c0,3,0,.84,0,1.53h2c10.54,0,21.56,0,26.06,0h.82c4.91,0,10.88,0,15-.23l5.77-.46-2.45-.28c2,0,3.93,0,4.69-.08,4.18-.25,1.81-.54.2-.93-1.16-.17.41-.44-1.4-.61l3.27,0c.15-.16-4,.08-3.12-.19,1.26.07,2.67,0,4,0-.46-.23-4.54-.09-4.34-.31.71-.05,3.68.3,3.93,0a17,17,0,0,0-1.91-.07c4-.08,6.25-.34,2.57-.64,1.28,0,3.09.13,4.44.09h0l-2.46-.07H164l-.41-.11c-.57,0-1.14-.06-1.74-.07h1.53c-.38-.09-.82-.17-1.3-.25-1.82-.18-3.56-.43-4.54-.44C149.63,201.66,141.67,201.57,133.75,201.55Z"/><path class="cls-1" d="M235.05,221.92c8.61.36-.92-23.32,7-23.32,6.54,0,13.08,0,19.63-.1,9.68-.14,15.77-9.16,12.28-18.09-1.69-4.3-4.82-7.19-9.56-7.67-2.92-.3-4.1-1.8-4.93-4.43-4.67-14.86-21.88-20.06-34.14-10.35-2.07,1.63-3.78,2.48-6.76,1.89-10.33-2-19.61,6.58-18.78,17.13.2,2.64-.6,3.43-3.05,3.74-5.57.71-8.24,4.29-7.8,10.07.36,4.74,4,7.87,9.25,7.88,10.58,0,21.16,0,31.75-.06C235.6,198.65,226.44,221.56,235.05,221.92Z"/><path class="cls-2" d="M276.63,190.86s-.18.18-.24.21,0-.1.19-.88a16.32,16.32,0,0,0-1.68-13.5l-.34-.22a13.42,13.42,0,0,0-4.26-4.33,13.28,13.28,0,0,0-2.89-1.33,13.94,13.94,0,0,0-1.54-.4c-.26-.06-.51-.09-.77-.13l-.62-.1a3.17,3.17,0,0,1-1.26-.39,2.31,2.31,0,0,1-.75-.87,6,6,0,0,1-.35-.79l-.39-1-1-2.49a24.24,24.24,0,0,0-6.48-8.44c.11.16.14.26-.41-.19a24.61,24.61,0,0,0-10.12-4.79,12.85,12.85,0,0,0-1.85-.25,1.91,1.91,0,0,0-.69.05,21,21,0,0,0-2.71-.09,16,16,0,0,0-2.45.19,23.27,23.27,0,0,0-3.78.87c-.62.19-1.21.46-1.81.69a12.61,12.61,0,0,0-1.75.81l-1.69.94a17.19,17.19,0,0,0-1.59,1.09c-.5.36-1.09.77-1.5,1.11a12.21,12.21,0,0,1-1.23.87,4.42,4.42,0,0,1-2.42.7,9.18,9.18,0,0,1-1.48-.13l-2-.23a17.27,17.27,0,0,0-7.86,1.44,17.68,17.68,0,0,0-10,12c-.12.67-.3,1.32-.36,2s-.14,1.36-.13,2,0,1.41.08,2a5.14,5.14,0,0,1,0,.77,1.53,1.53,0,0,1-.07.51c-.24.7-.79.82-2.18,1.05a11.47,11.47,0,0,0-4,1.39,8.29,8.29,0,0,0-2.69,2.58,9.32,9.32,0,0,0-1.31,3.37,13,13,0,0,0-.15,3.45,10.25,10.25,0,0,0,.75,3.35,8.73,8.73,0,0,0,3.42,4.08,10.87,10.87,0,0,0,5.35,1.59c3.6.06,7.07,0,10.13.07-.94-.58,13.9-.89,10.94-1.46,4.06,0,10.15,0,10.47-.16a3.33,3.33,0,0,1,1.66-.21c.87.09,1.89.94,2.37,2.65a11.67,11.67,0,0,1,.37,2.23c.08.8.08,1.65.08,2.6,0,1.88-.2,4.11-.32,6.73a23.48,23.48,0,0,0,.2,6.37,2.29,2.29,0,0,0,.78,1.44,1.49,1.49,0,0,0,.39.17l.39,0c.59,0,.54-.06.18-.12a1.78,1.78,0,0,1-.73-.26c-.22-.19-.45-.82-.13-.46a4.32,4.32,0,0,1-.55-1.65,15,15,0,0,1-.16-2.49c0-1.77.18-3.66.36-5.57s.41-3.88.46-6c0-.54,0-1.08,0-1.67a8,8,0,0,0-.09-.91c0-.16,0-.29-.07-.5s-.11-.47-.17-.71a6.1,6.1,0,0,0-.54-1.32,4.52,4.52,0,0,0-.39-.58,2.56,2.56,0,0,0-.46-.52,3.62,3.62,0,0,0-1.16-.77,6.55,6.55,0,0,0-.67-.19,1,1,0,0,1-.33-.1l-.35,0a4.35,4.35,0,0,0-.72,0H224l-5.79,0-11.55,0-5.78,0c-.94,0-2,0-2.84,0a8.29,8.29,0,0,1-2.2-.31,5.63,5.63,0,0,1-3.26-2.21,5.74,5.74,0,0,1-.82-1.79l-.11-.51-.07-.53c0-.37-.05-.81-.05-1.2a6.94,6.94,0,0,1,1.09-4,5.64,5.64,0,0,1,3.4-2,11.86,11.86,0,0,1,1.18-.22l.92-.15a8.25,8.25,0,0,0,1.17-.35,4.68,4.68,0,0,0,2.24-1.72,5.38,5.38,0,0,0,.87-2.66c0-.4,0-.71,0-1l0-.46v-.34l0-1.25a13.79,13.79,0,0,1,.31-2.47,12.47,12.47,0,0,1,2.19-5.18,15,15,0,0,1,3-3.1,13.74,13.74,0,0,1,4.59-2.17,13.17,13.17,0,0,1,5.72-.2,9.85,9.85,0,0,0,4.71-.14,12,12,0,0,0,4-2.28,22.47,22.47,0,0,1,6.16-3.38,20.51,20.51,0,0,1,7.11-1,19.74,19.74,0,0,1,7,1.77,17.91,17.91,0,0,1,5.79,4.26,13.75,13.75,0,0,1,1.17,1.36l1,1.45c.33.49.56,1,.85,1.54l.41.77c.13.26.21.55.32.81.21.55.42,1.08.62,1.62a14,14,0,0,0,.83,2.08,7.4,7.4,0,0,0,1.54,2.1,6.69,6.69,0,0,0,2.3,1.41,9.51,9.51,0,0,0,2.26.49,12,12,0,0,1,1.4.25,8.24,8.24,0,0,1,2.42,1,9.4,9.4,0,0,1,3.22,3.65,14.54,14.54,0,0,1,1.32,4.18,12.7,12.7,0,0,1,.06,1.82c0,.28,0,.55,0,.81s-.09.51-.13.74a7.6,7.6,0,0,1-.33,1.35,10.47,10.47,0,0,1-3.74,5.2,11.7,11.7,0,0,1-6.37,2.21,9,9,0,0,1-.95,0h-1l-2,0-3.87.07-7,.16-3,.13-1.48.06-.79,0a6.85,6.85,0,0,0-1.15.18,4,4,0,0,0-1.14.51c-.18.11-.36.23-.52.35s-.29.29-.43.44a5.68,5.68,0,0,0-1.09,1.87,11.84,11.84,0,0,0-.54,3.43,12.31,12.31,0,0,1,.66-2.95,5.05,5.05,0,0,1,1.94-2.58,4.24,4.24,0,0,0-.83.75,7.52,7.52,0,0,0-.57.86,8,8,0,0,0-.61,1.7,16.36,16.36,0,0,0-.36,3,31.38,31.38,0,0,0,.14,4c.35,4.33.49,5.21.63,4.67s.2-2.61.31-4.29c.08-2.4.44.81.52-2.92,0,2.68.16,4,.26,6.75a31.16,31.16,0,0,0-.13-3.81c-.11-1.89-.1-3.56,0-2.63,0,2.58.33,5.48.35,8.22a38.61,38.61,0,0,0-.05-5,16.54,16.54,0,0,1,0-3.93,77.69,77.69,0,0,0,.28,8.09c.07.1,0-2.63-.11-4,.13,2.08.26,3.94.28,5.47a26.65,26.65,0,0,1-.12,3.39c-.06.67-.07.84.14.28a15.45,15.45,0,0,0,.53-3.77,16.6,16.6,0,0,1-.67,4.91,5.39,5.39,0,0,1-1.77,2.66,4.85,4.85,0,0,1-3,.9h0a5.47,5.47,0,0,0,1.65-.2,4.28,4.28,0,0,0,1.78-1,6.1,6.1,0,0,0,1.53-2.86A6.29,6.29,0,0,1,238.6,222a4.39,4.39,0,0,1-3.14,1.38l.55,0,.64-.09a4.3,4.3,0,0,0,1.27-.55,4.74,4.74,0,0,0,1-.93,6.48,6.48,0,0,0,1.12-2.16c-.11.31-.23.62-.35.93a8.23,8.23,0,0,1-.54.95,4.39,4.39,0,0,1-.79.89,5.85,5.85,0,0,1-.49.38,6,6,0,0,1-.56.3,4.84,4.84,0,0,0,2.28-1.93,5.38,5.38,0,0,0,.47-.88,12.44,12.44,0,0,0,.82-3.18c.13-1,.2-1.92.24-2.77.07-1.7.05-3.13,0-4.15-.09-2-.19-4-.1-5.9a11.52,11.52,0,0,1,.37-2.45l.08-.24.08-.17a1.12,1.12,0,0,1,.15-.26c0-.1.08,0,.08-.1s0,0,.06,0,0,0,.13,0l.11,0h19.64l.88-.06a16.62,16.62,0,0,0,3.56-.57,15.78,15.78,0,0,0,6.38-3.48A15.28,15.28,0,0,0,276.63,190.86Z"/><circle class="cls-1" cx="192.61" cy="242.36" r="4.68"/><line class="cls-6" x1="192.97" y1="251.65" x2="192.97" y2="244.03"/><path class="cls-2" d="M194,249.83s-.08,0-.1,0,.1-.23.06-.35h-.07c0-.09.07-.19.1-.3a5.54,5.54,0,0,0-.05-.56s0,0-.05,0a1,1,0,0,1,0-.29v-.05l0,0s0-.09,0-.13c-.12-.55-.28-1.1-.42-1.7a1.2,1.2,0,0,1-.15-.38,2.79,2.79,0,0,1,0-.58c-.23,0-.34-.41-.57-.32,0-.12,0-.29-.06-.3a.65.65,0,0,1-.54-.43c0-.13.06-.31,0-.36s-.14.16-.2.09c-.07.91,0,1.79,0,2.7a18.38,18.38,0,0,1,.1,3v0a2.42,2.42,0,0,0,.09.9c.05.11.12.23.18.34l.12-.14a.47.47,0,0,0,0,.28c.1.25.21.11.37,0s.17,0,.24-.08a1.28,1.28,0,0,1,0,.19c.07,0,0-.24.08-.19s0,.16,0,.24,0-.27.12-.26-.12.22,0,.24,0-.08,0-.12c0,.25.13.38.25.16,0,.07,0,.18,0,.26h0s0-.11,0-.14v.13l.05,0a.43.43,0,0,0,0-.11v.1l.1-.08a1.54,1.54,0,0,0,.18-.27C194,250.78,194,250.31,194,249.83Z"/><line class="cls-6" x1="192.8" y1="239.54" x2="192.8" y2="232.44"/><path class="cls-2" d="M193.83,237.85s-.08,0-.1,0,.09-.21.06-.32h-.07c0-.09.07-.18.1-.28s0-.34,0-.52c0,0-.05,0-.06,0a1.37,1.37,0,0,1,0-.27v0l-.06,0s0-.08,0-.12c-.13-.51-.28-1-.43-1.58a2,2,0,0,1-.15-.35,3.38,3.38,0,0,1,0-.55c-.23,0-.35-.37-.58-.29,0-.11,0-.28-.05-.29a.61.61,0,0,1-.54-.4c0-.11,0-.29,0-.33s-.14.15-.21.09c-.07.84,0,1.66,0,2.51a17,17,0,0,1,.1,2.75v0a2.52,2.52,0,0,0,.09.84l.19.32.11-.13c0,.11,0,.21,0,.26.1.23.22.1.37,0s.18,0,.25-.08v.18c.07,0,0-.22.07-.17s0,.15,0,.22,0-.25.12-.24-.12.2,0,.22,0-.07,0-.11c0,.23.14.35.26.14a1.18,1.18,0,0,0,0,.25h0s0-.1,0-.14v.13l0,0a.17.17,0,0,0,0-.1v.09l.11-.08c.07-.1.17-.19.17-.25C193.78,238.73,193.82,238.29,193.83,237.85Z"/><line class="cls-6" x1="202.67" y1="242.33" x2="195.05" y2="242.33"/><path class="cls-2" d="M200.85,241.3s0,.08,0,.1-.22-.1-.34-.06v.07l-.3-.1-.56.05s0,0,0,0a1,1,0,0,1-.3,0h0a.06.06,0,0,0,0,.05h-.14l-1.69.43a2.3,2.3,0,0,1-.38.15,3.89,3.89,0,0,1-.59,0c0,.23-.4.34-.31.58-.12,0-.3,0-.31,0a.63.63,0,0,1-.43.54c-.12,0-.31-.06-.35,0s.16.14.09.2c.91.07,1.78,0,2.7,0a18.3,18.3,0,0,1,2.94-.1h.05a2.62,2.62,0,0,0,.9-.1c.12,0,.23-.12.35-.18l-.15-.11c.12,0,.24,0,.28,0,.25-.1.11-.22,0-.38s0-.17-.09-.24h.2c0-.07-.24,0-.19-.08s.16,0,.24,0-.27,0-.26-.12.22.12.23,0-.07,0-.11,0c.24,0,.37-.14.15-.26.08,0,.19.05.27,0h0l-.15,0h.14l0,0a.17.17,0,0,0-.1,0h.09l-.08-.1c-.1-.07-.21-.17-.27-.17A13.55,13.55,0,0,0,200.85,241.3Z"/><line class="cls-6" x1="189.34" y1="242.33" x2="183.46" y2="242.33"/><path class="cls-2" d="M187.93,241.3s0,.08,0,.1-.17-.1-.27-.06v.07l-.23-.1-.43.05s0,0,0,0a.62.62,0,0,1-.23,0h0a.11.11,0,0,0,0,.05h-.11l-1.3.43a1.61,1.61,0,0,1-.29.15,2.37,2.37,0,0,1-.46,0c0,.23-.31.34-.24.58-.09,0-.23,0-.24,0a.64.64,0,0,1-.33.54c-.09,0-.24-.06-.27,0s.12.14.07.2a20.62,20.62,0,0,0,2.08,0,10.94,10.94,0,0,1,2.27-.1h0a1.63,1.63,0,0,0,.7-.1l.26-.18-.11-.11c.09,0,.18,0,.22,0s.08-.22,0-.38,0-.17-.07-.24h.15c0-.07-.18,0-.14-.08s.12,0,.18,0-.21,0-.2-.12.17.12.18,0,0,0-.09,0c.19,0,.29-.14.12-.26.06,0,.15.05.21,0h0l-.12,0h.11s0,0,0,0a.11.11,0,0,0-.08,0h.07l-.06-.1c-.08-.07-.16-.17-.21-.17A8,8,0,0,0,187.93,241.3Z"/></g></g></svg>