<svg xmlns="http://www.w3.org/2000/svg" viewBox="0 0 286.94 275"><defs><style>.cls-1{fill:#face6f;}.cls-1,.cls-4{fill-rule:evenodd;}.cls-2{fill:#fff;}.cls-3,.cls-4{fill:#202020;}.cls-5{fill:#fbdd94;}.cls-6{fill:#fdf4cb;}.cls-7{fill:#dde3e9;}</style></defs><g id="Layer_2" data-name="Layer 2"><g id="Layer_1-2" data-name="Layer 1"><path id="Background-Shape" class="cls-1" d="M276.15,251.12C299.44,202.56,131-18.06,63.88,1.19s-76.28,124.7-2.62,196.89S252.87,299.69,276.15,251.12Z"/><path class="cls-2" d="M53.89,85.6c1.55-4.1,4.91-6.18,8.93-7.41a6,6,0,0,0,2.71-1.58c4.74-4.78,10.75-5.78,17.06-2.87a3.81,3.81,0,0,0,2.75.24c9.78-2.41,18,2.67,20.17,12.44"/><path class="cls-3" d="M67.27,78.5c-.07-.07-.33,0-.07-.28a14.74,14.74,0,0,1,2-1.49l0-.17a6.69,6.69,0,0,1,.93-.46,8.13,8.13,0,0,1,1-.38,11.21,11.21,0,0,1,3.59-1.13c0-.06-.06-.11.06-.15a8.56,8.56,0,0,1,.93,0l1.12.09h.34a.21.21,0,0,0,.14-.11,5.13,5.13,0,0,1,1,.2,14.48,14.48,0,0,1,3,.65l.77.25a6,6,0,0,0,1.18.33,5.56,5.56,0,0,0,2.49-.15,18.06,18.06,0,0,1,6.65-1l1.49,0c.48.08,1,.17,1.44.27a12.88,12.88,0,0,1,4,2.26c.09-.29.84.06,1.57.42s1.34.8,1.31.34a24.89,24.89,0,0,0,1.68,2c.5,0,1.56.27,2.91,2.85a28.67,28.67,0,0,1,.9,3.11c.31.56,0-1.49.28-.93A17.76,17.76,0,0,0,88.7,70.9c-.36.07-1,.17-1.8.29l-2.5.56a1.15,1.15,0,0,1-.6,0,1.11,1.11,0,0,1-.22-.07l-.44-.18-.93-.38A20.37,20.37,0,0,0,78,70a16.05,16.05,0,0,0-8.67,1.23,19.25,19.25,0,0,0-5,3.42L64,75a3.92,3.92,0,0,1-1,.7,10.09,10.09,0,0,1-1.53.58,15.66,15.66,0,0,0-3.59,1.82A13.34,13.34,0,0,0,55.5,80.4a8.51,8.51,0,0,1,1.23-.67,7.05,7.05,0,0,0-1.84,1.82c-.65,1-.63,1.28-.43,1.24s.65-.37,1.06-.55.2.42.93-.11a9.26,9.26,0,0,0-1,1.21c0,.07.31-.34.59-.68s.56-.61.5-.36a7,7,0,0,0-1.14,1.49c.16,0,.45-.46.79-.82s.67-.67.7-.56c-.2.23-1.33,1.11-1.15,1.38,0,0,.37-.45.57-.67a4.2,4.2,0,0,0-.84,1.71c0,.3.16.18.7-.41a7.49,7.49,0,0,0-.93,1.67h0c.12-.27.36-.72.49-1-.16.29-.28.6-.42.91l.18-.12c.12-.23.24-.44.36-.65-.1.18-.19.38-.28.58l.46-.39c.48-.61,1.08-1,1.32-1.3a10.37,10.37,0,0,1,3.88-2.72,22.19,22.19,0,0,1,2.51-.88A8.76,8.76,0,0,0,67.27,78.5Z"/><path class="cls-3" d="M230,67.77s.11.08-.08.09a5.67,5.67,0,0,0-1.64.08l0,.08a5.84,5.84,0,0,0-1.36.4,5.6,5.6,0,0,0-2,1.77s.05,0,0,.08a6.62,6.62,0,0,0-.67,1.21l-.07.22a.11.11,0,0,0,0,.1c-.08.22-.13.42-.19.61a5.59,5.59,0,0,0,.7,3.67,5.35,5.35,0,0,0,2.92,2.38,5.89,5.89,0,0,0,1.59.21,5.51,5.51,0,0,0,2.42-.39c-.1-.09.26-.32.52-.6s.47-.56.27-.54c.35-.27.79-.78.74-.85s0-.57.21-1.57a4.24,4.24,0,0,0,.18-1.14c0-.22-.16.51-.22.28a3.89,3.89,0,0,1-2.34,3.2,3.75,3.75,0,0,1-3.94-.65,3.36,3.36,0,0,1-1-1.26,3.82,3.82,0,0,1,1.61-5,3.7,3.7,0,0,1,2-.49h.16a5.21,5.21,0,0,1,3.47,1.93l-.17-.49c.23.34.4.72.49.86.37.81.35.32.37-.1s.21,0,.09-.4a4.78,4.78,0,0,1,.27.75c.11,0-.37-.91-.2-.74a7.18,7.18,0,0,1,.33.92c.09-.14-.32-1.08-.24-1.06s.22.9.33.94a1.92,1.92,0,0,0-.12-.47c.19.47.28.87.35,1s.12.05.08-.44a7.49,7.49,0,0,1,.1,1.17h0c0-.18,0-.49,0-.65,0,.2,0,.4,0,.61l0-.11c0-.15,0-.31,0-.47,0,.13,0,.27,0,.41a2.78,2.78,0,0,0,.08-.36,4.5,4.5,0,0,0-.1-1.27A5.71,5.71,0,0,0,230,67.77Z"/><path class="cls-4" d="M21.07,212.84a43.12,43.12,0,1,1,86.24,0Z"/><path class="cls-3" d="M50.61,174.67c0-.11-.7,0,.3-.38.4-.16.78-.31,1.17-.44l1.16-.29,2.27-.5c.74-.18,1.52-.2,2.29-.32l2.42-.36.23-.17c1.32,0,2.66-.09,4-.06s2.75.2,4.13.36a40.47,40.47,0,0,1,14.61,4.36c-.09-.11-.12-.18.35,0,.93.52,2,1.19,3.19,1.91s2.31,1.73,3.51,2.66l1,.89a1.07,1.07,0,0,0,.45.24l1.44,1.33,1.19,1.34,1,1,.48.51.44.56L98,189.59c.57.76,1,1.59,1.56,2.38l.77,1.2.65,1.28a39.9,39.9,0,0,1,3.93,10.89c.17,1,.35,1.93.52,2.91s.17,2.22.22,2.37l.07.66c0,.08-.06.05-.1.06h-.16l-.32,0h-.34l-.5,0-1.57,0-12.83.28c-3.69.15-7.37.3-10.92.36-5.27.07-12,0-17.11-.06.79.58-11.71.86-9.22,1.44-3.42,0-8.55,0-8.81.14-.8.48-3.43,1.05-12.51,1.34-3.55.07-9-.13-10.26,0-2,.16,4.6.35,2.63.51,26.41.17,51.84,0,78.43,0l2.29,0,2.87,0h2.58c0-.28,0-.6,0-.91-.07-1.25-.14-2.58-.22-4,0-.44,0-.9-.08-1.36a10,10,0,0,0-.1-1.21c-.13-.82-.27-1.67-.41-2.56a18.47,18.47,0,0,0-.55-2.72l-.75-2.85c-.28-1-.69-1.92-1-2.92-.19-.49-.37-1-.56-1.49s-.47-1-.7-1.48c-.49-1-.94-2-1.5-3a46.67,46.67,0,0,0-8.71-11.06l-1.34-1.22a15.53,15.53,0,0,0-1.39-1.16l-2.91-2.17-3.09-1.87a12,12,0,0,0-1.58-.84l-1.61-.78a44.06,44.06,0,0,0-13-3.79l-1.56-.23-1.54-.08-3-.15-2.79.13a24,24,0,0,0-2.61.2l-2.38.36a15,15,0,0,0-2.15.39l-3.52.89c-.48.15-.94.34-1.41.51a42,42,0,0,0-12.55,6.72,41.13,41.13,0,0,0-9.09,9.53,40.52,40.52,0,0,0-2.67,4.51A22.34,22.34,0,0,0,24,193.1l-1,2.41c.78-1.43,1.52-2.73,2.16-3.85L24,194a19.65,19.65,0,0,0-1,2.2c-.5,1.4-.9,2.55-1.08,3.2-1.68,7.31-.29,3.23.77.62.84-1.85.17.79,1.41-2.1-.37,1.06-.74,1.84-.94,2.66s-.42,1.65-.71,2.75a23.63,23.63,0,0,0,.84-3.08c.51-1.49,1-2.81.87-2a18.1,18.1,0,0,0-1,3.22c-.25,1.14-.6,2.26-.77,3.37.09-.38.68-2.24,1.12-4a7.39,7.39,0,0,1,.4-1.23c.15-.38.29-.72.4-1,.23-.58.39-.91.41-.81-.09.28-.29.79-.53,1.39l-.4,1c-.12.35-.21.71-.32,1.06a13.85,13.85,0,0,0-.7,3c0,.1.6-2.06.88-3.15a33.73,33.73,0,0,0-1.17,7c0,1,.2.41.81-2.62-.15,1.06-.45,2.33-.57,3.64s-.18,2.63-.22,3.77v0c.07-1.13.21-3.08.28-4.13l-.21,3.87c0-.21.09-.44.15-.68.08-.95.15-1.92.21-2.92-.05.85-.1,1.71-.14,2.56.12-.63.24-1.36.36-2.16a16.8,16.8,0,0,1,.4-2.18c.16-.7.31-1.38.45-2a15.46,15.46,0,0,1,.5-1.72c.16-.52.3-1,.4-1.37l.31-1.19c.11-.39.29-.76.42-1.15l.86-2.29c.27-.77.7-1.47,1-2.21s.68-1.49,1.12-2.17L29.92,191c.22-.35.41-.71.65-1l.74-1L32.79,187l1.66-1.8A38.69,38.69,0,0,1,38,181.86a23.07,23.07,0,0,1,1.93-1.49c.67-.47,1.28-1,2-1.42L44,177.69c.35-.2.69-.44,1.05-.61l1.1-.52,2.2-1.06Z"/><polygon class="cls-5" points="138.34 64.4 138.34 131.62 9.71 131.62 138.34 64.4"/><path class="cls-3" d="M124.06,129.06c0,.1,1.09.2-.67.25-5.53.09-10-.25-15.52-.15l-.39.16-13.3-.23-25.05.11c.21.06.31.12-.51.14-3.46,0-8.25,0-13.21,0l-2.19,0a2.57,2.57,0,0,0-.8.12l-6.08,0-17.84.24-8.51.12-3.36.13,2.72-1.58,7.82-4.24L45,114.44c5-2.76,9.91-5.52,14.72-8.11,7.14-3.8,16.34-8.49,23.34-12.13-1.33,0,15.58-9.11,11.91-7.85,4.66-2.42,11.67-6.06,12-6.39.85-1,4.18-3.38,16.42-10.11,4.81-2.59,12.35-6.3,14-7.28,2.62-1.54-6.44,3-3.82,1.43C97.47,82.66,62.9,101,26.64,119.91l-6.79,3.64L0,134l70.79-.14,50.44,0h19.38c0-5.32-.05-10.65-.07-15.69-.06-4.31-.11-8.37-.16-11.95-.15-5.1-.31-10.29-.46-15.47-.1,2.4-.2,4.63-.28,6.56,0-5.26,0-10.52-.08-12.55-.25-11.2-.54-4.85-.93-.54-.17,3.1-.44-1.09-.61,3.76,0-3.5,0-5.25,0-8.77-.16-.4.08,10.8-.19,8.37.07-3.37,0-7.15,0-10.66-.23,1.22-.09,12.14-.31,11.61-.05-1.9.3-9.85,0-10.53-.05-.14-.06,3.37-.07,5.13-.08-10.8-.34-16.75-.64-6.89,0-3.42.13-8.26.09-11.88v0c0,1.8-.06,4.92-.07,6.58,0-2,0-4.1,0-6.15,0,.32-.07.69-.11,1.07,0,1.53-.06,3.07-.07,4.68,0-1.36,0-2.73,0-4.1-.09,1-.17,2.2-.25,3.49-.18,4.86-.43,9.51-.44,12.14-.07,15.63-.14,31.31-.22,46.94Z"/><rect class="cls-6" x="156.49" y="75.83" width="106.2" height="17.87" rx="8.93"/><path class="cls-3" d="M198.12,91.13c0,.1.74.2-.46.25-3.77.09-6.81-.25-10.59-.15l-.27.16-9.08-.23-8.57,0-2.14,0h-1.6l-.38,0a6.2,6.2,0,0,1-2.94-.86c.06.1.08.18-.29,0a6.14,6.14,0,0,1-2.11-2.2,6.59,6.59,0,0,1-.88-3.47V84.1l.07-.55a1,1,0,0,0,0-.43,6.31,6.31,0,0,1,1.45-2.74,6.8,6.8,0,0,1,4-2.38,7.86,7.86,0,0,1,1.23-.13l1.57,0,3.15-.07L183,77.51,209.54,77c3.86-.15,7.74-.3,11.46-.37,5.53-.06,12.58,0,18,.07-.82-.58,12.31-.86,9.69-1.45h2.92c1,0,2,0,3,0a15.18,15.18,0,0,1,3.53.86,3.24,3.24,0,0,1,1.2.26,7.11,7.11,0,0,1,2.18,1.4A9.69,9.69,0,0,1,264,81.55a10.33,10.33,0,0,1-1.9,10.39,11,11,0,0,1-3.08,2.47,11.88,11.88,0,0,1-3.21,1.12c-.95.17-1.69.18-2.09.23s-.48.08-.15.12a9.94,9.94,0,0,0,1.88,0c1.52-.13,3-.7,1.77-.15a11.58,11.58,0,0,0,5.46-3.7,12,12,0,0,0,1.71-2.86,12.39,12.39,0,0,0,.82-3.22,11.57,11.57,0,0,0-5.74-11.2,11.26,11.26,0,0,0-3.08-1.22,12.88,12.88,0,0,0-1.63-.27c-.55,0-1.14-.06-1.52,0h-5.11l-10.23,0-41.25.08c-2.38.06-8.17.12-15.78.16l-12.56.06h-1.71c-.6,0-1.06,0-1.85,0a11.05,11.05,0,0,0-4.23,1.1,11.19,11.19,0,0,0,1.81,20.85,11,11,0,0,0,2.17.38c.35,0,.78,0,1.06,0h10.9l19.69,0h1.49c9,0,19.9,0,27.5-.23l10.56-.46L231.26,95c3.6,0,7.19,0,8.57-.08,7.65-.24,3.32-.53.37-.92-2.11-.18.75-.44-2.57-.62l6,0c.28-.17-7.37.08-5.71-.19,2.3.06,4.88,0,7.27,0-.82-.22-8.29-.08-7.92-.3,1.29,0,6.73.3,7.19,0,.09-.06-2.3-.07-3.5-.07,7.37-.08,11.43-.34,4.7-.64,2.34,0,5.64.12,8.11.09h0l-4.5-.07,4.21,0-.74-.12c-1,0-2.09-.06-3.19-.06h2.8c-.7-.09-1.5-.17-2.38-.25-3.32-.18-6.5-.44-8.29-.44C227.15,91.24,212.6,91.15,198.12,91.13Z"/><path class="cls-2" d="M279.68,181.44c2.89,2.57,3.55,6,3.29,9.71a5.46,5.46,0,0,0,.45,2.74c2.45,5.43,1.38,10.7-3,15a3.42,3.42,0,0,0-1.07,2.19c-1.1,8.84-7.89,14-16.64,12.73"/><path class="cls-3" d="M281,194.85c.09,0,.1-.29.28,0a13.3,13.3,0,0,1,.57,2.07l.17,0a5.26,5.26,0,0,1,.08.89,8.77,8.77,0,0,1,0,.89A10.29,10.29,0,0,1,282,202c.06,0,.12,0,.11.1a5,5,0,0,1-.24.76q-.19.42-.42.87l-.11.27a.2.2,0,0,0,.06.16,5.13,5.13,0,0,1-.46.71,12.57,12.57,0,0,1-1.41,2.2l-.45.56a6,6,0,0,0-.67.91,5.18,5.18,0,0,0-.67,2.19,15.89,15.89,0,0,1-1.2,5.77c-.16.42-.33.83-.49,1.22s-.42.75-.65,1.11a11.11,11.11,0,0,1-3.12,2.57c.23.2-.28.73-.79,1.24s-1.07.9-.67,1a16.6,16.6,0,0,0-2.21.77c-.1.48-.69,1.33-3.29,1.66a28.58,28.58,0,0,1-2.88-.24c-.58.09,1.24.48.68.57a16.51,16.51,0,0,0,11.17-2.25,16.76,16.76,0,0,0,6.86-9.25c0-.33.17-.88.32-1.61s.2-1.37.32-2.23a.8.8,0,0,1,.17-.38l.11-.13.29-.31.62-.67a18.74,18.74,0,0,0,2.24-3.2,14.45,14.45,0,0,0,1.75-7.69,17.15,17.15,0,0,0-1.25-5.33l-.16-.38a3.67,3.67,0,0,1-.26-.94,10.38,10.38,0,0,1,0-1.4,13,13,0,0,0-.39-3.58,11.73,11.73,0,0,0-1.23-2.73,6.72,6.72,0,0,1,.14,1.25,6.29,6.29,0,0,0-.94-2.12c-.62-.85-.89-.91-.93-.73a10.26,10.26,0,0,0,.06,1.09c.09.54-.45.06-.26.83a9.65,9.65,0,0,0-.67-1.22c-.08,0,.17.36.37.7s.33.65.12.53a5.27,5.27,0,0,0-.87-1.4c0,.14.23.52.41.91s.34.76.23.76c-.14-.23-.46-1.45-.77-1.38,0,0,.24.45.36.69a3.41,3.41,0,0,0-1.15-1.2c-.25-.09-.22.09.07.72a6,6,0,0,0-1.06-1.27h0c.18.19.46.52.61.71-.18-.22-.4-.42-.6-.63l0,.19.41.5a4.89,4.89,0,0,0-.39-.4l.15.51c.33.59.43,1.22.59,1.49a8.86,8.86,0,0,1,1,3.95,18.47,18.47,0,0,1-.07,2.31A7.89,7.89,0,0,0,281,194.85Z"/><rect class="cls-5" x="119.63" y="150.15" width="143.06" height="62.69"/><path class="cls-3" d="M218,215.41c0-.1-1.32-.21.8-.25,6.68-.1,12.05.24,18.73.14l.48-.16,16.05.24,11.16,0q0-12.12-.1-24.1c-.06.26-.11.39-.13-.61-.05-4.17,0-9.95,0-15.94l0-2.64a3.45,3.45,0,0,0-.13-1c0-2.7,0-5.11,0-7.34-.05-5-.09-10.06-.15-15.65l-80,.92c-6.84.15-13.68.3-20.27.37-9.77.06-22.23,0-31.75-.06.92.35-7.57.6-13,.87.17,3.43.35,5.79.58,4,0,6.34,0,15.87.13,16.36.49,1.48,1,6.36,1.34,23.22.07,6.59-.13,16.72,0,19.05.15,3.66.34-8.55.5-4.89,0-18.59,0-36.91.06-55.17l85.17-.1,20.35-.13,32.61-.1c0,18.94.05,40.05.07,58.15l-39.06,0h-2.64c-15.88,0-35.17,0-48.61.23l-18.67.46,7.92.28c-6.36,0-12.7,0-15.14.08-13.53.25-5.87.54-.67.93,3.75.17-1.31.43,4.55.61l-10.59,0c-.48.16,13-.08,10.1.18-4.07-.06-8.63,0-12.86,0,1.47.22,14.65.09,14,.3-2.28,0-11.88-.29-12.7,0-.16.05,4.07.06,6.19.06-13,.09-20.21.35-8.32.64-4.13,0-10-.12-14.33-.08h0l7.94.07h-7.43l1.3.11,5.64.06h-4.94c1.23.09,2.65.18,4.21.26,5.86.17,11.48.43,14.65.44Z"/><path class="cls-2" d="M230.74,179.61c8.61.36-.92-23.32,7-23.32,6.54,0,13.09,0,19.63-.1,9.68-.15,15.77-9.16,12.28-18.09-1.69-4.3-4.82-7.19-9.56-7.67-2.92-.3-4.1-1.8-4.93-4.43-4.67-14.86-21.87-20.07-34.14-10.35-2.06,1.63-3.78,2.48-6.76,1.89-10.33-2-19.6,6.58-18.78,17.13.21,2.64-.6,3.43-3,3.74-5.58.71-8.25,4.29-7.81,10.07.36,4.74,4,7.87,9.26,7.88,10.58,0,21.16,0,31.74-.06C231.29,156.34,222.13,179.25,230.74,179.61Z"/><path class="cls-3" d="M272.33,148.55s-.19.18-.25.21,0-.1.19-.88a16.28,16.28,0,0,0-1.68-13.5l-.33-.22a12.83,12.83,0,0,0-7.16-5.66,13.77,13.77,0,0,0-1.53-.4c-.26-.06-.52-.09-.78-.13l-.62-.1a3.06,3.06,0,0,1-1.25-.39,2.15,2.15,0,0,1-.75-.87,5.32,5.32,0,0,1-.36-.79l-.39-1-1-2.49a24.46,24.46,0,0,0-6.47-8.45c.1.17.13.27-.42-.18a24.63,24.63,0,0,0-10.11-4.79,13.18,13.18,0,0,0-1.86-.25,1.91,1.91,0,0,0-.69,0,19.27,19.27,0,0,0-2.71-.09,16,16,0,0,0-2.45.19,23.27,23.27,0,0,0-3.78.87c-.62.18-1.2.46-1.81.69a12.61,12.61,0,0,0-1.75.81l-1.69.94a17.09,17.09,0,0,0-1.59,1.08c-.49.37-1.09.78-1.5,1.12a12.21,12.21,0,0,1-1.23.87,4.37,4.37,0,0,1-2.42.7,9.06,9.06,0,0,1-1.47-.13l-2-.23a17.12,17.12,0,0,0-7.85,1.44,17.67,17.67,0,0,0-10,12c-.12.66-.3,1.32-.36,2s-.14,1.35-.13,2,.05,1.41.08,2a5.25,5.25,0,0,1,0,.77,1.82,1.82,0,0,1-.08.51c-.23.69-.79.82-2.17,1.05a11.45,11.45,0,0,0-4,1.39,8.39,8.39,0,0,0-2.69,2.58,9.12,9.12,0,0,0-1.3,3.37,13,13,0,0,0-.16,3.45,10.51,10.51,0,0,0,.75,3.35A8.75,8.75,0,0,0,188,155.5a10.81,10.81,0,0,0,5.34,1.59c3.6.06,7.07,0,10.13.07-.94-.58,13.91-.89,10.94-1.47,4.06,0,10.16,0,10.47-.15a3.24,3.24,0,0,1,1.67-.21c.87.09,1.88.94,2.36,2.65a11.67,11.67,0,0,1,.37,2.23c.08.8.08,1.65.08,2.6,0,1.88-.2,4.11-.32,6.73a23.88,23.88,0,0,0,.2,6.37,2.29,2.29,0,0,0,.78,1.44,1.49,1.49,0,0,0,.39.17l.39,0c.59,0,.54-.06.18-.12a1.78,1.78,0,0,1-.73-.26c-.22-.19-.45-.82-.13-.46a4.18,4.18,0,0,1-.54-1.65,15,15,0,0,1-.17-2.49c0-1.78.18-3.66.36-5.58s.41-3.87.47-6c0-.54,0-1.08,0-1.67a8,8,0,0,0-.09-.91c0-.16,0-.29-.07-.5s-.1-.47-.17-.71a6.07,6.07,0,0,0-.53-1.32,4,4,0,0,0-.4-.58,2.92,2.92,0,0,0-.46-.53,3.65,3.65,0,0,0-1.16-.76c-.21-.08-.44-.13-.66-.19a1.46,1.46,0,0,1-.34-.1l-.35,0a5.7,5.7,0,0,0-.72,0h-5.61l-5.78,0-11.56,0-5.78,0c-.94,0-2,0-2.84,0a8.29,8.29,0,0,1-2.2-.31,5.66,5.66,0,0,1-3.26-2.21,5.74,5.74,0,0,1-.82-1.79l-.11-.51-.06-.53a11.79,11.79,0,0,1,0-1.2,6.77,6.77,0,0,1,1.09-4,5.57,5.57,0,0,1,3.39-2,11.86,11.86,0,0,1,1.18-.22l.92-.15a8.33,8.33,0,0,0,1.18-.35,4.85,4.85,0,0,0,2.24-1.72,5.37,5.37,0,0,0,.86-2.66,9.18,9.18,0,0,0,0-1l0-.46v-.34l0-1.25a13.79,13.79,0,0,1,.31-2.47,12.56,12.56,0,0,1,2.19-5.18,15.24,15.24,0,0,1,3-3.1,13.83,13.83,0,0,1,4.59-2.17,13.18,13.18,0,0,1,5.72-.2,10,10,0,0,0,4.71-.14,12.12,12.12,0,0,0,4-2.28,22.47,22.47,0,0,1,6.16-3.38,20.27,20.27,0,0,1,7.11-1,19.69,19.69,0,0,1,7,1.77,18.06,18.06,0,0,1,5.8,4.26,16.51,16.51,0,0,1,1.16,1.35l1,1.46a16.59,16.59,0,0,1,.85,1.54l.41.77c.13.26.22.55.32.81.21.55.42,1.08.62,1.62a16.54,16.54,0,0,0,.83,2.07,7.3,7.3,0,0,0,1.54,2.11,6.69,6.69,0,0,0,2.3,1.4,9.07,9.07,0,0,0,2.27.5,12.38,12.38,0,0,1,1.4.25,8.18,8.18,0,0,1,2.41,1A9.33,9.33,0,0,1,267,137.6a14.14,14.14,0,0,1,1.32,4.18,11.33,11.33,0,0,1,.06,1.82c0,.28,0,.55,0,.81s-.09.51-.13.74a6.83,6.83,0,0,1-.33,1.35,10.41,10.41,0,0,1-3.74,5.2,11.7,11.7,0,0,1-6.37,2.21,9,9,0,0,1-.95,0h-1l-2,0-3.87.06-7,.17-3,.13-1.49.06-.78,0a6.54,6.54,0,0,0-1.15.18,4.36,4.36,0,0,0-1.15.5l-.52.36c-.15.14-.29.29-.43.44a5.39,5.39,0,0,0-1.08,1.87,11.87,11.87,0,0,0-.55,3.43,12.31,12.31,0,0,1,.66-2.95,5.11,5.11,0,0,1,1.94-2.58,4.24,4.24,0,0,0-.83.75,7.52,7.52,0,0,0-.57.86,8.31,8.31,0,0,0-.61,1.7,15.47,15.47,0,0,0-.35,3,30,30,0,0,0,.13,4c.36,4.33.49,5.21.63,4.67s.21-2.61.32-4.29c.08-2.4.43.81.52-2.92,0,2.68.15,4,.25,6.75a29.1,29.1,0,0,0-.13-3.82c-.11-1.88-.1-3.55,0-2.62,0,2.58.34,5.48.35,8.22a36.8,36.8,0,0,0,0-5,16.54,16.54,0,0,1,0-3.93,77.69,77.69,0,0,0,.28,8.09c.07.1,0-2.63-.11-4,.13,2.08.26,3.94.29,5.47a26.2,26.2,0,0,1-.13,3.39c-.06.67-.06.83.14.28a15.45,15.45,0,0,0,.53-3.77,17,17,0,0,1-.66,4.91,5.42,5.42,0,0,1-1.78,2.66,4.89,4.89,0,0,1-3,.9h0a5.81,5.81,0,0,0,1.65-.2,4.14,4.14,0,0,0,1.78-1,5.94,5.94,0,0,0,1.53-2.85,6.29,6.29,0,0,1-1.38,2.74,4.39,4.39,0,0,1-3.14,1.38l.55,0,.64-.09a4.89,4.89,0,0,0,1.27-.55,4.74,4.74,0,0,0,1-.93,6.3,6.3,0,0,0,1.12-2.16c-.11.31-.22.62-.35.93a7,7,0,0,1-.54.95,4.67,4.67,0,0,1-.79.89,4.57,4.57,0,0,1-.49.38,6,6,0,0,1-.56.3,4.4,4.4,0,0,0,1.66-1.12,4.71,4.71,0,0,0,.62-.81,6.37,6.37,0,0,0,.48-.88,12.36,12.36,0,0,0,.81-3.19c.14-1,.2-1.91.24-2.76.07-1.7.05-3.13,0-4.15-.09-2-.2-4-.1-5.91a10.28,10.28,0,0,1,.37-2.44l.07-.24.08-.17a.93.93,0,0,1,.15-.26c0-.1.08,0,.08-.1s0,0,.06,0,0,0,.13,0l.11,0h19.64l.89-.06a16,16,0,0,0,3.55-.58,15.58,15.58,0,0,0,6.38-3.47A15.41,15.41,0,0,0,272.33,148.55Z"/><path class="cls-2" d="M15.83,174a14.1,14.1,0,0,0,.9,23.82,6,6,0,0,1,3.07,3.74,4.75,4.75,0,0,0,4.74,3.4,4.85,4.85,0,0,0,4.7-3.78,5.65,5.65,0,0,1,2.88-4.1A13.27,13.27,0,0,0,38,187.15c.42-3.27,1.4-4,4.66-3.18a13.92,13.92,0,0,0,16.7-9c1-2.69,1.23-2.86,4.17-3a10.49,10.49,0,0,0,9.5-6.42,10.82,10.82,0,0,0-16.34-13.12c-1.52,1.12-2.88,1.82-4.81,1a2.2,2.2,0,0,0-3,1.29,3.2,3.2,0,0,1-3.08,1.9A14.13,14.13,0,0,0,36,161c-1.45,1.49-2.64,1.51-4.35.3-2.82-2-5.61-2.14-8-.48s-3.14,4.21-2.32,7.48c.51,2,0,3.11-1.91,3.9A14.21,14.21,0,0,0,15.83,174Z"/><path class="cls-3" d="M31.7,201.92s-.14.22-.2.26,0,0,0-.14,0-.32.08-.62a2.63,2.63,0,0,1,1.45-2,20.34,20.34,0,0,0,1.86-1.27,12.53,12.53,0,0,0,1.91-1.88l0-.31A16.42,16.42,0,0,0,40.44,188l.12-.88q.06-.37.12-.66l.06-.26v0a.1.1,0,0,1,0,0h.05l.25,0a4.53,4.53,0,0,1,.66.11l.88.18,1,.19a20.19,20.19,0,0,0,2.05.15,16.53,16.53,0,0,0,4.09-.42c-.15,0-.22,0,.29-.21a18.86,18.86,0,0,0,3.7-1.41,17.07,17.07,0,0,0,3.8-2.76c.33-.36.66-.71,1-1.07a1.08,1.08,0,0,0,.22-.49,18.25,18.25,0,0,0,2.1-3.34l.52-1.38c.14-.41.26-.79.38-1.09a1.85,1.85,0,0,1,.17-.38.37.37,0,0,1,.2-.14A6.92,6.92,0,0,1,63,174l1.34-.13a15.4,15.4,0,0,0,2.94-.67,11.93,11.93,0,0,0,5.09-3.43,13.47,13.47,0,0,0,2.81-5.34A12.21,12.21,0,0,0,72.35,153a12.34,12.34,0,0,0-5.11-3.36,11.82,11.82,0,0,0-6.16-.36,12.06,12.06,0,0,0-4.68,2.22c-1.25,1-2.34,1.71-3.58,1.39a6.64,6.64,0,0,0-1.93-.5,2.75,2.75,0,0,0-2.06,1,4,4,0,0,0-.66,1,2.6,2.6,0,0,1-.43.66,2.23,2.23,0,0,1-1.26.68,5.1,5.1,0,0,1-.83.1c-.34,0-.67,0-1,.07a15.87,15.87,0,0,0-2,.33,14.09,14.09,0,0,0-3.51,1.31c.23,0-.23.41-.93,1a18.31,18.31,0,0,0-2.35,2.38A4.43,4.43,0,0,1,34.63,162a2.56,2.56,0,0,1-1.35.31c-.76-.06-1.12-.14-.58.25a12.7,12.7,0,0,1-2.2-1.26,7.41,7.41,0,0,0-2.07-.86,3.67,3.67,0,0,0-2.45.09c-.24.31-.79.66-1.69,1.63s-1.89,2.42-.94,5.63a7.14,7.14,0,0,1,.25,1.7,4.5,4.5,0,0,1-.53,2.28,4.77,4.77,0,0,1-1.66,1.71,7.63,7.63,0,0,1-.84.44l-.39.16-.3.12a7.94,7.94,0,0,0-2.73,1.39c-.31.3-.25.31,0,.17a8.39,8.39,0,0,1,.8-.4c.69-.29,1.6-.56.93-.18l.9-.39c.32-.13.63-.24,1.12-.47a6.5,6.5,0,0,0,1.55-1,4.81,4.81,0,0,0,1.24-1.69,5,5,0,0,0,.42-2.06,7.27,7.27,0,0,0-.19-1.65l-.12-.53c0-.13-.06-.26-.08-.39s-.07-.52-.09-.77a3.62,3.62,0,0,1,.59-2.38,4,4,0,0,1,2-1.43,3.56,3.56,0,0,1,2.4.17,7.8,7.8,0,0,1,1.35.73l.48.32c.2.13.41.26.64.38a7.69,7.69,0,0,0,.8.37,5.57,5.57,0,0,0,1,.28,5,5,0,0,0,3.94-1,7.81,7.81,0,0,0,1.11-1l.64-.61a11.37,11.37,0,0,1,6.16-2.86c.64-.1,1,0,2.21-.22a5.77,5.77,0,0,0,3.31-1.8,6.64,6.64,0,0,0,.57-.77c.17-.27.28-.51.33-.6h0s0,0,0,0,.11,0,.46.16a6,6,0,0,0,1.74.3,6.47,6.47,0,0,0,3.33-.85c.84-.45,1.58-1.06,2-1.29a9.22,9.22,0,0,1,1.45-.78,8.45,8.45,0,0,1,3.17-.63,8.8,8.8,0,0,1,7.89,5.71,8.24,8.24,0,0,1-.32,6.14,8,8,0,0,1-6.08,4.87c-.38.06-.76.12-1.16.15s-.94.06-1.49.13l-.46.06a4.51,4.51,0,0,0-.56.1,5.15,5.15,0,0,0-1.26.46A4.46,4.46,0,0,0,58,172.3l-.25.51-.17.42-.28.76c-.17.48-.32.8-.47,1.21s-.38.74-.56,1.11-.44.72-.69,1.05a11.7,11.7,0,0,1-3.69,3.31,11.42,11.42,0,0,1-4.71,1.43,7.08,7.08,0,0,1-1.22,0,8.24,8.24,0,0,1-1.22-.08c-.83-.08-1.47-.28-2.7-.5-.29-.05-.56-.08-.93-.11a6.71,6.71,0,0,0-1.26.05,4.23,4.23,0,0,0-2.25,1,4.92,4.92,0,0,0-1.3,2.06,9.17,9.17,0,0,0-.42,1.72c-.06.43-.13.85-.19,1.26s-.14.73-.23,1.08a12.52,12.52,0,0,1-.66,2,10.37,10.37,0,0,1-2,3,10.26,10.26,0,0,1-1.22,1.09c-.21.17-.43.3-.64.45s-.56.38-.84.6A7.77,7.77,0,0,0,27.48,199a7.66,7.66,0,0,0-.46,1.68,1.43,1.43,0,0,1-.05.25.5.5,0,0,1,0,.13,1,1,0,0,1-.11.27,2.24,2.24,0,0,1-.42.55,3.19,3.19,0,0,1-1.46.75,2.71,2.71,0,0,1-2.76-1.13,3,3,0,0,1-.15-.31L22,201l-.13-.43a7.28,7.28,0,0,0-.89-1.87,8.85,8.85,0,0,0-2.72-2.53l-.33-.2-.25-.17-.49-.34a11.11,11.11,0,0,1-.94-.65,14.67,14.67,0,0,1-1.56-1.45,11.89,11.89,0,0,1-3.32-6.68,13.57,13.57,0,0,0,.43,3.28,11.12,11.12,0,0,1-.51-1.92c-.06-.31-.13-.62-.17-.93s0-.6,0-.88a11.25,11.25,0,0,1,0-1.53c0-.22,0-.42,0-.6s0-.33.06-.46c.43-2.86.83-3.45.48-3.17a3.49,3.49,0,0,0-.64,1c-.13.26-.26.54-.39.82s-.21.59-.32.87c-.23.83-.32.67-.42.62s-.25,0-.41,1.42c0-.5.07-.94.09-1.35s.15-.77.22-1.15a5.53,5.53,0,0,1,.29-1.13,12,12,0,0,1,.43-1.28c0-.07-.19.25-.34.78a11.22,11.22,0,0,0-.48,1.94c-.06.35-.14.68-.17,1s0,.57-.06.77c0,.41-.08.55-.13.19a15.64,15.64,0,0,1,1.52-6,9.31,9.31,0,0,0-.67,1.24c-.15.31-.24.69-.38,1.08a7.76,7.76,0,0,0-.34,1.19c-.08.41-.15.81-.23,1.18s-.07.71-.1,1c-.06.57-.11.91-.16.83,0-.28,0-.79.1-1.39s.27-1.29.4-2,.42-1.28.58-1.77a2.88,2.88,0,0,0,.3-.94,4.67,4.67,0,0,0-.49,1c-.18.62-.46,1.36-.56,1.87a21.84,21.84,0,0,1,.63-2.18c.28-.64.48-1.26.77-1.77s.51-.95.72-1.32l.55-.85c.25-.42.26-.54,0-.26-.15.14-.38.38-.69.73a15.8,15.8,0,0,0-1.06,1.51c.28-.45.57-1,.92-1.47s.77-1,1.21-1.48.91-.92,1.38-1.33L15,172.83h0c-.44.34-1.07.78-1.64,1.27A18.78,18.78,0,0,0,12,175.54c.41-.49.88-.92,1.33-1.38s1-.8,1.49-1.2l-.6.32A14.3,14.3,0,0,0,12,175.23l.91-.91.45-.46.51-.4a11.71,11.71,0,0,0-1.78,1.33A15,15,0,0,0,8,181.4a16.42,16.42,0,0,0,.5,10.31A17.5,17.5,0,0,0,15,199.65c1.36.9,1.88,1.34,2.16,2a2,2,0,0,1,.1.29l.16.55a6.85,6.85,0,0,0,.76,1.62,7.13,7.13,0,0,0,2.5,2.36A7.64,7.64,0,0,0,30,205.1,6.51,6.51,0,0,0,31.7,201.92Z"/><path class="cls-2" d="M77.63,96.82h0A5.84,5.84,0,0,1,76.19,102l-3,3.86a4.37,4.37,0,0,0-.64,4.29l3.09,8a2.26,2.26,0,0,1-1.63,3h0a2.26,2.26,0,0,1-2.71-1.73l-1.45-6.61a1.87,1.87,0,0,0-2.56-1.32l-13.47,5.69a8.4,8.4,0,0,1-10.42-3.31h0c-2.6-4.78-1-10.69,3.43-13a8.06,8.06,0,0,1,5.53-.55c-.22-4.12,1-7.36,4.32-9.24,3.82-2.18,8.42-.77,11.05,3.27.45.68,1.23,2.27,1.23,2.27h0a14.24,14.24,0,0,1,6.82-1.83"/><path class="cls-3" d="M73.05,119.91s.12.19-.16,0a1,1,0,0,1-.42-.55,3,3,0,0,1-.09-.46l-.1-.66c-.14-.88-.27-1.76-.48-2.73l-.12-.12c-.12-.75-.24-1.52-.37-2.3l-.1-.6a3.43,3.43,0,0,0-.36-1,3.38,3.38,0,0,0-1.59-1.44,3.53,3.53,0,0,0-2-.19l-.49.14-.31.12-.52.21-2.07.84-4.13,1.68c.09,0,.14,0-.13.15-1.13.48-2.74,1.08-4.38,1.72l-.72.31c-.18.1-.21.16-.23.2l-1.06.41c-.3.09-.54.19-.8.25a6.91,6.91,0,0,1-5.12-.46,6.69,6.69,0,0,1-2.07-1.67,5.12,5.12,0,0,1-.41-.54l-.1-.14,0,0h0c0-.07.05.09,0,.08h0l0,0,0-.08-.16-.32a4.76,4.76,0,0,1-.29-.65c-.08-.22-.18-.44-.24-.67a8.56,8.56,0,0,1,.22-5.69,7.21,7.21,0,0,1,4.06-4.08,5.93,5.93,0,0,1,.93-.3,4.6,4.6,0,0,1,1.09-.16c1,0,2.12.18,3,.22-.07-.71-.12-1.39-.14-2.05a10.13,10.13,0,0,1,0-1.46,8.45,8.45,0,0,1,.94-3.17,7.62,7.62,0,0,1,3-3c-.15-.07.07-.32.51-.64a6.06,6.06,0,0,1,1.86-.82c1.44-.39,2.91-.15,2.24-.52a8.85,8.85,0,0,1,3,1.15c.86.51,1.43,1,1.52,1a2.74,2.74,0,0,1,1.33.86,6.34,6.34,0,0,1,1.09,1.39l.56,1,.08.14,0,0,.07,0s0,.16.09.07l.12-.07.06,0,.33-.12a14.31,14.31,0,0,1,3.36-.7,12.94,12.94,0,0,1,2.42,0c.54,0-.09,0-.74-.1s-1.32-.06-.76-.07a13.85,13.85,0,0,0-2.86.27c-.47.1-.94.22-1.4.36l-.34.1c-.07,0-.13,0-.09,0h0l0,0s0,.06,0,0l-.17-.41a10.89,10.89,0,0,0-.78-1.62,11.14,11.14,0,0,0-2.48-2.89,9.67,9.67,0,0,0-7.68-2.12,10.14,10.14,0,0,0-3.87,1.55,10.29,10.29,0,0,0-3,3A11.43,11.43,0,0,0,50,96.6l-.1.5,0,.25,0,.12h0s0,0,0,0,0,0,0,0h0l-.4,0a9.77,9.77,0,0,0-3.65,1,11,11,0,0,0-3,2.19,11.58,11.58,0,0,0-2,3,12.67,12.67,0,0,0-.8,6.67,13.11,13.11,0,0,0,1,3.23c.11.28.27.53.41.81l.21.41,0,0,.07.12h0l0,0,.07.1.15.19a8.87,8.87,0,0,0,1.32,1.5,10.2,10.2,0,0,0,3.56,2.19,10.34,10.34,0,0,0,4.33.61,10.51,10.51,0,0,0,2.21-.42c.36-.1.71-.26,1.06-.39l.88-.39,6.87-3.09,3.31-1.49,1.6-.72.77-.35a.79.79,0,0,1,.22-.07.54.54,0,0,1,.41.18.56.56,0,0,1,.12.2c.06.24.11.47.17.7.24,1,.46,1.9.67,2.75s.4,1.63.56,2.33c0,.17.09.34.13.51s.07.3.14.56a3.54,3.54,0,0,0,.64,1.15,3.27,3.27,0,0,0,.88.74,3.39,3.39,0,0,0,2.57.35,3.26,3.26,0,0,0,2.06-1.64,3.23,3.23,0,0,0,.19-2.63c-.26-.67-.5-1.19-.75-1.78-1-2.28-1.93-4.49-2.73-6.33a3.7,3.7,0,0,1-.18-2.35,3.92,3.92,0,0,1,.47-1.14c.23-.34.53-.74.79-1.11l-.76,1a3.94,3.94,0,0,0-.51.87,4.11,4.11,0,0,1,.64-1.11l.78-1,1.07-1.45c.46-.62.77-1,1-1.33h0c.58-.74.39-.53,0,0h0l-.94,1.11c-.71.84.17-.36-.93,1L76.15,102h0l.22-.25-.23.24h0c-.57.71-2.07,2.63-1.67,2L76.12,102h0a5.82,5.82,0,0,0,.69-.9,6.94,6.94,0,0,1-.7.88h0c-.81,1-1.95,2.43-1.9,2.3L76.09,102h0a2.76,2.76,0,0,0,.46-.58,6.94,6.94,0,0,1-.48.56h0l-.67.83.66-.83h0a5.52,5.52,0,0,0,1.39-2.6c0-.17,0-.15,0,.09a6.07,6.07,0,0,1-.61,1.38,5.66,5.66,0,0,0,.7-1.88,6.44,6.44,0,0,0,.09-1.07,4.41,4.41,0,0,0,0-.52l0-.24,0-.12v-.11h0l.14,0-.14,0h0a5.91,5.91,0,0,1,0,2.26A5.76,5.76,0,0,0,77.51,97a3.7,3.7,0,0,1,0,.37,5.4,5.4,0,0,1-.08,1.6,6,6,0,0,0,.1-1.4,6.43,6.43,0,0,1-.09,1.19,5.48,5.48,0,0,1-1.59,3l0,0c-.18.2-.33.38-.45.53l-1.84,2.17-.92,1.09a5.05,5.05,0,0,0-.93,4.64l.94,2.73,1.88,5.37a2.35,2.35,0,0,1,.13.48,1.45,1.45,0,0,1,0,.36,1.13,1.13,0,0,1-.35.61A1.08,1.08,0,0,1,73.05,119.91Z"/><path class="cls-3" d="M232.05,48.13s.11.09-.08.1a5.65,5.65,0,0,0-1.64.08l0,.07a6.5,6.5,0,0,0-1.35.41,5.72,5.72,0,0,0-2,1.77s.06,0,0,.07a7.38,7.38,0,0,0-.68,1.22l-.07.22a.19.19,0,0,0,0,.1c-.08.22-.12.42-.18.61a5.58,5.58,0,0,0,.69,3.67,5.46,5.46,0,0,0,2.92,2.38,6,6,0,0,0,1.59.21,5.7,5.7,0,0,0,2.43-.39c-.1-.09.26-.33.52-.61s.46-.55.26-.54c.36-.26.79-.77.75-.84s0-.58.2-1.57a4.41,4.41,0,0,0,.19-1.14c-.06-.22-.17.51-.22.28a3.9,3.9,0,0,1-2.35,3.2,3.76,3.76,0,0,1-3.93-.65,3.34,3.34,0,0,1-1-1.27,3.84,3.84,0,0,1,1.6-5,3.72,3.72,0,0,1,2-.48h.16a4.62,4.62,0,0,1,2.63,1.11,4.35,4.35,0,0,1,.83.83,4.86,4.86,0,0,0-.17-.5c.24.35.41.73.5.86.37.82.35.32.36-.09s.21,0,.1-.4a3.91,3.91,0,0,1,.26.75c.11,0-.36-.91-.19-.74a6.67,6.67,0,0,1,.33.92c.09-.14-.32-1.08-.25-1.06s.23.9.33.94a1.23,1.23,0,0,0-.12-.47c.2.47.29.86.35,1s.12.05.09-.44A7.4,7.4,0,0,1,237,54h0c0-.18,0-.49,0-.66,0,.21,0,.41,0,.61l0-.1a3.69,3.69,0,0,0,0-.47c0,.13,0,.27,0,.41,0-.11.05-.23.08-.36a4.5,4.5,0,0,0-.1-1.27A5.74,5.74,0,0,0,232.05,48.13Z"/><path class="cls-3" d="M217.32,38.85s-.11,0,0-.11c.26-.28.57-.44.75-.8l0-.06a3.68,3.68,0,0,0,.48-.82,3.67,3.67,0,0,0,.08-1.77s0,0-.06,0a4.36,4.36,0,0,0-.25-.89l-.07-.14a.09.09,0,0,0-.07,0c-.07-.14-.14-.26-.2-.37a3.55,3.55,0,0,0-4.48-1,4.19,4.19,0,0,0-.78.66,3.83,3.83,0,0,0-.91,1.24c.13,0,.1.28.14.52s.11.44.24.36c0,.26,0,.65.06.65s.42.2.76.62c.11.17.26.46.34.49s-.08-.3.05-.25a2,2,0,0,1-.29-1.94,1.87,1.87,0,0,1,1.6-1.16,1.61,1.61,0,0,1,.81.06,2,2,0,0,1,1.06.9,1.92,1.92,0,0,1-.38,2.35l-.06,0a2.82,2.82,0,0,1-1.35.6,3.19,3.19,0,0,1-.64.09l.25.17a5.46,5.46,0,0,0-.54-.13c-.49-.14-.32.09-.17.33s-.14.14.09.3a2.53,2.53,0,0,1-.44-.21c-.06.07.56.22.4.27s-.38-.15-.55-.26c0,.13.61.34.55.4s-.48-.34-.56-.28.16.13.26.17c-.58-.25-.93-.46-.5,0a5.37,5.37,0,0,1-.57-.5h0a2.83,2.83,0,0,0,.3.3c-.11-.08-.2-.18-.3-.26l0,.07a1.15,1.15,0,0,0,.22.22l-.2-.17a1.46,1.46,0,0,0,.1.23,2.52,2.52,0,0,0,.61.59A3.79,3.79,0,0,0,217.32,38.85Z"/><circle class="cls-2" cx="127.15" cy="169.18" r="5.21"/><line class="cls-7" x1="127.55" y1="179.52" x2="127.55" y2="171.04"/><path class="cls-3" d="M128.57,177.49s-.08,0-.1,0,.1-.25.06-.39h-.06l.09-.33c0-.21,0-.42,0-.62,0,0-.05,0-.06,0a1.94,1.94,0,0,1,0-.33v-.05l-.05,0a.68.68,0,0,1,0-.15c-.13-.61-.28-1.22-.43-1.89a2.35,2.35,0,0,1-.15-.42,3.54,3.54,0,0,1,0-.65c-.24,0-.35-.45-.58-.35,0-.13,0-.33,0-.34a.63.63,0,0,1-.54-.48c0-.13.05-.34,0-.39s-.14.18-.2.1c-.07,1,0,2,0,3a22.64,22.64,0,0,1,.11,3.28v.06a3.27,3.27,0,0,0,.09,1l.18.38.12-.16a.56.56,0,0,0,0,.31c.1.28.21.12.37,0s.17,0,.25-.1a1.62,1.62,0,0,0,0,.22c.06,0,0-.27.07-.21a2.44,2.44,0,0,0,0,.27c.09,0,0-.31.12-.29s-.12.24,0,.26,0-.08,0-.13c0,.27.14.42.25.17,0,.09,0,.21,0,.3h0a1,1,0,0,0,0-.17v.16l.05,0,0-.12a.41.41,0,0,0,0,.11l.1-.09c.07-.12.18-.24.18-.3C128.53,178.55,128.57,178,128.57,177.49Z"/><line class="cls-7" x1="127.35" y1="166.04" x2="127.35" y2="158.14"/><path class="cls-3" d="M128.38,164.15s-.08,0-.1,0,.1-.24.06-.36h-.07l.1-.31c0-.2,0-.39-.05-.58,0,0,0,0,0,0a1.11,1.11,0,0,1,0-.31v-.05l-.05,0c0-.05,0-.1,0-.14-.13-.56-.28-1.14-.43-1.76a1.53,1.53,0,0,1-.14-.39,3.14,3.14,0,0,1,0-.61c-.23,0-.34-.41-.58-.32,0-.13,0-.31,0-.32a.64.64,0,0,1-.54-.44c0-.13.06-.33,0-.37s-.14.16-.2.09c-.07.94,0,1.85,0,2.8a19.77,19.77,0,0,1,.1,3.06v0a2.83,2.83,0,0,0,.1.93c0,.12.12.24.18.36l.11-.15c0,.12,0,.24,0,.29.09.26.21.11.37,0s.17,0,.24-.09a1.34,1.34,0,0,1,0,.2c.07,0,0-.25.08-.19s0,.17,0,.25,0-.28.12-.27-.12.23,0,.24,0-.08,0-.12c0,.25.13.39.25.16a1.27,1.27,0,0,0,0,.28h0a.66.66,0,0,1,0-.15V166l0,0a.36.36,0,0,0,0-.1V166l.1-.08c.07-.11.17-.22.17-.28A14.71,14.71,0,0,0,128.38,164.15Z"/><line class="cls-7" x1="138.34" y1="169.14" x2="129.86" y2="169.14"/><path class="cls-3" d="M136.31,168.11s0,.08,0,.1-.24-.09-.38-.06v.07l-.33-.1-.63,0s0,.05,0,.06a2.13,2.13,0,0,1-.33,0h0a.07.07,0,0,0,0,.06l-.15,0-1.89.43a2.35,2.35,0,0,1-.42.15,4.64,4.64,0,0,1-.65,0c0,.23-.45.35-.35.58-.14,0-.33,0-.34.05a.64.64,0,0,1-.48.54c-.14,0-.34,0-.39,0s.17.13.1.2c1,.07,2,0,3,0a24.22,24.22,0,0,1,3.28-.1h0a3.66,3.66,0,0,0,1-.09l.38-.19-.16-.11a.67.67,0,0,0,.31,0c.28-.1.12-.22,0-.37s0-.18-.09-.25H138c0-.07-.27,0-.21-.07s.18,0,.26,0-.3,0-.28-.13.24.12.26,0-.09,0-.13,0c.27,0,.42-.14.17-.26a1.54,1.54,0,0,0,.3,0h0l-.17,0h.16l0,0-.12,0h.1a.76.76,0,0,0-.08-.11c-.12-.07-.24-.17-.3-.17C137.37,168.16,136.84,168.12,136.31,168.11Z"/><line class="cls-7" x1="123.5" y1="169.14" x2="116.96" y2="169.14"/><path class="cls-3" d="M121.94,168.11s0,.08,0,.1-.19-.09-.29-.06a.2.2,0,0,0,0,.07l-.26-.1-.48,0s0,.05,0,.06a1.19,1.19,0,0,1-.25,0h0a.14.14,0,0,0,0,.06l-.11,0-1.46.43a1.82,1.82,0,0,1-.32.15,2.85,2.85,0,0,1-.51,0c0,.23-.34.35-.27.58-.1,0-.25,0-.26.05a.61.61,0,0,1-.37.54c-.1,0-.26,0-.3,0s.13.13.08.2c.78.07,1.53,0,2.31,0a14.48,14.48,0,0,1,2.53-.1h0a2.2,2.2,0,0,0,.78-.09l.29-.19a1.31,1.31,0,0,1-.12-.11c.1,0,.2,0,.24,0,.21-.1.09-.22,0-.37s0-.18-.07-.25h.17c0-.07-.21,0-.17-.07s.14,0,.21,0-.23,0-.22-.13.19.12.2,0-.07,0-.1,0c.21,0,.32-.14.13-.26a.93.93,0,0,0,.23,0h0l-.13,0h.12a.08.08,0,0,0,0,0l-.09,0h.08l-.07-.11c-.09-.07-.18-.17-.23-.17C122.75,168.16,122.34,168.12,121.94,168.11Z"/><circle class="cls-2" cx="192.7" cy="69.05" r="4.18"/><line class="cls-7" x1="193.02" y1="77.34" x2="193.02" y2="70.55"/><path class="cls-3" d="M194.05,75.72s-.08,0-.1,0,.1-.2.06-.31h-.07l.1-.27a4.45,4.45,0,0,0,0-.5s0,0-.05,0a.78.78,0,0,1,0-.26v0l-.05,0s0-.08,0-.12c-.12-.49-.28-1-.42-1.51a1.42,1.42,0,0,1-.15-.34,2.24,2.24,0,0,1,0-.52c-.23,0-.34-.36-.57-.29,0-.1,0-.26-.06-.27a.62.62,0,0,1-.54-.38c0-.11.06-.28,0-.31s-.14.14-.2.08c-.07.81,0,1.59,0,2.4a14.65,14.65,0,0,1,.1,2.63v0a1.92,1.92,0,0,0,.09.8c0,.1.12.2.18.31l.12-.13c0,.1,0,.21,0,.25.1.22.21.09.37,0s.17,0,.24-.08v.18c.07,0,0-.22.08-.17s0,.14,0,.21,0-.24.12-.23-.12.2,0,.21,0-.07,0-.1c0,.21.13.33.25.14,0,.06-.05.16,0,.23h0s0-.1,0-.13v.12l0,0a.29.29,0,0,0,0-.09v.08l.1-.07c.07-.1.17-.19.18-.24C194,76.57,194,76.14,194.05,75.72Z"/><line class="cls-7" x1="192.87" y1="66.54" x2="192.87" y2="60.2"/><path class="cls-3" d="M193.9,65c-.05,0-.09,0-.1,0s.09-.18,0-.29h-.06l.09-.25a3.73,3.73,0,0,0,0-.47s-.05,0-.06,0a1.1,1.1,0,0,1,0-.24l0,0-.05,0s0-.08,0-.11c-.13-.45-.28-.91-.43-1.41a1.47,1.47,0,0,1-.15-.31,2.69,2.69,0,0,1,0-.49c-.23,0-.35-.33-.58-.26,0-.1,0-.25-.05-.25a.64.64,0,0,1-.54-.36c0-.1.05-.26,0-.3s-.13.14-.2.08c-.07.75,0,1.48,0,2.24A13.56,13.56,0,0,1,192,65v0a1.85,1.85,0,0,0,.09.75l.19.29a.69.69,0,0,1,.11-.13c0,.1,0,.2,0,.24.1.21.22.09.37,0s.18,0,.25-.07v.16c.06,0,0-.2.07-.15s0,.13,0,.19,0-.22.12-.21-.11.18,0,.19,0-.06,0-.09c0,.2.14.31.26.13a.78.78,0,0,0,0,.22h0a.79.79,0,0,0,0-.13v.12l0,0a.32.32,0,0,0,0-.09v.08l.1-.07c.07-.09.18-.17.18-.22A11.93,11.93,0,0,0,193.9,65Z"/><line class="cls-7" x1="201.67" y1="69.02" x2="194.88" y2="69.02"/><path class="cls-3" d="M200.05,68s0,.08,0,.1-.2-.1-.31-.06v.06l-.27-.09-.5,0s0,0,0,.06a1.21,1.21,0,0,1-.26,0h0a.08.08,0,0,0,0,0l-.12,0-1.51.43a2,2,0,0,1-.34.15,3,3,0,0,1-.52,0c0,.23-.36.34-.28.57-.11,0-.27,0-.28,0a.6.6,0,0,1-.38.54c-.11,0-.27,0-.31,0s.14.14.08.2c.81.07,1.59,0,2.4,0a14.58,14.58,0,0,1,2.63-.11h0a2.1,2.1,0,0,0,.8-.09l.31-.18-.13-.12c.1,0,.21,0,.25,0,.22-.1.09-.21,0-.37s0-.18-.08-.25h.18c0-.06-.22,0-.17-.07s.14,0,.21,0-.24,0-.23-.12.2.12.21,0-.06,0-.1,0c.22,0,.33-.14.14-.25a1.81,1.81,0,0,0,.23,0h0l-.13,0h.13l0,0-.09,0h.08a.36.36,0,0,0-.07-.1c-.09-.07-.19-.18-.24-.18A10.84,10.84,0,0,0,200.05,68Z"/><line class="cls-7" x1="189.78" y1="69.02" x2="184.54" y2="69.02"/><path class="cls-3" d="M188.53,68s0,.08,0,.1-.16-.1-.24-.06,0,0,0,.06l-.2-.09-.39,0s0,0,0,.06-.12,0-.2,0h0s0,0,0,0l-.09,0-1.17.43a1.1,1.1,0,0,1-.25.15,1.85,1.85,0,0,1-.41,0c0,.23-.28.34-.22.57-.08,0-.2,0-.21,0a.61.61,0,0,1-.29.54c-.09,0-.21,0-.24,0s.11.14.06.2c.62.07,1.22,0,1.85,0a8.73,8.73,0,0,1,2-.11h0a1.3,1.3,0,0,0,.62-.09l.23-.18-.1-.12c.08,0,.17,0,.2,0s.07-.21,0-.37,0-.18-.05-.25h.13c0-.06-.16,0-.13-.07s.11,0,.17,0-.19,0-.18-.12.15.12.16,0,0,0-.08,0c.17,0,.26-.14.11-.25.05,0,.12,0,.18,0h0l-.1,0h.09s0,0,0,0l-.08,0h.07l-.06-.1c-.07-.07-.14-.18-.18-.18A6.61,6.61,0,0,0,188.53,68Z"/><circle class="cls-2" cx="37.72" cy="40.85" r="4.18"/><line class="cls-7" x1="38.05" y1="49.14" x2="38.05" y2="42.34"/><path class="cls-3" d="M39.07,47.52s-.08,0-.1,0,.1-.2.06-.31H39c0-.09.06-.18.09-.27a4.23,4.23,0,0,0-.05-.5s0,0,0,0a1.19,1.19,0,0,1,0-.26v0h-.05c0-.05,0-.09,0-.12-.12-.49-.27-1-.42-1.52a1.61,1.61,0,0,1-.15-.33,3.13,3.13,0,0,1,0-.53c-.23,0-.34-.35-.57-.28,0-.1,0-.26-.06-.27a.59.59,0,0,1-.53-.38c0-.11,0-.28,0-.32s-.14.14-.2.08c-.07.81,0,1.59,0,2.41a14.65,14.65,0,0,1,.1,2.63v0a2,2,0,0,0,.09.81c.05.1.12.2.18.31l.12-.14c0,.11,0,.21,0,.25.1.23.21.1.37,0s.17,0,.24-.08v.18c.06,0,0-.22.07-.17s0,.14,0,.21,0-.24.12-.23-.12.2,0,.21,0-.07,0-.1c0,.21.13.33.25.13,0,.07,0,.17,0,.24h0s0-.1,0-.13v.12l0,0a.29.29,0,0,0,0-.09v.08l.1-.07c.07-.1.17-.19.18-.24C39,48.36,39.06,47.94,39.07,47.52Z"/><line class="cls-7" x1="37.89" y1="38.33" x2="37.89" y2="32"/><path class="cls-3" d="M38.92,36.82s-.08,0-.1,0,.09-.19.06-.29h-.07l.1-.24c0-.16,0-.31,0-.47,0,0,0,0-.06,0a1.1,1.1,0,0,1,0-.24v0l-.06,0s0-.08,0-.11c-.13-.45-.28-.91-.43-1.41a1.75,1.75,0,0,1-.15-.31,2.63,2.63,0,0,1,0-.49c-.23,0-.35-.34-.58-.27,0-.09,0-.24,0-.25a.61.61,0,0,1-.54-.35c0-.11.05-.26,0-.3s-.13.13-.2.08c-.07.75,0,1.48,0,2.24a13.56,13.56,0,0,1,.1,2.45v0a2.06,2.06,0,0,0,.09.75c.06.09.12.19.19.28l.11-.12c0,.1,0,.2,0,.24.1.2.22.09.37,0S38,38,38,37.9c0,.06,0,.09,0,.16s0-.2.07-.16,0,.14,0,.2,0-.22.12-.21-.12.18,0,.19,0-.06,0-.09c0,.2.14.31.26.12a.93.93,0,0,0,0,.22h0s0-.09,0-.12v.12l0,0a.16.16,0,0,0,0-.09.25.25,0,0,1,0,.08l.11-.07c.07-.09.17-.18.17-.22A11.93,11.93,0,0,0,38.92,36.82Z"/><line class="cls-7" x1="46.7" y1="40.82" x2="39.9" y2="40.82"/><path class="cls-3" d="M45.07,39.79s0,.09,0,.1-.2-.09-.31,0v.06l-.26-.09a4,4,0,0,0-.5,0s0,0,0,.06a1.37,1.37,0,0,1-.27,0l0,0a.08.08,0,0,0,0,.05l-.12,0L42,40.37a1.68,1.68,0,0,1-.34.15,3,3,0,0,1-.52,0c0,.23-.36.35-.28.58-.11,0-.27,0-.27,0a.64.64,0,0,1-.39.54c-.11,0-.27,0-.31,0s.14.13.08.2c.81.07,1.59,0,2.4,0a15.63,15.63,0,0,1,2.63-.1h.05a2.32,2.32,0,0,0,.8-.09l.31-.19a.69.69,0,0,1-.13-.11c.1,0,.21,0,.25,0,.22-.1.1-.22,0-.37s0-.18-.07-.25h.17c0-.06-.22,0-.17-.07s.15,0,.22,0-.25,0-.24-.12.2.11.21,0-.06,0-.1,0c.22,0,.34-.14.14-.26a.93.93,0,0,0,.24,0h0l-.14,0h.13a.08.08,0,0,1,0,0l-.1,0h.08a.36.36,0,0,0-.07-.1c-.09-.07-.19-.18-.24-.18C45.92,39.84,45.49,39.8,45.07,39.79Z"/><line class="cls-7" x1="34.8" y1="40.82" x2="29.56" y2="40.82"/><path class="cls-3" d="M33.55,39.79s0,.09,0,.1-.16-.09-.24,0v.06l-.2-.09a2.58,2.58,0,0,0-.39,0s0,0,0,.06a.82.82,0,0,1-.21,0l0,0a.07.07,0,0,0,0,.05l-.1,0-1.16.43a1.43,1.43,0,0,1-.26.15,1.84,1.84,0,0,1-.41,0c0,.23-.27.35-.22.58-.08,0-.2,0-.2,0a.66.66,0,0,1-.3.54c-.08,0-.21,0-.24,0s.11.13.06.2a16.52,16.52,0,0,0,1.86,0,9.23,9.23,0,0,1,2-.1h0a1.42,1.42,0,0,0,.62-.09l.24-.19-.11-.11c.09,0,.17,0,.2,0s.07-.22,0-.37,0-.18-.06-.25h.13c0-.06-.16,0-.13-.07s.11,0,.17,0-.19,0-.18-.12.15.11.16,0-.05,0-.08,0c.17,0,.26-.14.11-.26a.58.58,0,0,0,.18,0h0l-.1,0h.09s0,0,0,0l-.07,0h.06a.93.93,0,0,1-.05-.1c-.08-.07-.15-.18-.19-.18A8.35,8.35,0,0,0,33.55,39.79Z"/></g></g></svg>