<svg xmlns="http://www.w3.org/2000/svg" viewBox="0 0 278.68 281.24"><defs><style>.cls-1{fill:#202020;}.cls-2{fill:#face6f;fill-rule:evenodd;}.cls-3{fill:#fefcdd;}.cls-4{fill:#fff;}.cls-5{fill:#dde3e9;}</style></defs><g id="Layer_2" data-name="Layer 2"><g id="Layer_1-2" data-name="Layer 1"><path class="cls-1" d="M210,62.36c-.1,0-.16.22-.26-.07a9,9,0,0,0-.71-2.52l-.17,0a9.52,9.52,0,0,0-1.08-2,9,9,0,0,0-3.53-2.35c0,.07,0,.13-.13.1A13.47,13.47,0,0,0,202,55h-.37a.24.24,0,0,0-.15.11l-1-.06a8.74,8.74,0,0,0-5.26,2.61A8.24,8.24,0,0,0,193,62.9a10.37,10.37,0,0,0,.41,2.38,8.85,8.85,0,0,0,1.41,3.36c.18-.25.71.12,1.26.32s1,.3,1-.07c.46.38,1.27.8,1.38.65.32-.42.93-.67,2.14-.86a4.62,4.62,0,0,0,1.37-.1c.22-.2-.67-.22-.43-.43a4.49,4.49,0,0,1-4.09-1.7,4.15,4.15,0,0,1-.39-4.44,3.16,3.16,0,0,1,1-1.52,4.37,4.37,0,0,1,3-1,4.45,4.45,0,0,1,3,1.39A4.22,4.22,0,0,1,205.22,63l0,.18a6.72,6.72,0,0,1-.4,3.35,5.94,5.94,0,0,1-.57,1.38l.66-.27a11.66,11.66,0,0,0-.9.92c-.39.43-.48.58-.33.69a2,2,0,0,0,.82.1c.41-.08.14.46.74.2a5.48,5.48,0,0,1-1,.63c.07.21,1.13-.86,1-.47a13.57,13.57,0,0,1-1.18.8c.27.16,1.44-.8,1.49-.62-.16.25-1.28.54-1.23.8,0,.06.45-.17.65-.32-.61.47-1.13.77-1.31,1s0,.29.75.11a15,15,0,0,1-1.72.54h0a9.18,9.18,0,0,0,1-.23c-.29.11-.6.18-.9.27l.19.06a3.47,3.47,0,0,0,.71-.16,6.17,6.17,0,0,1-.61.19,3.48,3.48,0,0,0,.61.08,6,6,0,0,0,2-.49A9,9,0,0,0,210,62.36Z"/><g id="Background-Shape-2"><path id="Background-Shape" class="cls-2" d="M276,195.84c4,29.2-93.21,48.25-176.88,35S-23,165.6,17,137.94,272,166.64,276,195.84Z"/></g><path class="cls-1" d="M71.32,161.12c0-.05-.7.34.34-.34,3.31-2.1,6.06-3.65,9.37-5.75l.21-.21,8.05-4.89q7.58-4.73,15-9.41c-.14.06-.21.08.28-.24,2.07-1.31,5-3.08,8-4.93l1.31-.82a3,3,0,0,0,.45-.35l3.67-2.26,45.45-28.75c3.38-2.17,6.76-4.35,10-6.41,4.86-3.05,11.09-6.88,15.84-9.82-.85.25,10.67-7,8.24-5.8,3.16-2,7.92-4.91,8.13-5.12.63-.62,3-2.32,11.29-7.65,3.28-2.07,8.37-5.14,9.51-5.89,1.8-1.19-4.33,2.53-2.54,1.34C199.47,79,176,93.66,151.36,109,143,114.26,86.54,149.43,72,158.41l-1.32.82c-7.93,4.92-17.54,10.91-24.19,15.15l-9.22,5.94,4-2.35c-3.17,2-6.34,3.92-7.53,4.72-6.7,4.27-2.81,2-.14.52,1.91-1.11-.56.55,2.4-1.2l-5.29,3.27c-.2.2,6.49-4.07,5.08-3.07-2,1.24-4.3,2.69-6.41,4,.78-.38,7.33-4.52,7-4.24-1.13.72-6,3.58-6.34,3.93-.07.07,2-1.24,3.1-1.9-6.48,4.07-10,6.38-4,2.8-2.06,1.27-5,3-7.17,4.41h0l4-2.44-3.71,2.3.67-.36L25.81,189l-2.47,1.53c.63-.35,1.36-.76,2.15-1.22,3-1.76,5.82-3.41,7.4-4.39C45.7,177,58.55,169,71.32,161.12Z"/><path class="cls-1" d="M116.06,235c0-.05-.69.37.33-.35,3.25-2.28,5.94-4,9.19-6.24l.2-.22,7.89-5.31q7.41-5.11,14.75-10.19c-.14.07-.22.1.27-.25,2-1.41,4.86-3.33,7.79-5.34l1.28-.89a3,3,0,0,0,.45-.37l3.59-2.45,44.51-31.1c3.31-2.35,6.62-4.7,9.82-6.93,4.76-3.3,10.87-7.45,15.53-10.64-.84.3,10.43-7.58,8-6.22,3.1-2.13,7.76-5.32,8-5.54.61-.66,2.87-2.48,11-8.24,3.21-2.23,8.21-5.57,9.32-6.38,1.76-1.28-4.25,2.76-2.5,1.47-24,16.41-47,32.33-71.14,48.9-8.15,5.72-63.5,43.81-77.75,53.54l-1.29.89c-7.77,5.32-17.18,11.81-23.7,16.4-3,2.11-6,4.27-9,6.42l3.93-2.57c-3.1,2.13-6.21,4.26-7.38,5.11-6.55,4.63-2.74,2.15-.11.53,1.87-1.2-.55.59,2.36-1.32l-5.18,3.54c-.2.22,6.35-4.4,5-3.32-2,1.34-4.21,2.91-6.28,4.32.77-.42,7.18-4.89,6.91-4.6-1.1.78-5.88,3.89-6.21,4.26-.07.07,2-1.35,3-2.06-6.35,4.4-9.8,6.9-3.92,3-2,1.39-4.9,3.31-7,4.79h0c1.07-.73,2.92-2,3.9-2.65L68,267.5l.66-.4,2.77-1.87L69,266.89l2.12-1.33c2.9-1.91,5.7-3.71,7.25-4.78C91,252.22,103.55,243.62,116.06,235Z"/><path class="cls-1" d="M183.1,122.92s-.35.13.13-.2c1.54-1,2.86-1.66,4.39-2.66l.08-.12,3.79-2.24,7-4.42c-.07,0-.11,0,.11-.13,1-.62,2.32-1.44,3.72-2.3l.61-.39a.73.73,0,0,0,.2-.18l1.71-1c6.78-4.36,13.64-8.81,21.1-13.62,1.56-1,3.12-2.08,4.64-3.06,2.26-1.43,5.18-3.2,7.4-4.57-.46,0,4.88-3.44,3.68-3,1.48-.92,3.7-2.29,3.78-2.42.24-.38,1.26-1.27,5.12-3.81,1.52-1,3.92-2.38,4.44-2.75.82-.58-2.06,1.12-1.24.54-11.45,7-22.39,13.94-33.89,21.08-3.85,2.52-30.21,19-37,23.12l-.61.39c-3.71,2.29-8.19,5.09-11.27,7.11l-4.25,2.86,1.9-1c-1.48.91-3,1.83-3.5,2.22-3.1,2-1.26,1,0,.41.91-.49-.22.34,1.18-.45l-2.46,1.52c-.08.13,3-1.91,2.39-1.4-1,.57-2,1.27-3,1.87.39-.13,3.43-2.09,3.32-1.92-.52.35-2.83,1.62-3,1.83,0,0,1-.57,1.45-.87-3,1.91-4.63,3-1.8,1.42-1,.59-2.34,1.4-3.35,2h0l1.86-1.13-1.73,1.07.32-.15c.44-.25.88-.51,1.33-.79l-1.15.71,1-.52c1.4-.79,2.77-1.52,3.51-2C171.13,130.31,177.14,126.62,183.1,122.92Z"/><path class="cls-1" d="M43.66,209.53c0-.05-.61.28.29-.3,2.83-1.81,5.19-3.12,8-4.92l.17-.19,6.9-4.18,12.89-8.06c-.12.05-.19.06.23-.21L79,187.45l1.12-.71a1.69,1.69,0,0,0,.38-.3l3.15-1.94,38.89-24.67,8.58-5.51,13.57-8.41c-.76.2,9.15-6.09,7-5l1.29-.8-3.41-1.2c-1.11-.38-1.91-.65-2-.66-.76-.06-3.15-.67-11.18-3.39-3.14-1.08-7.91-2.86-9-3.21-1.76-.56,4,1.56,2.25,1l21.53,7.65-39,24.31c-7.12,4.55-55.5,34.67-68,42.36l-1.12.71c-6.79,4.2-15,9.34-20.72,13l-7.87,5.11,3.44-2c-2.72,1.68-5.43,3.36-6.45,4-5.73,3.67-2.39,1.73-.09.49,1.64-.94-.47.49,2.07-1l-4.52,2.8c-.18.18,5.55-3.49,4.35-2.62-1.75,1.06-3.68,2.31-5.49,3.43.67-.32,6.28-3.87,6-3.62-1,.62-5.13,3.06-5.43,3.36-.05.07,1.76-1,2.66-1.62-5.55,3.49-8.56,5.48-3.42,2.43l-6.13,3.77h0l3.41-2.09-3.18,2,.58-.31,2.42-1.47-2.11,1.3c.57-.31,1.19-.65,1.85-1,2.54-1.49,5-2.9,6.35-3.74Z"/><path class="cls-1" d="M75.34,224.35s-.44.18.19-.23c2-1.29,3.69-2.18,5.69-3.46l.11-.15,4.89-2.93,9.1-5.71c-.09,0-.14,0,.16-.16l4.82-3,.79-.51a1.64,1.64,0,0,0,.26-.22l2.22-1.37L131,189.09l6-3.93,9.68-6-.71-.26c.05.09-.56-.08-1.33-.3l-2.5-.75c-1.72-.51-3.31-1-2.57-.6-2.12-.76-5.31-1.89-5.5-1.89-.56,0-2.27-.36-8-2.25-2.22-.75-5.58-2-6.37-2.27-1.25-.38,2.81,1.14,1.57.77l22.22,7.89-20.2,12.59c-5,3.24-39.2,24.54-48,30l-.8.49c-4.8,3-10.61,6.61-14.62,9.2l-5.54,3.66L56.84,234c-1.92,1.19-3.84,2.38-4.55,2.87-4,2.62-1.66,1.28,0,.44,1.16-.64-.31.39,1.5-.64l-3.2,2c-.11.15,3.91-2.47,3.08-1.83-1.24.74-2.59,1.63-3.87,2.42.49-.2,4.44-2.72,4.29-2.52-.68.44-3.65,2.13-3.84,2.37,0,0,1.24-.74,1.88-1.13-3.91,2.47-6,3.9-2.37,1.77-1.25.77-3,1.83-4.35,2.66h0l2.42-1.47-2.25,1.39.42-.21,1.71-1-1.49.92,1.32-.7c1.81-1,3.56-2,4.52-2.6Z"/><path class="cls-1" d="M173.67,162.59c0-.05-.35.12.13-.2,1.53-1,2.84-1.65,4.36-2.64l.08-.13c1.21-.71,2.48-1.46,3.76-2.23l7-4.38c-.07,0-.11,0,.12-.13.95-.62,2.3-1.43,3.69-2.28l.6-.39a1,1,0,0,0,.2-.18l1.7-1.05,20.95-13.52,2.32-1.54,2.39-1.56,1.91-1.2-7.05-2.53c.29.35-5.7-1.65-4.59-1-1.62-.58-4.07-1.46-4.21-1.44-.45,0-1.78-.18-6.14-1.6-1.7-.57-4.27-1.57-4.88-1.75-1-.27,2.14.91,1.18.64l12.37,4.41,10.27,3.61-9.6,6c-3.83,2.5-30,18.82-36.75,23l-.61.38c-3.68,2.27-8.13,5.06-11.19,7.06l-4.22,2.84,1.89-1c-1.47.91-2.94,1.82-3.48,2.2-3.08,2-1.25,1,0,.41.9-.47-.21.34,1.18-.44l-2.45,1.51c-.08.13,3-1.9,2.37-1.39-.95.57-2,1.26-3,1.86.39-.13,3.41-2.07,3.3-1.91-.51.35-2.81,1.61-2.94,1.82,0,0,1-.56,1.45-.87-3,1.9-4.6,3-1.79,1.42-1,.59-2.33,1.38-3.33,2h0l1.85-1.12-1.72,1.07.32-.15,1.32-.79-1.14.71,1-.52c1.39-.79,2.75-1.5,3.48-2Z"/><rect class="cls-3" x="66.09" y="209.96" width="6.44" height="56.6" transform="translate(-110.03 66.77) rotate(-30.06)"/><path class="cls-1" d="M67.56,234c.1,0,0-.45.34.09,1.11,1.72,1.64,3.32,2.75,5l.21,0,2.26,4.38q2.38,4,4.74,8c0-.1,0-.16.22.09.67,1.09,1.51,2.65,2.41,4.24.15.23.29.46.43.69s.22.18.26.19c.41.72.76,1.37,1.1,2l.53.85.27.43a.82.82,0,0,0,.09.11l.29.37-.23.2a3,3,0,0,1-.62.43l-.63.4-.19.14-.43.32-.38-.48-.1-.14-.27-.43L80,260c-.75-1.2-1.52-2.41-2.3-3.64l-4.81-7.62c-1.18-1.74-2.36-3.48-3.44-5.19-1.55-2.56-3.37-5.92-4.81-8.45-.28.67-4.09-5.34-3.88-3.82A34.74,34.74,0,0,0,58.18,227c-.65-.15-1.89-1.16-4.73-5.49-1.08-1.71-2.45-4.5-2.9-5.07-.69-.89,1,2.44.32,1.55,7.37,13.09,14.8,25.5,22.37,38.59.41.63,1.12,1.78,2.05,3.33l1.55,2.59c.93,1.59,1.93,3.3,3,5.11l9.57-5.6L79,244.1c-2.91-5-5.39-9.34-6.7-11.67l-.41-.7c-2.41-4.23-5.41-9.32-7.66-12.77l-3.27-4.72c.35.81.68,1.56,1,2.24l-1.38-2.4-.75-1.25c-.25-.4-.46-.72-.61-.93-.34-.53-.63-1-.84-1.3-2.55,1.68-1.31,1.2-.24.87.14.37.29.77.43,1.16.27.64.14.62.06.71s-.1.26.22,1l-1-1.77-.72.41c0,.09.28-.09.7-.33.48.82,1.23,2,.83,1.68-.25-.51-.57-1-.87-1.52-.44.27-.86.53-1.26.76a4.1,4.1,0,0,0,1.19-.53c.46.84,1,1.72.81,1.71-.16-.21-.48-1-.82-1.64-.44.21-.83.45-.88.61a3.15,3.15,0,0,0,.82-.4l.17.29-.17-.27c-.54.34-1,.64-1.32.88l-.6.42a4.14,4.14,0,0,0-.42.33c-.18.17-.17.23.09.16l.57-.22.43-.19.26-.09-1.63.88c-.68.36-1.36.74-1.93,1.09h0l2.14-1.16-2,1.12.4-.1c.51-.25,1-.51,1.53-.81l-1.31.75c.37-.11.79-.25,1.24-.42l1.17-.52.28-.13c.1,0,.21-.09.2-.07h.11c.14,0,.18.07.22.06v0l.06.15,0,.07h0l.05.1.18.32,1.44,2.57,2.9,5.14Q64.64,228.84,67.56,234Z"/><polygon class="cls-3" points="80.7 264.37 86.27 261.14 92.62 267.31 92.02 277.5 82.88 272.95 80.7 264.37"/><path class="cls-1" d="M87.51,265.92c.07-.07,0-.24.23-.12.59.44.77,1.09,1.36,1.52l.15-.08.53.68.26.34,0,.05h0l0,0h0v1.35c.06,0,.11,0,.13.08,0,.45-.08,1.07-.14,1.72l0,.28a.2.2,0,0,0,.12.12c0,.29-.06.55-.09.79a2.48,2.48,0,0,0,.17,1.14,8,8,0,0,1,.19,1,2.51,2.51,0,0,1-.76-.06l-.6-.13-1.26-.47a22.07,22.07,0,0,1-2.13-.64c-.39-.17-.81-.38-1.24-.61l-.5-.27-.41-.24-.09-.45c-.46.54-1.38-1.92-1.81-1.27-.16-.67-.4-1.68-.57-1.69-.51,0-1.19-.41-1.92-2.1-.25-.68-.32-1.79-.47-2s-.11,1-.36.63c.3,1.38.62,2.73,1,4.07.45,1.73.89,3.45,1.34,5.17,4.81,2.36,4,1.92,8.79,4.29.76.32,2.5,1.13,4.75,2.2.11-2.41.25-5.41.4-8.51.11-2.15.23-4.36.34-6.31L92.39,264l-1.24-1.25-.21-.19c-.49-.49-1-1-1.56-1.51L88,259.72l-1.39-1.26c-.55.36-1.06.69-1.51,1l-1.44,1.09-.76.71c.32-.07.62-.14.88-.18a6.44,6.44,0,0,0-1.38.89c-1.14.95-.28.78.41.84.43-.06.09.45.73.28l-1,.55c0,.17,1.18-.77,1-.38a11.42,11.42,0,0,0-1.19.72c.25.11,1.42-.72,1.47-.5-.19.17-1.27.39-1.21.67,0,0,.42-.17.62-.28-1.18.78-1.72,1.39-.46,1-.39.22-1,.44-1.39.71h0c.21-.11.59-.27.78-.37l-.71.39.18,0a5.62,5.62,0,0,0,.56-.25l-.47.26h.53a10.49,10.49,0,0,0,1.59-.42l1.82-1,.1,0h.1l0,.06v0h0l.09.1Z"/><path class="cls-4" d="M10.52,136.7A16.32,16.32,0,0,0,4.57,159c2.95,5.11,23.59,30.73,30.64,39.36l0,.06a16.91,16.91,0,0,1,3.5,9c.36,3.61-.57,4.88,2.4,10l12-7,12-7c-3-5.12-4.52-4.95-7.48-7.06a17,17,0,0,1-6-7.51l0-.07c-4-10.42-15.91-41.07-18.87-46.18A16.33,16.33,0,0,0,10.52,136.7Z"/><path class="cls-1" d="M18.74,182c.1,0-.28-.67.46.19,2.3,2.73,3.82,5.18,6.13,7.9l.29.1,5.2,6.82,2.55,3.11A12.84,12.84,0,0,1,35.11,203a15.79,15.79,0,0,1,1,3.3,20.4,20.4,0,0,1,.33,3.6c.06-.14.11-.21.14.34a14.54,14.54,0,0,0,.78,4.53c.06.2.14.4.22.6l.12.29a4,4,0,0,0,.2.45c.3.63.6,1.29,1,1.9l1,1.9.26.49.07.12s.08,0,.12,0l.24-.13,1-.51c.76-.41,1.53-.87,2.28-1.32a3.15,3.15,0,0,0,.77-.59L48,216l10.11-6.14,5.1-3.11,1.8-1.08c.74-.42,1.41-.87,2.09-1.3a2.68,2.68,0,0,0,.48-.33l-.33-.54-.66-1.06c-.43-.7-.88-1.39-1.38-2.06-.26-.39-.42-.54-.6-.78s-.38-.43-.57-.64a11.33,11.33,0,0,0-1.3-1.19A24.14,24.14,0,0,0,60,196a17.73,17.73,0,0,1-4.48-3.55,14.69,14.69,0,0,1-1.7-2.3,17.09,17.09,0,0,1-1.27-2.68c-.8-2-1.61-3.94-2.43-5.94-1.46-3.35-2.93-6.7-4.29-9.94-1.92-4.85-4.38-11-6.25-15.76-.12.48-1.42-2.13-2.67-4.52s-2.44-4.57-2.21-3.33c-.68-1.53-1.52-3.49-2.34-4.94a9.62,9.62,0,0,0-1.88-2.41,5.33,5.33,0,0,1-.92-.44c-.21-.11-.44-.27-.71-.45s-.62-.34-1-.57a17.12,17.12,0,0,0-7.76-2.49,16.17,16.17,0,0,0-5.13.4,15.49,15.49,0,0,0-2.16.73c-.57.29-1,.52-1.25.67-.4.28-.34.29-.06.18l1.19-.47c.92-.34,1.86-.57,1.12-.21a13.68,13.68,0,0,1,8.07-.48,13.78,13.78,0,0,1,6.9,4.06A14.12,14.12,0,0,1,31.06,145c.67,1.35,1.32,2.81,2,4.25,1.28,2.92,2.5,5.87,3.73,8.83q3.66,8.9,7.2,17.9,1.77,4.51,3.55,9.06l1.76,4.56a18,18,0,0,0,2.82,4.94,21.31,21.31,0,0,0,4.71,4.2c.59.4,1.24.78,1.84,1.13a13.12,13.12,0,0,1,1.58,1,8.56,8.56,0,0,1,1.34,1.35l.24.31.07.1,0,0,0,0-.1.07-2,1.17-5.33,3.12L43,213.75l-.87.51-.11-.19,0-.1-.18-.46a7.89,7.89,0,0,1-.59-2.63c-.06-.94,0-2.18-.14-3.42a20.21,20.21,0,0,0-1.9-7.08,17.22,17.22,0,0,0-1.9-3.08l-2-2.42c-5-6.19-9.19-11.42-11.58-14.48l-.88-1.09-8.31-10.55C11.71,165.22,9,161.78,7,159a14.73,14.73,0,0,1-3-8.23,5.1,5.1,0,0,0,0,1c0,.33,0,.67,0,1a16.2,16.2,0,0,0,.22,1.82A17.2,17.2,0,0,1,4,147.22c.78-3.25,1.34-3.87.92-3.57a12.26,12.26,0,0,0-1.75,3c-.29.94-.36.75-.46.69s-.11,0-.2.19a4.77,4.77,0,0,0-.37,1.39c0-.28.07-.55.1-.8s.1-.49.15-.72a12.15,12.15,0,0,1,.33-1.29c.14-.4.25-.82.42-1.26s.38-.89.63-1.41a11.1,11.1,0,0,0-1.2,3c-.4,1.56-.52,3-.56,2.19A18,18,0,0,1,4.35,142a9.66,9.66,0,0,0-.87,1.35,17.94,17.94,0,0,0-1,2.51,10.81,10.81,0,0,0-.36,1.31c-.08.42-.2.79-.24,1.12-.09.64-.17,1-.21.93a14.08,14.08,0,0,1,.88-3.74c.23-.75.59-1.41.8-1.95a4.21,4.21,0,0,0,.43-1,5.67,5.67,0,0,0-.62,1.09,15.3,15.3,0,0,0-.81,2.06A20.53,20.53,0,0,1,5.92,139c.35-.42.38-.55,0-.27a6.43,6.43,0,0,0-.82.78c-.18.19-.4.41-.63.67l-.7.94A12.87,12.87,0,0,1,5,139.54c.23-.26.45-.53.7-.8l.79-.75a18.08,18.08,0,0,1,1.68-1.38c.57-.42,1.16-.77,1.68-1.13h0a18.73,18.73,0,0,0-3.68,2.76l.77-.75.85-.67a15.16,15.16,0,0,1,1.78-1.22l-.7.31a10,10,0,0,0-1.34.93,8.64,8.64,0,0,0-1.27,1.08,9.79,9.79,0,0,1,1.08-1,14.14,14.14,0,0,1,1.16-.88,15.21,15.21,0,0,0-2.1,1.35A19.59,19.59,0,0,0,3,141.12c-.41.64-.81,1.25-1.11,1.82s-.53,1.11-.69,1.56A18.65,18.65,0,0,0,0,150.23a17.67,17.67,0,0,0,.69,5.82,18.79,18.79,0,0,0,2.43,5.3c1,1.52,2,2.92,3,4.32C10.28,171.23,14.5,176.62,18.74,182Z"/><line class="cls-4" x1="63.81" y1="208.74" x2="46.44" y2="218.79"/><path class="cls-1" d="M58.37,208.92c.05.09.16.14.09.24-.23.24-.62.08-.86.33l.06.15-.79.19c-.42.27-.83.54-1.22.84,0,0,.07.09,0,.13a3.36,3.36,0,0,1-.69.36l-.09.09c0,.05,0,.1,0,.14l-.33.14c-1.08,1-2.15,2.05-3.33,3.17a5,5,0,0,1-.67.81,8.55,8.55,0,0,1-1.37.72c.35.47-.49,1.28,0,1.67-.28.15-.69.36-.63.51a1.6,1.6,0,0,1-.3,1.74c-.25.22-.78.29-.83.43s.54.09.46.32c2.16-1.05,4-2.39,6.13-3.59a51.27,51.27,0,0,1,6.6-4.11l.11-.07a7.34,7.34,0,0,0,1.93-1.39c.19-.27.38-.56.56-.85a3.5,3.5,0,0,1-.48-.06c.28-.14.55-.28.6-.43.45-.55,0-.61-.43-.82-.25-.06-.17-.41-.5-.42l.46-.24c-.07-.15-.51.39-.52.09.2,0,.34-.25.53-.34-.18-.16-.66.28-.75.08.07-.1.65,0,.55-.29,0-.05-.2,0-.29.09.51-.39.68-.79,0-.75a4.11,4.11,0,0,0,.65-.28h0l-.37.13.32-.17-.11-.06a.92.92,0,0,0-.27.08l.22-.11a1.66,1.66,0,0,0-.31-.12,3,3,0,0,0-.84,0C60.6,207.76,59.46,208.31,58.37,208.92Z"/><line class="cls-3" x1="88.07" y1="270.69" x2="86.44" y2="267.87"/><path class="cls-1" d="M89.9,268.73a1.28,1.28,0,0,1-.22.12c-.11,0,.17-.21.06-.21l-.15.08.15-.23a1.28,1.28,0,0,0-.23-.14.33.33,0,0,1-.12.06s0-.08,0-.12h0l-.11.06s0,0,0-.07c-.39,0-.84-.06-1.29-.09a1.72,1.72,0,0,1-.4.05c-.09,0,0-.18-.07-.25-.49.3-.83.28-1.32.6,0-.05,0-.12-.18,0a4.11,4.11,0,0,1-1.25.51c-.09,0,0-.18,0-.15s-.26.23-.41.29c0,.42.41.64.6,1,.29,0,.84.71.85,1l0,0a.33.33,0,0,0,.39.21c.15,0,.31-.06.48-.1l.21-.2c0,.05,0,.1.13.07a1.86,1.86,0,0,0,.8-.46,4.52,4.52,0,0,0,.51-.34l0,.08c.14-.07-.13,0,.12-.16,0,.06.06,0,.07.08.19-.12,0-.15.21-.25s-.21.23,0,.1c0,0,0-.06,0-.08a.64.64,0,0,0,.59-.26s-.07.13,0,.14h0s0-.07,0-.09l0,.06.09-.07s0-.05,0-.07l0,0,.2-.16c.13-.12.33-.29.32-.32A1.31,1.31,0,0,0,89.9,268.73Z"/><path class="cls-1" d="M33.37,178c-.09,0-.09.24-.26,0-.51-.64-.56-1.37-1.06-2l-.17,0-.81-1.79c-.66-1-1.32-2.06-2-3.07,0,.06-.08.1-.16,0-.3-.41-.62-1-1-1.66l-.19-.26a.24.24,0,0,0-.17,0c-.17-.28-.3-.54-.43-.78l-6.7-8.93c-.56-.64-1.12-1.27-1.6-1.92-.68-1-1.34-2.29-2-3.35-.19.23-.74-.23-1.29-.58s-1.09-.6-1.12-.21c-.47-.56-1.29-1.28-1.45-1.16a1.68,1.68,0,0,1-.92.26c-.41,0-1-.06-1.57,0-.21,0-.41,0-.55-.06s-.21,0-.22.07-.05.12,0,.12.09.07.13.09A.35.35,0,0,1,10,153a2.09,2.09,0,0,1,.61.13,4.69,4.69,0,0,1,1.18.67,9.27,9.27,0,0,1,2.25,2.5l2.3,3.67c.78,1.25,1.55,2.51,2.34,3.79C20,165.38,27.26,177.09,29,180.16l.17.27a43.93,43.93,0,0,0,3.28,4.93c.5.57,1,1.13,1.57,1.7-.1-.35-.19-.68-.26-1a7.8,7.8,0,0,0,1,1.53c1.06,1.27.82.33.83-.42-.09-.47.45-.09.23-.79l.65,1.11c.17,0-.89-1.31-.48-1.14.21.45.58.87.84,1.32.1-.27-.85-1.56-.63-1.61.19.21.5,1.39.78,1.33.06,0-.2-.46-.33-.68.89,1.31,1.57,1.92,1.07.53.25.43.52,1.1.83,1.53h0c-.13-.23-.32-.64-.44-.85l.46.77a1.15,1.15,0,0,0,0-.19,5,5,0,0,0-.3-.62l.3.52a3.82,3.82,0,0,0,0-.57A13.86,13.86,0,0,0,38,186.1C36.51,183.39,35,180.68,33.37,178Z"/><path class="cls-1" d="M39.45,174.6c-.09.05-.1.24-.27,0-.47-.67-.49-1.4-1-2.07l-.17,0c-.23-.58-.49-1.21-.73-1.83-.62-1.06-1.24-2.12-1.88-3.16,0,.06-.07.1-.15,0-.28-.42-.57-1.06-.91-1.71l-.17-.27a.24.24,0,0,0-.17,0c-.16-.29-.28-.55-.4-.8l-6.28-9.22c-.53-.65-1.06-1.31-1.51-2-.61-1-1.28-2.42-1.78-3.38-.22.21-.7-.25-1.13-.73s-.8-1-1-.61a15.7,15.7,0,0,0-.6-2,1.28,1.28,0,0,1-.81-.74,4.1,4.1,0,0,1-.26-2.79,4.76,4.76,0,0,1,1-1.87,11.46,11.46,0,0,1,1.28-1.08c.08-.09,0-.12,0-.12a2.35,2.35,0,0,0-.55.22c-.45.2-.83.53-.6.16a6.21,6.21,0,0,0-1.83,3.28,9.23,9.23,0,0,0-.12,3A13.54,13.54,0,0,0,21.15,152c1.44,2.57,2.88,5.15,4.36,7.78,1.2,1.65,7.91,13.64,9.5,16.78l.17.28a43.77,43.77,0,0,0,3,5c.48.59,1,1.18,1.5,1.76-.09-.35-.16-.68-.22-1a8.21,8.21,0,0,0,.95,1.57c1,1.32.82.36.86-.38-.07-.48.46-.07.27-.78l.6,1.14c.17,0-.84-1.35-.43-1.16a14.12,14.12,0,0,0,.77,1.35c.11-.26-.78-1.6-.55-1.63.18.22.43,1.4.72,1.36.06,0-.18-.46-.3-.69.83,1.35,1.48,2,1,.58.24.44.48,1.12.77,1.56h0c-.12-.24-.29-.66-.41-.88l.43.8c0-.06,0-.13,0-.19a5.11,5.11,0,0,0-.27-.64l.28.53q0-.25,0-.57a13.25,13.25,0,0,0-.47-1.77C42.36,180.12,40.93,177.34,39.45,174.6Z"/><circle class="cls-4" cx="145.46" cy="206.78" r="5.21"/><line class="cls-5" x1="145.86" y1="217.13" x2="145.86" y2="208.65"/><path class="cls-1" d="M146.89,215.1s-.08,0-.1,0,.1-.25.06-.38h-.07c0-.11.07-.22.1-.33s0-.42,0-.63c0,0,0,0-.05,0a1.26,1.26,0,0,1,0-.33v0a.06.06,0,0,0-.05,0c0-.06,0-.11,0-.15-.13-.61-.28-1.22-.43-1.89a1.73,1.73,0,0,1-.14-.42,3.51,3.51,0,0,1,0-.65c-.23,0-.34-.45-.58-.36,0-.13,0-.32-.05-.33A.65.65,0,0,1,145,209c0-.14.06-.35,0-.39s-.14.17-.2.1c-.07,1,0,2,0,3A22.69,22.69,0,0,1,145,215v.05a3.21,3.21,0,0,0,.1,1c0,.13.12.26.18.39l.11-.16c0,.13,0,.26,0,.31.09.28.21.12.37,0s.17,0,.24-.09a1.62,1.62,0,0,1,0,.22c.07,0,0-.27.08-.21s0,.18,0,.26,0-.3.12-.29-.12.25,0,.27,0-.09,0-.13c0,.27.13.42.25.17a1.53,1.53,0,0,0,0,.3h0a.86.86,0,0,1,0-.17v.15l.05,0a.5.5,0,0,0,0-.12v.1l.1-.08c.07-.12.17-.24.17-.31C146.85,216.16,146.88,215.63,146.89,215.1Z"/><line class="cls-5" x1="145.67" y1="203.65" x2="145.67" y2="195.75"/><path class="cls-1" d="M146.7,201.76s-.09,0-.1,0,.09-.23.05-.36h-.06l.09-.3a5.46,5.46,0,0,0,0-.58s0,0-.06,0a1.67,1.67,0,0,1,0-.3l0,0s0,0-.05,0,0-.1,0-.14c-.13-.57-.28-1.14-.43-1.76a2.08,2.08,0,0,1-.15-.39,4.09,4.09,0,0,1,0-.61c-.23,0-.35-.42-.58-.33,0-.12,0-.3,0-.31a.63.63,0,0,1-.54-.45c0-.12,0-.32,0-.36s-.13.16-.2.09c-.07.94,0,1.85,0,2.8a21,21,0,0,1,.1,3.05v.05a3.16,3.16,0,0,0,.09.94l.19.35.11-.15c0,.12,0,.25,0,.29.1.26.22.12.37,0s.18,0,.25-.09a1.34,1.34,0,0,0,0,.2c.06,0,0-.25.07-.19s0,.16,0,.24,0-.28.12-.26-.11.22,0,.24,0-.08,0-.12c0,.25.14.39.26.16a1.26,1.26,0,0,0,0,.28h0a.8.8,0,0,0,0-.15v.15l0,0a.45.45,0,0,0,0-.11s0,.06,0,.1l.1-.08c.08-.12.18-.22.18-.29C146.65,202.74,146.69,202.25,146.7,201.76Z"/><line class="cls-5" x1="156.65" y1="206.75" x2="148.17" y2="206.75"/><path class="cls-1" d="M154.63,205.72s0,.08,0,.1-.25-.1-.39-.06a.2.2,0,0,1,0,.07l-.33-.1-.62.05s0,0,0,.05a1.25,1.25,0,0,1-.33,0h-.06s0,0,0,0h-.15l-1.88.43a1.88,1.88,0,0,1-.42.14,3.64,3.64,0,0,1-.66,0c0,.23-.44.34-.35.58-.13,0-.33,0-.34.05a.65.65,0,0,1-.47.54c-.14,0-.35-.06-.4,0s.18.14.1.2c1,.07,2,0,3,0a22.88,22.88,0,0,1,3.29-.1h.05a3.21,3.21,0,0,0,1-.1l.39-.18-.17-.11c.13,0,.27,0,.32,0,.27-.09.12-.21,0-.37s0-.17-.09-.24h.21c0-.07-.26,0-.2-.08s.17,0,.26,0-.3,0-.29-.12.25.12.26,0-.08,0-.12,0c.27,0,.41-.13.17-.25a1.36,1.36,0,0,0,.29,0h0l-.16,0h.15s0,0,0,0l-.12,0h.1a.41.41,0,0,0-.09-.1c-.12-.07-.23-.17-.3-.17C155.68,205.76,155.15,205.73,154.63,205.72Z"/><line class="cls-5" x1="141.82" y1="206.75" x2="135.27" y2="206.75"/><path class="cls-1" d="M140.25,205.72s0,.08,0,.1-.19-.1-.3-.06v.07l-.25-.1-.48.05a.07.07,0,0,1,0,.05.72.72,0,0,1-.25,0h-.05a.11.11,0,0,0,0,0h-.12l-1.45.43a1.17,1.17,0,0,1-.33.14,2.1,2.1,0,0,1-.5,0c0,.23-.35.34-.27.58-.1,0-.26,0-.26.05a.64.64,0,0,1-.37.54c-.11,0-.27-.06-.31,0s.14.14.08.2c.78.07,1.53,0,2.32,0a13.53,13.53,0,0,1,2.53-.1h0a1.94,1.94,0,0,0,.77-.1l.3-.18-.13-.11c.1,0,.21,0,.24,0,.22-.09.1-.21,0-.37s0-.17-.08-.24h.17c0-.07-.21,0-.16-.08s.14,0,.2,0-.23,0-.22-.12.19.12.2,0-.06,0-.09,0c.2,0,.32-.13.13-.25.06,0,.16,0,.23,0h0l-.13,0h.12s0,0,0,0l-.09,0h.08l-.07-.1c-.09-.07-.18-.17-.23-.17A10.2,10.2,0,0,0,140.25,205.72Z"/><path class="cls-1" d="M204.25,0c0,.1.15.21-.11.24a8,8,0,0,0-2.29,0l0,.17a8.15,8.15,0,0,0-1.92.47,7.84,7.84,0,0,0-2.73,2.51c.07,0,.12,0,.07.14a11.73,11.73,0,0,0-.94,1.68l-.09.31a.3.3,0,0,0,.08.15c-.11.3-.18.58-.26.83a7.45,7.45,0,0,0,1.16,5,7,7,0,0,0,4,2.92,9.58,9.58,0,0,0,2.05.1,7.85,7.85,0,0,0,3-.47c-.18-.24.21-.63.46-1.06s.4-.82.07-.93c.39-.29.88-.84.76-1a2.73,2.73,0,0,1-.51-1.91c.05-.34.27-.87.18-1s-.37.44-.51.23a3.35,3.35,0,0,1-1.91,2.55,3,3,0,0,1-3.18-.48,2.21,2.21,0,0,1-.92-1A3.2,3.2,0,0,1,202,5.22a2.82,2.82,0,0,1,1.71-.39h.14a5.71,5.71,0,0,1,2.37.84,4,4,0,0,1,1,.61c0-.2,0-.4,0-.58a5.12,5.12,0,0,0,.54.85c.28.37.41.46.55.36a1.71,1.71,0,0,0,.33-.65c0-.36.47-.06.41-.6a5.63,5.63,0,0,1,.31.9c.21,0-.48-1.07-.14-.93.1.37.33.73.41,1.13.22-.2-.35-1.35-.16-1.37.18.19.14,1.17.4,1.18.06,0,0-.41-.12-.6a12.57,12.57,0,0,0,.56,1.26c.14.18.28,0,.3-.61.1.44,0,1.08.09,1.54h0a8.26,8.26,0,0,0,0-.86,7.14,7.14,0,0,1,0,.8,1.71,1.71,0,0,0,.11-.14,2.63,2.63,0,0,0,0-.63c0,.18,0,.37,0,.55a3.22,3.22,0,0,0,.23-.49,4.74,4.74,0,0,0,.05-1.78,7.86,7.86,0,0,0-7-5.61Z"/><path class="cls-4" d="M127.27,101.32a25.08,25.08,0,0,1,11.11-11,5.12,5.12,0,0,0,2.72-3.58c4.66-17,24.77-23.84,38.49-13.53,1.49,1.12,2.86.91,4.41.36A25.57,25.57,0,0,1,195,72a6.32,6.32,0,0,0,5.44-2.1c12.64-12.44,29.45-11.67,41.17,1.85a6.67,6.67,0,0,0,4.2,2.43c11.93,2,19.6,9.64,21.77,21.59a11.19,11.19,0,0,0,2.35,5.12c4.59,5.92,7.39,12.44,5.62,20.13"/><path class="cls-1" d="M161,71.3c0-.1-.62-.1.31-.3a17.43,17.43,0,0,1,4.15-.28c1.33.18,2.65.25,4.1.58l.24-.12.84.2c.28.07.55.19.83.29l1.65.62c.54.24,1.06.55,1.59.82a10.64,10.64,0,0,1,1.56.92l1.41.91.35.23.55.37a6.08,6.08,0,0,0,1.38.66,6.4,6.4,0,0,0,3,.21,9.24,9.24,0,0,0,1.23-.3c.39-.12.72-.24,1-.33a25.14,25.14,0,0,1,6.59-1.41c-.12-.05-.18-.1.26-.15s1,0,1.51,0l.84,0,.43,0c.21,0,.42,0,.63,0a8.31,8.31,0,0,0,2.82-.34,8.53,8.53,0,0,0,2.63-1.36,11.24,11.24,0,0,0,1.18-1.07.9.9,0,0,0,.25-.39L203.64,70l.62-.55.64-.45a26.84,26.84,0,0,1,8.79-5,23,23,0,0,1,10.15-1,25.22,25.22,0,0,1,10,3.66l2.28,1.57,2.16,1.8c.7.63,1.34,1.33,2,2l.51.52c.19.2.38.4.59.59a7.89,7.89,0,0,0,1.37,1,8,8,0,0,0,2.76.93c.84.13,1.62.25,2.43.4a27.17,27.17,0,0,1,4.6,1.38A22.35,22.35,0,0,1,259,81a23.31,23.31,0,0,1,4.64,5.86c0-.23.42.2,1,1a23.06,23.06,0,0,1,1.63,3c1,2.26,1.66,4.51,1.71,3.31.17.78.32,1.68.53,2.46a9.55,9.55,0,0,0,.91,2.24,11.41,11.41,0,0,0,1.1,1.58,3.44,3.44,0,0,0,.64.69,6.45,6.45,0,0,1,2.29,2,20,20,0,0,1,2,2.93,21,21,0,0,1,2.18,5.17,19.57,19.57,0,0,1,.58,6c-.05,1-.19,1.9-.29,2.64s-.25,1.3-.28,1.61c-.13.9.19-.08.5-1.25s.47-2.31.43-1.3a22.21,22.21,0,0,0,0-5.09,23.89,23.89,0,0,0-1.11-4.92,32.19,32.19,0,0,0-4.59-8.55l-.71-1c-.23-.31-.39-.51-.57-.78a8.56,8.56,0,0,1-.83-1.5,8.4,8.4,0,0,1-.51-1.61l-.48-2.26a30.37,30.37,0,0,0-3.67-9,26.52,26.52,0,0,0-6.65-7.24,28.29,28.29,0,0,0-8.74-4.35c-.78-.21-1.56-.45-2.35-.63l-2.26-.46a4,4,0,0,1-2.43-1.43L242,68.5l-.83-.88c-.3-.28-.61-.54-.91-.81-.61-.53-1.2-1.09-1.84-1.6l-2-1.45a20.08,20.08,0,0,0-1.94-1.16l-1.34-.75-1.64-.74a32.13,32.13,0,0,0-4-1.44,30.57,30.57,0,0,0-5-.83,27.41,27.41,0,0,0-11.73,1.71,33.36,33.36,0,0,0-11,7,14.78,14.78,0,0,1-2,1.73,3.47,3.47,0,0,1-1.86.53l-.56,0-.85-.07c-.58,0-1.15,0-1.72,0a29.07,29.07,0,0,0-3.39.26,28.76,28.76,0,0,0-3.25.66c-.52.13-1,.28-1.55.44l-.76.25-.69.23a4.93,4.93,0,0,1-1,.24,1.43,1.43,0,0,1-.57,0,1.94,1.94,0,0,1-.56-.3l-1.25-.82a25.47,25.47,0,0,0-10-4.08,14.18,14.18,0,0,0-2.26-.3c-.73,0-1.42-.14-2.07-.14-1.31.07-2.47,0-3.44.18l-1.4.23A26.79,26.79,0,0,0,148.26,72a25.07,25.07,0,0,0-7.5,9.87c-.16.38-.33.75-.48,1.14l-.35,1.18-.34,1.18-.17.59c-.06.21-.11.4-.14.54a4.48,4.48,0,0,1-.6,1.5,2.79,2.79,0,0,1-.49.54,2.34,2.34,0,0,1-.31.24c-.12.08-.23.15-.43.26l.43-.18.33-.17a3.32,3.32,0,0,0,.56-.4,3.65,3.65,0,0,0,.81-1.08,3.73,3.73,0,0,1-1,1.41A3.46,3.46,0,0,1,138,89l-.89.48a18.47,18.47,0,0,0-2.64,1.73,17.3,17.3,0,0,0-2.5,2.27c-.36.44-.36.54-.15.44.42-.21,1.75-1.17,2.92-1.76,1.63-.9-.3.67,2.2-.72a24.05,24.05,0,0,0-4.12,3.06c0,.14,1.1-1,2.27-1.8s2.28-1.47,1.73-1A22.2,22.2,0,0,0,132,95.62c.32-.19,1.58-1.41,2.9-2.37a8.78,8.78,0,0,1,2.55-1.51c-.46.28-1.7,1-2.78,1.75a7.68,7.68,0,0,0-2,1.88c0,.09,1.44-1.29,2.26-1.88a18.35,18.35,0,0,0-4.31,4.69c-.24.4-.24.51,0,.25s.83-.89,1.82-1.85a23.76,23.76,0,0,0-3.9,5.39h0a28.68,28.68,0,0,1,2-3.11,24.47,24.47,0,0,0-1.84,2.93l.39-.48c.46-.73.93-1.45,1.45-2.17-.44.61-.85,1.26-1.24,1.92.36-.45.78-1,1.25-1.5A26.39,26.39,0,0,1,135.33,95a22.26,22.26,0,0,1,3.6-2.31l.48-.25c.21-.11.48-.25.72-.4a7.55,7.55,0,0,0,1.38-1.11A7.91,7.91,0,0,0,143.23,88l.22-.69.18-.51.35-1a12.27,12.27,0,0,1,.81-2c.33-.63.62-1.29,1-1.91l1.18-1.77a23.74,23.74,0,0,1,6.16-5.79A24,24,0,0,1,161,71.3Z"/><path class="cls-1" d="M187.3,28.17c0,.1.11.21-.09.25-.62,0-1.17-.23-1.81,0v.17a6.75,6.75,0,0,0-1.54.33,6,6,0,0,0-2.14,2c.06,0,.11,0,.07.13a11.13,11.13,0,0,0-.74,1.31c0,.09-.05.17-.07.25a.36.36,0,0,0,.09.13l-.21.65a5.67,5.67,0,0,0,1,3.82A5.3,5.3,0,0,0,185,39.34a7.83,7.83,0,0,0,1.54,0,6.14,6.14,0,0,0,2.25-.32c-.17-.25.1-.59.23-.94s.2-.68-.08-.83c.26-.19.6-.55.47-.67a3.13,3.13,0,0,1-.78-1.39c0-.17.2-.44.11-.52s-.36.22-.51.1a1.7,1.7,0,0,1-.86,1.12,1.3,1.3,0,0,1-1.42-.18.82.82,0,0,1-.5-.41,1.48,1.48,0,0,1-.16-1.12,1.57,1.57,0,0,1,.75-1,1.4,1.4,0,0,1,.86-.18H187a7.83,7.83,0,0,1,1.26.33,2.79,2.79,0,0,1,.72.22l.09-.4c.13.22.23.45.35.5.41.46.62.13.88-.3.08-.27.45-.08.46-.49a4.49,4.49,0,0,1,.21.65c.2,0-.37-.76,0-.69,0,.27.25.53.3.81.22-.16-.23-1,0-1,.15.13,0,.88.29.87.06,0,0-.31-.07-.45a4.48,4.48,0,0,0,.48.92c.12.13.27,0,.32-.48.07.34,0,.83,0,1.18h0a4.9,4.9,0,0,0,0-.66c0,.21,0,.41,0,.61l.11-.11a1.83,1.83,0,0,0,0-.47c0,.13,0,.27,0,.41a1.91,1.91,0,0,0,.23-.38,3.4,3.4,0,0,0,.14-1.41A6.2,6.2,0,0,0,187.3,28.17Z"/><circle class="cls-4" cx="106.43" cy="75.83" r="6.5"/><line class="cls-5" x1="106.93" y1="88.73" x2="106.93" y2="78.15"/><path class="cls-1" d="M108,86.2s-.08,0-.1,0,.1-.31.06-.48l-.06,0c0-.13.06-.27.09-.41s0-.52,0-.78c0,0,0,0,0,0a2.94,2.94,0,0,1,0-.41V84s0,0,0,0,0-.13,0-.19c-.12-.76-.27-1.53-.42-2.36a3.39,3.39,0,0,1-.15-.52,7.24,7.24,0,0,1,0-.81c-.23,0-.34-.56-.57-.44,0-.17,0-.41-.06-.42s-.42-.17-.53-.6c0-.17,0-.43,0-.49s-.14.22-.2.12c-.07,1.26,0,2.48,0,3.75a35.27,35.27,0,0,1,.1,4.09s0,0,0,.07a4.61,4.61,0,0,0,.09,1.25c0,.16.12.32.18.48a2,2,0,0,1,.12-.21.85.85,0,0,0,0,.39c.1.35.21.15.37,0s.17,0,.24-.12v.28c.06,0,0-.34.07-.26a1.23,1.23,0,0,0,0,.33c.09,0,0-.38.12-.36s-.12.3,0,.32,0-.1,0-.16c0,.34.13.52.25.22a2.13,2.13,0,0,0,0,.37h0c0-.06,0-.16,0-.21v.19l0,0a.77.77,0,0,0,0-.15v.13l.1-.11a2.36,2.36,0,0,0,.18-.37Q107.94,87.19,108,86.2Z"/><line class="cls-5" x1="106.68" y1="71.91" x2="106.68" y2="62.06"/><path class="cls-1" d="M107.71,69.56s-.08,0-.1,0,.1-.29.06-.45h-.07c0-.13.07-.26.1-.39s0-.48,0-.72c0,0,0,0-.05,0a1.67,1.67,0,0,1,0-.38s0,0,0-.06a.06.06,0,0,0,0,0c0-.07,0-.13,0-.18-.13-.7-.28-1.42-.43-2.19a2.43,2.43,0,0,1-.14-.49,4.83,4.83,0,0,1,0-.76c-.23,0-.34-.52-.58-.41,0-.15,0-.38-.05-.39a.68.68,0,0,1-.54-.55c0-.16.06-.41,0-.46s-.14.2-.2.12c-.07,1.17,0,2.3,0,3.48a30.66,30.66,0,0,1,.1,3.81v.07a4.33,4.33,0,0,0,.1,1.16c0,.15.12.3.18.45l.11-.19c0,.15,0,.3,0,.36.1.33.21.14.37,0s.17,0,.24-.11a2.09,2.09,0,0,1,0,.25c.07,0,0-.31.08-.24a1.08,1.08,0,0,0,0,.31c.09,0,0-.35.12-.34s-.12.29,0,.31,0-.1,0-.15c0,.31.13.48.25.2a2,2,0,0,0,0,.34h0s0-.14,0-.19v.18l0,0a.68.68,0,0,0,0-.14v.12a.94.94,0,0,0,.1-.1,1.34,1.34,0,0,0,.17-.35C107.67,70.79,107.7,70.17,107.71,69.56Z"/><line class="cls-5" x1="120.39" y1="75.78" x2="109.81" y2="75.78"/><path class="cls-1" d="M117.86,74.75s0,.08,0,.1-.31-.09-.48-.06l0,.07-.41-.1-.78,0s0,0,0,.06a3.1,3.1,0,0,1-.41,0h-.07s0,0,0,.06l-.18,0-2.36.43a3.39,3.39,0,0,1-.52.15,7.49,7.49,0,0,1-.82,0c0,.23-.55.35-.44.58-.16,0-.4,0-.42,0s-.16.42-.59.54c-.17,0-.43-.05-.49,0s.22.13.12.2c1.26.07,2.48,0,3.75,0a37.66,37.66,0,0,1,4.09-.1h.07a5.58,5.58,0,0,0,1.25-.09l.48-.19-.21-.11a1,1,0,0,0,.39,0c.35-.1.15-.22,0-.37s0-.18-.12-.25h.27c0-.06-.33,0-.25-.07s.22,0,.33,0c0-.09-.38,0-.36-.13s.3.12.32,0-.1,0-.16,0c.34,0,.52-.14.22-.26a2.1,2.1,0,0,0,.37,0h0l-.2,0h.19l0,0a.4.4,0,0,0-.15,0h.13a1.14,1.14,0,0,0-.11-.11,1.57,1.57,0,0,0-.37-.17C119.18,74.8,118.51,74.76,117.86,74.75Z"/><line class="cls-5" x1="101.88" y1="75.78" x2="93.72" y2="75.78"/><path class="cls-1" d="M99.93,74.75s0,.08,0,.1-.24-.09-.37-.06,0,0,0,.07l-.32-.1-.6,0s0,0,0,.06a2,2,0,0,1-.32,0h0a.14.14,0,0,0,0,.06l-.14,0-1.82.43a2.17,2.17,0,0,1-.4.15,4.43,4.43,0,0,1-.63,0c0,.23-.43.35-.34.58-.13,0-.31,0-.32,0a.64.64,0,0,1-.47.54c-.13,0-.33-.05-.37,0s.17.13.09.2c1,.07,1.91,0,2.89,0a22.49,22.49,0,0,1,3.16-.1h0a3.37,3.37,0,0,0,1-.09l.37-.19a1.11,1.11,0,0,1-.16-.11.64.64,0,0,0,.3,0c.27-.1.12-.22,0-.37s0-.18-.09-.25h.21c0-.06-.26,0-.2-.07s.17,0,.26,0-.29,0-.28-.13.23.12.25,0-.08,0-.12,0c.26,0,.4-.14.16-.26a1.35,1.35,0,0,0,.29,0h0l-.16,0h.15l0,0a.23.23,0,0,0-.11,0h.1l-.09-.11c-.11-.07-.22-.17-.29-.17C100.94,74.8,100.43,74.76,99.93,74.75Z"/><path class="cls-1" d="M161.81,146s0-.08,0-.1.24.1.37.06a.2.2,0,0,1,0-.07l.31.1.59-.05s0,0,0,0a1.11,1.11,0,0,1,.31,0h.05a.17.17,0,0,0,0-.05h.14l1.8-.43a1.59,1.59,0,0,1,.4-.14,3.22,3.22,0,0,1,.62,0c0-.23.42-.34.33-.57.13,0,.31,0,.32-.06a.65.65,0,0,1,.46-.54c.13,0,.33.06.37,0s-.16-.14-.09-.2c-1-.07-1.89,0-2.86,0a20.57,20.57,0,0,1-3.12.1h0a2.68,2.68,0,0,0-1,.09l-.37.18.16.12a.52.52,0,0,0-.3,0c-.27.1-.12.21,0,.37s0,.17.08.24h-.2c0,.07.25,0,.19.08s-.16,0-.25,0,.29,0,.28.12-.24-.12-.25,0,.08,0,.12,0c-.26,0-.4.13-.16.25-.08,0-.2-.05-.28,0h0l.15,0h-.14s0,0,0,.05l.11,0h-.09l.08.1a1.28,1.28,0,0,0,.29.18Q161.06,146,161.81,146Z"/><path class="cls-1" d="M162.44,148c.05,0,.09,0,.1,0s-.09.26,0,.41h.06l-.09.35c0,.22,0,.44,0,.66,0,0,.05,0,.06,0s0,.22,0,.35v.06l.05,0a.78.78,0,0,1,0,.16c.13.64.28,1.29.43,2a2.86,2.86,0,0,1,.15.44,5.16,5.16,0,0,1,0,.69c.23,0,.35.48.58.38,0,.14,0,.34.05.35a.66.66,0,0,1,.54.51c0,.14-.05.36,0,.41s.13-.18.2-.1c.07-1.07,0-2.1,0-3.17a25.35,25.35,0,0,1-.11-3.47V148a3.62,3.62,0,0,0-.09-1.06c-.06-.13-.12-.27-.19-.41a.78.78,0,0,1-.11.18.62.62,0,0,0,0-.33c-.1-.3-.22-.13-.37,0s-.18,0-.25.1a1.77,1.77,0,0,0,0-.23c-.06,0,0,.29-.07.22a2.62,2.62,0,0,0,0-.28c-.09,0,0,.32-.12.31s.11-.26,0-.28,0,.09,0,.13c0-.28-.14-.44-.26-.18a1.55,1.55,0,0,0,0-.31h0a1.22,1.22,0,0,0,0,.17v-.16l0,0,0,.12v-.1a.28.28,0,0,0-.1.09c-.07.13-.18.25-.18.32C162.49,146.91,162.45,147.47,162.44,148Z"/><path class="cls-1" d="M179.34,136s0-.07.08-.06.11.23.24.29l.05,0,.17.28.47.36s0,0,0,0a1.1,1.1,0,0,1,.23.21l0,0,0,0,.1.1c.51.29,1.05.57,1.62.88a2.38,2.38,0,0,1,.4.16,3.58,3.58,0,0,1,.44.43c.14-.19.55,0,.64-.2.09.08.22.21.27.17a.66.66,0,0,1,.7-.1c.12.07.21.26.27.27s0-.22.06-.22c-.67-.69-1.41-1.25-2.13-1.89a22,22,0,0,1-2.39-2l0,0a3.28,3.28,0,0,0-.77-.56l-.4-.11a1.62,1.62,0,0,1,0,.19c-.09-.09-.18-.18-.24-.18-.27-.1-.23.08-.26.27s-.14.11-.1.24l-.14-.14c-.06,0,.21.14.09.18s-.13-.1-.19-.16c0,.09.19.22.12.28s-.09-.25-.18-.18,0,.07.08.1c-.22-.14-.39-.16-.3.09a1.24,1.24,0,0,0-.18-.22h0l.09.13a.94.94,0,0,0-.1-.1.07.07,0,0,0,0,0l.06.09-.07-.07v.13a1.8,1.8,0,0,0,.09.33C178.62,135.26,179,135.62,179.34,136Z"/><path class="cls-1" d="M178,138.42s.09,0,.06.08-.31.2-.41.37l0,0-.38.29c-.19.22-.38.45-.55.68,0,0,0,0,0,.05a4.55,4.55,0,0,1-.32.34l-.05.06a.08.08,0,0,0,0,.06l-.15.15c-.48.72-.94,1.46-1.46,2.26a5.44,5.44,0,0,1-.28.54,8.14,8.14,0,0,1-.64.67c.2.12-.17.7.1.76-.13.13-.32.33-.28.39s.19.42-.05.86c-.11.16-.36.33-.38.4s.27-.09.24,0c1-1,1.86-2.09,2.82-3.16a46.15,46.15,0,0,1,3-3.51l0-.06a6.66,6.66,0,0,0,.87-1.12c.08-.17.15-.35.23-.52l-.24.09a1.31,1.31,0,0,0,.27-.35c.19-.36-.05-.27-.26-.26s-.11-.14-.27-.06l.21-.23c0-.05-.23.31-.25.17a3.48,3.48,0,0,0,.24-.28c-.1,0-.31.29-.36.22s.31-.18.25-.27-.1.07-.14.12c.23-.31.29-.53,0-.35a4.11,4.11,0,0,0,.3-.29h0l-.17.15.15-.16h-.06a.69.69,0,0,0-.13.11l.1-.11a.9.9,0,0,0-.16,0,2.08,2.08,0,0,0-.42.2C179,137.34,178.49,137.87,178,138.42Z"/><path class="cls-1" d="M156.88,129s-.06-.06,0-.09.26,0,.35-.13,0,0,0-.06l.32-.08c.17-.1.33-.22.49-.33,0,0,0,0,0,0a1.46,1.46,0,0,1,.28-.15l0,0a.07.07,0,0,0,0-.06l.14-.06c.43-.39.87-.81,1.35-1.26a2.08,2.08,0,0,1,.27-.32,4.14,4.14,0,0,1,.55-.29c-.14-.18.2-.51,0-.66.11-.06.27-.15.25-.21a.63.63,0,0,1,.13-.69c.1-.09.31-.12.33-.17s-.21,0-.18-.13c-.87.41-1.63.94-2.48,1.42a20.23,20.23,0,0,1-2.66,1.63l0,0a3.08,3.08,0,0,0-.79.55l-.22.34.19,0c-.11,0-.22.11-.24.17-.19.22,0,.24.17.33s.06.16.2.17l-.19.09c0,.06.21-.15.21,0a.92.92,0,0,0-.21.13c.06.07.26-.11.29,0s-.26,0-.22.12.08,0,.12,0c-.2.15-.28.31,0,.3a2.18,2.18,0,0,0-.27.11h0l.15-.05-.13.07,0,0a.2.2,0,0,0,.11,0l-.09.05.13,0a.94.94,0,0,0,.33,0C156,129.5,156.44,129.28,156.88,129Z"/><path class="cls-1" d="M158.78,131.1s.05-.07.1,0,.08.36.21.51l.07,0c.05.14.09.29.15.45s.31.5.47.74c0,0,0,0,.06,0a2.94,2.94,0,0,1,.22.41l0,.06h.06a1.07,1.07,0,0,1,.09.19l1.69,2.1a5.68,5.68,0,0,1,.42.44,9.27,9.27,0,0,1,.44.82c.18-.15.61.38.74.15.09.16.22.4.28.38s.46,0,.81.32c.12.16.19.45.26.49s0-.28.1-.22c-.64-1.27-1.39-2.43-2.1-3.67-.33-.38-2-3.22-2.38-4l0-.06a6.62,6.62,0,0,0-.78-1.19c-.13-.13-.28-.25-.43-.38a2.46,2.46,0,0,1,0,.26,1,1,0,0,0-.25-.37c-.28-.29-.27,0-.33.17s-.17.05-.14.23l-.15-.27c-.06,0,.22.31.08.29s-.14-.21-.19-.32c-.06.08.18.39.09.42s-.06-.36-.17-.33,0,.12.07.17c-.22-.31-.41-.44-.35-.08a2.59,2.59,0,0,0-.17-.38h0a1.33,1.33,0,0,0,.09.21,1.14,1.14,0,0,1-.1-.19l0,.06.06.15-.06-.12a.4.4,0,0,0,0,.15,1.59,1.59,0,0,0,.06.46C158.08,129.78,158.42,130.45,158.78,131.1Z"/><path class="cls-1" d="M183.78,158.74s.07,0,.05.09-.24.08-.31.19l0,.06-.29.13a5.66,5.66,0,0,0-.42.43s0,0,0,.05a1.45,1.45,0,0,1-.25.2l0,0a.08.08,0,0,0,0,0l-.12.08c-.35.48-.69,1-1.06,1.51a2.57,2.57,0,0,1-.21.37,3.56,3.56,0,0,1-.48.39c.17.16-.1.54.13.66-.1.08-.25.19-.21.25a.62.62,0,0,1,0,.7c-.08.11-.28.18-.29.24s.22,0,.21.09c.77-.58,1.41-1.26,2.13-1.89a21.08,21.08,0,0,1,2.29-2.14l0,0a2.89,2.89,0,0,0,.66-.7c.06-.12.1-.25.15-.38l-.19,0c.1-.08.2-.16.2-.22.14-.25-.05-.24-.23-.29s-.09-.15-.23-.13a1,1,0,0,0,.16-.13s-.17.2-.19.08.11-.12.18-.18c-.08,0-.24.17-.29.09s.26-.06.2-.15-.08,0-.11.06c.17-.2.21-.37,0-.3a1.25,1.25,0,0,0,.24-.16h0a.91.91,0,0,0-.13.08l.11-.09,0,0-.1.05.08-.06-.13,0a1.08,1.08,0,0,0-.33.06C184.57,158.11,184.16,158.42,183.78,158.74Z"/><path class="cls-1" d="M182,157.64s0,.08-.09.05-.1-.26-.22-.34l-.06,0-.16-.32c-.15-.16-.3-.32-.47-.47,0,0,0,0,0,0a2.33,2.33,0,0,1-.21-.27l-.05,0,0,0a1.13,1.13,0,0,1-.1-.13c-.52-.4-1.06-.79-1.63-1.22a2.3,2.3,0,0,1-.41-.23,5.35,5.35,0,0,1-.43-.54c-.16.18-.57-.13-.68.1-.09-.11-.22-.27-.28-.23a.66.66,0,0,1-.74,0c-.11-.09-.19-.31-.26-.32s0,.23-.08.21c.65.85,1.39,1.57,2.1,2.38a26.07,26.07,0,0,1,2.36,2.54l0,0a3.57,3.57,0,0,0,.77.74c.13.07.27.12.41.18a.75.75,0,0,1,0-.2.63.63,0,0,0,.24.23c.27.15.24,0,.29-.24s.15-.09.12-.23l.14.18c.06,0-.21-.19-.09-.22s.14.14.2.21c0-.09-.19-.27-.12-.31s.09.27.18.21,0-.08-.07-.12c.21.2.39.24.31,0a2.4,2.4,0,0,0,.18.26h0s-.06-.12-.09-.15l.1.12s0,0,0-.05l-.06-.11.06.09a.68.68,0,0,0,0-.14c0-.14,0-.3-.08-.35C182.68,158.51,182.34,158.07,182,157.64Z"/><path class="cls-1" d="M149.08,149.32s.07,0,0,.09-.24.08-.31.19l0,.06-.29.13a5.66,5.66,0,0,0-.42.43s0,0,0,.05a1.45,1.45,0,0,1-.25.2l0,0a.08.08,0,0,0,0,.05l-.12.08c-.35.48-.69,1-1.07,1.51a1.86,1.86,0,0,1-.2.37,3.56,3.56,0,0,1-.48.39c.17.16-.1.54.13.66-.1.08-.25.19-.21.25a.62.62,0,0,1,0,.7c-.08.11-.28.18-.29.24s.22,0,.2.09c.77-.58,1.42-1.26,2.14-1.89a22.11,22.11,0,0,1,2.29-2.14l0,0a2.89,2.89,0,0,0,.66-.7l.15-.38-.19,0c.1-.08.2-.16.2-.22.14-.25,0-.24-.23-.29s-.1-.15-.23-.13a1,1,0,0,0,.16-.13c0-.05-.17.2-.19.08s.11-.12.18-.18-.24.17-.29.09.26-.06.2-.15-.08,0-.11.06c.17-.2.21-.37-.05-.3.06-.05.18-.09.24-.16h0l-.13.08.11-.09-.05,0-.1,0,.08-.06-.13,0a1.08,1.08,0,0,0-.33.06C149.87,148.69,149.46,149,149.08,149.32Z"/><path class="cls-1" d="M147.28,148.22s0,.08-.09.05-.1-.26-.22-.34l-.06,0-.16-.32-.47-.47s0,0-.05,0-.13-.17-.22-.27l0,0-.05,0a1.13,1.13,0,0,1-.1-.13c-.52-.4-1.06-.78-1.63-1.22a2.3,2.3,0,0,1-.41-.23,5.35,5.35,0,0,1-.43-.54c-.16.18-.57-.13-.68.1-.09-.11-.22-.27-.28-.23a.66.66,0,0,1-.74,0c-.11-.09-.19-.31-.26-.32s0,.23-.08.21c.65.85,1.39,1.57,2.1,2.38a26.07,26.07,0,0,1,2.36,2.54l0,0a3.57,3.57,0,0,0,.77.74c.13.07.27.12.41.18a.75.75,0,0,1,0-.2c.08.11.17.22.24.23.27.15.24-.05.29-.24s.15-.09.12-.23l.14.18c.06,0-.21-.19-.09-.22s.14.14.19.21c.05-.09-.18-.27-.11-.31s.09.27.18.21,0-.08-.07-.12c.21.2.39.24.31,0a2.4,2.4,0,0,0,.18.26h0s-.06-.12-.09-.15l.1.12s0,0,0-.05l-.06-.11.06.09a.68.68,0,0,0,0-.14c0-.14,0-.3-.08-.35C148,149.09,147.64,148.65,147.28,148.22Z"/><path class="cls-1" d="M199.65,153.5s.06-.06.09,0,0,.26.09.37l.06,0c0,.1,0,.22,0,.33l.27.53s0,0,.06,0a2.39,2.39,0,0,1,.1.29l0,0h.06a.65.65,0,0,1,0,.13c.33.49.69,1,1.07,1.5a2.1,2.1,0,0,1,.29.32,3.1,3.1,0,0,1,.21.58c.21-.11.48.27.66.09,0,.12.11.3.17.28a.63.63,0,0,1,.67.22c.08.11.08.32.13.35s.07-.21.15-.16c-.3-.92-.73-1.74-1.09-2.64a20.83,20.83,0,0,1-1.27-2.85l0-.05a2.85,2.85,0,0,0-.44-.85l-.31-.27a1.05,1.05,0,0,1-.05.19c0-.12-.08-.23-.14-.26-.19-.21-.24,0-.35.13s-.17,0-.19.17l-.07-.2c-.06,0,.13.23,0,.22s-.08-.16-.11-.23.08.28,0,.3,0-.26-.08-.24,0,.09,0,.12c-.13-.22-.28-.31-.3-.05a2.13,2.13,0,0,0-.07-.27h0s0,.12,0,.15l0-.13,0,0a.41.41,0,0,0,0,.11l0-.09-.06.11c0,.14-.08.28-.06.33C199.31,152.55,199.46,153,199.65,153.5Z"/><path class="cls-1" d="M198,154.84s.06.07,0,.1-.28,0-.4.1l0,.07-.36,0-.59.29s0,0,0,.06a2.2,2.2,0,0,1-.32.12l0,0s0,0,0,0l-.15.05c-.55.36-1.09.75-1.69,1.15a3.25,3.25,0,0,1-.35.31,5.61,5.61,0,0,1-.65.23c.11.21-.31.5-.13.68-.13,0-.32.12-.31.18a.66.66,0,0,1-.26.69c-.13.08-.36.09-.39.15s.22.05.17.14c1-.34,1.94-.8,2.93-1.21a25.32,25.32,0,0,1,3.17-1.4l.06,0a3.49,3.49,0,0,0,.94-.49c.11-.1.21-.21.31-.32l-.2,0c.13,0,.26-.09.29-.15.24-.21,0-.25-.13-.35s0-.17-.18-.19L200,155c0-.06-.25.14-.24,0s.17-.08.26-.11c-.06-.07-.31.09-.33,0s.29,0,.26-.09-.09,0-.13,0c.25-.14.35-.29.07-.3a1.71,1.71,0,0,0,.3-.09h0a.85.85,0,0,0-.17,0l.15-.06,0,0a.5.5,0,0,0-.13,0l.1,0-.12-.06c-.14,0-.3-.07-.36,0Q198.8,154.54,198,154.84Z"/><path class="cls-1" d="M175.9,176.22c0,.05,0,.09,0,.1s-.23-.1-.36-.06a.15.15,0,0,0,0,.07l-.32-.1c-.19,0-.39,0-.59,0,0,0,0,0,0,0a1.68,1.68,0,0,1-.31,0h-.06s0,0,0,.05l-.14,0c-.58.12-1.16.27-1.8.41a2.12,2.12,0,0,1-.4.14,4.29,4.29,0,0,1-.62,0c0,.23-.43.34-.34.57-.13,0-.31,0-.33.05a.63.63,0,0,1-.46.53c-.13,0-.32-.06-.37,0s.17.14.09.2c1,.09,1.89,0,2.86,0a20.86,20.86,0,0,1,3.12-.07h.05a3,3,0,0,0,1-.08l.37-.18-.16-.12a.54.54,0,0,0,.3,0c.26-.1.12-.22,0-.38s0-.17-.09-.24h.21c0-.06-.26,0-.2-.08s.17,0,.25,0-.28,0-.27-.13.23.12.25,0-.08,0-.12,0c.25,0,.4-.14.16-.26a.9.9,0,0,0,.28,0h0l-.15,0h.14s0,0,0-.05l-.11,0h.1l-.09-.1c-.11-.07-.22-.18-.28-.18C176.91,176.28,176.4,176.24,175.9,176.22Z"/><path class="cls-1" d="M175.3,173.49s-.08,0-.1,0,.11-.35.07-.54l-.07,0c0-.15.07-.3.1-.46s0-.59,0-.88c0,0-.05,0-.06,0a3.94,3.94,0,0,1,0-.46s0-.05,0-.08,0,0-.05,0a1.25,1.25,0,0,1,0-.21c-.12-.86-.26-1.73-.4-2.67a4.56,4.56,0,0,1-.14-.59c0-.28,0-.65,0-.92-.23,0-.34-.64-.57-.51,0-.18,0-.46-.05-.47s-.42-.19-.53-.68c0-.2.06-.49,0-.56s-.14.25-.2.14c-.09,1.43,0,2.8,0,4.23.1.49.1,3.79.05,4.63v.08a6.57,6.57,0,0,0,.07,1.42l.18.54.12-.23a1.13,1.13,0,0,0,0,.44c.1.4.22.18.37,0s.18,0,.25-.13v.31c.06,0,0-.38.07-.3s0,.25,0,.38c.09-.05,0-.43.13-.41s-.13.34,0,.37,0-.12,0-.18c0,.38.13.59.25.25a2.73,2.73,0,0,0,0,.41h0c0-.06,0-.17,0-.23v.22s0,0,0,0a.51.51,0,0,0,0-.17v.15l.1-.12a1.89,1.89,0,0,0,.18-.43C175.24,175,175.29,174.23,175.3,173.49Z"/><path class="cls-1" d="M155,167.34s0,.08,0,.1-.24-.1-.37-.07v.07l-.31-.1-.59,0s0,.05,0,.05a1.11,1.11,0,0,1-.31,0h-.05a.11.11,0,0,0,0,0l-.14,0c-.58.12-1.17.27-1.8.41a1.74,1.74,0,0,1-.4.14,3.29,3.29,0,0,1-.63,0c0,.23-.43.34-.34.57-.12,0-.31,0-.32,0a.64.64,0,0,1-.46.54c-.13,0-.33-.06-.37,0s.16.14.09.2c1,.08,1.89,0,2.85,0a21,21,0,0,1,3.13-.07H155a2.68,2.68,0,0,0,.95-.08l.37-.18-.15-.11c.12,0,.25,0,.29,0,.27-.1.12-.21,0-.37s0-.18-.08-.25h.2c0-.06-.25,0-.19-.07s.16,0,.25,0-.29,0-.28-.13.24.13.25,0-.08,0-.12,0c.26,0,.4-.13.17-.25a1.27,1.27,0,0,0,.28,0h0l-.16,0h.15l0-.05-.11,0h.1l-.08-.1c-.12-.07-.22-.18-.29-.18C156,167.39,155.5,167.35,155,167.34Z"/><path class="cls-1" d="M154.4,164.6s-.08,0-.1,0,.1-.35.06-.55h-.06c0-.15.07-.31.1-.47s0-.59,0-.88c0,0,0,0-.05,0a2.53,2.53,0,0,1,0-.46v-.08a.06.06,0,0,0,0,0c0-.08,0-.15,0-.22-.11-.85-.25-1.72-.39-2.67a3.35,3.35,0,0,1-.14-.59,7.07,7.07,0,0,1,0-.92c-.23,0-.33-.64-.57-.5,0-.19,0-.47-.05-.48s-.41-.19-.53-.68c0-.19.06-.49,0-.56s-.15.25-.21.14c-.08,1.43,0,2.8,0,4.24a43.49,43.49,0,0,1,.05,4.63v.07a6.47,6.47,0,0,0,.08,1.42q.08.27.18.54a2.25,2.25,0,0,1,.11-.22,1.36,1.36,0,0,0,0,.44c.09.39.21.17.37,0s.17,0,.25-.13c0,.12,0,.18,0,.31s0-.38.08-.29a1.54,1.54,0,0,0,0,.37c.09,0,0-.43.12-.41s-.12.35,0,.37,0-.12,0-.18c0,.38.13.59.25.25,0,.12-.05.29,0,.41h0a1.81,1.81,0,0,0,0-.23,1.62,1.62,0,0,1,0,.22l.05,0a.9.9,0,0,0,0-.16v.14a1.31,1.31,0,0,0,.11-.12,2.87,2.87,0,0,0,.18-.42C154.34,166.09,154.38,165.34,154.4,164.6Z"/></g></g></svg>