<svg xmlns="http://www.w3.org/2000/svg" viewBox="0 0 275.85 276.01"><defs><style>.cls-1{fill:#fff;}.cls-2{fill:#202020;}.cls-3{fill:#face6f;fill-rule:evenodd;}.cls-4{fill:#fbdd94;}.cls-5{fill:#fdf4cb;}.cls-6{fill:#dde3e9;}</style></defs><g id="Layer_2" data-name="Layer 2"><g id="Layer_1-2" data-name="Layer 1"><path class="cls-1" d="M218.4,48.44c3-3.08,6.85-3.63,11-3.16a6,6,0,0,0,3.07-.36c6.16-2.43,12-1,16.51,4.15a3.81,3.81,0,0,0,2.38,1.3c9.76,1.69,15.18,9.5,13.27,19.16"/><path class="cls-2" d="M233.27,47.35c0-.09-.31-.1,0-.28a14.29,14.29,0,0,1,2.37-.56l0-.17a7,7,0,0,1,1-.05,8.7,8.7,0,0,1,1,0,11.66,11.66,0,0,1,3.67.4c0-.07,0-.12.11-.11a7.92,7.92,0,0,1,.86.32c.3.16.63.33,1,.52l.31.14a.2.2,0,0,0,.17,0,5.46,5.46,0,0,1,.77.55,13.54,13.54,0,0,1,2.4,1.74l.59.53a6.77,6.77,0,0,0,.95.77,5.46,5.46,0,0,0,2.31.84,17.66,17.66,0,0,1,6.38,1.71l1.32.64c.41.25.81.52,1.2.8a12.71,12.71,0,0,1,2.72,3.62c.2-.24.74.38,1.26,1s.9,1.26,1,.83a21.24,21.24,0,0,0,.73,2.48c.47.15,1.32.86,1.52,3.72a31.67,31.67,0,0,1-.41,3.16c.05.63.56-1.35.62-.72a17.52,17.52,0,0,0-11.66-20.33c-.36-.08-1-.24-1.74-.45L251.37,48a1.14,1.14,0,0,1-.52-.27l-.16-.15-.32-.34-.7-.71a20.71,20.71,0,0,0-3.39-2.62A15.76,15.76,0,0,0,238,41.55a18.41,18.41,0,0,0-5.91,1.09l-.43.16a3.83,3.83,0,0,1-1.13.25,11.62,11.62,0,0,1-1.59-.08,15.23,15.23,0,0,0-4,.23,12.61,12.61,0,0,0-3.06,1.16,8.87,8.87,0,0,1,1.37-.12,7.16,7.16,0,0,0-2.38.93c-1,.62-1.06.91-.87.94s.73-.06,1.18-.06,0,.46.88.27a9.57,9.57,0,0,0-1.4.69c0,.08.41-.18.8-.38s.74-.33.6-.13a6.62,6.62,0,0,0-1.62.9c.15,0,.59-.24,1-.43s.86-.34.85-.23c-.27.14-1.64.47-1.59.79,0,.06.51-.25.78-.37a4.09,4.09,0,0,0-1.42,1.21c-.13.26.07.22.79-.09a7.2,7.2,0,0,0-1.49,1.14h0c.22-.19.61-.5.83-.65a8.93,8.93,0,0,0-.74.64l.21,0,.58-.44a4.81,4.81,0,0,0-.48.42l.57-.17a15.92,15.92,0,0,1,1.7-.64,10,10,0,0,1,4.55-.91,20.43,20.43,0,0,1,2.61.19A8.55,8.55,0,0,0,233.27,47.35Z"/><g id="Background-Shape-2"><g id="Background-Shape"><path class="cls-3" d="M22.38,70C55,47.18,128.44,103.17,148,172.9S106.58,293,61.48,270.66C-14.87,232.88-10.27,92.78,22.38,70Z"/></g></g><path class="cls-4" d="M251,163.53c-3.28-3-12.27-1.63-20,2.15s-27,4.84-27,4.84L233,184.13s15.75-10.18,19.53-12.69S254.28,166.49,251,163.53Z"/><path class="cls-2" d="M224.42,165.18c0,.1.39.12-.15.29-1.7.52-3.19.47-5,.87l-.1.18c-1.39.17-2.85.29-4.34.41l-2.34.31c-1.36.17-2.76.3-4.13.44-2.74.28-5.67.45-8.59.64.33,0,.55.09,0,.14-1.35.1-3.14.19-5.09.28.24.13.37.21.66.35l.8.38,1.66.8,1.34.59a4.91,4.91,0,0,0,.82.24l3.29,1.58,5.25,2.33,2.54,1.11,1,.43.72.3,5.76,2.41,12,5,.69.26.91.37a6.83,6.83,0,0,0,.89.32l.79-.58,2.46-1.78c2.23-1.52,5.19-3.32,7.41-4.74-.66-.26,4.58-4,3.18-3.79a28.43,28.43,0,0,0,3.73-2.58,3,3,0,0,1,.94-1.5,6.33,6.33,0,0,0,.84-1.14.67.67,0,0,0-.06-.82,7.5,7.5,0,0,0-1.3-1.8,10.78,10.78,0,0,0-1.47-1.42c-.43-.28,0,.18.31.62s.67.88.28.61a12.83,12.83,0,0,1,1.37,1.56,3.19,3.19,0,0,1,.2.32.91.91,0,0,1,.12.25l0,.09h0s0,0,0,0a4.54,4.54,0,0,1-.33.33,1.65,1.65,0,0,1-.3.24c-.13.09-.2.16-.4.28l-1.06.68-8.38,5.47L233.07,181l-.26.17h-.05l-.53-.24-1.15-.54-4.63-2.15c-1.2-.49-4.29-1.87-8.27-3.68L215,173.17l-1.45-.67-.21-.08-.47-.19-.26-.11-.13-.06s-.11,0,0,0l.79-.08.41-.05,2.65-.34c3.55-.47,6.5-1,8.3-1.44l.74-.18c.56-.12,1.13-.27,1.71-.44s1.17-.32,1.77-.54,1.2-.38,1.81-.67,1.27-.55,1.72-.78a57.12,57.12,0,0,1,5.66-2.37,34.79,34.79,0,0,1,4.68-1.47c-.76,0-1.47,0-2.1.07,1.66-.34,3.32-.47,3.95-.58,1.75-.17,2.13-.19,1.92-.38a7,7,0,0,0-1.78-.55c-1-.12.36-.48-1.29-.54a19.74,19.74,0,0,1,3,0,5.15,5.15,0,0,0-1.69-.07c-.83,0-1.57.11-1.17-.07a22.38,22.38,0,0,1,3.66,0,6.32,6.32,0,0,0-2.23-.26c-1,0-1.86.07-1.78,0a11.26,11.26,0,0,1,2,0,5.6,5.6,0,0,0,1.69,0,7.52,7.52,0,0,0-1.8-.15,21.48,21.48,0,0,1,4,.25c.62.13.32-.27-1.5-.73a9.08,9.08,0,0,1,4.36,1.9h0a7.42,7.42,0,0,0-2.37-1.4,5.73,5.73,0,0,1,1.15.5,6,6,0,0,1,1.11.75c-.09-.12-.2-.25-.32-.38a3.52,3.52,0,0,0-.84-.56,4.73,4.73,0,0,0-.89-.41,4.34,4.34,0,0,1,.78.33,6.61,6.61,0,0,1,.77.44,6.46,6.46,0,0,0-1.23-.92,12.24,12.24,0,0,0-4.66-1.23,33.17,33.17,0,0,0-11.27,2c-.89.31-1.77.66-2.64,1s-1.77.81-2.42,1.07A31.64,31.64,0,0,1,224.42,165.18Z"/><rect class="cls-2" x="187.61" y="85.63" width="81.17" height="81.17" transform="translate(-17.92 40.01) rotate(-9.64)"/><path class="cls-2" d="M184.47,89.87c0,.11,1.06,0-.58.36l-5.16.89c.28,1.75.55,3.47.83,5.17.13,1,.27,1.9.41,2.86.28,1.91.57,3.84,1,5.94l.22.35c.61,4,1.24,8.23,1.89,12.52q2.07,11.8,4.11,23.49c0-.21.06-.31.22.46.59,3.24,1.3,7.74,2.07,12.4.13.69.26,1.37.38,2.05a2.15,2.15,0,0,0,.25.73c.35,2.11.65,4,.94,5.72l.94,5.13c.43,2.4.88,4.86,1.34,7.45l62.52-11.57c5.3-1,10.6-2.1,15.71-3l4.32-.75c-1.18-7.08-2.54-15.32-3.63-21.84-.37,1.23-3.72-16.78-3.68-13.08-.83-4.93-2.07-12.35-2.29-12.7-.68-1.07-1.88-4.77-4.4-17.83-.94-5.12-2.08-13-2.48-14.83-.64-2.82.79,6.71.15,3.89,2.16,12.87,4.3,25.57,6.43,38.24,2,11.81,4,23.58,6.08,35.43l-34.49,5.91c-2.61.49-8.25,1.5-15.79,2.82l-24.89,4.33c-4.18-24.19-11.46-66.92-12.85-75.51h.11l.56-.1C197,92.68,212,90.09,222.45,88.09l14.45-2.92-6.21.77c4.94-.83,9.89-1.65,11.77-2.08,10.47-2,4.47-1.3.35-1-2.94.32,1-.6-3.63,0l8.23-1.38c.35-.23-10.12,1.8-7.88,1.15,3.18-.47,6.71-1.18,10-1.73-1.18,0-11.41,1.86-10.94,1.56,1.76-.35,9.29-1.28,9.88-1.66.12-.07-3.18.48-4.82.76,10.12-1.81,15.65-3,6.36-1.73,3.21-.54,7.77-1.2,11.16-1.81h0L255,79l5.78-1-1,.06c-1.44.21-2.89.43-4.4.68l3.85-.64c-1,.08-2.09.18-3.32.31-4.59.6-9,1.09-11.47,1.5C224.41,83.2,204.38,86.51,184.47,89.87Z"/><path class="cls-5" d="M94.1,173.15c21.53-2,70.8-1.49,71.94-2.15a16.89,16.89,0,0,0,4.56-3.79,15.82,15.82,0,0,1,8-5c2.29-.65,4.64-.42,7-.37,1.24.37,2.5.67,3.71,1.12a5.43,5.43,0,0,0,3.75,0,24.67,24.67,0,0,1,8.26-1.4,14.71,14.71,0,0,0,10.91-4.11c3.34-3.12,7-5.87,10.55-8.82a10,10,0,0,1,4-2.35,11.72,11.72,0,0,1,3.55.84l2.21,2.67a2.73,2.73,0,0,0,.37,1.72s-.09,0-.1.09c-.65,3.64-3.81,5.17-6.21,7.31s-5.1,4.3-7.65,6.44a15.64,15.64,0,0,0-3.18,3.93c-.7,1.14,2.7,6.18,10.05,8.68,1.4.48,24.46-12.56,27.76-11.83s0,4.5,0,4.5-25.88,17.23-29.35,19.73a11.74,11.74,0,0,1-8.39,2.18,101.59,101.59,0,0,0-21.28-.22c-4.29.5-8.11,2.28-11.92,4.13-2.88,1.41-30-.12-57.87,7.9C86.9,215.26,64.2,212.5,62,207.91"/><path class="cls-2" d="M193.36,165.55c0-.05-.45,0-.55,0s0,0,.21-.11.74-.24,1.16-.39a21.85,21.85,0,0,1,4.44-1,16.61,16.61,0,0,1,2.1-.11l1.17,0c.44,0,.88,0,1.33,0a16.25,16.25,0,0,0,10.22-4.24c.1-.16.2-.33.31-.49,1.92-1.75,4-3.41,6.18-5.11l3.32-2.61a21.92,21.92,0,0,1,3-2.27,4.15,4.15,0,0,1,.64-.31l.07,0,.26,0,.42.08a6.31,6.31,0,0,1,.83.21l.27.08.25.31,1.26,1.5s0,0,0,0v0s0,0,0,0l-.05.22a3.67,3.67,0,0,1-.27.81,5.24,5.24,0,0,1-1,1.5c-1,1-2.41,2-4,3.32L221,160.44l-2,1.72-1,.86-.51.43c-.18.15-.41.35-.6.53.3-.17.41-.25-.45.64a17.7,17.7,0,0,0-1.21,1.46c-.18.26-.37.52-.55.79l-.31.47-.46.71a4.41,4.41,0,0,0-.26.59l-.06.15c.08.07,0,.11,0,.17l-.11.31a3.75,3.75,0,0,0,0,.67l.11.66a7.49,7.49,0,0,0,.5,1.31,6.77,6.77,0,0,0,.6,1,15.18,15.18,0,0,0,2.55,2.8,23.46,23.46,0,0,0,6.52,4l.8.29a2.5,2.5,0,0,0,1.24.26,2.92,2.92,0,0,0,1.24-.12,6,6,0,0,0,.6-.19l.41-.16a3.57,3.57,0,0,0,.95-.54c2.67-1.18,4.88-2.28,7-3.29,3.4-1.72,6.78-3.45,10.2-5,.85-.4,1.71-.79,2.56-1.17l1.83-.76a2,2,0,0,1,.67-.19c.24,0,.5.18.44.43a1.49,1.49,0,0,1-.3.65,3.4,3.4,0,0,1-.3.23l-.82.57-4.8,3.31-9.67,6.66-9.79,6.75-2.46,1.7a12.57,12.57,0,0,1-2.3,1.35,10.72,10.72,0,0,1-5.22.76c-4.05-.33-8.17-.58-12.33-.55-2.09,0-4.18.09-6.29.27-1.05.09-2.09.19-3.16.34a23.57,23.57,0,0,0-3.22.66,37.74,37.74,0,0,0-5.11,2c-.81.38-1.62.77-2.41,1.17l-1.18.6a5.64,5.64,0,0,1-1,.25c-1.62.27-3.4.36-5.12.5l-5.15.33c-5.06.29-10.82.67-16.53,1.27s-11.37,1.44-16.24,2.38c.4.07-.78.43-2.69.92l-3.29.92c-1.2.34-2.49.68-3.74,1.09-2.5.77-4.88,1.53-6.35,2.08s-2,.79-.82.63c-3.18.86-7.18,1.85-10.46,2.6s-5.83,1.26-6.07,1.39a26.58,26.58,0,0,1-5.87,1.78c-1.79.4-4.09.86-7,1.29a100.86,100.86,0,0,1-11,1,58.65,58.65,0,0,1-11.89-.79,23.13,23.13,0,0,1-5.34-1.55,9.52,9.52,0,0,1-2.08-1.26,6.58,6.58,0,0,1-.8-.78,7,7,0,0,1-.55-.84c-.45-.83-.45-.74-.23-.19l.09.23.25.46a5.32,5.32,0,0,0,.73.95,10.77,10.77,0,0,0,.88.77c.3.19.61.41.92.58a17.93,17.93,0,0,0,3,1.31c.62.21.7.29-.33,0a42.81,42.81,0,0,0,10,1.5,92.75,92.75,0,0,0,9.73-.07,153.57,153.57,0,0,0,19-2.4c6.24-1.16,12.4-2.63,18.48-4.31,3.08-.86,6-1.67,9-2.4,1.49-.34,3-.71,4.49-1l4.52-.9c6.05-1.1,12.17-1.9,18.33-2.48s12.35-.87,18.69-1.21c.79,0,1.6-.11,2.43-.18.39,0,.83-.07,1.29-.14l.68-.1.17,0,.26-.06L183,199a7.23,7.23,0,0,0,1.38-.57l1.05-.5c.69-.33,1.38-.65,2.07-.94a33.08,33.08,0,0,1,4.12-1.5c.69-.19,1.38-.35,2.07-.47.34-.07.69-.11,1-.16l1.12-.12a99.66,99.66,0,0,1,18.58.23l1,.08c.42,0,.91.07,1.43.07a14.7,14.7,0,0,0,3.65-.39,13.83,13.83,0,0,0,4.17-1.78l3.75-2.54,18.85-12.77q2.72-1.84,5.58-3.77l1.08-.74.69-.46a5.84,5.84,0,0,0,.59-.51,9.34,9.34,0,0,0,1.54-2.38,5.16,5.16,0,0,0,.48-2.47,3.4,3.4,0,0,0-1-2.25,4.25,4.25,0,0,0-2.13-1.12,5.57,5.57,0,0,0-1.31-.06,5.73,5.73,0,0,0-1.51.25,14.75,14.75,0,0,0-1.61.49c-.27.09-.55.18-.81.29l-.54.21c-.59.23-1.18.48-1.76.73-2.34,1-4.62,2.1-6.91,3.21l-6.87,3.38-3.44,1.68-1.71.8-.84.37-.73.3a.61.61,0,0,1-.13,0l-.06,0-.13,0c-.56-.19-1.08-.45-1.62-.68a19.57,19.57,0,0,1-3-1.77,13.47,13.47,0,0,1-2.44-2.23c-.8-1.07-.69-.91-.63-1.13-.06.1.34-.52.6-.86a12,12,0,0,1,.88-1.07c.15-.16.3-.32.46-.46s.31-.27.54-.47l1.25-1,5-4.19,1.23-1c.35-.31.71-.61,1.11-.93.8-.62,1.69-1.29,2.57-2.1a11.1,11.1,0,0,0,2.39-3,9,9,0,0,0,.72-1.91l.11-.5,0-.12s-.06-.05.09,0v-.11l0-.27a2.1,2.1,0,0,0-.39-1.36c-.09-.34-.17-.65-.26-1a9.91,9.91,0,0,0-.25-1L233,146.88l-.56-.67-.5-.6-.26-.3c-.09-.1-.23-.11-.35-.17l-.73-.29-.35-.12-.24-.08c-.32-.1-.64-.19-1-.26s-.65-.14-1-.2l-.51-.07-.77-.07a1.62,1.62,0,0,0-.75.12,6.58,6.58,0,0,0-.71.22,9,9,0,0,0-1,.44,11.89,11.89,0,0,0-1.69,1c-.5.37-.95.74-1.37,1.09l-1.2,1c-3.19,2.62-6.36,5.06-9.13,7.62a12.42,12.42,0,0,1-7.48,3.64,14.66,14.66,0,0,1-1.86.09h-1.08c-.37,0-.73,0-1.09,0a23.8,23.8,0,0,0-3.83.55c-1,.22-1.92.48-2.84.77l-.65.21a3,3,0,0,1-.49.1,2.82,2.82,0,0,1-.87,0,2.72,2.72,0,0,1-.46-.1l-.66-.21-1.6-.48-1.73-.53-.37-.1h-.34l-.55,0-.81,0a30.19,30.19,0,0,0-3.55,0,14.81,14.81,0,0,0-3.78.82,19.52,19.52,0,0,0-3.43,1.55,17.86,17.86,0,0,0-3.07,2.26,17.33,17.33,0,0,0-1.33,1.38l-.51.59c-.16.18-.32.35-.49.52a13.52,13.52,0,0,1-2.18,1.81l-.57.38a.37.37,0,0,1-.11,0h-.09l-.35,0-.76,0c-2.08.1-4.18.15-6.22.2l-11.42.27c-6.38.21-12.88.46-19.34.74l8.21.15c-6.58.08-13.17.21-15.7.38-14,.68-6.06.71-.66.95,3.88.07-1.35.46,4.72.5l-10.95.28c-.5.14,13.49-.46,10.45-.11-4.21,0-8.93.26-13.3.42,1.52.13,15.16-.37,14.49-.12-2.36.09-12.31,0-13.14.35-.17,0,4.21-.09,6.4-.14-6.74.23-12,.55-13.94.77s-.77.27,5.37.16c-4.26.16-10.29.35-14.75.8h0c2.22-.2,6.09-.4,8.16-.51-2.55.14-5.1.3-7.63.52h1.33l5.8-.32c-1.69.09-3.38.19-5.07.32l4.33,0c6-.18,11.85-.1,15.12-.19,13.24-.32,26.52-.37,39.83-.49l5-.08,2.52-.06,1.31-.06.34,0h.18l.29-.05.57-.09a2.73,2.73,0,0,1,.58-.14l.55-.27c.18-.09.37-.22.44-.26l.59-.39c.39-.26.78-.53,1.16-.83a18.47,18.47,0,0,0,2.13-1.93l.48-.53.41-.47a10.09,10.09,0,0,1,.72-.74,11.87,11.87,0,0,1,1.6-1.31,14.19,14.19,0,0,1,3.8-1.82l.51-.15.46-.11a9.19,9.19,0,0,1,1-.15,19,19,0,0,1,2.17-.07l2.22.07h0l.13,0,.57.17,1.14.34,1.14.34.29.1.42.13a8.52,8.52,0,0,0,.87.22A7.85,7.85,0,0,0,193.36,165.55Z"/><circle class="cls-1" cx="154.85" cy="69.84" r="4.68"/><line class="cls-6" x1="155.21" y1="79.13" x2="155.21" y2="71.52"/><path class="cls-2" d="M156.23,77.31s-.08,0-.1,0,.1-.22.06-.35h-.06l.09-.29c0-.19,0-.38,0-.56,0,0-.05,0-.06,0a1.5,1.5,0,0,1,0-.29v0l-.05,0a.51.51,0,0,1,0-.13c-.13-.55-.28-1.1-.43-1.7a2.21,2.21,0,0,1-.15-.37,3.76,3.76,0,0,1,0-.59c-.23,0-.35-.4-.58-.32,0-.12,0-.29-.05-.3a.63.63,0,0,1-.54-.43c0-.12,0-.31,0-.35s-.14.15-.2.09c-.07.9,0,1.78,0,2.69a18.3,18.3,0,0,1,.11,3v0a2.65,2.65,0,0,0,.09.9c.06.11.12.23.19.34a.76.76,0,0,1,.11-.14.46.46,0,0,0,0,.28c.1.25.21.11.37,0s.18,0,.25-.08a1.15,1.15,0,0,0,0,.19c.06,0,0-.24.07-.18s0,.16,0,.23,0-.27.12-.26-.12.22,0,.24,0-.08,0-.11c0,.24.14.37.26.15a1.17,1.17,0,0,0,0,.26h0a.89.89,0,0,0,0-.14v.13l.05,0,0-.1v.09L156,79c.07-.11.18-.21.18-.27A13.72,13.72,0,0,0,156.23,77.31Z"/><line class="cls-6" x1="155.03" y1="67.02" x2="155.03" y2="59.93"/><path class="cls-2" d="M156.06,65.33s-.08,0-.1,0,.1-.2.06-.32H156c0-.09.07-.18.1-.28s0-.34-.05-.52c0,0,0,0-.05,0a.84.84,0,0,1,0-.27v0h0c0-.05,0-.09,0-.13-.13-.51-.28-1-.43-1.58a1.42,1.42,0,0,1-.14-.35,2.53,2.53,0,0,1,0-.55c-.23,0-.34-.37-.58-.29,0-.11,0-.28-.05-.28a.64.64,0,0,1-.54-.41c0-.11.06-.28,0-.32s-.14.14-.2.08c-.07.85,0,1.66,0,2.51a16,16,0,0,1,.1,2.75v0a2.28,2.28,0,0,0,.1.84,3.3,3.3,0,0,0,.18.32l.11-.13c0,.11,0,.22,0,.26.1.23.21.1.37,0s.17,0,.24-.08v.18c.07,0,0-.22.08-.17s0,.15,0,.22,0-.25.12-.24-.12.21,0,.22,0-.07,0-.11c0,.23.13.35.25.15,0,.07,0,.17,0,.24h0a.5.5,0,0,1,0-.13V67l0,0a.3.3,0,0,0,0-.1V67l.1-.07c.07-.1.17-.2.18-.26Q156,66,156.06,65.33Z"/><line class="cls-6" x1="164.9" y1="69.81" x2="157.28" y2="69.81"/><path class="cls-2" d="M163.08,68.78s0,.08,0,.1-.23-.1-.35-.06v.07l-.3-.1-.56,0s0,0,0,.06a1.62,1.62,0,0,1-.29,0h-.05a.14.14,0,0,0,0,.06l-.14,0-1.69.43a2,2,0,0,1-.38.15,3.69,3.69,0,0,1-.58,0c0,.23-.41.34-.32.58-.12,0-.29,0-.3,0a.63.63,0,0,1-.43.54c-.13,0-.31-.06-.36,0s.16.14.09.21c.91.07,1.79,0,2.7,0a19.62,19.62,0,0,1,3-.1h0a2.93,2.93,0,0,0,.9-.09l.34-.19-.14-.11c.11,0,.23,0,.28,0,.25-.1.11-.22,0-.37s0-.18-.09-.25h.2c0-.07-.24,0-.19-.07s.16,0,.24,0-.27,0-.26-.12.22.12.24,0-.08,0-.12,0c.24,0,.38-.14.16-.26a2,2,0,0,0,.26,0h0l-.15,0h.14a.08.08,0,0,0,0,0,.23.23,0,0,0-.11,0h.1l-.08-.11c-.11-.07-.22-.17-.27-.17C164,68.83,163.56,68.79,163.08,68.78Z"/><line class="cls-6" x1="151.57" y1="69.81" x2="145.69" y2="69.81"/><path class="cls-2" d="M150.17,68.78s0,.08,0,.1-.18-.1-.27-.06v.07l-.23-.1-.43,0s0,0,0,.06a1,1,0,0,1-.23,0h0a.14.14,0,0,0,0,.06l-.1,0-1.31.43a1.61,1.61,0,0,1-.29.15,2.22,2.22,0,0,1-.45,0c0,.23-.31.34-.25.58-.09,0-.22,0-.23,0a.62.62,0,0,1-.33.54c-.1,0-.24-.06-.28,0s.13.14.07.21a20.62,20.62,0,0,0,2.08,0,11.74,11.74,0,0,1,2.28-.1h0a1.75,1.75,0,0,0,.69-.09l.27-.19-.12-.11c.09,0,.19,0,.22,0,.19-.1.08-.22,0-.37s0-.18-.07-.25h.16c0-.07-.19,0-.15-.07s.12,0,.19,0-.21,0-.2-.12.17.12.18,0-.06,0-.09,0c.18,0,.29-.14.12-.26.06,0,.14.05.2,0h0l-.11,0h.1s0,0,0,0a.16.16,0,0,0-.09,0h.08l-.06-.11c-.09-.07-.17-.17-.21-.17A10.45,10.45,0,0,0,150.17,68.78Z"/><circle class="cls-1" cx="268.24" cy="87.03" r="2.42"/><line class="cls-6" x1="268.42" y1="91.83" x2="268.42" y2="87.9"/><path class="cls-2" d="M269.45,90.89s-.08,0-.1,0,.1-.11.06-.18h-.07l.1-.15a2.5,2.5,0,0,0-.05-.29h-.05s0-.09,0-.15v0h0a.17.17,0,0,1,0-.07c-.13-.28-.28-.56-.43-.87a.61.61,0,0,1-.14-.2.76.76,0,0,1,0-.3c-.23,0-.34-.21-.58-.16,0-.06,0-.15-.05-.16a.72.72,0,0,1-.54-.22c0-.06.06-.16,0-.18s-.14.08-.2,0a9.36,9.36,0,0,0,0,1.4,4.92,4.92,0,0,1,.1,1.52v0a.77.77,0,0,0,.1.47l.18.18.11-.08c0,.06,0,.12,0,.14s.21.06.37,0,.17,0,.24,0v.1c.07,0,0-.13.08-.1s0,.08,0,.13,0-.15.12-.14-.12.11,0,.12,0,0,0-.06.14.2.26.08c0,0,0,.1,0,.14h0s0-.06,0-.08v.07h0s0,0,0,0v0l.1,0c.07-.06.17-.11.17-.14A3.86,3.86,0,0,0,269.45,90.89Z"/><line class="cls-6" x1="268.33" y1="85.58" x2="268.33" y2="81.91"/><path class="cls-2" d="M269.36,84.7h-.1c0-.06.1-.11.06-.17h-.07l.1-.14a2.56,2.56,0,0,0-.05-.27s0,0-.05,0,0-.09,0-.15v0h-.05a.13.13,0,0,1,0-.06c-.13-.26-.28-.53-.43-.82a.8.8,0,0,1-.15-.18.86.86,0,0,1,0-.28c-.23,0-.34-.19-.58-.15,0-.06,0-.14-.05-.15a.75.75,0,0,1-.54-.21s.06-.14,0-.17-.14.08-.2,0a8,8,0,0,0,0,1.29,4.31,4.31,0,0,1,.1,1.42v0a.66.66,0,0,0,.1.43l.18.16.11-.07c0,.06,0,.12,0,.14s.21,0,.37,0,.17,0,.24,0a.34.34,0,0,1,0,.1c.07,0,0-.12.08-.09s0,.08,0,.11,0-.13.12-.12-.12.1,0,.11,0,0,0-.05.14.18.26.07-.05.09,0,.13h0a.64.64,0,0,1,0-.07v.06h0s0,0,0,0v0l.1,0c.07,0,.17-.1.17-.13A3.28,3.28,0,0,0,269.36,84.7Z"/><line class="cls-6" x1="273.43" y1="87.02" x2="269.49" y2="87.02"/><path class="cls-2" d="M272.49,86s0,.08,0,.1-.12-.1-.18-.06v.07l-.16-.1-.29,0a0,0,0,0,1,0,0,.26.26,0,0,1-.15,0h0a.11.11,0,0,0,0,.05h-.07l-.87.43a.73.73,0,0,1-.2.14.76.76,0,0,1-.3,0c0,.23-.21.34-.17.58-.06,0-.15,0-.15,0a.76.76,0,0,1-.22.54c-.07,0-.16-.06-.19,0s.09.14.05.2a9.21,9.21,0,0,0,1.39,0,5,5,0,0,1,1.52-.1h0a.73.73,0,0,0,.46-.1c.06,0,.12-.12.18-.18l-.07-.11c.06,0,.12,0,.14,0s.06-.21,0-.37,0-.17-.05-.24h.11c0-.07-.13,0-.1-.08s.08,0,.12,0-.14,0-.13-.12.11.12.12,0,0,0-.06,0,.19-.13.08-.25.1,0,.14,0h0l-.08,0h.07s0,0,0-.05l-.05,0h0a.42.42,0,0,0,0-.1c-.05-.07-.11-.17-.14-.17A3.66,3.66,0,0,0,272.49,86Z"/><line class="cls-6" x1="266.55" y1="87.02" x2="263.51" y2="87.02"/><path class="cls-2" d="M265.82,86s0,.08,0,.1-.08-.1-.13-.06v.07l-.12-.1-.22,0v0s-.08,0-.12,0h0a.43.43,0,0,1,0,.05h-.05l-.68.43a.48.48,0,0,1-.15.14c-.07,0-.16,0-.23,0,0,.23-.16.34-.13.58,0,0-.11,0-.12,0a.81.81,0,0,1-.17.54s-.12-.06-.14,0,.06.14,0,.2a5.47,5.47,0,0,0,1.07,0,3,3,0,0,1,1.18-.1h0a.48.48,0,0,0,.36-.1c.05,0,.09-.12.14-.18l-.06-.11c.05,0,.1,0,.11,0s.05-.21,0-.37,0-.17,0-.24h.07c0-.07-.09,0-.07-.08s.06,0,.09,0-.1,0-.1-.12.09.12.09,0,0,0,0,0a.15.15,0,0,0,.06-.25s.07,0,.11,0h0a.11.11,0,0,1-.06,0h.05v-.05l0,0h0l0-.1c-.05-.07-.09-.17-.11-.17A2.28,2.28,0,0,0,265.82,86Z"/><path class="cls-1" d="M211.84,91.62c10.39-2,20.78-4,31.16-6,5.17-1,8.12-4.79,7.57-9.51-.68-5.75-4-8.76-9.59-8.38-2.47.17-3.4-.45-3.71-3.09-1.22-10.51-12-17.16-21.72-13.2-2.81,1.15-4.66.65-7-.56-13.9-7.18-29.78,1.23-31.52,16.71-.3,2.74-1.17,4.45-4,5.3-4.56,1.38-7.08,4.81-7.91,9.37-1.71,9.43,6,17.1,15.53,15.39,6.43-1.16,12.86-2.41,19.28-3.67,7.82-1.54,3,23.54,11.4,21.53S206.33,92.74,211.84,91.62Z"/><path class="cls-2" d="M240,65.13c-.09.05-.11.2-.22.11a16,16,0,0,1-.42-2.29l-.14-.83-.21-.8a14.56,14.56,0,0,0-.48-1.59A16.36,16.36,0,0,0,235,53.87l-.36-.15a21.62,21.62,0,0,0-2.07-2,20.08,20.08,0,0,0-2.42-1.63A17.5,17.5,0,0,0,224.51,48l-1.4-.21-1.41,0H221l-.7.05-1.41.13-1.37.29a7.78,7.78,0,0,0-1.36.36l-2.26.79a4.18,4.18,0,0,1-3.08-.17c-.3-.12-.6-.25-.92-.41s-.78-.35-1.16-.52a23.9,23.9,0,0,0-2.46-1c.16.11.22.19-.45,0a24.12,24.12,0,0,0-11.11-1l-1.83.37c-.47.13-.57.21-.64.28-.91.28-1.77.54-2.58.81l-2.26,1A23.14,23.14,0,0,0,177.13,60a25.86,25.86,0,0,0-1.91,7.46,5.36,5.36,0,0,1-.73,2.55,3.77,3.77,0,0,1-2.13,1.33,12.29,12.29,0,0,0-6.55,5,15.31,15.31,0,0,0-2.28,7.81,14.76,14.76,0,0,0,2,7.94,13.92,13.92,0,0,0,6.17,5.51,14.48,14.48,0,0,0,6.87,1.16A61.13,61.13,0,0,0,185,97.55c3.06-.62,6.55-1.27,10-1.91l5.12-.93a1.88,1.88,0,0,1,1.67.45,4.48,4.48,0,0,1,1.06,1.68c.05-.26.47.31.9,1.43a33,33,0,0,1,1.19,4.32c.65,3.16,1.33,6,1.39,4.55a20.15,20.15,0,0,0,1.7,6.15,3.08,3.08,0,0,0,1.54,1.48,1.68,1.68,0,0,0,.91,0c.09-.06.2-.15.34-.23a3.62,3.62,0,0,0,.49-.32,2.06,2.06,0,0,0,.92-1.22,4.87,4.87,0,0,0,.17-1.32,12.25,12.25,0,0,0-.21-2.06,50.11,50.11,0,0,0-1.7-6.18,69.17,69.17,0,0,1-1.88-7.06,10.18,10.18,0,0,1-.09-4,4.69,4.69,0,0,1,.45-1.12,3.57,3.57,0,0,1,.8-1,4.22,4.22,0,0,1,1.58-.79c.57-.15.51-.18.15-.15l-.15,0a2.44,2.44,0,0,0-.37.09,3.35,3.35,0,0,0-.92.36,3.69,3.69,0,0,0-.94.78,3.85,3.85,0,0,0-.63,1A6.93,6.93,0,0,0,208,94.4c0,.47,0,.54-.14-.22a17.38,17.38,0,0,0,.51,3.42c.23,1,.5,2,.78,3,.54,1.91,1.11,3.75,1.57,5.55a20.92,20.92,0,0,1,.79,5,2.8,2.8,0,0,1-.29,1.45c-.07.08-.08.13-.18.17a1.17,1.17,0,0,1-.42.15.87.87,0,0,1-.3,0s0,0,0,0-.05,0-.09-.07a4,4,0,0,1-.79-1.44,26.7,26.7,0,0,1-1.14-5.1c-.29-1.86-.53-3.78-.88-5.77-.18-1-.37-2-.67-3.08a13.22,13.22,0,0,0-1.38-3.35c-.22-.31-.41-.6-.67-.91a6.59,6.59,0,0,0-.94-.87,5.06,5.06,0,0,0-1.25-.69,4.78,4.78,0,0,0-1.39-.33,7.53,7.53,0,0,0-2.19.18l-1.41.27-5.67,1.09L180.48,95a12.56,12.56,0,0,1-4.81,0,10.16,10.16,0,0,1-4.24-1.92,10.37,10.37,0,0,1-4-8.24c0-.28,0-.6,0-1s.09-.8.13-1.27a12,12,0,0,1,1-3.14,8.1,8.1,0,0,1,2.46-3,9.23,9.23,0,0,1,2-1.1,11.73,11.73,0,0,0,3.41-1.57A6.66,6.66,0,0,0,178.11,72a8.29,8.29,0,0,0,.91-2.19,15,15,0,0,0,.36-2l.27-1.57.13-.79c.05-.27.15-.52.22-.78.15-.53.31-1,.46-1.58s.44-1,.66-1.54l.33-.77.44-.73a17.78,17.78,0,0,1,4.48-5.29,21.43,21.43,0,0,1,3-2l1.65-.75a14.57,14.57,0,0,1,1.72-.6,18.76,18.76,0,0,1,7.23-.73,12.56,12.56,0,0,1,1.81.27l.9.15c.3.07.58.18.88.26.58.19,1.17.34,1.74.55l1.67.74c.51.2,1.19.58,1.91.88a10.38,10.38,0,0,0,2.4.71,9.28,9.28,0,0,0,5-.63,13.51,13.51,0,0,1,6.29-1,13.37,13.37,0,0,1,5.57,1.76,14.46,14.46,0,0,1,4,3.4,15.22,15.22,0,0,1,2.18,3.87c.19.65.39,1.25.52,1.82s.19,1.16.27,1.68c.05.34.11.68.2,1.07a6.06,6.06,0,0,0,.51,1.38,4.23,4.23,0,0,0,2.65,2.22,8,8,0,0,0,2.84.22,8.57,8.57,0,0,1,3.13.35c1.86.57,3.07,2.14,3.66,4.33l.19.83.13.86a7,7,0,0,1,0,1.51,5.74,5.74,0,0,1-.87,2.64,7.49,7.49,0,0,1-4.43,3l-11.54,2.72,5-.68c-4,.76-8,1.52-9.49,1.92-8.44,1.88-3.58,1.23-.24,1,2.39-.29-.74.58,3,0l-6.65,1.27c-.27.22,8.17-1.67,6.38-1-2.57.44-5.41,1.09-8.07,1.6,1,0,9.22-1.7,8.85-1.41-1.42.33-7.52,1.15-8,1.52-.09.07,2.57-.43,3.9-.69-8.17,1.67-12.62,2.8-5.1,1.64-2.6.49-6.28,1.09-9,1.66h0l5-.9-4.67.89.84,0c1.16-.19,2.34-.39,3.55-.62l-3.1.59c.79-.06,1.69-.15,2.69-.26,3.71-.54,7.29-1,9.28-1.35l12.1-2.25,3-.57,1.51-.28.76-.14.38-.08.45-.1a12.16,12.16,0,0,0,6.59-3.72,10.56,10.56,0,0,0,2.61-7.41l-.07-1-.13-.89a14.43,14.43,0,0,0-.39-1.77A11.86,11.86,0,0,0,251,69.61,9.59,9.59,0,0,0,248,66.74a10.44,10.44,0,0,0-3.76-1.43,13.6,13.6,0,0,0-1.89-.19c-.31,0-.61,0-.92,0l-.82,0c-.4,0-.76,0-.65,0Z"/><path class="cls-2" d="M180.93,19.42c0,.1.11.21-.09.24-.62.06-1.17-.23-1.81,0v.17a6.22,6.22,0,0,0-1.54.32,6.07,6.07,0,0,0-2.14,2c.06,0,.11,0,.07.12a14.09,14.09,0,0,0-.75,1.32l-.06.24a.18.18,0,0,0,.1.13l-.22.65a5.7,5.7,0,0,0,1,3.83,5.35,5.35,0,0,0,3.11,2.13,8.69,8.69,0,0,0,1.54,0,6.37,6.37,0,0,0,2.25-.33c-.17-.25.1-.59.23-.94s.2-.68-.08-.83c.26-.18.6-.55.47-.67a3.09,3.09,0,0,1-.78-1.38c0-.18.2-.45.11-.53s-.36.23-.51.11a1.66,1.66,0,0,1-.86,1.11,1.29,1.29,0,0,1-1.42-.18.8.8,0,0,1-.5-.4,1.5,1.5,0,0,1-.16-1.13,1.57,1.57,0,0,1,.75-1,1.32,1.32,0,0,1,.86-.17h.07a6.91,6.91,0,0,1,1.26.33,2.45,2.45,0,0,1,.72.22l.09-.41c.13.22.23.45.36.51.4.46.61.12.87-.31.08-.26.45-.08.46-.49a5.45,5.45,0,0,1,.21.65c.2,0-.36-.76-.05-.69.05.28.25.53.31.82.21-.16-.24-1-.05-1,.15.14,0,.89.29.87.06,0,0-.3-.07-.45a4.89,4.89,0,0,0,.48.93c.12.13.27,0,.32-.48.07.34,0,.82,0,1.17h0a4.75,4.75,0,0,0,0-.65c0,.2,0,.41,0,.61l.11-.11a1.94,1.94,0,0,0,0-.48,3,3,0,0,1,0,.42,2.73,2.73,0,0,0,.23-.38,3.4,3.4,0,0,0,.14-1.41A6.2,6.2,0,0,0,180.93,19.42Z"/><path class="cls-2" d="M217.56,38.48c0,.1.14.21-.11.24a7.66,7.66,0,0,0-2.19,0l0,.18a7.52,7.52,0,0,0-1.85.44,7.41,7.41,0,0,0-2.62,2.41c.07,0,.12,0,.07.14a11.25,11.25,0,0,0-.91,1.61c0,.1-.05.2-.08.3a.22.22,0,0,0,.08.14c-.1.29-.17.56-.25.8a7.12,7.12,0,0,0,1.13,4.74,6.7,6.7,0,0,0,3.83,2.78,9.35,9.35,0,0,0,2,.08,7.48,7.48,0,0,0,2.89-.44c-.18-.25.19-.63.42-1s.36-.8,0-.91c.37-.27.83-.79.71-.92a2.73,2.73,0,0,1-.57-1.82c0-.31.27-.79.18-.92s-.37.4-.52.21A3,3,0,0,1,218,48.82a2.67,2.67,0,0,1-2.86-.42,1.93,1.93,0,0,1-.84-.88,2.9,2.9,0,0,1,1.17-3.86,2.67,2.67,0,0,1,1.56-.35h.13a5.61,5.61,0,0,1,2.16.74,4.65,4.65,0,0,1,1,.54V44a4.23,4.23,0,0,0,.5.79c.27.35.4.43.54.33a1.55,1.55,0,0,0,.34-.62c.05-.34.47-.06.42-.58a5.15,5.15,0,0,1,.3.86c.2,0-.47-1-.13-.89.09.35.32.69.39,1.07.22-.2-.33-1.28-.14-1.3.18.17.12,1.12.38,1.12.06,0,0-.39-.1-.58a9.17,9.17,0,0,0,.54,1.2c.13.17.27.05.3-.58a14.17,14.17,0,0,1,.08,1.47h0a7.6,7.6,0,0,0,0-.82c0,.25,0,.51,0,.76a1.47,1.47,0,0,0,.1-.13,3,3,0,0,0,0-.6,4.52,4.52,0,0,1,0,.52,2.29,2.29,0,0,0,.23-.47,4.66,4.66,0,0,0,.07-1.71,7.55,7.55,0,0,0-6.69-5.4Z"/><path class="cls-2" d="M190.11,0s.07.08-.05.1a3.83,3.83,0,0,0-1.12,0V.2a4.23,4.23,0,0,0-.94.25,3.71,3.71,0,0,0-1.33,1.22s.05,0,0,.06a5.86,5.86,0,0,0-.46.82l0,.15s0,.06,0,.07-.08.29-.12.42a3.61,3.61,0,0,0,2.49,4,4.15,4.15,0,0,0,1,.09A3.71,3.71,0,0,0,191.16,7c-.08-.1.13-.27.28-.48s.24-.39.09-.42c.21-.15.48-.46.43-.51s-.15-.45-.09-1A2.15,2.15,0,0,0,192,4c-.05-.12-.15.27-.21.14a2,2,0,0,1-1.2,1.63,1.9,1.9,0,0,1-2-.32,1.53,1.53,0,0,1-.54-.64,2,2,0,0,1-.13-1.42,2,2,0,0,1,.95-1.19,1.83,1.83,0,0,1,1.05-.25H190a2.93,2.93,0,0,1,1.42.55,2.52,2.52,0,0,1,.53.41l-.06-.31c.13.2.23.42.3.49.25.45.29.16.35-.11s.2,0,.15-.29a2.9,2.9,0,0,1,.16.47c.09,0-.24-.56-.09-.47s.16.38.21.58c.09-.1-.19-.69-.12-.69s.1.59.21.6a.87.87,0,0,0-.07-.3c.24.6.34,1,.37.34a6.66,6.66,0,0,1,.05.78h0a2.94,2.94,0,0,0,0-.42,2.61,2.61,0,0,1,0,.4l.05-.07c0-.11,0-.21,0-.32,0,.09,0,.19,0,.28a2.3,2.3,0,0,0,.09-.25,2.36,2.36,0,0,0,0-.86A3.86,3.86,0,0,0,190.11,0Z"/></g></g></svg>